<svg width="375" height="812" viewBox="0 0 375 812" fill="none" xmlns="http://www.w3.org/2000/svg">
<g clip-path="url(#clip0_327_5282)">
<rect width="375" height="812" fill="white"/>
<rect x="25" y="733" width="325" height="45" rx="8" fill="#0085FE"/>
<path d="M122.841 754.988C123.392 755.091 123.844 755.366 124.199 755.814C124.554 756.262 124.731 756.775 124.731 757.354C124.731 757.877 124.6 758.339 124.339 758.74C124.087 759.132 123.718 759.44 123.233 759.664C122.748 759.888 122.174 760 121.511 760H117.297V750.228H121.329C121.992 750.228 122.561 750.335 123.037 750.55C123.522 750.765 123.886 751.063 124.129 751.446C124.381 751.829 124.507 752.263 124.507 752.748C124.507 753.317 124.353 753.793 124.045 754.176C123.746 754.559 123.345 754.829 122.841 754.988ZM119.257 754.26H121.049C121.516 754.26 121.875 754.157 122.127 753.952C122.379 753.737 122.505 753.434 122.505 753.042C122.505 752.65 122.379 752.347 122.127 752.132C121.875 751.917 121.516 751.81 121.049 751.81H119.257V754.26ZM121.231 758.404C121.707 758.404 122.076 758.292 122.337 758.068C122.608 757.844 122.743 757.527 122.743 757.116C122.743 756.696 122.603 756.369 122.323 756.136C122.043 755.893 121.665 755.772 121.189 755.772H119.257V758.404H121.231ZM130.829 760.098C129.914 760.098 129.074 759.883 128.309 759.454C127.544 759.025 126.937 758.432 126.489 757.676C126.041 756.911 125.817 756.047 125.817 755.086C125.817 754.134 126.041 753.28 126.489 752.524C126.937 751.759 127.544 751.161 128.309 750.732C129.074 750.303 129.914 750.088 130.829 750.088C131.753 750.088 132.593 750.303 133.349 750.732C134.114 751.161 134.716 751.759 135.155 752.524C135.603 753.28 135.827 754.134 135.827 755.086C135.827 756.047 135.603 756.911 135.155 757.676C134.716 758.432 134.114 759.025 133.349 759.454C132.584 759.883 131.744 760.098 130.829 760.098ZM130.829 758.348C131.417 758.348 131.935 758.217 132.383 757.956C132.831 757.685 133.181 757.303 133.433 756.808C133.685 756.313 133.811 755.739 133.811 755.086C133.811 754.433 133.685 753.863 133.433 753.378C133.181 752.883 132.831 752.505 132.383 752.244C131.935 751.983 131.417 751.852 130.829 751.852C130.241 751.852 129.718 751.983 129.261 752.244C128.813 752.505 128.463 752.883 128.211 753.378C127.959 753.863 127.833 754.433 127.833 755.086C127.833 755.739 127.959 756.313 128.211 756.808C128.463 757.303 128.813 757.685 129.261 757.956C129.718 758.217 130.241 758.348 130.829 758.348ZM141.821 760.098C140.907 760.098 140.067 759.883 139.301 759.454C138.536 759.025 137.929 758.432 137.481 757.676C137.033 756.911 136.809 756.047 136.809 755.086C136.809 754.134 137.033 753.28 137.481 752.524C137.929 751.759 138.536 751.161 139.301 750.732C140.067 750.303 140.907 750.088 141.821 750.088C142.745 750.088 143.585 750.303 144.341 750.732C145.107 751.161 145.709 751.759 146.147 752.524C146.595 753.28 146.819 754.134 146.819 755.086C146.819 756.047 146.595 756.911 146.147 757.676C145.709 758.432 145.107 759.025 144.341 759.454C143.576 759.883 142.736 760.098 141.821 760.098ZM141.821 758.348C142.409 758.348 142.927 758.217 143.375 757.956C143.823 757.685 144.173 757.303 144.425 756.808C144.677 756.313 144.803 755.739 144.803 755.086C144.803 754.433 144.677 753.863 144.425 753.378C144.173 752.883 143.823 752.505 143.375 752.244C142.927 751.983 142.409 751.852 141.821 751.852C141.233 751.852 140.711 751.983 140.253 752.244C139.805 752.505 139.455 752.883 139.203 753.378C138.951 753.863 138.825 754.433 138.825 755.086C138.825 755.739 138.951 756.313 139.203 756.808C139.455 757.303 139.805 757.685 140.253 757.956C140.711 758.217 141.233 758.348 141.821 758.348ZM153.794 760L150.238 755.646V760H148.278V750.228H150.238V754.61L153.794 750.228H156.16L152.128 755.072L156.272 760H153.794ZM166.889 758.138H162.997L162.353 760H160.295L163.809 750.214H166.091L169.605 760H167.533L166.889 758.138ZM166.357 756.57L164.943 752.482L163.529 756.57H166.357ZM178.044 753.252C178.044 753.775 177.918 754.265 177.666 754.722C177.423 755.179 177.036 755.548 176.504 755.828C175.981 756.108 175.319 756.248 174.516 756.248H172.878V760H170.918V750.228H174.516C175.272 750.228 175.916 750.359 176.448 750.62C176.98 750.881 177.377 751.241 177.638 751.698C177.909 752.155 178.044 752.673 178.044 753.252ZM174.432 754.666C174.973 754.666 175.375 754.545 175.636 754.302C175.897 754.05 176.028 753.7 176.028 753.252C176.028 752.3 175.496 751.824 174.432 751.824H172.878V754.666H174.432ZM186.562 753.252C186.562 753.775 186.436 754.265 186.184 754.722C185.941 755.179 185.554 755.548 185.022 755.828C184.499 756.108 183.836 756.248 183.034 756.248H181.396V760H179.436V750.228H183.034C183.79 750.228 184.434 750.359 184.966 750.62C185.498 750.881 185.894 751.241 186.156 751.698C186.426 752.155 186.562 752.673 186.562 753.252ZM182.95 754.666C183.491 754.666 183.892 754.545 184.154 754.302C184.415 754.05 184.546 753.7 184.546 753.252C184.546 752.3 184.014 751.824 182.95 751.824H181.396V754.666H182.95ZM192.489 760.098C191.575 760.098 190.735 759.883 189.969 759.454C189.204 759.025 188.597 758.432 188.149 757.676C187.701 756.911 187.477 756.047 187.477 755.086C187.477 754.134 187.701 753.28 188.149 752.524C188.597 751.759 189.204 751.161 189.969 750.732C190.735 750.303 191.575 750.088 192.489 750.088C193.413 750.088 194.253 750.303 195.009 750.732C195.775 751.161 196.377 751.759 196.815 752.524C197.263 753.28 197.487 754.134 197.487 755.086C197.487 756.047 197.263 756.911 196.815 757.676C196.377 758.432 195.775 759.025 195.009 759.454C194.244 759.883 193.404 760.098 192.489 760.098ZM192.489 758.348C193.077 758.348 193.595 758.217 194.043 757.956C194.491 757.685 194.841 757.303 195.093 756.808C195.345 756.313 195.471 755.739 195.471 755.086C195.471 754.433 195.345 753.863 195.093 753.378C194.841 752.883 194.491 752.505 194.043 752.244C193.595 751.983 193.077 751.852 192.489 751.852C191.901 751.852 191.379 751.983 190.921 752.244C190.473 752.505 190.123 752.883 189.871 753.378C189.619 753.863 189.493 754.433 189.493 755.086C189.493 755.739 189.619 756.313 189.871 756.808C190.123 757.303 190.473 757.685 190.921 757.956C191.379 758.217 191.901 758.348 192.489 758.348ZM200.905 750.228V760H198.945V750.228H200.905ZM211.2 760H209.24L204.802 753.294V760H202.842V750.214H204.802L209.24 756.934V750.214H211.2V760ZM219.787 750.228V751.81H217.183V760H215.223V751.81H212.619V750.228H219.787ZM231.871 750.228V760H229.911V753.644L227.293 760H225.809L223.177 753.644V760H221.217V750.228H223.443L226.551 757.494L229.659 750.228H231.871ZM235.769 751.81V754.26H239.059V755.814H235.769V758.404H239.479V760H233.809V750.214H239.479V751.81H235.769ZM249.618 760H247.658L243.22 753.294V760H241.26V750.214H243.22L247.658 756.934V750.214H249.618V760ZM258.205 750.228V751.81H255.601V760H253.641V751.81H251.037V750.228H258.205Z" fill="white"/>
<path d="M30.597 127.126C29.757 127.126 29.001 126.982 28.329 126.694C27.657 126.394 27.129 125.974 26.745 125.434C26.361 124.894 26.169 124.264 26.169 123.544H28.365C28.413 124.084 28.623 124.528 28.995 124.876C29.379 125.224 29.913 125.398 30.597 125.398C31.305 125.398 31.857 125.23 32.253 124.894C32.649 124.546 32.847 124.102 32.847 123.562C32.847 123.142 32.721 122.8 32.469 122.536C32.229 122.272 31.923 122.068 31.551 121.924C31.191 121.78 30.687 121.624 30.039 121.456C29.223 121.24 28.557 121.024 28.041 120.808C27.537 120.58 27.105 120.232 26.745 119.764C26.385 119.296 26.205 118.672 26.205 117.892C26.205 117.172 26.385 116.542 26.745 116.002C27.105 115.462 27.609 115.048 28.257 114.76C28.905 114.472 29.655 114.328 30.507 114.328C31.719 114.328 32.709 114.634 33.477 115.246C34.257 115.846 34.689 116.674 34.773 117.73H32.505C32.469 117.274 32.253 116.884 31.857 116.56C31.461 116.236 30.939 116.074 30.291 116.074C29.703 116.074 29.223 116.224 28.851 116.524C28.479 116.824 28.293 117.256 28.293 117.82C28.293 118.204 28.407 118.522 28.635 118.774C28.875 119.014 29.175 119.206 29.535 119.35C29.895 119.494 30.387 119.65 31.011 119.818C31.839 120.046 32.511 120.274 33.027 120.502C33.555 120.73 33.999 121.084 34.359 121.564C34.731 122.032 34.917 122.662 34.917 123.454C34.917 124.09 34.743 124.69 34.395 125.254C34.059 125.818 33.561 126.274 32.901 126.622C32.253 126.958 31.485 127.126 30.597 127.126ZM46.4283 121.798C46.4283 122.17 46.4043 122.506 46.3563 122.806H38.7783C38.8383 123.598 39.1323 124.234 39.6603 124.714C40.1883 125.194 40.8363 125.434 41.6043 125.434C42.7083 125.434 43.4883 124.972 43.9443 124.048H46.1583C45.8583 124.96 45.3123 125.71 44.5203 126.298C43.7403 126.874 42.7683 127.162 41.6043 127.162C40.6563 127.162 39.8043 126.952 39.0483 126.532C38.3043 126.1 37.7163 125.5 37.2843 124.732C36.8643 123.952 36.6543 123.052 36.6543 122.032C36.6543 121.012 36.8583 120.118 37.2663 119.35C37.6863 118.57 38.2683 117.97 39.0123 117.55C39.7683 117.13 40.6323 116.92 41.6043 116.92C42.5403 116.92 43.3743 117.124 44.1063 117.532C44.8383 117.94 45.4083 118.516 45.8163 119.26C46.2243 119.992 46.4283 120.838 46.4283 121.798ZM44.2863 121.15C44.2743 120.394 44.0043 119.788 43.4763 119.332C42.9483 118.876 42.2943 118.648 41.5143 118.648C40.8063 118.648 40.2003 118.876 39.6963 119.332C39.1923 119.776 38.8923 120.382 38.7963 121.15H44.2863ZM50.4997 113.68V127H48.4477V113.68H50.4997ZM62.2838 121.798C62.2838 122.17 62.2598 122.506 62.2118 122.806H54.6338C54.6938 123.598 54.9878 124.234 55.5158 124.714C56.0438 125.194 56.6918 125.434 57.4598 125.434C58.5638 125.434 59.3438 124.972 59.7998 124.048H62.0137C61.7138 124.96 61.1678 125.71 60.3758 126.298C59.5958 126.874 58.6238 127.162 57.4598 127.162C56.5118 127.162 55.6598 126.952 54.9038 126.532C54.1598 126.1 53.5718 125.5 53.1398 124.732C52.7198 123.952 52.5098 123.052 52.5098 122.032C52.5098 121.012 52.7138 120.118 53.1218 119.35C53.5418 118.57 54.1238 117.97 54.8678 117.55C55.6238 117.13 56.4878 116.92 57.4598 116.92C58.3958 116.92 59.2298 117.124 59.9618 117.532C60.6938 117.94 61.2638 118.516 61.6718 119.26C62.0798 119.992 62.2838 120.838 62.2838 121.798ZM60.1418 121.15C60.1298 120.394 59.8598 119.788 59.3318 119.332C58.8038 118.876 58.1498 118.648 57.3698 118.648C56.6618 118.648 56.0558 118.876 55.5518 119.332C55.0478 119.776 54.7478 120.382 54.6518 121.15H60.1418ZM63.6191 122.032C63.6191 121.012 63.8231 120.118 64.2311 119.35C64.6511 118.57 65.2271 117.97 65.9591 117.55C66.6911 117.13 67.5311 116.92 68.4791 116.92C69.6791 116.92 70.6691 117.208 71.4491 117.784C72.2411 118.348 72.7751 119.158 73.0511 120.214H70.8371C70.6571 119.722 70.3691 119.338 69.9731 119.062C69.5771 118.786 69.0791 118.648 68.4791 118.648C67.6391 118.648 66.9671 118.948 66.4631 119.548C65.9711 120.136 65.7251 120.964 65.7251 122.032C65.7251 123.1 65.9711 123.934 66.4631 124.534C66.9671 125.134 67.6391 125.434 68.4791 125.434C69.6671 125.434 70.4531 124.912 70.8371 123.868H73.0511C72.7631 124.876 72.2231 125.68 71.4311 126.28C70.6391 126.868 69.6551 127.162 68.4791 127.162C67.5311 127.162 66.6911 126.952 65.9591 126.532C65.2271 126.1 64.6511 125.5 64.2311 124.732C63.8231 123.952 63.6191 123.052 63.6191 122.032ZM77.4901 118.756V124.246C77.4901 124.618 77.5741 124.888 77.7421 125.056C77.9221 125.212 78.2221 125.29 78.6421 125.29H79.9021V127H78.2821C77.3581 127 76.6501 126.784 76.1581 126.352C75.6661 125.92 75.4201 125.218 75.4201 124.246V118.756H74.2501V117.082H75.4201V114.616H77.4901V117.082H79.9021V118.756H77.4901ZM95.3971 117.082L89.3131 131.662H87.1891L89.2051 126.838L85.2991 117.082H87.5851L90.3751 124.642L93.2731 117.082H95.3971ZM101.248 127.162C100.312 127.162 99.4657 126.952 98.7097 126.532C97.9537 126.1 97.3597 125.5 96.9277 124.732C96.4957 123.952 96.2797 123.052 96.2797 122.032C96.2797 121.024 96.5017 120.13 96.9457 119.35C97.3897 118.57 97.9957 117.97 98.7637 117.55C99.5317 117.13 100.39 116.92 101.338 116.92C102.286 116.92 103.144 117.13 103.912 117.55C104.68 117.97 105.286 118.57 105.73 119.35C106.174 120.13 106.396 121.024 106.396 122.032C106.396 123.04 106.168 123.934 105.712 124.714C105.256 125.494 104.632 126.1 103.84 126.532C103.06 126.952 102.196 127.162 101.248 127.162ZM101.248 125.38C101.776 125.38 102.268 125.254 102.724 125.002C103.192 124.75 103.57 124.372 103.858 123.868C104.146 123.364 104.29 122.752 104.29 122.032C104.29 121.312 104.152 120.706 103.876 120.214C103.6 119.71 103.234 119.332 102.778 119.08C102.322 118.828 101.83 118.702 101.302 118.702C100.774 118.702 100.282 118.828 99.8257 119.08C99.3817 119.332 99.0277 119.71 98.7637 120.214C98.4997 120.706 98.3677 121.312 98.3677 122.032C98.3677 123.1 98.6377 123.928 99.1777 124.516C99.7297 125.092 100.42 125.38 101.248 125.38ZM117.406 117.082V127H115.354V125.83C115.03 126.238 114.604 126.562 114.076 126.802C113.56 127.03 113.008 127.144 112.42 127.144C111.64 127.144 110.938 126.982 110.314 126.658C109.702 126.334 109.216 125.854 108.856 125.218C108.508 124.582 108.334 123.814 108.334 122.914V117.082H110.368V122.608C110.368 123.496 110.59 124.18 111.034 124.66C111.478 125.128 112.084 125.362 112.852 125.362C113.62 125.362 114.226 125.128 114.67 124.66C115.126 124.18 115.354 123.496 115.354 122.608V117.082H117.406ZM122.166 118.522C122.466 118.018 122.862 117.628 123.354 117.352C123.858 117.064 124.452 116.92 125.136 116.92V119.044H124.614C123.81 119.044 123.198 119.248 122.778 119.656C122.37 120.064 122.166 120.772 122.166 121.78V127H120.114V117.082H122.166V118.522ZM131.014 121.996C131.014 121 131.218 120.118 131.626 119.35C132.046 118.582 132.61 117.988 133.318 117.568C134.038 117.136 134.836 116.92 135.712 116.92C136.36 116.92 136.996 117.064 137.62 117.352C138.256 117.628 138.76 118 139.132 118.468V113.68H141.202V127H139.132V125.506C138.796 125.986 138.328 126.382 137.728 126.694C137.14 127.006 136.462 127.162 135.694 127.162C134.83 127.162 134.038 126.946 133.318 126.514C132.61 126.07 132.046 125.458 131.626 124.678C131.218 123.886 131.014 122.992 131.014 121.996ZM139.132 122.032C139.132 121.348 138.988 120.754 138.7 120.25C138.424 119.746 138.058 119.362 137.602 119.098C137.146 118.834 136.654 118.702 136.126 118.702C135.598 118.702 135.106 118.834 134.65 119.098C134.194 119.35 133.822 119.728 133.534 120.232C133.258 120.724 133.12 121.312 133.12 121.996C133.12 122.68 133.258 123.28 133.534 123.796C133.822 124.312 134.194 124.708 134.65 124.984C135.118 125.248 135.61 125.38 136.126 125.38C136.654 125.38 137.146 125.248 137.602 124.984C138.058 124.72 138.424 124.336 138.7 123.832C138.988 123.316 139.132 122.716 139.132 122.032ZM143.213 121.996C143.213 121 143.417 120.118 143.825 119.35C144.245 118.582 144.809 117.988 145.517 117.568C146.237 117.136 147.029 116.92 147.893 116.92C148.673 116.92 149.351 117.076 149.927 117.388C150.515 117.688 150.983 118.066 151.331 118.522V117.082H153.401V127H151.331V125.524C150.983 125.992 150.509 126.382 149.909 126.694C149.309 127.006 148.625 127.162 147.857 127.162C147.005 127.162 146.225 126.946 145.517 126.514C144.809 126.07 144.245 125.458 143.825 124.678C143.417 123.886 143.213 122.992 143.213 121.996ZM151.331 122.032C151.331 121.348 151.187 120.754 150.899 120.25C150.623 119.746 150.257 119.362 149.801 119.098C149.345 118.834 148.853 118.702 148.325 118.702C147.797 118.702 147.305 118.834 146.849 119.098C146.393 119.35 146.021 119.728 145.733 120.232C145.457 120.724 145.319 121.312 145.319 121.996C145.319 122.68 145.457 123.28 145.733 123.796C146.021 124.312 146.393 124.708 146.849 124.984C147.317 125.248 147.809 125.38 148.325 125.38C148.853 125.38 149.345 125.248 149.801 124.984C150.257 124.72 150.623 124.336 150.899 123.832C151.187 123.316 151.331 122.716 151.331 122.032ZM158.49 118.756V124.246C158.49 124.618 158.574 124.888 158.742 125.056C158.922 125.212 159.222 125.29 159.642 125.29H160.902V127H159.282C158.358 127 157.65 126.784 157.158 126.352C156.666 125.92 156.42 125.218 156.42 124.246V118.756H155.25V117.082H156.42V114.616H158.49V117.082H160.902V118.756H158.49ZM171.883 121.798C171.883 122.17 171.859 122.506 171.811 122.806H164.233C164.293 123.598 164.587 124.234 165.115 124.714C165.643 125.194 166.291 125.434 167.059 125.434C168.163 125.434 168.943 124.972 169.399 124.048H171.613C171.313 124.96 170.767 125.71 169.975 126.298C169.195 126.874 168.223 127.162 167.059 127.162C166.111 127.162 165.259 126.952 164.503 126.532C163.759 126.1 163.171 125.5 162.739 124.732C162.319 123.952 162.109 123.052 162.109 122.032C162.109 121.012 162.313 120.118 162.721 119.35C163.141 118.57 163.723 117.97 164.467 117.55C165.223 117.13 166.087 116.92 167.059 116.92C167.995 116.92 168.829 117.124 169.561 117.532C170.293 117.94 170.863 118.516 171.271 119.26C171.679 119.992 171.883 120.838 171.883 121.798ZM169.741 121.15C169.729 120.394 169.459 119.788 168.931 119.332C168.403 118.876 167.749 118.648 166.969 118.648C166.261 118.648 165.655 118.876 165.151 119.332C164.647 119.776 164.347 120.382 164.251 121.15H169.741Z" fill="black"/>
<path d="M247.048 123.96L243.433 120.51L247.048 117.075H248.773L245.143 120.51L248.773 123.96H247.048ZM265.556 115.545V116.655H261.011V120.18H264.701V121.29H261.011V126H259.646V115.545H265.556ZM274.705 121.575C274.705 121.835 274.69 122.11 274.66 122.4H268.09C268.14 123.21 268.415 123.845 268.915 124.305C269.425 124.755 270.04 124.98 270.76 124.98C271.35 124.98 271.84 124.845 272.23 124.575C272.63 124.295 272.91 123.925 273.07 123.465H274.54C274.32 124.255 273.88 124.9 273.22 125.4C272.56 125.89 271.74 126.135 270.76 126.135C269.98 126.135 269.28 125.96 268.66 125.61C268.05 125.26 267.57 124.765 267.22 124.125C266.87 123.475 266.695 122.725 266.695 121.875C266.695 121.025 266.865 120.28 267.205 119.64C267.545 119 268.02 118.51 268.63 118.17C269.25 117.82 269.96 117.645 270.76 117.645C271.54 117.645 272.23 117.815 272.83 118.155C273.43 118.495 273.89 118.965 274.21 119.565C274.54 120.155 274.705 120.825 274.705 121.575ZM273.295 121.29C273.295 120.77 273.18 120.325 272.95 119.955C272.72 119.575 272.405 119.29 272.005 119.1C271.615 118.9 271.18 118.8 270.7 118.8C270.01 118.8 269.42 119.02 268.93 119.46C268.45 119.9 268.175 120.51 268.105 121.29H273.295ZM277.872 119.31C278.152 118.82 278.562 118.42 279.102 118.11C279.642 117.8 280.257 117.645 280.947 117.645C281.687 117.645 282.352 117.82 282.942 118.17C283.532 118.52 283.997 119.015 284.337 119.655C284.677 120.285 284.847 121.02 284.847 121.86C284.847 122.69 284.677 123.43 284.337 124.08C283.997 124.73 283.527 125.235 282.927 125.595C282.337 125.955 281.677 126.135 280.947 126.135C280.237 126.135 279.612 125.98 279.072 125.67C278.542 125.36 278.142 124.965 277.872 124.485V126H276.507V114.9H277.872V119.31ZM283.452 121.86C283.452 121.24 283.327 120.7 283.077 120.24C282.827 119.78 282.487 119.43 282.057 119.19C281.637 118.95 281.172 118.83 280.662 118.83C280.162 118.83 279.697 118.955 279.267 119.205C278.847 119.445 278.507 119.8 278.247 120.27C277.997 120.73 277.872 121.265 277.872 121.875C277.872 122.495 277.997 123.04 278.247 123.51C278.507 123.97 278.847 124.325 279.267 124.575C279.697 124.815 280.162 124.935 280.662 124.935C281.172 124.935 281.637 124.815 282.057 124.575C282.487 124.325 282.827 123.97 283.077 123.51C283.327 123.04 283.452 122.49 283.452 121.86ZM298.25 124.905C299.52 123.885 300.515 123.05 301.235 122.4C301.955 121.74 302.56 121.055 303.05 120.345C303.55 119.625 303.8 118.92 303.8 118.23C303.8 117.58 303.64 117.07 303.32 116.7C303.01 116.32 302.505 116.13 301.805 116.13C301.125 116.13 300.595 116.345 300.215 116.775C299.845 117.195 299.645 117.76 299.615 118.47H298.295C298.335 117.35 298.675 116.485 299.315 115.875C299.955 115.265 300.78 114.96 301.79 114.96C302.82 114.96 303.635 115.245 304.235 115.815C304.845 116.385 305.15 117.17 305.15 118.17C305.15 119 304.9 119.81 304.4 120.6C303.91 121.38 303.35 122.07 302.72 122.67C302.09 123.26 301.285 123.95 300.305 124.74H305.465V125.88H298.25V124.905ZM307.043 120.465C307.043 118.745 307.323 117.405 307.883 116.445C308.443 115.475 309.423 114.99 310.823 114.99C312.213 114.99 313.188 115.475 313.748 116.445C314.308 117.405 314.588 118.745 314.588 120.465C314.588 122.215 314.308 123.575 313.748 124.545C313.188 125.515 312.213 126 310.823 126C309.423 126 308.443 125.515 307.883 124.545C307.323 123.575 307.043 122.215 307.043 120.465ZM313.238 120.465C313.238 119.595 313.178 118.86 313.058 118.26C312.948 117.65 312.713 117.16 312.353 116.79C312.003 116.42 311.493 116.235 310.823 116.235C310.143 116.235 309.623 116.42 309.263 116.79C308.913 117.16 308.678 117.65 308.558 118.26C308.448 118.86 308.393 119.595 308.393 120.465C308.393 121.365 308.448 122.12 308.558 122.73C308.678 123.34 308.913 123.83 309.263 124.2C309.623 124.57 310.143 124.755 310.823 124.755C311.493 124.755 312.003 124.57 312.353 124.2C312.713 123.83 312.948 123.34 313.058 122.73C313.178 122.12 313.238 121.365 313.238 120.465ZM316.297 124.905C317.567 123.885 318.562 123.05 319.282 122.4C320.002 121.74 320.607 121.055 321.097 120.345C321.597 119.625 321.847 118.92 321.847 118.23C321.847 117.58 321.687 117.07 321.367 116.7C321.057 116.32 320.552 116.13 319.852 116.13C319.172 116.13 318.642 116.345 318.262 116.775C317.892 117.195 317.692 117.76 317.662 118.47H316.342C316.382 117.35 316.722 116.485 317.362 115.875C318.002 115.265 318.827 114.96 319.837 114.96C320.867 114.96 321.682 115.245 322.282 115.815C322.892 116.385 323.197 117.17 323.197 118.17C323.197 119 322.947 119.81 322.447 120.6C321.957 121.38 321.397 122.07 320.767 122.67C320.137 123.26 319.332 123.95 318.352 124.74H323.512V125.88H316.297V124.905ZM325.06 117.885C325.13 116.965 325.485 116.245 326.125 115.725C326.765 115.205 327.595 114.945 328.615 114.945C329.295 114.945 329.88 115.07 330.37 115.32C330.87 115.56 331.245 115.89 331.495 116.31C331.755 116.73 331.885 117.205 331.885 117.735C331.885 118.355 331.705 118.89 331.345 119.34C330.995 119.79 330.535 120.08 329.965 120.21V120.285C330.615 120.445 331.13 120.76 331.51 121.23C331.89 121.7 332.08 122.315 332.08 123.075C332.08 123.645 331.95 124.16 331.69 124.62C331.43 125.07 331.04 125.425 330.52 125.685C330 125.945 329.375 126.075 328.645 126.075C327.585 126.075 326.715 125.8 326.035 125.25C325.355 124.69 324.975 123.9 324.895 122.88H326.215C326.285 123.48 326.53 123.97 326.95 124.35C327.37 124.73 327.93 124.92 328.63 124.92C329.33 124.92 329.86 124.74 330.22 124.38C330.59 124.01 330.775 123.535 330.775 122.955C330.775 122.205 330.525 121.665 330.025 121.335C329.525 121.005 328.77 120.84 327.76 120.84H327.415V119.7H327.775C328.695 119.69 329.39 119.54 329.86 119.25C330.33 118.95 330.565 118.49 330.565 117.87C330.565 117.34 330.39 116.915 330.04 116.595C329.7 116.275 329.21 116.115 328.57 116.115C327.95 116.115 327.45 116.275 327.07 116.595C326.69 116.915 326.465 117.345 326.395 117.885H325.06ZM342.401 117.075H344.126L347.756 120.51L344.126 123.96H342.401L346.031 120.51L342.401 117.075Z" fill="#AAAAAA"/>
<path d="M44.9522 152.545L41.9222 163H40.3922L37.9622 154.585L35.4422 163L33.9272 163.015L31.0022 152.545H32.4572L34.7372 161.41L37.2572 152.545H38.7872L41.1872 161.38L43.4822 152.545H44.9522ZM53.946 158.575C53.946 158.835 53.931 159.11 53.901 159.4H47.331C47.381 160.21 47.656 160.845 48.156 161.305C48.666 161.755 49.281 161.98 50.001 161.98C50.591 161.98 51.081 161.845 51.471 161.575C51.871 161.295 52.151 160.925 52.311 160.465H53.781C53.561 161.255 53.121 161.9 52.461 162.4C51.801 162.89 50.981 163.135 50.001 163.135C49.221 163.135 48.521 162.96 47.901 162.61C47.291 162.26 46.811 161.765 46.461 161.125C46.111 160.475 45.936 159.725 45.936 158.875C45.936 158.025 46.106 157.28 46.446 156.64C46.786 156 47.261 155.51 47.871 155.17C48.491 154.82 49.201 154.645 50.001 154.645C50.781 154.645 51.471 154.815 52.071 155.155C52.671 155.495 53.131 155.965 53.451 156.565C53.781 157.155 53.946 157.825 53.946 158.575ZM52.536 158.29C52.536 157.77 52.421 157.325 52.191 156.955C51.961 156.575 51.646 156.29 51.246 156.1C50.856 155.9 50.421 155.8 49.941 155.8C49.251 155.8 48.661 156.02 48.171 156.46C47.691 156.9 47.416 157.51 47.346 158.29H52.536Z" fill="#888888"/>
<g filter="url(#filter0_d_327_5282)">
<rect x="25.125" y="170" width="35" height="35" rx="17.5" fill="white" shape-rendering="crispEdges"/>
<path d="M36.5832 183.4V182.155H39.4032V193H38.0232V183.4H36.5832ZM48.6629 183.34H43.3979V186.76C43.6279 186.44 43.9679 186.18 44.4179 185.98C44.8679 185.77 45.3529 185.665 45.8729 185.665C46.7029 185.665 47.3779 185.84 47.8979 186.19C48.4179 186.53 48.7879 186.975 49.0079 187.525C49.2379 188.065 49.3529 188.64 49.3529 189.25C49.3529 189.97 49.2179 190.615 48.9479 191.185C48.6779 191.755 48.2629 192.205 47.7029 192.535C47.1529 192.865 46.4679 193.03 45.6479 193.03C44.5979 193.03 43.7479 192.76 43.0979 192.22C42.4479 191.68 42.0529 190.96 41.9129 190.06H43.2479C43.3779 190.63 43.6529 191.075 44.0729 191.395C44.4929 191.715 45.0229 191.875 45.6629 191.875C46.4529 191.875 47.0479 191.64 47.4479 191.17C47.8479 190.69 48.0479 190.06 48.0479 189.28C48.0479 188.5 47.8479 187.9 47.4479 187.48C47.0479 187.05 46.4579 186.835 45.6779 186.835C45.1479 186.835 44.6829 186.965 44.2829 187.225C43.8929 187.475 43.6079 187.82 43.4279 188.26H42.1379V182.14H48.6629V183.34Z" fill="#AAAAAA"/>
</g>
<path d="M89.36 152.545V153.655H86.51V163H85.145V153.655H82.28V152.545H89.36ZM95.1203 154.63C95.7403 154.63 96.3003 154.765 96.8003 155.035C97.3003 155.295 97.6903 155.69 97.9703 156.22C98.2603 156.75 98.4053 157.395 98.4053 158.155V163H97.0553V158.35C97.0553 157.53 96.8503 156.905 96.4403 156.475C96.0303 156.035 95.4703 155.815 94.7603 155.815C94.0403 155.815 93.4653 156.04 93.0353 156.49C92.6153 156.94 92.4053 157.595 92.4053 158.455V163H91.0403V151.9H92.4053V155.95C92.6753 155.53 93.0453 155.205 93.5153 154.975C93.9953 154.745 94.5303 154.63 95.1203 154.63Z" fill="#888888"/>
<g filter="url(#filter1_d_327_5282)">
<rect x="73.125" y="170" width="35" height="35" rx="17.5" fill="white" shape-rendering="crispEdges"/>
<path d="M84.0319 182.9V181.655H86.8519V192.5H85.4719V182.9H84.0319ZM95.2416 184.235C95.0216 183.125 94.3366 182.57 93.1866 182.57C92.2966 182.57 91.6316 182.915 91.1916 183.605C90.7516 184.285 90.5366 185.41 90.5466 186.98C90.7766 186.46 91.1566 186.055 91.6866 185.765C92.2266 185.465 92.8266 185.315 93.4866 185.315C94.5166 185.315 95.3366 185.635 95.9466 186.275C96.5666 186.915 96.8766 187.8 96.8766 188.93C96.8766 189.61 96.7416 190.22 96.4716 190.76C96.2116 191.3 95.8116 191.73 95.2716 192.05C94.7416 192.37 94.0966 192.53 93.3366 192.53C92.3066 192.53 91.5016 192.3 90.9216 191.84C90.3416 191.38 89.9366 190.745 89.7066 189.935C89.4766 189.125 89.3616 188.125 89.3616 186.935C89.3616 183.265 90.6416 181.43 93.2016 181.43C94.1816 181.43 94.9516 181.695 95.5116 182.225C96.0716 182.755 96.4016 183.425 96.5016 184.235H95.2416ZM93.2016 186.47C92.7716 186.47 92.3666 186.56 91.9866 186.74C91.6066 186.91 91.2966 187.175 91.0566 187.535C90.8266 187.885 90.7116 188.315 90.7116 188.825C90.7116 189.585 90.9316 190.205 91.3716 190.685C91.8116 191.155 92.4416 191.39 93.2616 191.39C93.9616 191.39 94.5166 191.175 94.9266 190.745C95.3466 190.305 95.5566 189.715 95.5566 188.975C95.5566 188.195 95.3566 187.585 94.9566 187.145C94.5566 186.695 93.9716 186.47 93.2016 186.47Z" fill="#AAAAAA"/>
</g>
<path d="M139.113 152.545V153.655H134.568V157.18H138.258V158.29H134.568V163H133.203V152.545H139.113ZM142.126 156.115C142.366 155.645 142.706 155.28 143.146 155.02C143.596 154.76 144.141 154.63 144.781 154.63V156.04H144.421C142.891 156.04 142.126 156.87 142.126 158.53V163H140.761V154.78H142.126V156.115Z" fill="#888888"/>
<g filter="url(#filter2_d_327_5282)">
<rect x="121.125" y="170" width="35" height="35" rx="17.5" fill="white" shape-rendering="crispEdges"/>
<path d="M132.698 182.9V181.655H135.518V192.5H134.138V182.9H132.698ZM144.538 182.72L140.368 192.5H138.988L143.218 182.855H137.428V181.685H144.538V182.72Z" fill="#AAAAAA"/>
</g>
<path d="M181.625 163.105C180.935 163.105 180.315 162.985 179.765 162.745C179.225 162.495 178.8 162.155 178.49 161.725C178.18 161.285 178.02 160.78 178.01 160.21H179.465C179.515 160.7 179.715 161.115 180.065 161.455C180.425 161.785 180.945 161.95 181.625 161.95C182.275 161.95 182.785 161.79 183.155 161.47C183.535 161.14 183.725 160.72 183.725 160.21C183.725 159.81 183.615 159.485 183.395 159.235C183.175 158.985 182.9 158.795 182.57 158.665C182.24 158.535 181.795 158.395 181.235 158.245C180.545 158.065 179.99 157.885 179.57 157.705C179.16 157.525 178.805 157.245 178.505 156.865C178.215 156.475 178.07 155.955 178.07 155.305C178.07 154.735 178.215 154.23 178.505 153.79C178.795 153.35 179.2 153.01 179.72 152.77C180.25 152.53 180.855 152.41 181.535 152.41C182.515 152.41 183.315 152.655 183.935 153.145C184.565 153.635 184.92 154.285 185 155.095H183.5C183.45 154.695 183.24 154.345 182.87 154.045C182.5 153.735 182.01 153.58 181.4 153.58C180.83 153.58 180.365 153.73 180.005 154.03C179.645 154.32 179.465 154.73 179.465 155.26C179.465 155.64 179.57 155.95 179.78 156.19C180 156.43 180.265 156.615 180.575 156.745C180.895 156.865 181.34 157.005 181.91 157.165C182.6 157.355 183.155 157.545 183.575 157.735C183.995 157.915 184.355 158.2 184.655 158.59C184.955 158.97 185.105 159.49 185.105 160.15C185.105 160.66 184.97 161.14 184.7 161.59C184.43 162.04 184.03 162.405 183.5 162.685C182.97 162.965 182.345 163.105 181.625 163.105ZM186.603 158.86C186.603 158.02 186.773 157.285 187.113 156.655C187.453 156.015 187.918 155.52 188.508 155.17C189.108 154.82 189.773 154.645 190.503 154.645C191.223 154.645 191.848 154.8 192.378 155.11C192.908 155.42 193.303 155.81 193.563 156.28V154.78H194.943V163H193.563V161.47C193.293 161.95 192.888 162.35 192.348 162.67C191.818 162.98 191.198 163.135 190.488 163.135C189.758 163.135 189.098 162.955 188.508 162.595C187.918 162.235 187.453 161.73 187.113 161.08C186.773 160.43 186.603 159.69 186.603 158.86ZM193.563 158.875C193.563 158.255 193.438 157.715 193.188 157.255C192.938 156.795 192.598 156.445 192.168 156.205C191.748 155.955 191.283 155.83 190.773 155.83C190.263 155.83 189.798 155.95 189.378 156.19C188.958 156.43 188.623 156.78 188.373 157.24C188.123 157.7 187.998 158.24 187.998 158.86C187.998 159.49 188.123 160.04 188.373 160.51C188.623 160.97 188.958 161.325 189.378 161.575C189.798 161.815 190.263 161.935 190.773 161.935C191.283 161.935 191.748 161.815 192.168 161.575C192.598 161.325 192.938 160.97 193.188 160.51C193.438 160.04 193.563 159.495 193.563 158.875Z" fill="#888888"/>
<rect x="169.125" y="170" width="35" height="35" rx="17.5" fill="#0065FF" fill-opacity="0.15"/>
<path d="M180.061 182.9V181.655H182.881V192.5H181.501V182.9H180.061ZM187.206 186.86C186.646 186.64 186.216 186.32 185.916 185.9C185.616 185.48 185.466 184.97 185.466 184.37C185.466 183.83 185.601 183.345 185.871 182.915C186.141 182.475 186.541 182.13 187.071 181.88C187.611 181.62 188.261 181.49 189.021 181.49C189.781 181.49 190.426 181.62 190.956 181.88C191.496 182.13 191.901 182.475 192.171 182.915C192.451 183.345 192.591 183.83 192.591 184.37C192.591 184.95 192.436 185.46 192.126 185.9C191.816 186.33 191.391 186.65 190.851 186.86C191.471 187.05 191.961 187.385 192.321 187.865C192.691 188.335 192.876 188.905 192.876 189.575C192.876 190.225 192.716 190.795 192.396 191.285C192.076 191.765 191.621 192.14 191.031 192.41C190.451 192.67 189.781 192.8 189.021 192.8C188.261 192.8 187.591 192.67 187.011 192.41C186.441 192.14 185.996 191.765 185.676 191.285C185.356 190.795 185.196 190.225 185.196 189.575C185.196 188.905 185.376 188.33 185.736 187.85C186.096 187.37 186.586 187.04 187.206 186.86ZM191.271 184.535C191.271 183.925 191.071 183.455 190.671 183.125C190.271 182.795 189.721 182.63 189.021 182.63C188.331 182.63 187.786 182.795 187.386 183.125C186.986 183.455 186.786 183.93 186.786 184.55C186.786 185.11 186.991 185.56 187.401 185.9C187.821 186.24 188.361 186.41 189.021 186.41C189.691 186.41 190.231 186.24 190.641 185.9C191.061 185.55 191.271 185.095 191.271 184.535ZM189.021 187.46C188.281 187.46 187.676 187.635 187.206 187.985C186.736 188.325 186.501 188.84 186.501 189.53C186.501 190.17 186.726 190.685 187.176 191.075C187.636 191.465 188.251 191.66 189.021 191.66C189.791 191.66 190.401 191.465 190.851 191.075C191.301 190.685 191.526 190.17 191.526 189.53C191.526 188.86 191.296 188.35 190.836 188C190.376 187.64 189.771 187.46 189.021 187.46Z" fill="#0085FE"/>
<path d="M229.896 163.105C229.206 163.105 228.586 162.985 228.036 162.745C227.496 162.495 227.071 162.155 226.761 161.725C226.451 161.285 226.291 160.78 226.281 160.21H227.736C227.786 160.7 227.986 161.115 228.336 161.455C228.696 161.785 229.216 161.95 229.896 161.95C230.546 161.95 231.056 161.79 231.426 161.47C231.806 161.14 231.996 160.72 231.996 160.21C231.996 159.81 231.886 159.485 231.666 159.235C231.446 158.985 231.171 158.795 230.841 158.665C230.511 158.535 230.066 158.395 229.506 158.245C228.816 158.065 228.261 157.885 227.841 157.705C227.431 157.525 227.076 157.245 226.776 156.865C226.486 156.475 226.341 155.955 226.341 155.305C226.341 154.735 226.486 154.23 226.776 153.79C227.066 153.35 227.471 153.01 227.991 152.77C228.521 152.53 229.126 152.41 229.806 152.41C230.786 152.41 231.586 152.655 232.206 153.145C232.836 153.635 233.191 154.285 233.271 155.095H231.771C231.721 154.695 231.511 154.345 231.141 154.045C230.771 153.735 230.281 153.58 229.671 153.58C229.101 153.58 228.636 153.73 228.276 154.03C227.916 154.32 227.736 154.73 227.736 155.26C227.736 155.64 227.841 155.95 228.051 156.19C228.271 156.43 228.536 156.615 228.846 156.745C229.166 156.865 229.611 157.005 230.181 157.165C230.871 157.355 231.426 157.545 231.846 157.735C232.266 157.915 232.626 158.2 232.926 158.59C233.226 158.97 233.376 159.49 233.376 160.15C233.376 160.66 233.241 161.14 232.971 161.59C232.701 162.04 232.301 162.405 231.771 162.685C231.241 162.965 230.616 163.105 229.896 163.105ZM242.674 154.78V163H241.309V161.785C241.049 162.205 240.684 162.535 240.214 162.775C239.754 163.005 239.244 163.12 238.684 163.12C238.044 163.12 237.469 162.99 236.959 162.73C236.449 162.46 236.044 162.06 235.744 161.53C235.454 161 235.309 160.355 235.309 159.595V154.78H236.659V159.415C236.659 160.225 236.864 160.85 237.274 161.29C237.684 161.72 238.244 161.935 238.954 161.935C239.684 161.935 240.259 161.71 240.679 161.26C241.099 160.81 241.309 160.155 241.309 159.295V154.78H242.674Z" fill="#888888"/>
<g filter="url(#filter3_d_327_5282)">
<rect x="217.125" y="170" width="35" height="35" rx="17.5" fill="white" shape-rendering="crispEdges"/>
<path d="M228.069 182.9V181.655H230.889V192.5H229.509V182.9H228.069ZM234.988 189.59C235.088 190.16 235.318 190.6 235.678 190.91C236.048 191.22 236.543 191.375 237.163 191.375C237.993 191.375 238.603 191.05 238.993 190.4C239.393 189.75 239.583 188.655 239.563 187.115C239.353 187.565 239.003 187.92 238.513 188.18C238.023 188.43 237.478 188.555 236.878 188.555C236.208 188.555 235.608 188.42 235.078 188.15C234.558 187.87 234.148 187.465 233.848 186.935C233.548 186.405 233.398 185.765 233.398 185.015C233.398 183.945 233.708 183.085 234.328 182.435C234.948 181.775 235.828 181.445 236.968 181.445C238.368 181.445 239.348 181.9 239.908 182.81C240.478 183.72 240.763 185.075 240.763 186.875C240.763 188.135 240.648 189.175 240.418 189.995C240.198 190.815 239.818 191.44 239.278 191.87C238.748 192.3 238.018 192.515 237.088 192.515C236.068 192.515 235.273 192.24 234.703 191.69C234.133 191.14 233.808 190.44 233.728 189.59H234.988ZM237.103 187.4C237.773 187.4 238.323 187.195 238.753 186.785C239.183 186.365 239.398 185.8 239.398 185.09C239.398 184.34 239.188 183.735 238.768 183.275C238.348 182.815 237.758 182.585 236.998 182.585C236.298 182.585 235.738 182.805 235.318 183.245C234.908 183.685 234.703 184.265 234.703 184.985C234.703 185.715 234.908 186.3 235.318 186.74C235.728 187.18 236.323 187.4 237.103 187.4Z" fill="#AAAAAA"/>
</g>
<path d="M283.128 152.62V163H281.763V155.26L278.313 163H277.353L273.888 155.245V163H272.523V152.62H273.993L277.833 161.2L281.673 152.62H283.128ZM289.028 163.135C288.258 163.135 287.558 162.96 286.928 162.61C286.308 162.26 285.818 161.765 285.458 161.125C285.108 160.475 284.933 159.725 284.933 158.875C284.933 158.035 285.113 157.295 285.473 156.655C285.843 156.005 286.343 155.51 286.973 155.17C287.603 154.82 288.308 154.645 289.088 154.645C289.868 154.645 290.573 154.82 291.203 155.17C291.833 155.51 292.328 156 292.688 156.64C293.058 157.28 293.243 158.025 293.243 158.875C293.243 159.725 293.053 160.475 292.673 161.125C292.303 161.765 291.798 162.26 291.158 162.61C290.518 162.96 289.808 163.135 289.028 163.135ZM289.028 161.935C289.518 161.935 289.978 161.82 290.408 161.59C290.838 161.36 291.183 161.015 291.443 160.555C291.713 160.095 291.848 159.535 291.848 158.875C291.848 158.215 291.718 157.655 291.458 157.195C291.198 156.735 290.858 156.395 290.438 156.175C290.018 155.945 289.563 155.83 289.073 155.83C288.573 155.83 288.113 155.945 287.693 156.175C287.283 156.395 286.953 156.735 286.703 157.195C286.453 157.655 286.328 158.215 286.328 158.875C286.328 159.545 286.448 160.11 286.688 160.57C286.938 161.03 287.268 161.375 287.678 161.605C288.088 161.825 288.538 161.935 289.028 161.935Z" fill="#888888"/>
<g filter="url(#filter4_d_327_5282)">
<rect x="265.125" y="170" width="35" height="35" rx="17.5" fill="white" shape-rendering="crispEdges"/>
<path d="M274.367 191.905C275.637 190.885 276.632 190.05 277.352 189.4C278.072 188.74 278.677 188.055 279.167 187.345C279.667 186.625 279.917 185.92 279.917 185.23C279.917 184.58 279.757 184.07 279.437 183.7C279.127 183.32 278.622 183.13 277.922 183.13C277.242 183.13 276.712 183.345 276.332 183.775C275.962 184.195 275.762 184.76 275.732 185.47H274.412C274.452 184.35 274.792 183.485 275.432 182.875C276.072 182.265 276.897 181.96 277.907 181.96C278.937 181.96 279.752 182.245 280.352 182.815C280.962 183.385 281.267 184.17 281.267 185.17C281.267 186 281.017 186.81 280.517 187.6C280.027 188.38 279.467 189.07 278.837 189.67C278.207 190.26 277.402 190.95 276.422 191.74H281.582V192.88H274.367V191.905ZM283.159 187.465C283.159 185.745 283.439 184.405 283.999 183.445C284.559 182.475 285.539 181.99 286.939 181.99C288.329 181.99 289.304 182.475 289.864 183.445C290.424 184.405 290.704 185.745 290.704 187.465C290.704 189.215 290.424 190.575 289.864 191.545C289.304 192.515 288.329 193 286.939 193C285.539 193 284.559 192.515 283.999 191.545C283.439 190.575 283.159 189.215 283.159 187.465ZM289.354 187.465C289.354 186.595 289.294 185.86 289.174 185.26C289.064 184.65 288.829 184.16 288.469 183.79C288.119 183.42 287.609 183.235 286.939 183.235C286.259 183.235 285.739 183.42 285.379 183.79C285.029 184.16 284.794 184.65 284.674 185.26C284.564 185.86 284.509 186.595 284.509 187.465C284.509 188.365 284.564 189.12 284.674 189.73C284.794 190.34 285.029 190.83 285.379 191.2C285.739 191.57 286.259 191.755 286.939 191.755C287.609 191.755 288.119 191.57 288.469 191.2C288.829 190.83 289.064 190.34 289.174 189.73C289.294 189.12 289.354 188.365 289.354 187.465Z" fill="#AAAAAA"/>
</g>
<path d="M329.36 152.545V153.655H326.51V163H325.145V153.655H322.28V152.545H329.36ZM338.33 154.78V163H336.965V161.785C336.705 162.205 336.34 162.535 335.87 162.775C335.41 163.005 334.9 163.12 334.34 163.12C333.7 163.12 333.125 162.99 332.615 162.73C332.105 162.46 331.7 162.06 331.4 161.53C331.11 161 330.965 160.355 330.965 159.595V154.78H332.315V159.415C332.315 160.225 332.52 160.85 332.93 161.29C333.34 161.72 333.9 161.935 334.61 161.935C335.34 161.935 335.915 161.71 336.335 161.26C336.755 160.81 336.965 160.155 336.965 159.295V154.78H338.33Z" fill="#888888"/>
<g filter="url(#filter5_d_327_5282)">
<rect x="313.125" y="170" width="35" height="35" rx="17.5" fill="white" shape-rendering="crispEdges"/>
<path d="M324.674 191.405C325.944 190.385 326.939 189.55 327.659 188.9C328.379 188.24 328.984 187.555 329.474 186.845C329.974 186.125 330.224 185.42 330.224 184.73C330.224 184.08 330.064 183.57 329.744 183.2C329.434 182.82 328.929 182.63 328.229 182.63C327.549 182.63 327.019 182.845 326.639 183.275C326.269 183.695 326.069 184.26 326.039 184.97H324.719C324.759 183.85 325.099 182.985 325.739 182.375C326.379 181.765 327.204 181.46 328.214 181.46C329.244 181.46 330.059 181.745 330.659 182.315C331.269 182.885 331.574 183.67 331.574 184.67C331.574 185.5 331.324 186.31 330.824 187.1C330.334 187.88 329.774 188.57 329.144 189.17C328.514 189.76 327.709 190.45 326.729 191.24H331.889V192.38H324.674V191.405ZM333.107 182.9V181.655H335.927V192.5H334.547V182.9H333.107Z" fill="#AAAAAA"/>
</g>
<g filter="url(#filter6_d_327_5282)">
<rect x="136.25" y="311" width="102" height="40" rx="5" fill="white" shape-rendering="crispEdges"/>
<path d="M154.21 330.465C154.21 328.745 154.49 327.405 155.05 326.445C155.61 325.475 156.59 324.99 157.99 324.99C159.38 324.99 160.355 325.475 160.915 326.445C161.475 327.405 161.755 328.745 161.755 330.465C161.755 332.215 161.475 333.575 160.915 334.545C160.355 335.515 159.38 336 157.99 336C156.59 336 155.61 335.515 155.05 334.545C154.49 333.575 154.21 332.215 154.21 330.465ZM160.405 330.465C160.405 329.595 160.345 328.86 160.225 328.26C160.115 327.65 159.88 327.16 159.52 326.79C159.17 326.42 158.66 326.235 157.99 326.235C157.31 326.235 156.79 326.42 156.43 326.79C156.08 327.16 155.845 327.65 155.725 328.26C155.615 328.86 155.56 329.595 155.56 330.465C155.56 331.365 155.615 332.12 155.725 332.73C155.845 333.34 156.08 333.83 156.43 334.2C156.79 334.57 157.31 334.755 157.99 334.755C158.66 334.755 159.17 334.57 159.52 334.2C159.88 333.83 160.115 333.34 160.225 332.73C160.345 332.12 160.405 331.365 160.405 330.465ZM165.609 330.36C165.049 330.14 164.619 329.82 164.319 329.4C164.019 328.98 163.869 328.47 163.869 327.87C163.869 327.33 164.004 326.845 164.274 326.415C164.544 325.975 164.944 325.63 165.474 325.38C166.014 325.12 166.664 324.99 167.424 324.99C168.184 324.99 168.829 325.12 169.359 325.38C169.899 325.63 170.304 325.975 170.574 326.415C170.854 326.845 170.994 327.33 170.994 327.87C170.994 328.45 170.839 328.96 170.529 329.4C170.219 329.83 169.794 330.15 169.254 330.36C169.874 330.55 170.364 330.885 170.724 331.365C171.094 331.835 171.279 332.405 171.279 333.075C171.279 333.725 171.119 334.295 170.799 334.785C170.479 335.265 170.024 335.64 169.434 335.91C168.854 336.17 168.184 336.3 167.424 336.3C166.664 336.3 165.994 336.17 165.414 335.91C164.844 335.64 164.399 335.265 164.079 334.785C163.759 334.295 163.599 333.725 163.599 333.075C163.599 332.405 163.779 331.83 164.139 331.35C164.499 330.87 164.989 330.54 165.609 330.36ZM169.674 328.035C169.674 327.425 169.474 326.955 169.074 326.625C168.674 326.295 168.124 326.13 167.424 326.13C166.734 326.13 166.189 326.295 165.789 326.625C165.389 326.955 165.189 327.43 165.189 328.05C165.189 328.61 165.394 329.06 165.804 329.4C166.224 329.74 166.764 329.91 167.424 329.91C168.094 329.91 168.634 329.74 169.044 329.4C169.464 329.05 169.674 328.595 169.674 328.035ZM167.424 330.96C166.684 330.96 166.079 331.135 165.609 331.485C165.139 331.825 164.904 332.34 164.904 333.03C164.904 333.67 165.129 334.185 165.579 334.575C166.039 334.965 166.654 335.16 167.424 335.16C168.194 335.16 168.804 334.965 169.254 334.575C169.704 334.185 169.929 333.67 169.929 333.03C169.929 332.36 169.699 331.85 169.239 331.5C168.779 331.14 168.174 330.96 167.424 330.96ZM173.752 336.09C173.492 336.09 173.272 336 173.092 335.82C172.912 335.64 172.822 335.42 172.822 335.16C172.822 334.9 172.912 334.68 173.092 334.5C173.272 334.32 173.492 334.23 173.752 334.23C174.002 334.23 174.212 334.32 174.382 334.5C174.562 334.68 174.652 334.9 174.652 335.16C174.652 335.42 174.562 335.64 174.382 335.82C174.212 336 174.002 336.09 173.752 336.09ZM173.752 329.67C173.492 329.67 173.272 329.58 173.092 329.4C172.912 329.22 172.822 329 172.822 328.74C172.822 328.48 172.912 328.26 173.092 328.08C173.272 327.9 173.492 327.81 173.752 327.81C174.002 327.81 174.212 327.9 174.382 328.08C174.562 328.26 174.652 328.48 174.652 328.74C174.652 329 174.562 329.22 174.382 329.4C174.212 329.58 174.002 329.67 173.752 329.67ZM176.285 330.465C176.285 328.745 176.565 327.405 177.125 326.445C177.685 325.475 178.665 324.99 180.065 324.99C181.455 324.99 182.43 325.475 182.99 326.445C183.55 327.405 183.83 328.745 183.83 330.465C183.83 332.215 183.55 333.575 182.99 334.545C182.43 335.515 181.455 336 180.065 336C178.665 336 177.685 335.515 177.125 334.545C176.565 333.575 176.285 332.215 176.285 330.465ZM182.48 330.465C182.48 329.595 182.42 328.86 182.3 328.26C182.19 327.65 181.955 327.16 181.595 326.79C181.245 326.42 180.735 326.235 180.065 326.235C179.385 326.235 178.865 326.42 178.505 326.79C178.155 327.16 177.92 327.65 177.8 328.26C177.69 328.86 177.635 329.595 177.635 330.465C177.635 331.365 177.69 332.12 177.8 332.73C177.92 333.34 178.155 333.83 178.505 334.2C178.865 334.57 179.385 334.755 180.065 334.755C180.735 334.755 181.245 334.57 181.595 334.2C181.955 333.83 182.19 333.34 182.3 332.73C182.42 332.12 182.48 331.365 182.48 330.465ZM185.704 330.465C185.704 328.745 185.984 327.405 186.544 326.445C187.104 325.475 188.084 324.99 189.484 324.99C190.874 324.99 191.849 325.475 192.409 326.445C192.969 327.405 193.249 328.745 193.249 330.465C193.249 332.215 192.969 333.575 192.409 334.545C191.849 335.515 190.874 336 189.484 336C188.084 336 187.104 335.515 186.544 334.545C185.984 333.575 185.704 332.215 185.704 330.465ZM191.899 330.465C191.899 329.595 191.839 328.86 191.719 328.26C191.609 327.65 191.374 327.16 191.014 326.79C190.664 326.42 190.154 326.235 189.484 326.235C188.804 326.235 188.284 326.42 187.924 326.79C187.574 327.16 187.339 327.65 187.219 328.26C187.109 328.86 187.054 329.595 187.054 330.465C187.054 331.365 187.109 332.12 187.219 332.73C187.339 333.34 187.574 333.83 187.924 334.2C188.284 334.57 188.804 334.755 189.484 334.755C190.154 334.755 190.664 334.57 191.014 334.2C191.374 333.83 191.609 333.34 191.719 332.73C191.839 332.12 191.899 331.365 191.899 330.465ZM205.527 333.675H200.967L200.127 336H198.687L202.467 325.605H204.042L207.807 336H206.367L205.527 333.675ZM205.137 332.565L203.247 327.285L201.357 332.565H205.137ZM220.06 325.62V336H218.695V328.26L215.245 336H214.285L210.82 328.245V336H209.455V325.62H210.925L214.765 334.2L218.605 325.62H220.06Z" fill="#AAAAAA"/>
</g>
<g filter="url(#filter7_d_327_5282)">
<rect x="24.25" y="311" width="102" height="40" rx="5" fill="white"/>
<path d="M42.2322 330.465C42.2322 328.745 42.5122 327.405 43.0722 326.445C43.6322 325.475 44.6122 324.99 46.0122 324.99C47.4022 324.99 48.3772 325.475 48.9372 326.445C49.4972 327.405 49.7772 328.745 49.7772 330.465C49.7772 332.215 49.4972 333.575 48.9372 334.545C48.3772 335.515 47.4022 336 46.0122 336C44.6122 336 43.6322 335.515 43.0722 334.545C42.5122 333.575 42.2322 332.215 42.2322 330.465ZM48.4272 330.465C48.4272 329.595 48.3672 328.86 48.2472 328.26C48.1372 327.65 47.9022 327.16 47.5422 326.79C47.1922 326.42 46.6822 326.235 46.0122 326.235C45.3322 326.235 44.8122 326.42 44.4522 326.79C44.1022 327.16 43.8672 327.65 43.7472 328.26C43.6372 328.86 43.5822 329.595 43.5822 330.465C43.5822 331.365 43.6372 332.12 43.7472 332.73C43.8672 333.34 44.1022 333.83 44.4522 334.2C44.8122 334.57 45.3322 334.755 46.0122 334.755C46.6822 334.755 47.1922 334.57 47.5422 334.2C47.9022 333.83 48.1372 333.34 48.2472 332.73C48.3672 332.12 48.4272 331.365 48.4272 330.465ZM58.5662 326.34H53.3012V329.76C53.5312 329.44 53.8712 329.18 54.3212 328.98C54.7712 328.77 55.2562 328.665 55.7762 328.665C56.6062 328.665 57.2812 328.84 57.8012 329.19C58.3212 329.53 58.6912 329.975 58.9112 330.525C59.1412 331.065 59.2562 331.64 59.2562 332.25C59.2562 332.97 59.1212 333.615 58.8512 334.185C58.5812 334.755 58.1662 335.205 57.6062 335.535C57.0562 335.865 56.3712 336.03 55.5512 336.03C54.5012 336.03 53.6512 335.76 53.0012 335.22C52.3512 334.68 51.9562 333.96 51.8162 333.06H53.1512C53.2812 333.63 53.5562 334.075 53.9762 334.395C54.3962 334.715 54.9262 334.875 55.5662 334.875C56.3562 334.875 56.9512 334.64 57.3512 334.17C57.7512 333.69 57.9512 333.06 57.9512 332.28C57.9512 331.5 57.7512 330.9 57.3512 330.48C56.9512 330.05 56.3612 329.835 55.5812 329.835C55.0512 329.835 54.5862 329.965 54.1862 330.225C53.7962 330.475 53.5112 330.82 53.3312 331.26H52.0412V325.14H58.5662V326.34ZM61.7301 336.09C61.4701 336.09 61.2501 336 61.0701 335.82C60.8901 335.64 60.8001 335.42 60.8001 335.16C60.8001 334.9 60.8901 334.68 61.0701 334.5C61.2501 334.32 61.4701 334.23 61.7301 334.23C61.9801 334.23 62.1901 334.32 62.3601 334.5C62.5401 334.68 62.6301 334.9 62.6301 335.16C62.6301 335.42 62.5401 335.64 62.3601 335.82C62.1901 336 61.9801 336.09 61.7301 336.09ZM61.7301 329.67C61.4701 329.67 61.2501 329.58 61.0701 329.4C60.8901 329.22 60.8001 329 60.8001 328.74C60.8001 328.48 60.8901 328.26 61.0701 328.08C61.2501 327.9 61.4701 327.81 61.7301 327.81C61.9801 327.81 62.1901 327.9 62.3601 328.08C62.5401 328.26 62.6301 328.48 62.6301 328.74C62.6301 329 62.5401 329.22 62.3601 329.4C62.1901 329.58 61.9801 329.67 61.7301 329.67ZM64.2635 330.465C64.2635 328.745 64.5435 327.405 65.1035 326.445C65.6635 325.475 66.6435 324.99 68.0435 324.99C69.4335 324.99 70.4085 325.475 70.9685 326.445C71.5285 327.405 71.8085 328.745 71.8085 330.465C71.8085 332.215 71.5285 333.575 70.9685 334.545C70.4085 335.515 69.4335 336 68.0435 336C66.6435 336 65.6635 335.515 65.1035 334.545C64.5435 333.575 64.2635 332.215 64.2635 330.465ZM70.4585 330.465C70.4585 329.595 70.3985 328.86 70.2785 328.26C70.1685 327.65 69.9335 327.16 69.5735 326.79C69.2235 326.42 68.7135 326.235 68.0435 326.235C67.3635 326.235 66.8435 326.42 66.4835 326.79C66.1335 327.16 65.8985 327.65 65.7785 328.26C65.6685 328.86 65.6135 329.595 65.6135 330.465C65.6135 331.365 65.6685 332.12 65.7785 332.73C65.8985 333.34 66.1335 333.83 66.4835 334.2C66.8435 334.57 67.3635 334.755 68.0435 334.755C68.7135 334.755 69.2235 334.57 69.5735 334.2C69.9335 333.83 70.1685 333.34 70.2785 332.73C70.3985 332.12 70.4585 331.365 70.4585 330.465ZM73.6824 330.465C73.6824 328.745 73.9624 327.405 74.5224 326.445C75.0824 325.475 76.0624 324.99 77.4624 324.99C78.8524 324.99 79.8274 325.475 80.3874 326.445C80.9474 327.405 81.2274 328.745 81.2274 330.465C81.2274 332.215 80.9474 333.575 80.3874 334.545C79.8274 335.515 78.8524 336 77.4624 336C76.0624 336 75.0824 335.515 74.5224 334.545C73.9624 333.575 73.6824 332.215 73.6824 330.465ZM79.8774 330.465C79.8774 329.595 79.8174 328.86 79.6974 328.26C79.5874 327.65 79.3524 327.16 78.9924 326.79C78.6424 326.42 78.1324 326.235 77.4624 326.235C76.7824 326.235 76.2624 326.42 75.9024 326.79C75.5524 327.16 75.3174 327.65 75.1974 328.26C75.0874 328.86 75.0324 329.595 75.0324 330.465C75.0324 331.365 75.0874 332.12 75.1974 332.73C75.3174 333.34 75.5524 333.83 75.9024 334.2C76.2624 334.57 76.7824 334.755 77.4624 334.755C78.1324 334.755 78.6424 334.57 78.9924 334.2C79.3524 333.83 79.5874 333.34 79.6974 332.73C79.8174 332.12 79.8774 331.365 79.8774 330.465ZM93.5054 333.675H88.9454L88.1054 336H86.6654L90.4454 325.605H92.0204L95.7854 336H94.3454L93.5054 333.675ZM93.1154 332.565L91.2254 327.285L89.3354 332.565H93.1154ZM108.038 325.62V336H106.673V328.26L103.223 336H102.263L98.7978 328.245V336H97.4328V325.62H98.9028L102.743 334.2L106.583 325.62H108.038Z" fill="#AAAAAA"/>
</g>
<g filter="url(#filter8_d_327_5282)">
<rect x="248.25" y="261" width="102" height="40" rx="5" fill="white"/>
<path d="M267.529 280.465C267.529 278.745 267.809 277.405 268.369 276.445C268.929 275.475 269.909 274.99 271.309 274.99C272.699 274.99 273.674 275.475 274.234 276.445C274.794 277.405 275.074 278.745 275.074 280.465C275.074 282.215 274.794 283.575 274.234 284.545C273.674 285.515 272.699 286 271.309 286C269.909 286 268.929 285.515 268.369 284.545C267.809 283.575 267.529 282.215 267.529 280.465ZM273.724 280.465C273.724 279.595 273.664 278.86 273.544 278.26C273.434 277.65 273.199 277.16 272.839 276.79C272.489 276.42 271.979 276.235 271.309 276.235C270.629 276.235 270.109 276.42 269.749 276.79C269.399 277.16 269.164 277.65 269.044 278.26C268.934 278.86 268.879 279.595 268.879 280.465C268.879 281.365 268.934 282.12 269.044 282.73C269.164 283.34 269.399 283.83 269.749 284.2C270.109 284.57 270.629 284.755 271.309 284.755C271.979 284.755 272.489 284.57 272.839 284.2C273.199 283.83 273.434 283.34 273.544 282.73C273.664 282.12 273.724 281.365 273.724 280.465ZM276.918 277.885C276.988 276.965 277.343 276.245 277.983 275.725C278.623 275.205 279.453 274.945 280.473 274.945C281.153 274.945 281.738 275.07 282.228 275.32C282.728 275.56 283.103 275.89 283.353 276.31C283.613 276.73 283.743 277.205 283.743 277.735C283.743 278.355 283.563 278.89 283.203 279.34C282.853 279.79 282.393 280.08 281.823 280.21V280.285C282.473 280.445 282.988 280.76 283.368 281.23C283.748 281.7 283.938 282.315 283.938 283.075C283.938 283.645 283.808 284.16 283.548 284.62C283.288 285.07 282.898 285.425 282.378 285.685C281.858 285.945 281.233 286.075 280.503 286.075C279.443 286.075 278.573 285.8 277.893 285.25C277.213 284.69 276.833 283.9 276.753 282.88H278.073C278.143 283.48 278.388 283.97 278.808 284.35C279.228 284.73 279.788 284.92 280.488 284.92C281.188 284.92 281.718 284.74 282.078 284.38C282.448 284.01 282.633 283.535 282.633 282.955C282.633 282.205 282.383 281.665 281.883 281.335C281.383 281.005 280.628 280.84 279.618 280.84H279.273V279.7H279.633C280.553 279.69 281.248 279.54 281.718 279.25C282.188 278.95 282.423 278.49 282.423 277.87C282.423 277.34 282.248 276.915 281.898 276.595C281.558 276.275 281.068 276.115 280.428 276.115C279.808 276.115 279.308 276.275 278.928 276.595C278.548 276.915 278.323 277.345 278.253 277.885H276.918ZM286.441 286.09C286.181 286.09 285.961 286 285.781 285.82C285.601 285.64 285.511 285.42 285.511 285.16C285.511 284.9 285.601 284.68 285.781 284.5C285.961 284.32 286.181 284.23 286.441 284.23C286.691 284.23 286.901 284.32 287.071 284.5C287.251 284.68 287.341 284.9 287.341 285.16C287.341 285.42 287.251 285.64 287.071 285.82C286.901 286 286.691 286.09 286.441 286.09ZM286.441 279.67C286.181 279.67 285.961 279.58 285.781 279.4C285.601 279.22 285.511 279 285.511 278.74C285.511 278.48 285.601 278.26 285.781 278.08C285.961 277.9 286.181 277.81 286.441 277.81C286.691 277.81 286.901 277.9 287.071 278.08C287.251 278.26 287.341 278.48 287.341 278.74C287.341 279 287.251 279.22 287.071 279.4C286.901 279.58 286.691 279.67 286.441 279.67ZM288.944 277.885C289.014 276.965 289.369 276.245 290.009 275.725C290.649 275.205 291.479 274.945 292.499 274.945C293.179 274.945 293.764 275.07 294.254 275.32C294.754 275.56 295.129 275.89 295.379 276.31C295.639 276.73 295.769 277.205 295.769 277.735C295.769 278.355 295.589 278.89 295.229 279.34C294.879 279.79 294.419 280.08 293.849 280.21V280.285C294.499 280.445 295.014 280.76 295.394 281.23C295.774 281.7 295.964 282.315 295.964 283.075C295.964 283.645 295.834 284.16 295.574 284.62C295.314 285.07 294.924 285.425 294.404 285.685C293.884 285.945 293.259 286.075 292.529 286.075C291.469 286.075 290.599 285.8 289.919 285.25C289.239 284.69 288.859 283.9 288.779 282.88H290.099C290.169 283.48 290.414 283.97 290.834 284.35C291.254 284.73 291.814 284.92 292.514 284.92C293.214 284.92 293.744 284.74 294.104 284.38C294.474 284.01 294.659 283.535 294.659 282.955C294.659 282.205 294.409 281.665 293.909 281.335C293.409 281.005 292.654 280.84 291.644 280.84H291.299V279.7H291.659C292.579 279.69 293.274 279.54 293.744 279.25C294.214 278.95 294.449 278.49 294.449 277.87C294.449 277.34 294.274 276.915 293.924 276.595C293.584 276.275 293.094 276.115 292.454 276.115C291.834 276.115 291.334 276.275 290.954 276.595C290.574 276.915 290.349 277.345 290.279 277.885H288.944ZM297.807 280.465C297.807 278.745 298.087 277.405 298.647 276.445C299.207 275.475 300.187 274.99 301.587 274.99C302.977 274.99 303.952 275.475 304.512 276.445C305.072 277.405 305.352 278.745 305.352 280.465C305.352 282.215 305.072 283.575 304.512 284.545C303.952 285.515 302.977 286 301.587 286C300.187 286 299.207 285.515 298.647 284.545C298.087 283.575 297.807 282.215 297.807 280.465ZM304.002 280.465C304.002 279.595 303.942 278.86 303.822 278.26C303.712 277.65 303.477 277.16 303.117 276.79C302.767 276.42 302.257 276.235 301.587 276.235C300.907 276.235 300.387 276.42 300.027 276.79C299.677 277.16 299.442 277.65 299.322 278.26C299.212 278.86 299.157 279.595 299.157 280.465C299.157 281.365 299.212 282.12 299.322 282.73C299.442 283.34 299.677 283.83 300.027 284.2C300.387 284.57 300.907 284.755 301.587 284.755C302.257 284.755 302.767 284.57 303.117 284.2C303.477 283.83 303.712 283.34 303.822 282.73C303.942 282.12 304.002 281.365 304.002 280.465ZM318.44 278.605C318.44 279.475 318.14 280.2 317.54 280.78C316.95 281.35 316.045 281.635 314.825 281.635H312.815V286H311.45V275.545H314.825C316.005 275.545 316.9 275.83 317.51 276.4C318.13 276.97 318.44 277.705 318.44 278.605ZM314.825 280.51C315.585 280.51 316.145 280.345 316.505 280.015C316.865 279.685 317.045 279.215 317.045 278.605C317.045 277.315 316.305 276.67 314.825 276.67H312.815V280.51H314.825ZM330.741 275.62V286H329.376V278.26L325.926 286H324.966L321.501 278.245V286H320.136V275.62H321.606L325.446 284.2L329.286 275.62H330.741Z" fill="#AAAAAA"/>
</g>
<rect x="137.25" y="261" width="102" height="40" rx="5" fill="#0085FE" fill-opacity="0.1"/>
<path d="M158.25 280.465C158.25 278.745 158.53 277.405 159.09 276.445C159.65 275.475 160.63 274.99 162.03 274.99C163.42 274.99 164.395 275.475 164.955 276.445C165.515 277.405 165.795 278.745 165.795 280.465C165.795 282.215 165.515 283.575 164.955 284.545C164.395 285.515 163.42 286 162.03 286C160.63 286 159.65 285.515 159.09 284.545C158.53 283.575 158.25 282.215 158.25 280.465ZM164.445 280.465C164.445 279.595 164.385 278.86 164.265 278.26C164.155 277.65 163.92 277.16 163.56 276.79C163.21 276.42 162.7 276.235 162.03 276.235C161.35 276.235 160.83 276.42 160.47 276.79C160.12 277.16 159.885 277.65 159.765 278.26C159.655 278.86 159.6 279.595 159.6 280.465C159.6 281.365 159.655 282.12 159.765 282.73C159.885 283.34 160.12 283.83 160.47 284.2C160.83 284.57 161.35 284.755 162.03 284.755C162.7 284.755 163.21 284.57 163.56 284.2C163.92 283.83 164.155 283.34 164.265 282.73C164.385 282.12 164.445 281.365 164.445 280.465ZM167.309 276.4V275.155H170.129V286H168.749V276.4H167.309ZM173.133 286.09C172.873 286.09 172.653 286 172.473 285.82C172.293 285.64 172.203 285.42 172.203 285.16C172.203 284.9 172.293 284.68 172.473 284.5C172.653 284.32 172.873 284.23 173.133 284.23C173.383 284.23 173.593 284.32 173.763 284.5C173.943 284.68 174.033 284.9 174.033 285.16C174.033 285.42 173.943 285.64 173.763 285.82C173.593 286 173.383 286.09 173.133 286.09ZM173.133 279.67C172.873 279.67 172.653 279.58 172.473 279.4C172.293 279.22 172.203 279 172.203 278.74C172.203 278.48 172.293 278.26 172.473 278.08C172.653 277.9 172.873 277.81 173.133 277.81C173.383 277.81 173.593 277.9 173.763 278.08C173.943 278.26 174.033 278.48 174.033 278.74C174.033 279 173.943 279.22 173.763 279.4C173.593 279.58 173.383 279.67 173.133 279.67ZM175.667 280.465C175.667 278.745 175.947 277.405 176.507 276.445C177.067 275.475 178.047 274.99 179.447 274.99C180.837 274.99 181.812 275.475 182.372 276.445C182.932 277.405 183.212 278.745 183.212 280.465C183.212 282.215 182.932 283.575 182.372 284.545C181.812 285.515 180.837 286 179.447 286C178.047 286 177.067 285.515 176.507 284.545C175.947 283.575 175.667 282.215 175.667 280.465ZM181.862 280.465C181.862 279.595 181.802 278.86 181.682 278.26C181.572 277.65 181.337 277.16 180.977 276.79C180.627 276.42 180.117 276.235 179.447 276.235C178.767 276.235 178.247 276.42 177.887 276.79C177.537 277.16 177.302 277.65 177.182 278.26C177.072 278.86 177.017 279.595 177.017 280.465C177.017 281.365 177.072 282.12 177.182 282.73C177.302 283.34 177.537 283.83 177.887 284.2C178.247 284.57 178.767 284.755 179.447 284.755C180.117 284.755 180.627 284.57 180.977 284.2C181.337 283.83 181.572 283.34 181.682 282.73C181.802 282.12 181.862 281.365 181.862 280.465ZM185.086 280.465C185.086 278.745 185.366 277.405 185.926 276.445C186.486 275.475 187.466 274.99 188.866 274.99C190.256 274.99 191.231 275.475 191.791 276.445C192.351 277.405 192.631 278.745 192.631 280.465C192.631 282.215 192.351 283.575 191.791 284.545C191.231 285.515 190.256 286 188.866 286C187.466 286 186.486 285.515 185.926 284.545C185.366 283.575 185.086 282.215 185.086 280.465ZM191.281 280.465C191.281 279.595 191.221 278.86 191.101 278.26C190.991 277.65 190.756 277.16 190.396 276.79C190.046 276.42 189.536 276.235 188.866 276.235C188.186 276.235 187.666 276.42 187.306 276.79C186.956 277.16 186.721 277.65 186.601 278.26C186.491 278.86 186.436 279.595 186.436 280.465C186.436 281.365 186.491 282.12 186.601 282.73C186.721 283.34 186.956 283.83 187.306 284.2C187.666 284.57 188.186 284.755 188.866 284.755C189.536 284.755 190.046 284.57 190.396 284.2C190.756 283.83 190.991 283.34 191.101 282.73C191.221 282.12 191.281 281.365 191.281 280.465ZM205.719 278.605C205.719 279.475 205.419 280.2 204.819 280.78C204.229 281.35 203.324 281.635 202.104 281.635H200.094V286H198.729V275.545H202.104C203.284 275.545 204.179 275.83 204.789 276.4C205.409 276.97 205.719 277.705 205.719 278.605ZM202.104 280.51C202.864 280.51 203.424 280.345 203.784 280.015C204.144 279.685 204.324 279.215 204.324 278.605C204.324 277.315 203.584 276.67 202.104 276.67H200.094V280.51H202.104ZM218.02 275.62V286H216.655V278.26L213.205 286H212.245L208.78 278.245V286H207.415V275.62H208.885L212.725 284.2L216.565 275.62H218.02Z" fill="#0085FE"/>
<g filter="url(#filter9_d_327_5282)">
<rect x="25" y="261" width="102" height="40" rx="5" fill="white"/>
<path d="M42.9676 280.465C42.9676 278.745 43.2476 277.405 43.8076 276.445C44.3676 275.475 45.3476 274.99 46.7476 274.99C48.1376 274.99 49.1126 275.475 49.6726 276.445C50.2326 277.405 50.5126 278.745 50.5126 280.465C50.5126 282.215 50.2326 283.575 49.6726 284.545C49.1126 285.515 48.1376 286 46.7476 286C45.3476 286 44.3676 285.515 43.8076 284.545C43.2476 283.575 42.9676 282.215 42.9676 280.465ZM49.1626 280.465C49.1626 279.595 49.1026 278.86 48.9826 278.26C48.8726 277.65 48.6376 277.16 48.2776 276.79C47.9276 276.42 47.4176 276.235 46.7476 276.235C46.0676 276.235 45.5476 276.42 45.1876 276.79C44.8376 277.16 44.6026 277.65 44.4826 278.26C44.3726 278.86 44.3176 279.595 44.3176 280.465C44.3176 281.365 44.3726 282.12 44.4826 282.73C44.6026 283.34 44.8376 283.83 45.1876 284.2C45.5476 284.57 46.0676 284.755 46.7476 284.755C47.4176 284.755 47.9276 284.57 48.2776 284.2C48.6376 283.83 48.8726 283.34 48.9826 282.73C49.1026 282.12 49.1626 281.365 49.1626 280.465ZM54.1415 283.09C54.2415 283.66 54.4715 284.1 54.8315 284.41C55.2015 284.72 55.6965 284.875 56.3165 284.875C57.1465 284.875 57.7565 284.55 58.1465 283.9C58.5465 283.25 58.7365 282.155 58.7165 280.615C58.5065 281.065 58.1565 281.42 57.6665 281.68C57.1765 281.93 56.6315 282.055 56.0315 282.055C55.3615 282.055 54.7615 281.92 54.2315 281.65C53.7115 281.37 53.3015 280.965 53.0015 280.435C52.7015 279.905 52.5515 279.265 52.5515 278.515C52.5515 277.445 52.8615 276.585 53.4815 275.935C54.1015 275.275 54.9815 274.945 56.1215 274.945C57.5215 274.945 58.5015 275.4 59.0615 276.31C59.6315 277.22 59.9165 278.575 59.9165 280.375C59.9165 281.635 59.8015 282.675 59.5715 283.495C59.3515 284.315 58.9715 284.94 58.4315 285.37C57.9015 285.8 57.1715 286.015 56.2415 286.015C55.2215 286.015 54.4265 285.74 53.8565 285.19C53.2865 284.64 52.9615 283.94 52.8815 283.09H54.1415ZM56.2565 280.9C56.9265 280.9 57.4765 280.695 57.9065 280.285C58.3365 279.865 58.5515 279.3 58.5515 278.59C58.5515 277.84 58.3415 277.235 57.9215 276.775C57.5015 276.315 56.9115 276.085 56.1515 276.085C55.4515 276.085 54.8915 276.305 54.4715 276.745C54.0615 277.185 53.8565 277.765 53.8565 278.485C53.8565 279.215 54.0615 279.8 54.4715 280.24C54.8815 280.68 55.4765 280.9 56.2565 280.9ZM62.4948 286.09C62.2348 286.09 62.0148 286 61.8348 285.82C61.6548 285.64 61.5648 285.42 61.5648 285.16C61.5648 284.9 61.6548 284.68 61.8348 284.5C62.0148 284.32 62.2348 284.23 62.4948 284.23C62.7448 284.23 62.9548 284.32 63.1248 284.5C63.3048 284.68 63.3948 284.9 63.3948 285.16C63.3948 285.42 63.3048 285.64 63.1248 285.82C62.9548 286 62.7448 286.09 62.4948 286.09ZM62.4948 279.67C62.2348 279.67 62.0148 279.58 61.8348 279.4C61.6548 279.22 61.5648 279 61.5648 278.74C61.5648 278.48 61.6548 278.26 61.8348 278.08C62.0148 277.9 62.2348 277.81 62.4948 277.81C62.7448 277.81 62.9548 277.9 63.1248 278.08C63.3048 278.26 63.3948 278.48 63.3948 278.74C63.3948 279 63.3048 279.22 63.1248 279.4C62.9548 279.58 62.7448 279.67 62.4948 279.67ZM65.0281 280.465C65.0281 278.745 65.3081 277.405 65.8681 276.445C66.4281 275.475 67.4081 274.99 68.8081 274.99C70.1981 274.99 71.1731 275.475 71.7331 276.445C72.2931 277.405 72.5731 278.745 72.5731 280.465C72.5731 282.215 72.2931 283.575 71.7331 284.545C71.1731 285.515 70.1981 286 68.8081 286C67.4081 286 66.4281 285.515 65.8681 284.545C65.3081 283.575 65.0281 282.215 65.0281 280.465ZM71.2231 280.465C71.2231 279.595 71.1631 278.86 71.0431 278.26C70.9331 277.65 70.6981 277.16 70.3381 276.79C69.9881 276.42 69.4781 276.235 68.8081 276.235C68.1281 276.235 67.6081 276.42 67.2481 276.79C66.8981 277.16 66.6631 277.65 66.5431 278.26C66.4331 278.86 66.3781 279.595 66.3781 280.465C66.3781 281.365 66.4331 282.12 66.5431 282.73C66.6631 283.34 66.8981 283.83 67.2481 284.2C67.6081 284.57 68.1281 284.755 68.8081 284.755C69.4781 284.755 69.9881 284.57 70.3381 284.2C70.6981 283.83 70.9331 283.34 71.0431 282.73C71.1631 282.12 71.2231 281.365 71.2231 280.465ZM74.4471 280.465C74.4471 278.745 74.7271 277.405 75.2871 276.445C75.8471 275.475 76.8271 274.99 78.2271 274.99C79.6171 274.99 80.5921 275.475 81.1521 276.445C81.7121 277.405 81.9921 278.745 81.9921 280.465C81.9921 282.215 81.7121 283.575 81.1521 284.545C80.5921 285.515 79.6171 286 78.2271 286C76.8271 286 75.8471 285.515 75.2871 284.545C74.7271 283.575 74.4471 282.215 74.4471 280.465ZM80.6421 280.465C80.6421 279.595 80.5821 278.86 80.4621 278.26C80.3521 277.65 80.1171 277.16 79.7571 276.79C79.4071 276.42 78.8971 276.235 78.2271 276.235C77.5471 276.235 77.0271 276.42 76.6671 276.79C76.3171 277.16 76.0821 277.65 75.9621 278.26C75.8521 278.86 75.7971 279.595 75.7971 280.465C75.7971 281.365 75.8521 282.12 75.9621 282.73C76.0821 283.34 76.3171 283.83 76.6671 284.2C77.0271 284.57 77.5471 284.755 78.2271 284.755C78.8971 284.755 79.4071 284.57 79.7571 284.2C80.1171 283.83 80.3521 283.34 80.4621 282.73C80.5821 282.12 80.6421 281.365 80.6421 280.465ZM94.2701 283.675H89.7101L88.8701 286H87.4301L91.2101 275.605H92.7851L96.5501 286H95.1101L94.2701 283.675ZM93.8801 282.565L91.9901 277.285L90.1001 282.565H93.8801ZM108.802 275.62V286H107.437V278.26L103.987 286H103.027L99.5625 278.245V286H98.1975V275.62H99.6675L103.507 284.2L107.347 275.62H108.802Z" fill="#AAAAAA"/>
</g>
<path d="M29.472 241.126C28.632 241.126 27.876 240.982 27.204 240.694C26.532 240.394 26.004 239.974 25.62 239.434C25.236 238.894 25.044 238.264 25.044 237.544H27.24C27.288 238.084 27.498 238.528 27.87 238.876C28.254 239.224 28.788 239.398 29.472 239.398C30.18 239.398 30.732 239.23 31.128 238.894C31.524 238.546 31.722 238.102 31.722 237.562C31.722 237.142 31.596 236.8 31.344 236.536C31.104 236.272 30.798 236.068 30.426 235.924C30.066 235.78 29.562 235.624 28.914 235.456C28.098 235.24 27.432 235.024 26.916 234.808C26.412 234.58 25.98 234.232 25.62 233.764C25.26 233.296 25.08 232.672 25.08 231.892C25.08 231.172 25.26 230.542 25.62 230.002C25.98 229.462 26.484 229.048 27.132 228.76C27.78 228.472 28.53 228.328 29.382 228.328C30.594 228.328 31.584 228.634 32.352 229.246C33.132 229.846 33.564 230.674 33.648 231.73H31.38C31.344 231.274 31.128 230.884 30.732 230.56C30.336 230.236 29.814 230.074 29.166 230.074C28.578 230.074 28.098 230.224 27.726 230.524C27.354 230.824 27.168 231.256 27.168 231.82C27.168 232.204 27.282 232.522 27.51 232.774C27.75 233.014 28.05 233.206 28.41 233.35C28.77 233.494 29.262 233.65 29.886 233.818C30.714 234.046 31.386 234.274 31.902 234.502C32.43 234.73 32.874 235.084 33.234 235.564C33.606 236.032 33.792 236.662 33.792 237.454C33.792 238.09 33.618 238.69 33.27 239.254C32.934 239.818 32.436 240.274 31.776 240.622C31.128 240.958 30.36 241.126 29.472 241.126ZM35.5293 236.032C35.5293 235.012 35.7333 234.118 36.1413 233.35C36.5613 232.57 37.1373 231.97 37.8693 231.55C38.6013 231.13 39.4413 230.92 40.3893 230.92C41.5893 230.92 42.5793 231.208 43.3593 231.784C44.1513 232.348 44.6853 233.158 44.9613 234.214H42.7473C42.5673 233.722 42.2793 233.338 41.8833 233.062C41.4873 232.786 40.9893 232.648 40.3893 232.648C39.5493 232.648 38.8773 232.948 38.3733 233.548C37.8813 234.136 37.6353 234.964 37.6353 236.032C37.6353 237.1 37.8813 237.934 38.3733 238.534C38.8773 239.134 39.5493 239.434 40.3893 239.434C41.5773 239.434 42.3633 238.912 42.7473 237.868H44.9613C44.6733 238.876 44.1333 239.68 43.3413 240.28C42.5493 240.868 41.5653 241.162 40.3893 241.162C39.4413 241.162 38.6013 240.952 37.8693 240.532C37.1373 240.1 36.5613 239.5 36.1413 238.732C35.7333 237.952 35.5293 237.052 35.5293 236.032ZM52.1363 230.92C52.8923 230.92 53.5643 231.082 54.1523 231.406C54.7523 231.73 55.2203 232.21 55.5563 232.846C55.9043 233.482 56.0783 234.25 56.0783 235.15V241H54.0443V235.456C54.0443 234.568 53.8223 233.89 53.3783 233.422C52.9343 232.942 52.3283 232.702 51.5603 232.702C50.7923 232.702 50.1803 232.942 49.7243 233.422C49.2803 233.89 49.0583 234.568 49.0583 235.456V241H47.0063V227.68H49.0583V232.234C49.4063 231.814 49.8443 231.49 50.3723 231.262C50.9123 231.034 51.5003 230.92 52.1363 230.92ZM67.7857 235.798C67.7857 236.17 67.7617 236.506 67.7137 236.806H60.1357C60.1957 237.598 60.4897 238.234 61.0177 238.714C61.5457 239.194 62.1937 239.434 62.9617 239.434C64.0657 239.434 64.8457 238.972 65.3017 238.048H67.5157C67.2157 238.96 66.6697 239.71 65.8777 240.298C65.0977 240.874 64.1257 241.162 62.9617 241.162C62.0137 241.162 61.1617 240.952 60.4057 240.532C59.6617 240.1 59.0737 239.5 58.6417 238.732C58.2217 237.952 58.0117 237.052 58.0117 236.032C58.0117 235.012 58.2157 234.118 58.6237 233.35C59.0437 232.57 59.6257 231.97 60.3697 231.55C61.1257 231.13 61.9897 230.92 62.9617 230.92C63.8977 230.92 64.7317 231.124 65.4637 231.532C66.1957 231.94 66.7657 232.516 67.1737 233.26C67.5817 233.992 67.7857 234.838 67.7857 235.798ZM65.6437 235.15C65.6317 234.394 65.3617 233.788 64.8337 233.332C64.3057 232.876 63.6517 232.648 62.8717 232.648C62.1637 232.648 61.5577 232.876 61.0537 233.332C60.5497 233.776 60.2497 234.382 60.1537 235.15H65.6437ZM69.1211 235.996C69.1211 235 69.3251 234.118 69.7331 233.35C70.1531 232.582 70.7171 231.988 71.4251 231.568C72.1451 231.136 72.9431 230.92 73.8191 230.92C74.4671 230.92 75.1031 231.064 75.7271 231.352C76.3631 231.628 76.8671 232 77.2391 232.468V227.68H79.3091V241H77.2391V239.506C76.9031 239.986 76.4351 240.382 75.8351 240.694C75.2471 241.006 74.5691 241.162 73.8011 241.162C72.9371 241.162 72.1451 240.946 71.4251 240.514C70.7171 240.07 70.1531 239.458 69.7331 238.678C69.3251 237.886 69.1211 236.992 69.1211 235.996ZM77.2391 236.032C77.2391 235.348 77.0951 234.754 76.8071 234.25C76.5311 233.746 76.1651 233.362 75.7091 233.098C75.2531 232.834 74.7611 232.702 74.2331 232.702C73.7051 232.702 73.2131 232.834 72.7571 233.098C72.3011 233.35 71.9291 233.728 71.6411 234.232C71.3651 234.724 71.2271 235.312 71.2271 235.996C71.2271 236.68 71.3651 237.28 71.6411 237.796C71.9291 238.312 72.3011 238.708 72.7571 238.984C73.2251 239.248 73.7171 239.38 74.2331 239.38C74.7611 239.38 75.2531 239.248 75.7091 238.984C76.1651 238.72 76.5311 238.336 76.8071 237.832C77.0951 237.316 77.2391 236.716 77.2391 236.032ZM90.9863 231.082V241H88.9343V239.83C88.6103 240.238 88.1843 240.562 87.6563 240.802C87.1403 241.03 86.5883 241.144 86.0003 241.144C85.2203 241.144 84.5183 240.982 83.8943 240.658C83.2823 240.334 82.7963 239.854 82.4363 239.218C82.0883 238.582 81.9143 237.814 81.9143 236.914V231.082H83.9483V236.608C83.9483 237.496 84.1703 238.18 84.6143 238.66C85.0583 239.128 85.6643 239.362 86.4323 239.362C87.2003 239.362 87.8063 239.128 88.2503 238.66C88.7063 238.18 88.9343 237.496 88.9343 236.608V231.082H90.9863ZM95.7458 227.68V241H93.6938V227.68H95.7458ZM107.53 235.798C107.53 236.17 107.506 236.506 107.458 236.806H99.8798C99.9398 237.598 100.234 238.234 100.762 238.714C101.29 239.194 101.938 239.434 102.706 239.434C103.81 239.434 104.59 238.972 105.046 238.048H107.26C106.96 238.96 106.414 239.71 105.622 240.298C104.842 240.874 103.87 241.162 102.706 241.162C101.758 241.162 100.906 240.952 100.15 240.532C99.4058 240.1 98.8178 239.5 98.3858 238.732C97.9658 237.952 97.7558 237.052 97.7558 236.032C97.7558 235.012 97.9598 234.118 98.3678 233.35C98.7878 232.57 99.3698 231.97 100.114 231.55C100.87 231.13 101.734 230.92 102.706 230.92C103.642 230.92 104.476 231.124 105.208 231.532C105.94 231.94 106.51 232.516 106.918 233.26C107.326 233.992 107.53 234.838 107.53 235.798ZM105.388 235.15C105.376 234.394 105.106 233.788 104.578 233.332C104.05 232.876 103.396 232.648 102.616 232.648C101.908 232.648 101.302 232.876 100.798 233.332C100.294 233.776 99.9938 234.382 99.8978 235.15H105.388ZM113.149 241.162C112.369 241.162 111.667 241.024 111.043 240.748C110.431 240.46 109.945 240.076 109.585 239.596C109.225 239.104 109.033 238.558 109.009 237.958H111.133C111.169 238.378 111.367 238.732 111.727 239.02C112.099 239.296 112.561 239.434 113.113 239.434C113.689 239.434 114.133 239.326 114.445 239.11C114.769 238.882 114.931 238.594 114.931 238.246C114.931 237.874 114.751 237.598 114.391 237.418C114.043 237.238 113.485 237.04 112.717 236.824C111.973 236.62 111.367 236.422 110.899 236.23C110.431 236.038 110.023 235.744 109.675 235.348C109.339 234.952 109.171 234.43 109.171 233.782C109.171 233.254 109.327 232.774 109.639 232.342C109.951 231.898 110.395 231.55 110.971 231.298C111.559 231.046 112.231 230.92 112.987 230.92C114.115 230.92 115.021 231.208 115.705 231.784C116.401 232.348 116.773 233.122 116.821 234.106H114.769C114.733 233.662 114.553 233.308 114.229 233.044C113.905 232.78 113.467 232.648 112.915 232.648C112.375 232.648 111.961 232.75 111.673 232.954C111.385 233.158 111.241 233.428 111.241 233.764C111.241 234.028 111.337 234.25 111.529 234.43C111.721 234.61 111.955 234.754 112.231 234.862C112.507 234.958 112.915 235.084 113.455 235.24C114.175 235.432 114.763 235.63 115.219 235.834C115.687 236.026 116.089 236.314 116.425 236.698C116.761 237.082 116.935 237.592 116.947 238.228C116.947 238.792 116.791 239.296 116.479 239.74C116.167 240.184 115.723 240.532 115.147 240.784C114.583 241.036 113.917 241.162 113.149 241.162Z" fill="black"/>
<rect x="64.5" y="83.5" width="39" height="39" rx="9.5" transform="rotate(180 64.5 83.5)" stroke="#F0F0F0"/>
<path d="M48.5 71L41.5 64L48.5 57" stroke="#AAAAAA" stroke-width="1.5" stroke-linecap="round" stroke-linejoin="round"/>
<path d="M130.847 68.16H125.027L124.027 71H121.647L126.627 57.08H129.267L134.247 71H131.847L130.847 68.16ZM130.207 66.3L127.947 59.84L125.667 66.3H130.207ZM138.692 61.6C139.079 61.0933 139.605 60.6667 140.272 60.32C140.939 59.9733 141.692 59.8 142.532 59.8C143.492 59.8 144.365 60.04 145.152 60.52C145.952 60.9867 146.579 61.6467 147.032 62.5C147.485 63.3533 147.712 64.3333 147.712 65.44C147.712 66.5467 147.485 67.54 147.032 68.42C146.579 69.2867 145.952 69.9667 145.152 70.46C144.365 70.94 143.492 71.18 142.532 71.18C141.692 71.18 140.945 71.0133 140.292 70.68C139.639 70.3333 139.105 69.9067 138.692 69.4V76.24H136.412V59.98H138.692V61.6ZM145.392 65.44C145.392 64.68 145.232 64.0267 144.912 63.48C144.605 62.92 144.192 62.5 143.672 62.22C143.165 61.9267 142.619 61.78 142.032 61.78C141.459 61.78 140.912 61.9267 140.392 62.22C139.885 62.5133 139.472 62.94 139.152 63.5C138.845 64.06 138.692 64.72 138.692 65.48C138.692 66.24 138.845 66.9067 139.152 67.48C139.472 68.04 139.885 68.4667 140.392 68.76C140.912 69.0533 141.459 69.2 142.032 69.2C142.619 69.2 143.165 69.0533 143.672 68.76C144.192 68.4533 144.605 68.0133 144.912 67.44C145.232 66.8667 145.392 66.2 145.392 65.44ZM152.247 61.6C152.633 61.0933 153.16 60.6667 153.827 60.32C154.493 59.9733 155.247 59.8 156.087 59.8C157.047 59.8 157.92 60.04 158.707 60.52C159.507 60.9867 160.133 61.6467 160.587 62.5C161.04 63.3533 161.267 64.3333 161.267 65.44C161.267 66.5467 161.04 67.54 160.587 68.42C160.133 69.2867 159.507 69.9667 158.707 70.46C157.92 70.94 157.047 71.18 156.087 71.18C155.247 71.18 154.5 71.0133 153.847 70.68C153.193 70.3333 152.66 69.9067 152.247 69.4V76.24H149.967V59.98H152.247V61.6ZM158.947 65.44C158.947 64.68 158.787 64.0267 158.467 63.48C158.16 62.92 157.747 62.5 157.227 62.22C156.72 61.9267 156.173 61.78 155.587 61.78C155.013 61.78 154.467 61.9267 153.947 62.22C153.44 62.5133 153.027 62.94 152.707 63.5C152.4 64.06 152.247 64.72 152.247 65.48C152.247 66.24 152.4 66.9067 152.707 67.48C153.027 68.04 153.44 68.4667 153.947 68.76C154.467 69.0533 155.013 69.2 155.587 69.2C156.173 69.2 156.72 69.0533 157.227 68.76C157.747 68.4533 158.16 68.0133 158.467 67.44C158.787 66.8667 158.947 66.2 158.947 65.44ZM168.301 71.18C167.261 71.18 166.321 70.9467 165.481 70.48C164.641 70 163.981 69.3333 163.501 68.48C163.021 67.6133 162.781 66.6133 162.781 65.48C162.781 64.36 163.028 63.3667 163.521 62.5C164.015 61.6333 164.688 60.9667 165.541 60.5C166.395 60.0333 167.348 59.8 168.401 59.8C169.455 59.8 170.408 60.0333 171.261 60.5C172.115 60.9667 172.788 61.6333 173.281 62.5C173.775 63.3667 174.021 64.36 174.021 65.48C174.021 66.6 173.768 67.5933 173.261 68.46C172.755 69.3267 172.061 70 171.181 70.48C170.315 70.9467 169.355 71.18 168.301 71.18ZM168.301 69.2C168.888 69.2 169.435 69.06 169.941 68.78C170.461 68.5 170.881 68.08 171.201 67.52C171.521 66.96 171.681 66.28 171.681 65.48C171.681 64.68 171.528 64.0067 171.221 63.46C170.915 62.9 170.508 62.48 170.001 62.2C169.495 61.92 168.948 61.78 168.361 61.78C167.775 61.78 167.228 61.92 166.721 62.2C166.228 62.48 165.835 62.9 165.541 63.46C165.248 64.0067 165.101 64.68 165.101 65.48C165.101 66.6667 165.401 67.5867 166.001 68.24C166.615 68.88 167.381 69.2 168.301 69.2ZM177.435 58.52C177.022 58.52 176.675 58.38 176.395 58.1C176.115 57.82 175.975 57.4733 175.975 57.06C175.975 56.6467 176.115 56.3 176.395 56.02C176.675 55.74 177.022 55.6 177.435 55.6C177.835 55.6 178.175 55.74 178.455 56.02C178.735 56.3 178.875 56.6467 178.875 57.06C178.875 57.4733 178.735 57.82 178.455 58.1C178.175 58.38 177.835 58.52 177.435 58.52ZM178.555 59.98V71H176.275V59.98H178.555ZM187.109 59.8C187.975 59.8 188.749 59.98 189.429 60.34C190.122 60.7 190.662 61.2333 191.049 61.94C191.435 62.6467 191.629 63.5 191.629 64.5V71H189.369V64.84C189.369 63.8533 189.122 63.1 188.629 62.58C188.135 62.0467 187.462 61.78 186.609 61.78C185.755 61.78 185.075 62.0467 184.569 62.58C184.075 63.1 183.829 63.8533 183.829 64.84V71H181.549V59.98H183.829V61.24C184.202 60.7867 184.675 60.4333 185.249 60.18C185.835 59.9267 186.455 59.8 187.109 59.8ZM197.197 61.84V67.94C197.197 68.3533 197.29 68.6533 197.477 68.84C197.677 69.0133 198.01 69.1 198.477 69.1H199.877V71H198.077C197.05 71 196.264 70.76 195.717 70.28C195.17 69.8 194.897 69.02 194.897 67.94V61.84H193.597V59.98H194.897V57.24H197.197V59.98H199.877V61.84H197.197ZM215.319 59.8C216.185 59.8 216.959 59.98 217.639 60.34C218.332 60.7 218.872 61.2333 219.259 61.94C219.659 62.6467 219.859 63.5 219.859 64.5V71H217.599V64.84C217.599 63.8533 217.352 63.1 216.859 62.58C216.365 62.0467 215.692 61.78 214.839 61.78C213.985 61.78 213.305 62.0467 212.799 62.58C212.305 63.1 212.059 63.8533 212.059 64.84V71H209.799V64.84C209.799 63.8533 209.552 63.1 209.059 62.58C208.565 62.0467 207.892 61.78 207.039 61.78C206.185 61.78 205.505 62.0467 204.999 62.58C204.505 63.1 204.259 63.8533 204.259 64.84V71H201.979V59.98H204.259V61.24C204.632 60.7867 205.105 60.4333 205.679 60.18C206.252 59.9267 206.865 59.8 207.519 59.8C208.399 59.8 209.185 59.9867 209.879 60.36C210.572 60.7333 211.105 61.2733 211.479 61.98C211.812 61.3133 212.332 60.7867 213.039 60.4C213.745 60 214.505 59.8 215.319 59.8ZM232.86 65.22C232.86 65.6333 232.833 66.0067 232.78 66.34H224.36C224.426 67.22 224.753 67.9267 225.34 68.46C225.926 68.9933 226.646 69.26 227.5 69.26C228.726 69.26 229.593 68.7467 230.1 67.72H232.56C232.226 68.7333 231.62 69.5667 230.74 70.22C229.873 70.86 228.793 71.18 227.5 71.18C226.446 71.18 225.5 70.9467 224.66 70.48C223.833 70 223.18 69.3333 222.7 68.48C222.233 67.6133 222 66.6133 222 65.48C222 64.3467 222.226 63.3533 222.68 62.5C223.146 61.6333 223.793 60.9667 224.62 60.5C225.46 60.0333 226.42 59.8 227.5 59.8C228.54 59.8 229.466 60.0267 230.28 60.48C231.093 60.9333 231.726 61.5733 232.18 62.4C232.633 63.2133 232.86 64.1533 232.86 65.22ZM230.48 64.5C230.466 63.66 230.166 62.9867 229.58 62.48C228.993 61.9733 228.266 61.72 227.4 61.72C226.613 61.72 225.94 61.9733 225.38 62.48C224.82 62.9733 224.486 63.6467 224.38 64.5H230.48ZM240.664 59.8C241.53 59.8 242.304 59.98 242.984 60.34C243.677 60.7 244.217 61.2333 244.604 61.94C244.99 62.6467 245.184 63.5 245.184 64.5V71H242.924V64.84C242.924 63.8533 242.677 63.1 242.184 62.58C241.69 62.0467 241.017 61.78 240.164 61.78C239.31 61.78 238.63 62.0467 238.124 62.58C237.63 63.1 237.384 63.8533 237.384 64.84V71H235.104V59.98H237.384V61.24C237.757 60.7867 238.23 60.4333 238.804 60.18C239.39 59.9267 240.01 59.8 240.664 59.8ZM250.752 61.84V67.94C250.752 68.3533 250.845 68.6533 251.032 68.84C251.232 69.0133 251.565 69.1 252.032 69.1H253.432V71H251.632C250.605 71 249.818 70.76 249.272 70.28C248.725 69.8 248.452 69.02 248.452 67.94V61.84H247.152V59.98H248.452V57.24H250.752V59.98H253.432V61.84H250.752Z" fill="black"/>
</g>
<defs>
<filter id="filter0_d_327_5282" x="5.125" y="150" width="75" height="75" filterUnits="userSpaceOnUse" color-interpolation-filters="sRGB">
<feFlood flood-opacity="0" result="BackgroundImageFix"/>
<feColorMatrix in="SourceAlpha" type="matrix" values="0 0 0 0 0 0 0 0 0 0 0 0 0 0 0 0 0 0 127 0" result="hardAlpha"/>
<feOffset/>
<feGaussianBlur stdDeviation="10"/>
<feComposite in2="hardAlpha" operator="out"/>
<feColorMatrix type="matrix" values="0 0 0 0 0 0 0 0 0 0 0 0 0 0 0 0 0 0 0.05 0"/>
<feBlend mode="normal" in2="BackgroundImageFix" result="effect1_dropShadow_327_5282"/>
<feBlend mode="normal" in="SourceGraphic" in2="effect1_dropShadow_327_5282" result="shape"/>
</filter>
<filter id="filter1_d_327_5282" x="53.125" y="150" width="75" height="75" filterUnits="userSpaceOnUse" color-interpolation-filters="sRGB">
<feFlood flood-opacity="0" result="BackgroundImageFix"/>
<feColorMatrix in="SourceAlpha" type="matrix" values="0 0 0 0 0 0 0 0 0 0 0 0 0 0 0 0 0 0 127 0" result="hardAlpha"/>
<feOffset/>
<feGaussianBlur stdDeviation="10"/>
<feComposite in2="hardAlpha" operator="out"/>
<feColorMatrix type="matrix" values="0 0 0 0 0 0 0 0 0 0 0 0 0 0 0 0 0 0 0.05 0"/>
<feBlend mode="normal" in2="BackgroundImageFix" result="effect1_dropShadow_327_5282"/>
<feBlend mode="normal" in="SourceGraphic" in2="effect1_dropShadow_327_5282" result="shape"/>
</filter>
<filter id="filter2_d_327_5282" x="101.125" y="150" width="75" height="75" filterUnits="userSpaceOnUse" color-interpolation-filters="sRGB">
<feFlood flood-opacity="0" result="BackgroundImageFix"/>
<feColorMatrix in="SourceAlpha" type="matrix" values="0 0 0 0 0 0 0 0 0 0 0 0 0 0 0 0 0 0 127 0" result="hardAlpha"/>
<feOffset/>
<feGaussianBlur stdDeviation="10"/>
<feComposite in2="hardAlpha" operator="out"/>
<feColorMatrix type="matrix" values="0 0 0 0 0 0 0 0 0 0 0 0 0 0 0 0 0 0 0.05 0"/>
<feBlend mode="normal" in2="BackgroundImageFix" result="effect1_dropShadow_327_5282"/>
<feBlend mode="normal" in="SourceGraphic" in2="effect1_dropShadow_327_5282" result="shape"/>
</filter>
<filter id="filter3_d_327_5282" x="197.125" y="150" width="75" height="75" filterUnits="userSpaceOnUse" color-interpolation-filters="sRGB">
<feFlood flood-opacity="0" result="BackgroundImageFix"/>
<feColorMatrix in="SourceAlpha" type="matrix" values="0 0 0 0 0 0 0 0 0 0 0 0 0 0 0 0 0 0 127 0" result="hardAlpha"/>
<feOffset/>
<feGaussianBlur stdDeviation="10"/>
<feComposite in2="hardAlpha" operator="out"/>
<feColorMatrix type="matrix" values="0 0 0 0 0 0 0 0 0 0 0 0 0 0 0 0 0 0 0.05 0"/>
<feBlend mode="normal" in2="BackgroundImageFix" result="effect1_dropShadow_327_5282"/>
<feBlend mode="normal" in="SourceGraphic" in2="effect1_dropShadow_327_5282" result="shape"/>
</filter>
<filter id="filter4_d_327_5282" x="245.125" y="150" width="75" height="75" filterUnits="userSpaceOnUse" color-interpolation-filters="sRGB">
<feFlood flood-opacity="0" result="BackgroundImageFix"/>
<feColorMatrix in="SourceAlpha" type="matrix" values="0 0 0 0 0 0 0 0 0 0 0 0 0 0 0 0 0 0 127 0" result="hardAlpha"/>
<feOffset/>
<feGaussianBlur stdDeviation="10"/>
<feComposite in2="hardAlpha" operator="out"/>
<feColorMatrix type="matrix" values="0 0 0 0 0 0 0 0 0 0 0 0 0 0 0 0 0 0 0.05 0"/>
<feBlend mode="normal" in2="BackgroundImageFix" result="effect1_dropShadow_327_5282"/>
<feBlend mode="normal" in="SourceGraphic" in2="effect1_dropShadow_327_5282" result="shape"/>
</filter>
<filter id="filter5_d_327_5282" x="293.125" y="150" width="75" height="75" filterUnits="userSpaceOnUse" color-interpolation-filters="sRGB">
<feFlood flood-opacity="0" result="BackgroundImageFix"/>
<feColorMatrix in="SourceAlpha" type="matrix" values="0 0 0 0 0 0 0 0 0 0 0 0 0 0 0 0 0 0 127 0" result="hardAlpha"/>
<feOffset/>
<feGaussianBlur stdDeviation="10"/>
<feComposite in2="hardAlpha" operator="out"/>
<feColorMatrix type="matrix" values="0 0 0 0 0 0 0 0 0 0 0 0 0 0 0 0 0 0 0.05 0"/>
<feBlend mode="normal" in2="BackgroundImageFix" result="effect1_dropShadow_327_5282"/>
<feBlend mode="normal" in="SourceGraphic" in2="effect1_dropShadow_327_5282" result="shape"/>
</filter>
<filter id="filter6_d_327_5282" x="110.25" y="291" width="162" height="100" filterUnits="userSpaceOnUse" color-interpolation-filters="sRGB">
<feFlood flood-opacity="0" result="BackgroundImageFix"/>
<feColorMatrix in="SourceAlpha" type="matrix" values="0 0 0 0 0 0 0 0 0 0 0 0 0 0 0 0 0 0 127 0" result="hardAlpha"/>
<feOffset dx="4" dy="10"/>
<feGaussianBlur stdDeviation="15"/>
<feComposite in2="hardAlpha" operator="out"/>
<feColorMatrix type="matrix" values="0 0 0 0 0 0 0 0 0 0 0 0 0 0 0 0 0 0 0.06 0"/>
<feBlend mode="normal" in2="BackgroundImageFix" result="effect1_dropShadow_327_5282"/>
<feBlend mode="normal" in="SourceGraphic" in2="effect1_dropShadow_327_5282" result="shape"/>
</filter>
<filter id="filter7_d_327_5282" x="-1.75" y="291" width="162" height="100" filterUnits="userSpaceOnUse" color-interpolation-filters="sRGB">
<feFlood flood-opacity="0" result="BackgroundImageFix"/>
<feColorMatrix in="SourceAlpha" type="matrix" values="0 0 0 0 0 0 0 0 0 0 0 0 0 0 0 0 0 0 127 0" result="hardAlpha"/>
<feOffset dx="4" dy="10"/>
<feGaussianBlur stdDeviation="15"/>
<feComposite in2="hardAlpha" operator="out"/>
<feColorMatrix type="matrix" values="0 0 0 0 0 0 0 0 0 0 0 0 0 0 0 0 0 0 0.06 0"/>
<feBlend mode="normal" in2="BackgroundImageFix" result="effect1_dropShadow_327_5282"/>
<feBlend mode="normal" in="SourceGraphic" in2="effect1_dropShadow_327_5282" result="shape"/>
</filter>
<filter id="filter8_d_327_5282" x="222.25" y="241" width="162" height="100" filterUnits="userSpaceOnUse" color-interpolation-filters="sRGB">
<feFlood flood-opacity="0" result="BackgroundImageFix"/>
<feColorMatrix in="SourceAlpha" type="matrix" values="0 0 0 0 0 0 0 0 0 0 0 0 0 0 0 0 0 0 127 0" result="hardAlpha"/>
<feOffset dx="4" dy="10"/>
<feGaussianBlur stdDeviation="15"/>
<feComposite in2="hardAlpha" operator="out"/>
<feColorMatrix type="matrix" values="0 0 0 0 0 0 0 0 0 0 0 0 0 0 0 0 0 0 0.06 0"/>
<feBlend mode="normal" in2="BackgroundImageFix" result="effect1_dropShadow_327_5282"/>
<feBlend mode="normal" in="SourceGraphic" in2="effect1_dropShadow_327_5282" result="shape"/>
</filter>
<filter id="filter9_d_327_5282" x="-1" y="241" width="162" height="100" filterUnits="userSpaceOnUse" color-interpolation-filters="sRGB">
<feFlood flood-opacity="0" result="BackgroundImageFix"/>
<feColorMatrix in="SourceAlpha" type="matrix" values="0 0 0 0 0 0 0 0 0 0 0 0 0 0 0 0 0 0 127 0" result="hardAlpha"/>
<feOffset dx="4" dy="10"/>
<feGaussianBlur stdDeviation="15"/>
<feComposite in2="hardAlpha" operator="out"/>
<feColorMatrix type="matrix" values="0 0 0 0 0 0 0 0 0 0 0 0 0 0 0 0 0 0 0.06 0"/>
<feBlend mode="normal" in2="BackgroundImageFix" result="effect1_dropShadow_327_5282"/>
<feBlend mode="normal" in="SourceGraphic" in2="effect1_dropShadow_327_5282" result="shape"/>
</filter>
<clipPath id="clip0_327_5282">
<rect width="375" height="812" fill="white"/>
</clipPath>
</defs>
</svg>
