<svg width="375" height="812" viewBox="0 0 375 812" fill="none" xmlns="http://www.w3.org/2000/svg">
<rect width="375" height="812" fill="white"/>
<rect x="157" y="687" width="60" height="60" rx="30" fill="#FE5050"/>
<path fill-rule="evenodd" clip-rule="evenodd" d="M186.532 717.472C190.521 721.46 191.426 716.847 193.966 719.385C196.414 721.833 197.822 722.323 194.719 725.425C194.331 725.737 191.862 729.494 183.185 720.82C174.507 712.144 178.262 709.672 178.574 709.284C181.684 706.174 182.166 707.589 184.614 710.037C187.154 712.576 182.543 713.484 186.532 717.472Z" fill="#F8F8F8"/>
<rect x="267" y="617" width="50" height="50" rx="25" fill="#BDE3FF" fill-opacity="0.5"/>
<path d="M296.621 639.516C296.621 639.516 293.946 642.726 291.989 642.726C290.033 642.726 287.328 639.516 287.328 639.516" stroke="#0085FE" stroke-width="1.5" stroke-linecap="round" stroke-linejoin="round"/>
<path fill-rule="evenodd" clip-rule="evenodd" d="M284.043 641.974C284.043 636.275 286.028 634.376 291.98 634.376C297.932 634.376 299.916 636.275 299.916 641.974C299.916 647.671 297.932 649.571 291.98 649.571C286.028 649.571 284.043 647.671 284.043 641.974Z" stroke="#0085FE" stroke-width="1.5" stroke-linecap="round" stroke-linejoin="round"/>
<rect x="197" y="617" width="50" height="50" rx="25" fill="#BDE3FF" fill-opacity="0.5"/>
<path d="M228.196 636.812C230.274 639.912 230.28 644.003 228.196 647.11" stroke="#0085FE" stroke-width="1.5" stroke-linecap="round" stroke-linejoin="round"/>
<path d="M226.157 638.848C227.226 640.783 227.226 643.145 226.157 645.074" stroke="#0085FE" stroke-width="1.5" stroke-linecap="round" stroke-linejoin="round"/>
<path fill-rule="evenodd" clip-rule="evenodd" d="M214.235 641.961C214.233 642.999 214.235 644.217 215.093 644.945C215.951 645.674 216.631 645.374 217.741 645.739C218.852 646.105 220.407 648.361 222.125 647.342C223.054 646.682 223.492 645.436 223.492 641.961C223.492 638.485 223.074 637.253 222.125 636.58C220.407 635.561 218.852 637.817 217.741 638.183C216.631 638.549 215.951 638.248 215.093 638.976C214.235 639.704 214.233 640.922 214.235 641.961Z" stroke="#0085FE" stroke-width="1.5" stroke-linecap="round" stroke-linejoin="round"/>
<rect x="127" y="617" width="50" height="50" rx="25" fill="#BDE3FF" fill-opacity="0.5"/>
<path d="M147.304 643.399C147.304 646.008 149.419 648.123 152.028 648.123C154.638 648.123 156.753 646.008 156.753 643.399" stroke="#0085FE" stroke-width="1.5" stroke-linecap="round" stroke-linejoin="round"/>
<path d="M156.753 640.686V638.808C156.753 636.198 154.638 634.083 152.028 634.083C149.419 634.083 147.304 636.198 147.304 638.808V640.686" stroke="#0085FE" stroke-width="1.5" stroke-linecap="round" stroke-linejoin="round"/>
<path d="M152.028 649.916V648.123" stroke="#0085FE" stroke-width="1.5" stroke-linecap="round" stroke-linejoin="round"/>
<path d="M146.083 643.399H157.973" stroke="#0085FE" stroke-width="1.5" stroke-linecap="round" stroke-linejoin="round"/>
<rect x="57" y="617" width="50" height="50" rx="25" fill="#BDE3FF" fill-opacity="0.5"/>
<path d="M85.4595 640.061C86.9913 638.846 89.0468 637.672 89.4357 638.093C90.0786 638.783 90.023 645.354 89.4357 645.981C89.0786 646.37 87.0072 645.196 85.4595 643.989" stroke="#0085FE" stroke-width="1.5" stroke-linecap="round" stroke-linejoin="round"/>
<path fill-rule="evenodd" clip-rule="evenodd" d="M74.0953 642.031C74.0953 637.704 75.5326 636.262 79.8461 636.262C84.1588 636.262 85.5961 637.704 85.5961 642.031C85.5961 646.357 84.1588 647.8 79.8461 647.8C75.5326 647.8 74.0953 646.357 74.0953 642.031Z" stroke="#0085FE" stroke-width="1.5" stroke-linecap="round" stroke-linejoin="round"/>
<path d="M131.547 276.7C131.547 275.464 131.823 274.36 132.375 273.388C132.939 272.404 133.701 271.642 134.661 271.102C135.633 270.55 136.719 270.274 137.919 270.274C139.323 270.274 140.553 270.634 141.609 271.354C142.665 272.074 143.403 273.07 143.823 274.342H140.925C140.637 273.742 140.229 273.292 139.701 272.992C139.185 272.692 138.585 272.542 137.901 272.542C137.169 272.542 136.515 272.716 135.939 273.064C135.375 273.4 134.931 273.88 134.607 274.504C134.295 275.128 134.139 275.86 134.139 276.7C134.139 277.528 134.295 278.26 134.607 278.896C134.931 279.52 135.375 280.006 135.939 280.354C136.515 280.69 137.169 280.858 137.901 280.858C138.585 280.858 139.185 280.708 139.701 280.408C140.229 280.096 140.637 279.64 140.925 279.04H143.823C143.403 280.324 142.665 281.326 141.609 282.046C140.565 282.754 139.335 283.108 137.919 283.108C136.719 283.108 135.633 282.838 134.661 282.298C133.701 281.746 132.939 280.984 132.375 280.012C131.823 279.04 131.547 277.936 131.547 276.7ZM151.591 272.884C152.347 272.884 153.019 273.052 153.607 273.388C154.195 273.712 154.651 274.198 154.975 274.846C155.311 275.482 155.479 276.25 155.479 277.15V283H152.959V277.492C152.959 276.7 152.761 276.094 152.365 275.674C151.969 275.242 151.429 275.026 150.745 275.026C150.049 275.026 149.497 275.242 149.089 275.674C148.693 276.094 148.495 276.7 148.495 277.492V283H145.975V269.68H148.495V274.27C148.819 273.838 149.251 273.502 149.791 273.262C150.331 273.01 150.931 272.884 151.591 272.884ZM160.396 269.68V283H157.876V269.68H160.396ZM167.314 283.162C166.354 283.162 165.49 282.952 164.722 282.532C163.954 282.1 163.348 281.494 162.904 280.714C162.472 279.934 162.256 279.034 162.256 278.014C162.256 276.994 162.478 276.094 162.922 275.314C163.378 274.534 163.996 273.934 164.776 273.514C165.556 273.082 166.426 272.866 167.386 272.866C168.346 272.866 169.216 273.082 169.996 273.514C170.776 273.934 171.388 274.534 171.832 275.314C172.288 276.094 172.516 276.994 172.516 278.014C172.516 279.034 172.282 279.934 171.814 280.714C171.358 281.494 170.734 282.1 169.942 282.532C169.162 282.952 168.286 283.162 167.314 283.162ZM167.314 280.966C167.77 280.966 168.196 280.858 168.592 280.642C169 280.414 169.324 280.078 169.564 279.634C169.804 279.19 169.924 278.65 169.924 278.014C169.924 277.066 169.672 276.34 169.168 275.836C168.676 275.32 168.07 275.062 167.35 275.062C166.63 275.062 166.024 275.32 165.532 275.836C165.052 276.34 164.812 277.066 164.812 278.014C164.812 278.962 165.046 279.694 165.514 280.21C165.994 280.714 166.594 280.966 167.314 280.966ZM183.634 277.798C183.634 278.158 183.61 278.482 183.562 278.77H176.272C176.332 279.49 176.584 280.054 177.028 280.462C177.472 280.87 178.018 281.074 178.666 281.074C179.602 281.074 180.268 280.672 180.664 279.868H183.382C183.094 280.828 182.542 281.62 181.726 282.244C180.91 282.856 179.908 283.162 178.72 283.162C177.76 283.162 176.896 282.952 176.128 282.532C175.372 282.1 174.778 281.494 174.346 280.714C173.926 279.934 173.716 279.034 173.716 278.014C173.716 276.982 173.926 276.076 174.346 275.296C174.766 274.516 175.354 273.916 176.11 273.496C176.866 273.076 177.736 272.866 178.72 272.866C179.668 272.866 180.514 273.07 181.258 273.478C182.014 273.886 182.596 274.468 183.004 275.224C183.424 275.968 183.634 276.826 183.634 277.798ZM181.024 277.078C181.012 276.43 180.778 275.914 180.322 275.53C179.866 275.134 179.308 274.936 178.648 274.936C178.024 274.936 177.496 275.128 177.064 275.512C176.644 275.884 176.386 276.406 176.29 277.078H181.024ZM197.089 270.436V279.256C197.089 280.48 196.735 281.434 196.027 282.118C195.319 282.79 194.371 283.126 193.183 283.126C191.983 283.126 191.011 282.778 190.267 282.082C189.535 281.386 189.169 280.414 189.169 279.166H191.689C191.701 279.706 191.827 280.126 192.067 280.426C192.319 280.726 192.679 280.876 193.147 280.876C193.603 280.876 193.951 280.732 194.191 280.444C194.431 280.156 194.551 279.76 194.551 279.256V270.436H197.089ZM204.456 283.162C203.496 283.162 202.632 282.952 201.864 282.532C201.096 282.1 200.49 281.494 200.046 280.714C199.614 279.934 199.398 279.034 199.398 278.014C199.398 276.994 199.62 276.094 200.064 275.314C200.52 274.534 201.138 273.934 201.918 273.514C202.698 273.082 203.568 272.866 204.528 272.866C205.488 272.866 206.358 273.082 207.138 273.514C207.918 273.934 208.53 274.534 208.974 275.314C209.43 276.094 209.658 276.994 209.658 278.014C209.658 279.034 209.424 279.934 208.956 280.714C208.5 281.494 207.876 282.1 207.084 282.532C206.304 282.952 205.428 283.162 204.456 283.162ZM204.456 280.966C204.912 280.966 205.338 280.858 205.734 280.642C206.142 280.414 206.466 280.078 206.706 279.634C206.946 279.19 207.066 278.65 207.066 278.014C207.066 277.066 206.814 276.34 206.31 275.836C205.818 275.32 205.212 275.062 204.492 275.062C203.772 275.062 203.166 275.32 202.674 275.836C202.194 276.34 201.954 277.066 201.954 278.014C201.954 278.962 202.188 279.694 202.656 280.21C203.136 280.714 203.736 280.966 204.456 280.966ZM217.033 272.884C218.221 272.884 219.181 273.262 219.913 274.018C220.645 274.762 221.011 275.806 221.011 277.15V283H218.491V277.492C218.491 276.7 218.293 276.094 217.897 275.674C217.501 275.242 216.961 275.026 216.277 275.026C215.581 275.026 215.029 275.242 214.621 275.674C214.225 276.094 214.027 276.7 214.027 277.492V283H211.507V273.028H214.027V274.27C214.363 273.838 214.789 273.502 215.305 273.262C215.833 273.01 216.409 272.884 217.033 272.884ZM232.677 277.798C232.677 278.158 232.653 278.482 232.605 278.77H225.315C225.375 279.49 225.627 280.054 226.071 280.462C226.515 280.87 227.061 281.074 227.709 281.074C228.645 281.074 229.311 280.672 229.707 279.868H232.425C232.137 280.828 231.585 281.62 230.769 282.244C229.953 282.856 228.951 283.162 227.763 283.162C226.803 283.162 225.939 282.952 225.171 282.532C224.415 282.1 223.821 281.494 223.389 280.714C222.969 279.934 222.759 279.034 222.759 278.014C222.759 276.982 222.969 276.076 223.389 275.296C223.809 274.516 224.397 273.916 225.153 273.496C225.909 273.076 226.779 272.866 227.763 272.866C228.711 272.866 229.557 273.07 230.301 273.478C231.057 273.886 231.639 274.468 232.047 275.224C232.467 275.968 232.677 276.826 232.677 277.798ZM230.067 277.078C230.055 276.43 229.821 275.914 229.365 275.53C228.909 275.134 228.351 274.936 227.691 274.936C227.067 274.936 226.539 275.128 226.107 275.512C225.687 275.884 225.429 276.406 225.333 277.078H230.067ZM238.332 283.162C237.516 283.162 236.784 283.018 236.136 282.73C235.488 282.43 234.972 282.028 234.588 281.524C234.216 281.02 234.012 280.462 233.976 279.85H236.514C236.562 280.234 236.748 280.552 237.072 280.804C237.408 281.056 237.822 281.182 238.314 281.182C238.794 281.182 239.166 281.086 239.43 280.894C239.706 280.702 239.844 280.456 239.844 280.156C239.844 279.832 239.676 279.592 239.34 279.436C239.016 279.268 238.494 279.088 237.774 278.896C237.03 278.716 236.418 278.53 235.938 278.338C235.47 278.146 235.062 277.852 234.714 277.456C234.378 277.06 234.21 276.526 234.21 275.854C234.21 275.302 234.366 274.798 234.678 274.342C235.002 273.886 235.458 273.526 236.046 273.262C236.646 272.998 237.348 272.866 238.152 272.866C239.34 272.866 240.288 273.166 240.996 273.766C241.704 274.354 242.094 275.152 242.166 276.16H239.754C239.718 275.764 239.55 275.452 239.25 275.224C238.962 274.984 238.572 274.864 238.08 274.864C237.624 274.864 237.27 274.948 237.018 275.116C236.778 275.284 236.658 275.518 236.658 275.818C236.658 276.154 236.826 276.412 237.162 276.592C237.498 276.76 238.02 276.934 238.728 277.114C239.448 277.294 240.042 277.48 240.51 277.672C240.978 277.864 241.38 278.164 241.716 278.572C242.064 278.968 242.244 279.496 242.256 280.156C242.256 280.732 242.094 281.248 241.77 281.704C241.458 282.16 241.002 282.52 240.402 282.784C239.814 283.036 239.124 283.162 238.332 283.162Z" fill="black"/>
<path d="M170.096 304.203C170.096 302.712 170.339 301.551 170.824 300.719C171.309 299.878 172.159 299.458 173.372 299.458C174.577 299.458 175.422 299.878 175.907 300.719C176.392 301.551 176.635 302.712 176.635 304.203C176.635 305.72 176.392 306.898 175.907 307.739C175.422 308.58 174.577 309 173.372 309C172.159 309 171.309 308.58 170.824 307.739C170.339 306.898 170.096 305.72 170.096 304.203ZM175.465 304.203C175.465 303.449 175.413 302.812 175.309 302.292C175.214 301.763 175.01 301.339 174.698 301.018C174.395 300.697 173.953 300.537 173.372 300.537C172.783 300.537 172.332 300.697 172.02 301.018C171.717 301.339 171.513 301.763 171.409 302.292C171.314 302.812 171.266 303.449 171.266 304.203C171.266 304.983 171.314 305.637 171.409 306.166C171.513 306.695 171.717 307.119 172.02 307.44C172.332 307.761 172.783 307.921 173.372 307.921C173.953 307.921 174.395 307.761 174.698 307.44C175.01 307.119 175.214 306.695 175.309 306.166C175.413 305.637 175.465 304.983 175.465 304.203ZM178.259 304.203C178.259 302.712 178.502 301.551 178.987 300.719C179.472 299.878 180.322 299.458 181.535 299.458C182.74 299.458 183.585 299.878 184.07 300.719C184.555 301.551 184.798 302.712 184.798 304.203C184.798 305.72 184.555 306.898 184.07 307.739C183.585 308.58 182.74 309 181.535 309C180.322 309 179.472 308.58 178.987 307.739C178.502 306.898 178.259 305.72 178.259 304.203ZM183.628 304.203C183.628 303.449 183.576 302.812 183.472 302.292C183.377 301.763 183.173 301.339 182.861 301.018C182.558 300.697 182.116 300.537 181.535 300.537C180.946 300.537 180.495 300.697 180.183 301.018C179.88 301.339 179.676 301.763 179.572 302.292C179.477 302.812 179.429 303.449 179.429 304.203C179.429 304.983 179.477 305.637 179.572 306.166C179.676 306.695 179.88 307.119 180.183 307.44C180.495 307.761 180.946 307.921 181.535 307.921C182.116 307.921 182.558 307.761 182.861 307.44C183.173 307.119 183.377 306.695 183.472 306.166C183.576 305.637 183.628 304.983 183.628 304.203ZM186.994 309.078C186.769 309.078 186.578 309 186.422 308.844C186.266 308.688 186.188 308.497 186.188 308.272C186.188 308.047 186.266 307.856 186.422 307.7C186.578 307.544 186.769 307.466 186.994 307.466C187.211 307.466 187.393 307.544 187.54 307.7C187.696 307.856 187.774 308.047 187.774 308.272C187.774 308.497 187.696 308.688 187.54 308.844C187.393 309 187.211 309.078 186.994 309.078ZM186.994 303.514C186.769 303.514 186.578 303.436 186.422 303.28C186.266 303.124 186.188 302.933 186.188 302.708C186.188 302.483 186.266 302.292 186.422 302.136C186.578 301.98 186.769 301.902 186.994 301.902C187.211 301.902 187.393 301.98 187.54 302.136C187.696 302.292 187.774 302.483 187.774 302.708C187.774 302.933 187.696 303.124 187.54 303.28C187.393 303.436 187.211 303.514 186.994 303.514ZM189.19 304.203C189.19 302.712 189.432 301.551 189.918 300.719C190.403 299.878 191.252 299.458 192.466 299.458C193.67 299.458 194.515 299.878 195.001 300.719C195.486 301.551 195.729 302.712 195.729 304.203C195.729 305.72 195.486 306.898 195.001 307.739C194.515 308.58 193.67 309 192.466 309C191.252 309 190.403 308.58 189.918 307.739C189.432 306.898 189.19 305.72 189.19 304.203ZM194.559 304.203C194.559 303.449 194.507 302.812 194.403 302.292C194.307 301.763 194.104 301.339 193.792 301.018C193.488 300.697 193.046 300.537 192.466 300.537C191.876 300.537 191.426 300.697 191.114 301.018C190.81 301.339 190.607 301.763 190.503 302.292C190.407 302.812 190.36 303.449 190.36 304.203C190.36 304.983 190.407 305.637 190.503 306.166C190.607 306.695 190.81 307.119 191.114 307.44C191.426 307.761 191.876 307.921 192.466 307.921C193.046 307.921 193.488 307.761 193.792 307.44C194.104 307.119 194.307 306.695 194.403 306.166C194.507 305.637 194.559 304.983 194.559 304.203ZM203.346 300.628H198.783V303.592C198.982 303.315 199.277 303.089 199.667 302.916C200.057 302.734 200.477 302.643 200.928 302.643C201.647 302.643 202.232 302.795 202.683 303.098C203.134 303.393 203.454 303.778 203.645 304.255C203.844 304.723 203.944 305.221 203.944 305.75C203.944 306.374 203.827 306.933 203.593 307.427C203.359 307.921 202.999 308.311 202.514 308.597C202.037 308.883 201.444 309.026 200.733 309.026C199.823 309.026 199.086 308.792 198.523 308.324C197.96 307.856 197.617 307.232 197.496 306.452H198.653C198.766 306.946 199.004 307.332 199.368 307.609C199.732 307.886 200.191 308.025 200.746 308.025C201.431 308.025 201.946 307.821 202.293 307.414C202.64 306.998 202.813 306.452 202.813 305.776C202.813 305.1 202.64 304.58 202.293 304.216C201.946 303.843 201.435 303.657 200.759 303.657C200.3 303.657 199.897 303.77 199.55 303.995C199.212 304.212 198.965 304.511 198.809 304.892H197.691V299.588H203.346V300.628Z" fill="#888888"/>
<mask id="mask0_327_6112" style="mask-type:alpha" maskUnits="userSpaceOnUse" x="137" y="150" width="100" height="100">
<circle cx="187" cy="200" r="50" fill="#D9D9D9"/>
</mask>
<g mask="url(#mask0_327_6112)">
<rect x="134.5" y="147.5" width="105" height="140"/>
</g>
</svg>
