<svg width="375" height="812" viewBox="0 0 375 812" fill="none" xmlns="http://www.w3.org/2000/svg">
<rect width="375" height="812" fill="white"/>
<rect x="25" y="733" width="325" height="45" rx="8" fill="#0085FE"/>
<path d="M173.361 760.098C172.68 760.098 172.064 759.981 171.513 759.748C170.972 759.515 170.543 759.179 170.225 758.74C169.908 758.301 169.745 757.783 169.735 757.186H171.835C171.863 757.587 172.003 757.905 172.255 758.138C172.517 758.371 172.871 758.488 173.319 758.488C173.777 758.488 174.136 758.381 174.397 758.166C174.659 757.942 174.789 757.653 174.789 757.298C174.789 757.009 174.701 756.771 174.523 756.584C174.346 756.397 174.122 756.253 173.851 756.15C173.59 756.038 173.226 755.917 172.759 755.786C172.125 755.599 171.607 755.417 171.205 755.24C170.813 755.053 170.473 754.778 170.183 754.414C169.903 754.041 169.763 753.546 169.763 752.93C169.763 752.351 169.908 751.847 170.197 751.418C170.487 750.989 170.893 750.662 171.415 750.438C171.938 750.205 172.535 750.088 173.207 750.088C174.215 750.088 175.032 750.335 175.657 750.83C176.292 751.315 176.642 751.997 176.707 752.874H174.551C174.533 752.538 174.388 752.263 174.117 752.048C173.856 751.824 173.506 751.712 173.067 751.712C172.685 751.712 172.377 751.81 172.143 752.006C171.919 752.202 171.807 752.487 171.807 752.86C171.807 753.121 171.891 753.341 172.059 753.518C172.237 753.686 172.451 753.826 172.703 753.938C172.965 754.041 173.329 754.162 173.795 754.302C174.43 754.489 174.948 754.675 175.349 754.862C175.751 755.049 176.096 755.329 176.385 755.702C176.675 756.075 176.819 756.565 176.819 757.172C176.819 757.695 176.684 758.18 176.413 758.628C176.143 759.076 175.746 759.435 175.223 759.706C174.701 759.967 174.08 760.098 173.361 760.098ZM184.511 758.138H180.619L179.975 760H177.917L181.431 750.214H183.713L187.227 760H185.155L184.511 758.138ZM183.979 756.57L182.565 752.482L181.151 756.57H183.979ZM197.318 750.228L193.734 760H191.354L187.77 750.228H189.87L192.558 757.998L195.232 750.228H197.318ZM200.453 751.81V754.26H203.743V755.814H200.453V758.404H204.163V760H198.493V750.214H204.163V751.81H200.453Z" fill="white"/>
<path d="M87.2025 363.765C87.2025 362.745 87.4375 361.83 87.9075 361.02C88.3875 360.21 89.0325 359.58 89.8425 359.13C90.6625 358.67 91.5575 358.44 92.5275 358.44C93.6375 358.44 94.6225 358.715 95.4825 359.265C96.3525 359.805 96.9825 360.575 97.3725 361.575H95.3175C95.0475 361.025 94.6725 360.615 94.1925 360.345C93.7125 360.075 93.1575 359.94 92.5275 359.94C91.8375 359.94 91.2225 360.095 90.6825 360.405C90.1425 360.715 89.7175 361.16 89.4075 361.74C89.1075 362.32 88.9575 362.995 88.9575 363.765C88.9575 364.535 89.1075 365.21 89.4075 365.79C89.7175 366.37 90.1425 366.82 90.6825 367.14C91.2225 367.45 91.8375 367.605 92.5275 367.605C93.1575 367.605 93.7125 367.47 94.1925 367.2C94.6725 366.93 95.0475 366.52 95.3175 365.97H97.3725C96.9825 366.97 96.3525 367.74 95.4825 368.28C94.6225 368.82 93.6375 369.09 92.5275 369.09C91.5475 369.09 90.6525 368.865 89.8425 368.415C89.0325 367.955 88.3875 367.32 87.9075 366.51C87.4375 365.7 87.2025 364.785 87.2025 363.765ZM101.084 361.935C101.334 361.515 101.664 361.19 102.074 360.96C102.494 360.72 102.989 360.6 103.559 360.6V362.37H103.124C102.454 362.37 101.944 362.54 101.594 362.88C101.254 363.22 101.084 363.81 101.084 364.65V369H99.374V360.735H101.084V361.935ZM112.706 364.665C112.706 364.975 112.686 365.255 112.646 365.505H106.331C106.381 366.165 106.626 366.695 107.066 367.095C107.506 367.495 108.046 367.695 108.686 367.695C109.606 367.695 110.256 367.31 110.636 366.54H112.481C112.231 367.3 111.776 367.925 111.116 368.415C110.466 368.895 109.656 369.135 108.686 369.135C107.896 369.135 107.186 368.96 106.556 368.61C105.936 368.25 105.446 367.75 105.086 367.11C104.736 366.46 104.561 365.71 104.561 364.86C104.561 364.01 104.731 363.265 105.071 362.625C105.421 361.975 105.906 361.475 106.526 361.125C107.156 360.775 107.876 360.6 108.686 360.6C109.466 360.6 110.161 360.77 110.771 361.11C111.381 361.45 111.856 361.93 112.196 362.55C112.536 363.16 112.706 363.865 112.706 364.665ZM110.921 364.125C110.911 363.495 110.686 362.99 110.246 362.61C109.806 362.23 109.261 362.04 108.611 362.04C108.021 362.04 107.516 362.23 107.096 362.61C106.676 362.98 106.426 363.485 106.346 364.125H110.921ZM113.819 364.83C113.819 364 113.989 363.265 114.329 362.625C114.679 361.985 115.149 361.49 115.739 361.14C116.339 360.78 116.999 360.6 117.719 360.6C118.369 360.6 118.934 360.73 119.414 360.99C119.904 361.24 120.294 361.555 120.584 361.935V360.735H122.309V369H120.584V367.77C120.294 368.16 119.899 368.485 119.399 368.745C118.899 369.005 118.329 369.135 117.689 369.135C116.979 369.135 116.329 368.955 115.739 368.595C115.149 368.225 114.679 367.715 114.329 367.065C113.989 366.405 113.819 365.66 113.819 364.83ZM120.584 364.86C120.584 364.29 120.464 363.795 120.224 363.375C119.994 362.955 119.689 362.635 119.309 362.415C118.929 362.195 118.519 362.085 118.079 362.085C117.639 362.085 117.229 362.195 116.849 362.415C116.469 362.625 116.159 362.94 115.919 363.36C115.689 363.77 115.574 364.26 115.574 364.83C115.574 365.4 115.689 365.9 115.919 366.33C116.159 366.76 116.469 367.09 116.849 367.32C117.239 367.54 117.649 367.65 118.079 367.65C118.519 367.65 118.929 367.54 119.309 367.32C119.689 367.1 119.994 366.78 120.224 366.36C120.464 365.93 120.584 365.43 120.584 364.86ZM126.55 362.13V366.705C126.55 367.015 126.62 367.24 126.76 367.38C126.91 367.51 127.16 367.575 127.51 367.575H128.56V369H127.21C126.44 369 125.85 368.82 125.44 368.46C125.03 368.1 124.825 367.515 124.825 366.705V362.13H123.85V360.735H124.825V358.68H126.55V360.735H128.56V362.13H126.55ZM137.711 364.665C137.711 364.975 137.691 365.255 137.651 365.505H131.336C131.386 366.165 131.631 366.695 132.071 367.095C132.511 367.495 133.051 367.695 133.691 367.695C134.611 367.695 135.261 367.31 135.641 366.54H137.486C137.236 367.3 136.781 367.925 136.121 368.415C135.471 368.895 134.661 369.135 133.691 369.135C132.901 369.135 132.191 368.96 131.561 368.61C130.941 368.25 130.451 367.75 130.091 367.11C129.741 366.46 129.566 365.71 129.566 364.86C129.566 364.01 129.736 363.265 130.076 362.625C130.426 361.975 130.911 361.475 131.531 361.125C132.161 360.775 132.881 360.6 133.691 360.6C134.471 360.6 135.166 360.77 135.776 361.11C136.386 361.45 136.861 361.93 137.201 362.55C137.541 363.16 137.711 363.865 137.711 364.665ZM135.926 364.125C135.916 363.495 135.691 362.99 135.251 362.61C134.811 362.23 134.266 362.04 133.616 362.04C133.026 362.04 132.521 362.23 132.101 362.61C131.681 362.98 131.431 363.485 131.351 364.125H135.926ZM150.73 360.735L145.66 372.885H143.89L145.57 368.865L142.315 360.735H144.22L146.545 367.035L148.96 360.735H150.73ZM155.606 369.135C154.826 369.135 154.121 368.96 153.491 368.61C152.861 368.25 152.366 367.75 152.006 367.11C151.646 366.46 151.466 365.71 151.466 364.86C151.466 364.02 151.651 363.275 152.021 362.625C152.391 361.975 152.896 361.475 153.536 361.125C154.176 360.775 154.891 360.6 155.681 360.6C156.471 360.6 157.186 360.775 157.826 361.125C158.466 361.475 158.971 361.975 159.341 362.625C159.711 363.275 159.896 364.02 159.896 364.86C159.896 365.7 159.706 366.445 159.326 367.095C158.946 367.745 158.426 368.25 157.766 368.61C157.116 368.96 156.396 369.135 155.606 369.135ZM155.606 367.65C156.046 367.65 156.456 367.545 156.836 367.335C157.226 367.125 157.541 366.81 157.781 366.39C158.021 365.97 158.141 365.46 158.141 364.86C158.141 364.26 158.026 363.755 157.796 363.345C157.566 362.925 157.261 362.61 156.881 362.4C156.501 362.19 156.091 362.085 155.651 362.085C155.211 362.085 154.801 362.19 154.421 362.4C154.051 362.61 153.756 362.925 153.536 363.345C153.316 363.755 153.206 364.26 153.206 364.86C153.206 365.75 153.431 366.44 153.881 366.93C154.341 367.41 154.916 367.65 155.606 367.65ZM169.071 360.735V369H167.361V368.025C167.091 368.365 166.736 368.635 166.296 368.835C165.866 369.025 165.406 369.12 164.916 369.12C164.266 369.12 163.681 368.985 163.161 368.715C162.651 368.445 162.246 368.045 161.946 367.515C161.656 366.985 161.511 366.345 161.511 365.595V360.735H163.206V365.34C163.206 366.08 163.391 366.65 163.761 367.05C164.131 367.44 164.636 367.635 165.276 367.635C165.916 367.635 166.421 367.44 166.791 367.05C167.171 366.65 167.361 366.08 167.361 365.34V360.735H169.071ZM173.037 361.935C173.287 361.515 173.617 361.19 174.027 360.96C174.447 360.72 174.942 360.6 175.512 360.6V362.37H175.077C174.407 362.37 173.897 362.54 173.547 362.88C173.207 363.22 173.037 363.81 173.037 364.65V369H171.327V360.735H173.037V361.935ZM185.15 360.6C185.8 360.6 186.38 360.735 186.89 361.005C187.41 361.275 187.815 361.675 188.105 362.205C188.395 362.735 188.54 363.375 188.54 364.125V369H186.845V364.38C186.845 363.64 186.66 363.075 186.29 362.685C185.92 362.285 185.415 362.085 184.775 362.085C184.135 362.085 183.625 362.285 183.245 362.685C182.875 363.075 182.69 363.64 182.69 364.38V369H180.98V360.735H182.69V361.68C182.97 361.34 183.325 361.075 183.755 360.885C184.195 360.695 184.66 360.6 185.15 360.6ZM198.297 364.665C198.297 364.975 198.277 365.255 198.237 365.505H191.922C191.972 366.165 192.217 366.695 192.657 367.095C193.097 367.495 193.637 367.695 194.277 367.695C195.197 367.695 195.847 367.31 196.227 366.54H198.072C197.822 367.3 197.367 367.925 196.707 368.415C196.057 368.895 195.247 369.135 194.277 369.135C193.487 369.135 192.777 368.96 192.147 368.61C191.527 368.25 191.037 367.75 190.677 367.11C190.327 366.46 190.152 365.71 190.152 364.86C190.152 364.01 190.322 363.265 190.662 362.625C191.012 361.975 191.497 361.475 192.117 361.125C192.747 360.775 193.467 360.6 194.277 360.6C195.057 360.6 195.752 360.77 196.362 361.11C196.972 361.45 197.447 361.93 197.787 362.55C198.127 363.16 198.297 363.865 198.297 364.665ZM196.512 364.125C196.502 363.495 196.277 362.99 195.837 362.61C195.397 362.23 194.852 362.04 194.202 362.04C193.612 362.04 193.107 362.23 192.687 362.61C192.267 362.98 192.017 363.485 191.937 364.125H196.512ZM211.079 360.735L208.514 369H206.714L205.049 362.895L203.384 369H201.584L199.004 360.735H200.744L202.469 367.38L204.224 360.735H206.009L207.689 367.35L209.399 360.735H211.079ZM217.964 361.95C218.254 361.57 218.649 361.25 219.149 360.99C219.649 360.73 220.214 360.6 220.844 360.6C221.564 360.6 222.219 360.78 222.809 361.14C223.409 361.49 223.879 361.985 224.219 362.625C224.559 363.265 224.729 364 224.729 364.83C224.729 365.66 224.559 366.405 224.219 367.065C223.879 367.715 223.409 368.225 222.809 368.595C222.219 368.955 221.564 369.135 220.844 369.135C220.214 369.135 219.654 369.01 219.164 368.76C218.674 368.5 218.274 368.18 217.964 367.8V372.93H216.254V360.735H217.964V361.95ZM222.989 364.83C222.989 364.26 222.869 363.77 222.629 363.36C222.399 362.94 222.089 362.625 221.699 362.415C221.319 362.195 220.909 362.085 220.469 362.085C220.039 362.085 219.629 362.195 219.239 362.415C218.859 362.635 218.549 362.955 218.309 363.375C218.079 363.795 217.964 364.29 217.964 364.86C217.964 365.43 218.079 365.93 218.309 366.36C218.549 366.78 218.859 367.1 219.239 367.32C219.629 367.54 220.039 367.65 220.469 367.65C220.909 367.65 221.319 367.54 221.699 367.32C222.089 367.09 222.399 366.76 222.629 366.33C222.869 365.9 222.989 365.4 222.989 364.83ZM225.85 364.83C225.85 364 226.02 363.265 226.36 362.625C226.71 361.985 227.18 361.49 227.77 361.14C228.37 360.78 229.03 360.6 229.75 360.6C230.4 360.6 230.965 360.73 231.445 360.99C231.935 361.24 232.325 361.555 232.615 361.935V360.735H234.34V369H232.615V367.77C232.325 368.16 231.93 368.485 231.43 368.745C230.93 369.005 230.36 369.135 229.72 369.135C229.01 369.135 228.36 368.955 227.77 368.595C227.18 368.225 226.71 367.715 226.36 367.065C226.02 366.405 225.85 365.66 225.85 364.83ZM232.615 364.86C232.615 364.29 232.495 363.795 232.255 363.375C232.025 362.955 231.72 362.635 231.34 362.415C230.96 362.195 230.55 362.085 230.11 362.085C229.67 362.085 229.26 362.195 228.88 362.415C228.5 362.625 228.19 362.94 227.95 363.36C227.72 363.77 227.605 364.26 227.605 364.83C227.605 365.4 227.72 365.9 227.95 366.33C228.19 366.76 228.5 367.09 228.88 367.32C229.27 367.54 229.68 367.65 230.11 367.65C230.55 367.65 230.96 367.54 231.34 367.32C231.72 367.1 232.025 366.78 232.255 366.36C232.495 365.93 232.615 365.43 232.615 364.86ZM239.586 369.135C238.936 369.135 238.351 369.02 237.831 368.79C237.321 368.55 236.916 368.23 236.616 367.83C236.316 367.42 236.156 366.965 236.136 366.465H237.906C237.936 366.815 238.101 367.11 238.401 367.35C238.711 367.58 239.096 367.695 239.556 367.695C240.036 367.695 240.406 367.605 240.666 367.425C240.936 367.235 241.071 366.995 241.071 366.705C241.071 366.395 240.921 366.165 240.621 366.015C240.331 365.865 239.866 365.7 239.226 365.52C238.606 365.35 238.101 365.185 237.711 365.025C237.321 364.865 236.981 364.62 236.691 364.29C236.411 363.96 236.271 363.525 236.271 362.985C236.271 362.545 236.401 362.145 236.661 361.785C236.921 361.415 237.291 361.125 237.771 360.915C238.261 360.705 238.821 360.6 239.451 360.6C240.391 360.6 241.146 360.84 241.716 361.32C242.296 361.79 242.606 362.435 242.646 363.255H240.936C240.906 362.885 240.756 362.59 240.486 362.37C240.216 362.15 239.851 362.04 239.391 362.04C238.941 362.04 238.596 362.125 238.356 362.295C238.116 362.465 237.996 362.69 237.996 362.97C237.996 363.19 238.076 363.375 238.236 363.525C238.396 363.675 238.591 363.795 238.821 363.885C239.051 363.965 239.391 364.07 239.841 364.2C240.441 364.36 240.931 364.525 241.311 364.695C241.701 364.855 242.036 365.095 242.316 365.415C242.596 365.735 242.741 366.16 242.751 366.69C242.751 367.16 242.621 367.58 242.361 367.95C242.101 368.32 241.731 368.61 241.251 368.82C240.781 369.03 240.226 369.135 239.586 369.135ZM247.599 369.135C246.949 369.135 246.364 369.02 245.844 368.79C245.334 368.55 244.929 368.23 244.629 367.83C244.329 367.42 244.169 366.965 244.149 366.465H245.919C245.949 366.815 246.114 367.11 246.414 367.35C246.724 367.58 247.109 367.695 247.569 367.695C248.049 367.695 248.419 367.605 248.679 367.425C248.949 367.235 249.084 366.995 249.084 366.705C249.084 366.395 248.934 366.165 248.634 366.015C248.344 365.865 247.879 365.7 247.239 365.52C246.619 365.35 246.114 365.185 245.724 365.025C245.334 364.865 244.994 364.62 244.704 364.29C244.424 363.96 244.284 363.525 244.284 362.985C244.284 362.545 244.414 362.145 244.674 361.785C244.934 361.415 245.304 361.125 245.784 360.915C246.274 360.705 246.834 360.6 247.464 360.6C248.404 360.6 249.159 360.84 249.729 361.32C250.309 361.79 250.619 362.435 250.659 363.255H248.949C248.919 362.885 248.769 362.59 248.499 362.37C248.229 362.15 247.864 362.04 247.404 362.04C246.954 362.04 246.609 362.125 246.369 362.295C246.129 362.465 246.009 362.69 246.009 362.97C246.009 363.19 246.089 363.375 246.249 363.525C246.409 363.675 246.604 363.795 246.834 363.885C247.064 363.965 247.404 364.07 247.854 364.2C248.454 364.36 248.944 364.525 249.324 364.695C249.714 364.855 250.049 365.095 250.329 365.415C250.609 365.735 250.754 366.16 250.764 366.69C250.764 367.16 250.634 367.58 250.374 367.95C250.114 368.32 249.744 368.61 249.264 368.82C248.794 369.03 248.239 369.135 247.599 369.135ZM263.711 360.735L261.146 369H259.346L257.681 362.895L256.016 369H254.216L251.636 360.735H253.376L255.101 367.38L256.856 360.735H258.641L260.321 367.35L262.031 360.735H263.711ZM268.574 369.135C267.794 369.135 267.089 368.96 266.459 368.61C265.829 368.25 265.334 367.75 264.974 367.11C264.614 366.46 264.434 365.71 264.434 364.86C264.434 364.02 264.619 363.275 264.989 362.625C265.359 361.975 265.864 361.475 266.504 361.125C267.144 360.775 267.859 360.6 268.649 360.6C269.439 360.6 270.154 360.775 270.794 361.125C271.434 361.475 271.939 361.975 272.309 362.625C272.679 363.275 272.864 364.02 272.864 364.86C272.864 365.7 272.674 366.445 272.294 367.095C271.914 367.745 271.394 368.25 270.734 368.61C270.084 368.96 269.364 369.135 268.574 369.135ZM268.574 367.65C269.014 367.65 269.424 367.545 269.804 367.335C270.194 367.125 270.509 366.81 270.749 366.39C270.989 365.97 271.109 365.46 271.109 364.86C271.109 364.26 270.994 363.755 270.764 363.345C270.534 362.925 270.229 362.61 269.849 362.4C269.469 362.19 269.059 362.085 268.619 362.085C268.179 362.085 267.769 362.19 267.389 362.4C267.019 362.61 266.724 362.925 266.504 363.345C266.284 363.755 266.174 364.26 266.174 364.86C266.174 365.75 266.399 366.44 266.849 366.93C267.309 367.41 267.884 367.65 268.574 367.65ZM276.265 361.935C276.515 361.515 276.845 361.19 277.255 360.96C277.675 360.72 278.17 360.6 278.74 360.6V362.37H278.305C277.635 362.37 277.125 362.54 276.775 362.88C276.435 363.22 276.265 363.81 276.265 364.65V369H274.555V360.735H276.265V361.935ZM279.742 364.83C279.742 364 279.912 363.265 280.252 362.625C280.602 361.985 281.072 361.49 281.662 361.14C282.262 360.78 282.927 360.6 283.657 360.6C284.197 360.6 284.727 360.72 285.247 360.96C285.777 361.19 286.197 361.5 286.507 361.89V357.9H288.232V369H286.507V367.755C286.227 368.155 285.837 368.485 285.337 368.745C284.847 369.005 284.282 369.135 283.642 369.135C282.922 369.135 282.262 368.955 281.662 368.595C281.072 368.225 280.602 367.715 280.252 367.065C279.912 366.405 279.742 365.66 279.742 364.83ZM286.507 364.86C286.507 364.29 286.387 363.795 286.147 363.375C285.917 362.955 285.612 362.635 285.232 362.415C284.852 362.195 284.442 362.085 284.002 362.085C283.562 362.085 283.152 362.195 282.772 362.415C282.392 362.625 282.082 362.94 281.842 363.36C281.612 363.77 281.497 364.26 281.497 364.83C281.497 365.4 281.612 365.9 281.842 366.33C282.082 366.76 282.392 367.09 282.772 367.32C283.162 367.54 283.572 367.65 284.002 367.65C284.442 367.65 284.852 367.54 285.232 367.32C285.612 367.1 285.917 366.78 286.147 366.36C286.387 365.93 286.507 365.43 286.507 364.86Z" fill="#AAAAAA"/>
<rect x="25.5" y="535.5" width="324" height="49" rx="6.5" stroke="#F0F0F0"/>
<path d="M325.778 562.338C325.304 561.865 325.016 561.222 325.016 560.501C325.016 559.056 326.18 557.892 327.624 557.892C328.338 557.892 328.996 558.181 329.461 558.654" stroke="#AAAAAA" stroke-linecap="round" stroke-linejoin="round"/>
<path d="M330.183 560.963C329.991 562.027 329.154 562.865 328.092 563.058" stroke="#AAAAAA" stroke-linecap="round" stroke-linejoin="round"/>
<path d="M323.218 564.897C321.91 563.87 320.803 562.37 320 560.5C320.811 558.622 321.926 557.114 323.242 556.079C324.55 555.044 326.059 554.482 327.623 554.482C329.197 554.482 330.705 555.052 332.021 556.095" stroke="#AAAAAA" stroke-linecap="round" stroke-linejoin="round"/>
<path d="M333.762 557.907C334.329 558.661 334.827 559.53 335.247 560.5C333.626 564.256 330.761 566.518 327.623 566.518C326.912 566.518 326.211 566.403 325.537 566.178" stroke="#AAAAAA" stroke-linecap="round" stroke-linejoin="round"/>
<path d="M334.124 554L321.124 567" stroke="#AAAAAA" stroke-linecap="round" stroke-linejoin="round"/>
<path d="M46.1723 559.315V560.585L44.1073 560.517L45.2873 562.219L44.13 562.9L43.0862 561.062L42.0423 562.9L40.885 562.219L42.065 560.517L40 560.585V559.315L42.065 559.383L40.885 557.681L42.0423 557L43.0862 558.838L44.13 557L45.2873 557.681L44.1073 559.383L46.1723 559.315Z" fill="#AAAAAA"/>
<path d="M60.8452 559.315V560.585L58.7802 560.517L59.9602 562.219L58.8029 562.9L57.759 561.062L56.7152 562.9L55.5579 562.219L56.7379 560.517L54.6729 560.585V559.315L56.7379 559.383L55.5579 557.681L56.7152 557L57.759 558.838L58.8029 557L59.9602 557.681L58.7802 559.383L60.8452 559.315Z" fill="#AAAAAA"/>
<path d="M75.5181 559.315V560.585L73.4531 560.517L74.6331 562.219L73.4758 562.9L72.4319 561.062L71.3881 562.9L70.2308 562.219L71.4108 560.517L69.3458 560.585V559.315L71.4108 559.383L70.2308 557.681L71.3881 557L72.4319 558.838L73.4758 557L74.6331 557.681L73.4531 559.383L75.5181 559.315Z" fill="#AAAAAA"/>
<path d="M90.191 559.315V560.585L88.126 560.517L89.3059 562.219L88.1486 562.9L87.1048 561.062L86.061 562.9L84.9036 562.219L86.0836 560.517L84.0186 560.585V559.315L86.0836 559.383L84.9036 557.681L86.061 557L87.1048 558.838L88.1486 557L89.3059 557.681L88.126 559.383L90.191 559.315Z" fill="#AAAAAA"/>
<path d="M104.864 559.315V560.585L102.799 560.517L103.979 562.219L102.822 562.9L101.778 561.062L100.734 562.9L99.5765 562.219L100.757 560.517L98.6915 560.585V559.315L100.757 559.383L99.5765 557.681L100.734 557L101.778 558.838L102.822 557L103.979 557.681L102.799 559.383L104.864 559.315Z" fill="#AAAAAA"/>
<path d="M119.537 559.315V560.585L117.472 560.517L118.652 562.219L117.494 562.9L116.451 561.062L115.407 562.9L114.249 562.219L115.429 560.517L113.364 560.585V559.315L115.429 559.383L114.249 557.681L115.407 557L116.451 558.838L117.494 557L118.652 557.681L117.472 559.383L119.537 559.315Z" fill="#AAAAAA"/>
<path d="M134.21 559.315V560.585L132.145 560.517L133.325 562.219L132.167 562.9L131.123 561.062L130.08 562.9L128.922 562.219L130.102 560.517L128.037 560.585V559.315L130.102 559.383L128.922 557.681L130.08 557L131.123 558.838L132.167 557L133.325 557.681L132.145 559.383L134.21 559.315Z" fill="#AAAAAA"/>
<path d="M148.882 559.315V560.585L146.817 560.517L147.997 562.219L146.84 562.9L145.796 561.062L144.752 562.9L143.595 562.219L144.775 560.517L142.71 560.585V559.315L144.775 559.383L143.595 557.681L144.752 557L145.796 558.838L146.84 557L147.997 557.681L146.817 559.383L148.882 559.315Z" fill="#AAAAAA"/>
<path d="M25.555 518.765C25.555 517.745 25.79 516.83 26.26 516.02C26.74 515.21 27.385 514.58 28.195 514.13C29.015 513.67 29.91 513.44 30.88 513.44C31.99 513.44 32.975 513.715 33.835 514.265C34.705 514.805 35.335 515.575 35.725 516.575H33.67C33.4 516.025 33.025 515.615 32.545 515.345C32.065 515.075 31.51 514.94 30.88 514.94C30.19 514.94 29.575 515.095 29.035 515.405C28.495 515.715 28.07 516.16 27.76 516.74C27.46 517.32 27.31 517.995 27.31 518.765C27.31 519.535 27.46 520.21 27.76 520.79C28.07 521.37 28.495 521.82 29.035 522.14C29.575 522.45 30.19 522.605 30.88 522.605C31.51 522.605 32.065 522.47 32.545 522.2C33.025 521.93 33.4 521.52 33.67 520.97H35.725C35.335 521.97 34.705 522.74 33.835 523.28C32.975 523.82 31.99 524.09 30.88 524.09C29.9 524.09 29.005 523.865 28.195 523.415C27.385 522.955 26.74 522.32 26.26 521.51C25.79 520.7 25.555 519.785 25.555 518.765ZM41.3116 524.135C40.5316 524.135 39.8266 523.96 39.1966 523.61C38.5666 523.25 38.0716 522.75 37.7116 522.11C37.3516 521.46 37.1716 520.71 37.1716 519.86C37.1716 519.02 37.3566 518.275 37.7266 517.625C38.0966 516.975 38.6016 516.475 39.2416 516.125C39.8816 515.775 40.5966 515.6 41.3866 515.6C42.1766 515.6 42.8916 515.775 43.5316 516.125C44.1716 516.475 44.6766 516.975 45.0466 517.625C45.4166 518.275 45.6016 519.02 45.6016 519.86C45.6016 520.7 45.4116 521.445 45.0316 522.095C44.6516 522.745 44.1316 523.25 43.4716 523.61C42.8216 523.96 42.1016 524.135 41.3116 524.135ZM41.3116 522.65C41.7516 522.65 42.1616 522.545 42.5416 522.335C42.9316 522.125 43.2466 521.81 43.4866 521.39C43.7266 520.97 43.8466 520.46 43.8466 519.86C43.8466 519.26 43.7316 518.755 43.5016 518.345C43.2716 517.925 42.9666 517.61 42.5866 517.4C42.2066 517.19 41.7966 517.085 41.3566 517.085C40.9166 517.085 40.5066 517.19 40.1266 517.4C39.7566 517.61 39.4616 517.925 39.2416 518.345C39.0216 518.755 38.9116 519.26 38.9116 519.86C38.9116 520.75 39.1366 521.44 39.5866 521.93C40.0466 522.41 40.6216 522.65 41.3116 522.65ZM51.462 515.6C52.112 515.6 52.692 515.735 53.202 516.005C53.722 516.275 54.127 516.675 54.417 517.205C54.707 517.735 54.852 518.375 54.852 519.125V524H53.157V519.38C53.157 518.64 52.972 518.075 52.602 517.685C52.232 517.285 51.727 517.085 51.087 517.085C50.447 517.085 49.937 517.285 49.557 517.685C49.187 518.075 49.002 518.64 49.002 519.38V524H47.292V515.735H49.002V516.68C49.282 516.34 49.637 516.075 50.067 515.885C50.507 515.695 50.972 515.6 51.462 515.6ZM60.4982 517.13H58.9682V524H57.2432V517.13H56.2682V515.735H57.2432V515.15C57.2432 514.2 57.4932 513.51 57.9932 513.08C58.5032 512.64 59.2982 512.42 60.3782 512.42V513.845C59.8582 513.845 59.4932 513.945 59.2832 514.145C59.0732 514.335 58.9682 514.67 58.9682 515.15V515.735H60.4982V517.13ZM62.8837 514.64C62.5737 514.64 62.3137 514.535 62.1037 514.325C61.8937 514.115 61.7887 513.855 61.7887 513.545C61.7887 513.235 61.8937 512.975 62.1037 512.765C62.3137 512.555 62.5737 512.45 62.8837 512.45C63.1837 512.45 63.4387 512.555 63.6487 512.765C63.8587 512.975 63.9637 513.235 63.9637 513.545C63.9637 513.855 63.8587 514.115 63.6487 514.325C63.4387 514.535 63.1837 514.64 62.8837 514.64ZM63.7237 515.735V524H62.0137V515.735H63.7237ZM67.6788 516.935C67.9288 516.515 68.2588 516.19 68.6688 515.96C69.0888 515.72 69.5838 515.6 70.1538 515.6V517.37H69.7188C69.0488 517.37 68.5388 517.54 68.1888 517.88C67.8488 518.22 67.6788 518.81 67.6788 519.65V524H65.9688V515.735H67.6788V516.935ZM81.7306 515.6C82.3806 515.6 82.9606 515.735 83.4706 516.005C83.9906 516.275 84.3956 516.675 84.6856 517.205C84.9856 517.735 85.1356 518.375 85.1356 519.125V524H83.4406V519.38C83.4406 518.64 83.2556 518.075 82.8856 517.685C82.5156 517.285 82.0106 517.085 81.3706 517.085C80.7306 517.085 80.2206 517.285 79.8406 517.685C79.4706 518.075 79.2856 518.64 79.2856 519.38V524H77.5906V519.38C77.5906 518.64 77.4056 518.075 77.0356 517.685C76.6656 517.285 76.1606 517.085 75.5206 517.085C74.8806 517.085 74.3706 517.285 73.9906 517.685C73.6206 518.075 73.4356 518.64 73.4356 519.38V524H71.7256V515.735H73.4356V516.68C73.7156 516.34 74.0706 516.075 74.5006 515.885C74.9306 515.695 75.3906 515.6 75.8806 515.6C76.5406 515.6 77.1306 515.74 77.6506 516.02C78.1706 516.3 78.5706 516.705 78.8506 517.235C79.1006 516.735 79.4906 516.34 80.0206 516.05C80.5506 515.75 81.1206 515.6 81.7306 515.6ZM95.378 515.6C96.028 515.6 96.608 515.735 97.118 516.005C97.638 516.275 98.043 516.675 98.333 517.205C98.623 517.735 98.768 518.375 98.768 519.125V524H97.073V519.38C97.073 518.64 96.888 518.075 96.518 517.685C96.148 517.285 95.643 517.085 95.003 517.085C94.363 517.085 93.853 517.285 93.473 517.685C93.103 518.075 92.918 518.64 92.918 519.38V524H91.208V515.735H92.918V516.68C93.198 516.34 93.553 516.075 93.983 515.885C94.423 515.695 94.888 515.6 95.378 515.6ZM108.524 519.665C108.524 519.975 108.504 520.255 108.464 520.505H102.149C102.199 521.165 102.444 521.695 102.884 522.095C103.324 522.495 103.864 522.695 104.504 522.695C105.424 522.695 106.074 522.31 106.454 521.54H108.299C108.049 522.3 107.594 522.925 106.934 523.415C106.284 523.895 105.474 524.135 104.504 524.135C103.714 524.135 103.004 523.96 102.374 523.61C101.754 523.25 101.264 522.75 100.904 522.11C100.554 521.46 100.379 520.71 100.379 519.86C100.379 519.01 100.549 518.265 100.889 517.625C101.239 516.975 101.724 516.475 102.344 516.125C102.974 515.775 103.694 515.6 104.504 515.6C105.284 515.6 105.979 515.77 106.589 516.11C107.199 516.45 107.674 516.93 108.014 517.55C108.354 518.16 108.524 518.865 108.524 519.665ZM106.739 519.125C106.729 518.495 106.504 517.99 106.064 517.61C105.624 517.23 105.079 517.04 104.429 517.04C103.839 517.04 103.334 517.23 102.914 517.61C102.494 517.98 102.244 518.485 102.164 519.125H106.739ZM121.307 515.735L118.742 524H116.942L115.277 517.895L113.612 524H111.812L109.232 515.735H110.972L112.697 522.38L114.452 515.735H116.237L117.917 522.35L119.627 515.735H121.307ZM128.191 516.95C128.481 516.57 128.876 516.25 129.376 515.99C129.876 515.73 130.441 515.6 131.071 515.6C131.791 515.6 132.446 515.78 133.036 516.14C133.636 516.49 134.106 516.985 134.446 517.625C134.786 518.265 134.956 519 134.956 519.83C134.956 520.66 134.786 521.405 134.446 522.065C134.106 522.715 133.636 523.225 133.036 523.595C132.446 523.955 131.791 524.135 131.071 524.135C130.441 524.135 129.881 524.01 129.391 523.76C128.901 523.5 128.501 523.18 128.191 522.8V527.93H126.481V515.735H128.191V516.95ZM133.216 519.83C133.216 519.26 133.096 518.77 132.856 518.36C132.626 517.94 132.316 517.625 131.926 517.415C131.546 517.195 131.136 517.085 130.696 517.085C130.266 517.085 129.856 517.195 129.466 517.415C129.086 517.635 128.776 517.955 128.536 518.375C128.306 518.795 128.191 519.29 128.191 519.86C128.191 520.43 128.306 520.93 128.536 521.36C128.776 521.78 129.086 522.1 129.466 522.32C129.856 522.54 130.266 522.65 130.696 522.65C131.136 522.65 131.546 522.54 131.926 522.32C132.316 522.09 132.626 521.76 132.856 521.33C133.096 520.9 133.216 520.4 133.216 519.83ZM136.077 519.83C136.077 519 136.247 518.265 136.587 517.625C136.937 516.985 137.407 516.49 137.997 516.14C138.597 515.78 139.257 515.6 139.977 515.6C140.627 515.6 141.192 515.73 141.672 515.99C142.162 516.24 142.552 516.555 142.842 516.935V515.735H144.567V524H142.842V522.77C142.552 523.16 142.157 523.485 141.657 523.745C141.157 524.005 140.587 524.135 139.947 524.135C139.237 524.135 138.587 523.955 137.997 523.595C137.407 523.225 136.937 522.715 136.587 522.065C136.247 521.405 136.077 520.66 136.077 519.83ZM142.842 519.86C142.842 519.29 142.722 518.795 142.482 518.375C142.252 517.955 141.947 517.635 141.567 517.415C141.187 517.195 140.777 517.085 140.337 517.085C139.897 517.085 139.487 517.195 139.107 517.415C138.727 517.625 138.417 517.94 138.177 518.36C137.947 518.77 137.832 519.26 137.832 519.83C137.832 520.4 137.947 520.9 138.177 521.33C138.417 521.76 138.727 522.09 139.107 522.32C139.497 522.54 139.907 522.65 140.337 522.65C140.777 522.65 141.187 522.54 141.567 522.32C141.947 522.1 142.252 521.78 142.482 521.36C142.722 520.93 142.842 520.43 142.842 519.86ZM149.813 524.135C149.163 524.135 148.578 524.02 148.058 523.79C147.548 523.55 147.143 523.23 146.843 522.83C146.543 522.42 146.383 521.965 146.363 521.465H148.133C148.163 521.815 148.328 522.11 148.628 522.35C148.938 522.58 149.323 522.695 149.783 522.695C150.263 522.695 150.633 522.605 150.893 522.425C151.163 522.235 151.298 521.995 151.298 521.705C151.298 521.395 151.148 521.165 150.848 521.015C150.558 520.865 150.093 520.7 149.453 520.52C148.833 520.35 148.328 520.185 147.938 520.025C147.548 519.865 147.208 519.62 146.918 519.29C146.638 518.96 146.498 518.525 146.498 517.985C146.498 517.545 146.628 517.145 146.888 516.785C147.148 516.415 147.518 516.125 147.998 515.915C148.488 515.705 149.048 515.6 149.678 515.6C150.618 515.6 151.373 515.84 151.943 516.32C152.523 516.79 152.833 517.435 152.873 518.255H151.163C151.133 517.885 150.983 517.59 150.713 517.37C150.443 517.15 150.078 517.04 149.618 517.04C149.168 517.04 148.823 517.125 148.583 517.295C148.343 517.465 148.223 517.69 148.223 517.97C148.223 518.19 148.303 518.375 148.463 518.525C148.623 518.675 148.818 518.795 149.048 518.885C149.278 518.965 149.618 519.07 150.068 519.2C150.668 519.36 151.158 519.525 151.538 519.695C151.928 519.855 152.263 520.095 152.543 520.415C152.823 520.735 152.968 521.16 152.978 521.69C152.978 522.16 152.848 522.58 152.588 522.95C152.328 523.32 151.958 523.61 151.478 523.82C151.008 524.03 150.453 524.135 149.813 524.135ZM157.826 524.135C157.176 524.135 156.591 524.02 156.071 523.79C155.561 523.55 155.156 523.23 154.856 522.83C154.556 522.42 154.396 521.965 154.376 521.465H156.146C156.176 521.815 156.341 522.11 156.641 522.35C156.951 522.58 157.336 522.695 157.796 522.695C158.276 522.695 158.646 522.605 158.906 522.425C159.176 522.235 159.311 521.995 159.311 521.705C159.311 521.395 159.161 521.165 158.861 521.015C158.571 520.865 158.106 520.7 157.466 520.52C156.846 520.35 156.341 520.185 155.951 520.025C155.561 519.865 155.221 519.62 154.931 519.29C154.651 518.96 154.511 518.525 154.511 517.985C154.511 517.545 154.641 517.145 154.901 516.785C155.161 516.415 155.531 516.125 156.011 515.915C156.501 515.705 157.061 515.6 157.691 515.6C158.631 515.6 159.386 515.84 159.956 516.32C160.536 516.79 160.846 517.435 160.886 518.255H159.176C159.146 517.885 158.996 517.59 158.726 517.37C158.456 517.15 158.091 517.04 157.631 517.04C157.181 517.04 156.836 517.125 156.596 517.295C156.356 517.465 156.236 517.69 156.236 517.97C156.236 518.19 156.316 518.375 156.476 518.525C156.636 518.675 156.831 518.795 157.061 518.885C157.291 518.965 157.631 519.07 158.081 519.2C158.681 519.36 159.171 519.525 159.551 519.695C159.941 519.855 160.276 520.095 160.556 520.415C160.836 520.735 160.981 521.16 160.991 521.69C160.991 522.16 160.861 522.58 160.601 522.95C160.341 523.32 159.971 523.61 159.491 523.82C159.021 524.03 158.466 524.135 157.826 524.135ZM173.939 515.735L171.374 524H169.574L167.909 517.895L166.244 524H164.444L161.864 515.735H163.604L165.329 522.38L167.084 515.735H168.869L170.549 522.35L172.259 515.735H173.939ZM178.802 524.135C178.022 524.135 177.317 523.96 176.687 523.61C176.057 523.25 175.562 522.75 175.202 522.11C174.842 521.46 174.662 520.71 174.662 519.86C174.662 519.02 174.847 518.275 175.217 517.625C175.587 516.975 176.092 516.475 176.732 516.125C177.372 515.775 178.087 515.6 178.877 515.6C179.667 515.6 180.382 515.775 181.022 516.125C181.662 516.475 182.167 516.975 182.537 517.625C182.907 518.275 183.092 519.02 183.092 519.86C183.092 520.7 182.902 521.445 182.522 522.095C182.142 522.745 181.622 523.25 180.962 523.61C180.312 523.96 179.592 524.135 178.802 524.135ZM178.802 522.65C179.242 522.65 179.652 522.545 180.032 522.335C180.422 522.125 180.737 521.81 180.977 521.39C181.217 520.97 181.337 520.46 181.337 519.86C181.337 519.26 181.222 518.755 180.992 518.345C180.762 517.925 180.457 517.61 180.077 517.4C179.697 517.19 179.287 517.085 178.847 517.085C178.407 517.085 177.997 517.19 177.617 517.4C177.247 517.61 176.952 517.925 176.732 518.345C176.512 518.755 176.402 519.26 176.402 519.86C176.402 520.75 176.627 521.44 177.077 521.93C177.537 522.41 178.112 522.65 178.802 522.65ZM186.492 516.935C186.742 516.515 187.072 516.19 187.482 515.96C187.902 515.72 188.397 515.6 188.967 515.6V517.37H188.532C187.862 517.37 187.352 517.54 187.002 517.88C186.662 518.22 186.492 518.81 186.492 519.65V524H184.782V515.735H186.492V516.935ZM189.969 519.83C189.969 519 190.139 518.265 190.479 517.625C190.829 516.985 191.299 516.49 191.889 516.14C192.489 515.78 193.154 515.6 193.884 515.6C194.424 515.6 194.954 515.72 195.474 515.96C196.004 516.19 196.424 516.5 196.734 516.89V512.9H198.459V524H196.734V522.755C196.454 523.155 196.064 523.485 195.564 523.745C195.074 524.005 194.509 524.135 193.869 524.135C193.149 524.135 192.489 523.955 191.889 523.595C191.299 523.225 190.829 522.715 190.479 522.065C190.139 521.405 189.969 520.66 189.969 519.83ZM196.734 519.86C196.734 519.29 196.614 518.795 196.374 518.375C196.144 517.955 195.839 517.635 195.459 517.415C195.079 517.195 194.669 517.085 194.229 517.085C193.789 517.085 193.379 517.195 192.999 517.415C192.619 517.625 192.309 517.94 192.069 518.36C191.839 518.77 191.724 519.26 191.724 519.83C191.724 520.4 191.839 520.9 192.069 521.33C192.309 521.76 192.619 522.09 192.999 522.32C193.389 522.54 193.799 522.65 194.229 522.65C194.669 522.65 195.079 522.54 195.459 522.32C195.839 522.1 196.144 521.78 196.374 521.36C196.614 520.93 196.734 520.43 196.734 519.86Z" fill="black"/>
<rect x="25.5" y="430.5" width="324" height="49" rx="9.5" stroke="#EEEEEE"/>
<path d="M325.778 457.338C325.304 456.865 325.016 456.222 325.016 455.501C325.016 454.056 326.18 452.892 327.624 452.892C328.338 452.892 328.996 453.181 329.461 453.654" stroke="#AAAAAA" stroke-linecap="round" stroke-linejoin="round"/>
<path d="M330.183 455.963C329.991 457.027 329.154 457.865 328.092 458.058" stroke="#AAAAAA" stroke-linecap="round" stroke-linejoin="round"/>
<path d="M323.218 459.897C321.91 458.87 320.803 457.37 320 455.5C320.811 453.622 321.926 452.114 323.242 451.079C324.55 450.044 326.059 449.482 327.623 449.482C329.197 449.482 330.705 450.052 332.021 451.095" stroke="#AAAAAA" stroke-linecap="round" stroke-linejoin="round"/>
<path d="M333.762 452.907C334.329 453.661 334.827 454.53 335.247 455.5C333.626 459.256 330.761 461.518 327.623 461.518C326.912 461.518 326.211 461.403 325.537 461.178" stroke="#AAAAAA" stroke-linecap="round" stroke-linejoin="round"/>
<path d="M334.124 449L321.124 462" stroke="#AAAAAA" stroke-linecap="round" stroke-linejoin="round"/>
<path d="M46.1723 454.315V455.585L44.1073 455.517L45.2873 457.219L44.13 457.9L43.0862 456.062L42.0423 457.9L40.885 457.219L42.065 455.517L40 455.585V454.315L42.065 454.383L40.885 452.681L42.0423 452L43.0862 453.838L44.13 452L45.2873 452.681L44.1073 454.383L46.1723 454.315Z" fill="#AAAAAA"/>
<path d="M60.8452 454.315V455.585L58.7802 455.517L59.9602 457.219L58.8029 457.9L57.759 456.062L56.7152 457.9L55.5579 457.219L56.7379 455.517L54.6729 455.585V454.315L56.7379 454.383L55.5579 452.681L56.7152 452L57.759 453.838L58.8029 452L59.9602 452.681L58.7802 454.383L60.8452 454.315Z" fill="#AAAAAA"/>
<path d="M75.5181 454.315V455.585L73.4531 455.517L74.6331 457.219L73.4758 457.9L72.4319 456.062L71.3881 457.9L70.2308 457.219L71.4108 455.517L69.3458 455.585V454.315L71.4108 454.383L70.2308 452.681L71.3881 452L72.4319 453.838L73.4758 452L74.6331 452.681L73.4531 454.383L75.5181 454.315Z" fill="#AAAAAA"/>
<path d="M90.191 454.315V455.585L88.126 455.517L89.3059 457.219L88.1486 457.9L87.1048 456.062L86.061 457.9L84.9036 457.219L86.0836 455.517L84.0186 455.585V454.315L86.0836 454.383L84.9036 452.681L86.061 452L87.1048 453.838L88.1486 452L89.3059 452.681L88.126 454.383L90.191 454.315Z" fill="#AAAAAA"/>
<path d="M104.864 454.315V455.585L102.799 455.517L103.979 457.219L102.822 457.9L101.778 456.062L100.734 457.9L99.5765 457.219L100.757 455.517L98.6915 455.585V454.315L100.757 454.383L99.5765 452.681L100.734 452L101.778 453.838L102.822 452L103.979 452.681L102.799 454.383L104.864 454.315Z" fill="#AAAAAA"/>
<path d="M119.537 454.315V455.585L117.472 455.517L118.652 457.219L117.494 457.9L116.451 456.062L115.407 457.9L114.249 457.219L115.429 455.517L113.364 455.585V454.315L115.429 454.383L114.249 452.681L115.407 452L116.451 453.838L117.494 452L118.652 452.681L117.472 454.383L119.537 454.315Z" fill="#AAAAAA"/>
<path d="M134.21 454.315V455.585L132.145 455.517L133.325 457.219L132.167 457.9L131.123 456.062L130.08 457.9L128.922 457.219L130.102 455.517L128.037 455.585V454.315L130.102 454.383L128.922 452.681L130.08 452L131.123 453.838L132.167 452L133.325 452.681L132.145 454.383L134.21 454.315Z" fill="#AAAAAA"/>
<path d="M148.882 454.315V455.585L146.817 455.517L147.997 457.219L146.84 457.9L145.796 456.062L144.752 457.9L143.595 457.219L144.775 455.517L142.71 455.585V454.315L144.775 454.383L143.595 452.681L144.752 452L145.796 453.838L146.84 452L147.997 452.681L146.817 454.383L148.882 454.315Z" fill="#AAAAAA"/>
<path d="M27.835 409.955V413.015H31.435V414.41H27.835V417.605H31.885V419H26.125V408.56H31.885V409.955H27.835ZM38.1612 410.6C38.8112 410.6 39.3912 410.735 39.9012 411.005C40.4212 411.275 40.8262 411.675 41.1162 412.205C41.4062 412.735 41.5512 413.375 41.5512 414.125V419H39.8562V414.38C39.8562 413.64 39.6712 413.075 39.3012 412.685C38.9312 412.285 38.4262 412.085 37.7862 412.085C37.1462 412.085 36.6362 412.285 36.2562 412.685C35.8862 413.075 35.7012 413.64 35.7012 414.38V419H33.9912V410.735H35.7012V411.68C35.9812 411.34 36.3362 411.075 36.7662 410.885C37.2062 410.695 37.6712 410.6 38.1612 410.6ZM45.7274 412.13V416.705C45.7274 417.015 45.7974 417.24 45.9374 417.38C46.0874 417.51 46.3374 417.575 46.6874 417.575H47.7374V419H46.3874C45.6174 419 45.0274 418.82 44.6174 418.46C44.2074 418.1 44.0024 417.515 44.0024 416.705V412.13H43.0274V410.735H44.0024V408.68H45.7274V410.735H47.7374V412.13H45.7274ZM56.8885 414.665C56.8885 414.975 56.8685 415.255 56.8285 415.505H50.5135C50.5635 416.165 50.8085 416.695 51.2485 417.095C51.6885 417.495 52.2285 417.695 52.8685 417.695C53.7885 417.695 54.4385 417.31 54.8185 416.54H56.6635C56.4135 417.3 55.9585 417.925 55.2985 418.415C54.6485 418.895 53.8385 419.135 52.8685 419.135C52.0785 419.135 51.3685 418.96 50.7385 418.61C50.1185 418.25 49.6285 417.75 49.2685 417.11C48.9185 416.46 48.7435 415.71 48.7435 414.86C48.7435 414.01 48.9135 413.265 49.2535 412.625C49.6035 411.975 50.0885 411.475 50.7085 411.125C51.3385 410.775 52.0585 410.6 52.8685 410.6C53.6485 410.6 54.3435 410.77 54.9535 411.11C55.5635 411.45 56.0385 411.93 56.3785 412.55C56.7185 413.16 56.8885 413.865 56.8885 414.665ZM55.1035 414.125C55.0935 413.495 54.8685 412.99 54.4285 412.61C53.9885 412.23 53.4435 412.04 52.7935 412.04C52.2035 412.04 51.6985 412.23 51.2785 412.61C50.8585 412.98 50.6085 413.485 50.5285 414.125H55.1035ZM60.2813 411.935C60.5313 411.515 60.8613 411.19 61.2713 410.96C61.6913 410.72 62.1863 410.6 62.7563 410.6V412.37H62.3213C61.6513 412.37 61.1413 412.54 60.7913 412.88C60.4513 413.22 60.2813 413.81 60.2813 414.65V419H58.5713V410.735H60.2813V411.935ZM72.3946 410.6C73.0446 410.6 73.6246 410.735 74.1346 411.005C74.6546 411.275 75.0596 411.675 75.3496 412.205C75.6396 412.735 75.7846 413.375 75.7846 414.125V419H74.0896V414.38C74.0896 413.64 73.9046 413.075 73.5346 412.685C73.1646 412.285 72.6596 412.085 72.0196 412.085C71.3796 412.085 70.8696 412.285 70.4896 412.685C70.1196 413.075 69.9346 413.64 69.9346 414.38V419H68.2246V410.735H69.9346V411.68C70.2146 411.34 70.5696 411.075 70.9996 410.885C71.4396 410.695 71.9046 410.6 72.3946 410.6ZM85.5408 414.665C85.5408 414.975 85.5208 415.255 85.4808 415.505H79.1658C79.2158 416.165 79.4608 416.695 79.9008 417.095C80.3408 417.495 80.8808 417.695 81.5208 417.695C82.4408 417.695 83.0908 417.31 83.4708 416.54H85.3158C85.0658 417.3 84.6108 417.925 83.9508 418.415C83.3008 418.895 82.4908 419.135 81.5208 419.135C80.7308 419.135 80.0208 418.96 79.3908 418.61C78.7708 418.25 78.2808 417.75 77.9208 417.11C77.5708 416.46 77.3958 415.71 77.3958 414.86C77.3958 414.01 77.5658 413.265 77.9058 412.625C78.2558 411.975 78.7408 411.475 79.3608 411.125C79.9908 410.775 80.7108 410.6 81.5208 410.6C82.3008 410.6 82.9958 410.77 83.6058 411.11C84.2158 411.45 84.6908 411.93 85.0308 412.55C85.3708 413.16 85.5408 413.865 85.5408 414.665ZM83.7558 414.125C83.7458 413.495 83.5208 412.99 83.0808 412.61C82.6408 412.23 82.0958 412.04 81.4458 412.04C80.8558 412.04 80.3508 412.23 79.9308 412.61C79.5108 412.98 79.2608 413.485 79.1808 414.125H83.7558ZM98.3236 410.735L95.7586 419H93.9586L92.2936 412.895L90.6286 419H88.8286L86.2486 410.735H87.9886L89.7136 417.38L91.4686 410.735H93.2536L94.9336 417.35L96.6436 410.735H98.3236ZM105.208 411.95C105.498 411.57 105.893 411.25 106.393 410.99C106.893 410.73 107.458 410.6 108.088 410.6C108.808 410.6 109.463 410.78 110.053 411.14C110.653 411.49 111.123 411.985 111.463 412.625C111.803 413.265 111.973 414 111.973 414.83C111.973 415.66 111.803 416.405 111.463 417.065C111.123 417.715 110.653 418.225 110.053 418.595C109.463 418.955 108.808 419.135 108.088 419.135C107.458 419.135 106.898 419.01 106.408 418.76C105.918 418.5 105.518 418.18 105.208 417.8V422.93H103.498V410.735H105.208V411.95ZM110.233 414.83C110.233 414.26 110.113 413.77 109.873 413.36C109.643 412.94 109.333 412.625 108.943 412.415C108.563 412.195 108.153 412.085 107.713 412.085C107.283 412.085 106.873 412.195 106.483 412.415C106.103 412.635 105.793 412.955 105.553 413.375C105.323 413.795 105.208 414.29 105.208 414.86C105.208 415.43 105.323 415.93 105.553 416.36C105.793 416.78 106.103 417.1 106.483 417.32C106.873 417.54 107.283 417.65 107.713 417.65C108.153 417.65 108.563 417.54 108.943 417.32C109.333 417.09 109.643 416.76 109.873 416.33C110.113 415.9 110.233 415.4 110.233 414.83ZM113.094 414.83C113.094 414 113.264 413.265 113.604 412.625C113.954 411.985 114.424 411.49 115.014 411.14C115.614 410.78 116.274 410.6 116.994 410.6C117.644 410.6 118.209 410.73 118.689 410.99C119.179 411.24 119.569 411.555 119.859 411.935V410.735H121.584V419H119.859V417.77C119.569 418.16 119.174 418.485 118.674 418.745C118.174 419.005 117.604 419.135 116.964 419.135C116.254 419.135 115.604 418.955 115.014 418.595C114.424 418.225 113.954 417.715 113.604 417.065C113.264 416.405 113.094 415.66 113.094 414.83ZM119.859 414.86C119.859 414.29 119.739 413.795 119.499 413.375C119.269 412.955 118.964 412.635 118.584 412.415C118.204 412.195 117.794 412.085 117.354 412.085C116.914 412.085 116.504 412.195 116.124 412.415C115.744 412.625 115.434 412.94 115.194 413.36C114.964 413.77 114.849 414.26 114.849 414.83C114.849 415.4 114.964 415.9 115.194 416.33C115.434 416.76 115.744 417.09 116.124 417.32C116.514 417.54 116.924 417.65 117.354 417.65C117.794 417.65 118.204 417.54 118.584 417.32C118.964 417.1 119.269 416.78 119.499 416.36C119.739 415.93 119.859 415.43 119.859 414.86ZM126.83 419.135C126.18 419.135 125.595 419.02 125.075 418.79C124.565 418.55 124.16 418.23 123.86 417.83C123.56 417.42 123.4 416.965 123.38 416.465H125.15C125.18 416.815 125.345 417.11 125.645 417.35C125.955 417.58 126.34 417.695 126.8 417.695C127.28 417.695 127.65 417.605 127.91 417.425C128.18 417.235 128.315 416.995 128.315 416.705C128.315 416.395 128.165 416.165 127.865 416.015C127.575 415.865 127.11 415.7 126.47 415.52C125.85 415.35 125.345 415.185 124.955 415.025C124.565 414.865 124.225 414.62 123.935 414.29C123.655 413.96 123.515 413.525 123.515 412.985C123.515 412.545 123.645 412.145 123.905 411.785C124.165 411.415 124.535 411.125 125.015 410.915C125.505 410.705 126.065 410.6 126.695 410.6C127.635 410.6 128.39 410.84 128.96 411.32C129.54 411.79 129.85 412.435 129.89 413.255H128.18C128.15 412.885 128 412.59 127.73 412.37C127.46 412.15 127.095 412.04 126.635 412.04C126.185 412.04 125.84 412.125 125.6 412.295C125.36 412.465 125.24 412.69 125.24 412.97C125.24 413.19 125.32 413.375 125.48 413.525C125.64 413.675 125.835 413.795 126.065 413.885C126.295 413.965 126.635 414.07 127.085 414.2C127.685 414.36 128.175 414.525 128.555 414.695C128.945 414.855 129.28 415.095 129.56 415.415C129.84 415.735 129.985 416.16 129.995 416.69C129.995 417.16 129.865 417.58 129.605 417.95C129.345 418.32 128.975 418.61 128.495 418.82C128.025 419.03 127.47 419.135 126.83 419.135ZM134.843 419.135C134.193 419.135 133.608 419.02 133.088 418.79C132.578 418.55 132.173 418.23 131.873 417.83C131.573 417.42 131.413 416.965 131.393 416.465H133.163C133.193 416.815 133.358 417.11 133.658 417.35C133.968 417.58 134.353 417.695 134.813 417.695C135.293 417.695 135.663 417.605 135.923 417.425C136.193 417.235 136.328 416.995 136.328 416.705C136.328 416.395 136.178 416.165 135.878 416.015C135.588 415.865 135.123 415.7 134.483 415.52C133.863 415.35 133.358 415.185 132.968 415.025C132.578 414.865 132.238 414.62 131.948 414.29C131.668 413.96 131.528 413.525 131.528 412.985C131.528 412.545 131.658 412.145 131.918 411.785C132.178 411.415 132.548 411.125 133.028 410.915C133.518 410.705 134.078 410.6 134.708 410.6C135.648 410.6 136.403 410.84 136.973 411.32C137.553 411.79 137.863 412.435 137.903 413.255H136.193C136.163 412.885 136.013 412.59 135.743 412.37C135.473 412.15 135.108 412.04 134.648 412.04C134.198 412.04 133.853 412.125 133.613 412.295C133.373 412.465 133.253 412.69 133.253 412.97C133.253 413.19 133.333 413.375 133.493 413.525C133.653 413.675 133.848 413.795 134.078 413.885C134.308 413.965 134.648 414.07 135.098 414.2C135.698 414.36 136.188 414.525 136.568 414.695C136.958 414.855 137.293 415.095 137.573 415.415C137.853 415.735 137.998 416.16 138.008 416.69C138.008 417.16 137.878 417.58 137.618 417.95C137.358 418.32 136.988 418.61 136.508 418.82C136.038 419.03 135.483 419.135 134.843 419.135ZM150.955 410.735L148.39 419H146.59L144.925 412.895L143.26 419H141.46L138.88 410.735H140.62L142.345 417.38L144.1 410.735H145.885L147.565 417.35L149.275 410.735H150.955ZM155.818 419.135C155.038 419.135 154.333 418.96 153.703 418.61C153.073 418.25 152.578 417.75 152.218 417.11C151.858 416.46 151.678 415.71 151.678 414.86C151.678 414.02 151.863 413.275 152.233 412.625C152.603 411.975 153.108 411.475 153.748 411.125C154.388 410.775 155.103 410.6 155.893 410.6C156.683 410.6 157.398 410.775 158.038 411.125C158.678 411.475 159.183 411.975 159.553 412.625C159.923 413.275 160.108 414.02 160.108 414.86C160.108 415.7 159.918 416.445 159.538 417.095C159.158 417.745 158.638 418.25 157.978 418.61C157.328 418.96 156.608 419.135 155.818 419.135ZM155.818 417.65C156.258 417.65 156.668 417.545 157.048 417.335C157.438 417.125 157.753 416.81 157.993 416.39C158.233 415.97 158.353 415.46 158.353 414.86C158.353 414.26 158.238 413.755 158.008 413.345C157.778 412.925 157.473 412.61 157.093 412.4C156.713 412.19 156.303 412.085 155.863 412.085C155.423 412.085 155.013 412.19 154.633 412.4C154.263 412.61 153.968 412.925 153.748 413.345C153.528 413.755 153.418 414.26 153.418 414.86C153.418 415.75 153.643 416.44 154.093 416.93C154.553 417.41 155.128 417.65 155.818 417.65ZM163.509 411.935C163.759 411.515 164.089 411.19 164.499 410.96C164.919 410.72 165.414 410.6 165.984 410.6V412.37H165.549C164.879 412.37 164.369 412.54 164.019 412.88C163.679 413.22 163.509 413.81 163.509 414.65V419H161.799V410.735H163.509V411.935ZM166.986 414.83C166.986 414 167.156 413.265 167.496 412.625C167.846 411.985 168.316 411.49 168.906 411.14C169.506 410.78 170.171 410.6 170.901 410.6C171.441 410.6 171.971 410.72 172.491 410.96C173.021 411.19 173.441 411.5 173.751 411.89V407.9H175.476V419H173.751V417.755C173.471 418.155 173.081 418.485 172.581 418.745C172.091 419.005 171.526 419.135 170.886 419.135C170.166 419.135 169.506 418.955 168.906 418.595C168.316 418.225 167.846 417.715 167.496 417.065C167.156 416.405 166.986 415.66 166.986 414.83ZM173.751 414.86C173.751 414.29 173.631 413.795 173.391 413.375C173.161 412.955 172.856 412.635 172.476 412.415C172.096 412.195 171.686 412.085 171.246 412.085C170.806 412.085 170.396 412.195 170.016 412.415C169.636 412.625 169.326 412.94 169.086 413.36C168.856 413.77 168.741 414.26 168.741 414.83C168.741 415.4 168.856 415.9 169.086 416.33C169.326 416.76 169.636 417.09 170.016 417.32C170.406 417.54 170.816 417.65 171.246 417.65C171.686 417.65 172.096 417.54 172.476 417.32C172.856 417.1 173.161 416.78 173.391 416.36C173.631 415.93 173.751 415.43 173.751 414.86Z" fill="black"/>
<rect x="88" y="124" width="200" height="200" rx="100" fill="#E5F2FE"/>
<path d="M188.288 173L146 190.664C146 190.664 149.055 223.362 153.874 243.993C156.103 253.532 188.288 274 188.288 274C188.288 274 220.473 253.532 222.701 243.993C227.521 223.362 230.576 190.664 230.576 190.664L188.288 173Z" fill="#666666"/>
<path d="M222.689 243.993C227.509 223.362 230.563 190.664 230.563 190.664L188.288 173V274C188.288 274 220.461 253.532 222.689 243.993Z" fill="#313840"/>
<path d="M188.288 265.562C174.417 256.336 161.999 245.933 160.734 242.29C157.104 226.755 154.45 206.6 153.474 195.208L188.288 180.661L223.102 195.208C222.113 206.612 219.472 226.78 215.816 242.391C214.564 245.946 202.146 256.349 188.288 265.562Z" fill="#339DFE"/>
<path d="M188.288 265.562C202.158 256.349 214.577 245.946 215.816 242.391C219.472 226.792 222.113 206.612 223.102 195.208L188.288 180.661V265.562Z" fill="#0085FE"/>
<path d="M188.288 238.234C187.161 238.234 186.034 237.809 185.158 236.945L174.843 226.63C173.115 224.902 173.115 222.098 174.843 220.37C176.57 218.643 179.362 218.643 181.089 220.37L188.275 227.556L205.789 210.055C207.516 208.328 210.308 208.328 212.035 210.055C213.763 211.783 213.763 214.574 212.035 216.302L191.405 236.945C190.541 237.809 189.414 238.234 188.288 238.234Z" fill="white"/>
<path d="M191.405 236.945L212.036 216.314C213.763 214.587 213.763 211.783 212.036 210.068C210.308 208.34 207.516 208.34 205.789 210.068L188.288 227.569V238.234C189.415 238.234 190.541 237.809 191.405 236.945Z" fill="#E5F2FE"/>
<rect x="64.5" y="83.5" width="39" height="39" rx="9.5" transform="rotate(180 64.5 83.5)" stroke="#F0F0F0"/>
<path d="M48.5 71L41.5 64L48.5 57" stroke="#AAAAAA" stroke-width="1.5" stroke-linecap="round" stroke-linejoin="round"/>
<path d="M76.909 64C76.909 62.6267 77.2157 61.4 77.829 60.32C78.4557 59.2267 79.3023 58.38 80.369 57.78C81.449 57.1667 82.6557 56.86 83.989 56.86C85.549 56.86 86.9157 57.26 88.089 58.06C89.2623 58.86 90.0823 59.9667 90.549 61.38H87.329C87.009 60.7133 86.5557 60.2133 85.969 59.88C85.3957 59.5467 84.729 59.38 83.969 59.38C83.1557 59.38 82.429 59.5733 81.789 59.96C81.1623 60.3333 80.669 60.8667 80.309 61.56C79.9623 62.2533 79.789 63.0667 79.789 64C79.789 64.92 79.9623 65.7333 80.309 66.44C80.669 67.1333 81.1623 67.6733 81.789 68.06C82.429 68.4333 83.1557 68.62 83.969 68.62C84.729 68.62 85.3957 68.4533 85.969 68.12C86.5557 67.7733 87.009 67.2667 87.329 66.6H90.549C90.0823 68.0267 89.2623 69.14 88.089 69.94C86.929 70.7267 85.5623 71.12 83.989 71.12C82.6557 71.12 81.449 70.82 80.369 70.22C79.3023 69.6067 78.4557 68.76 77.829 67.68C77.2157 66.6 76.909 65.3733 76.909 64ZM95.7405 61.64C96.1005 61.0533 96.5672 60.5933 97.1405 60.26C97.7272 59.9267 98.3939 59.76 99.1405 59.76V62.7H98.4005C97.5205 62.7 96.8539 62.9067 96.4005 63.32C95.9605 63.7333 95.7405 64.4533 95.7405 65.48V71H92.9405V59.92H95.7405V61.64ZM111.326 65.22C111.326 65.62 111.3 65.98 111.246 66.3H103.146C103.213 67.1 103.493 67.7267 103.986 68.18C104.48 68.6333 105.086 68.86 105.806 68.86C106.846 68.86 107.586 68.4133 108.026 67.52H111.046C110.726 68.5867 110.113 69.4667 109.206 70.16C108.3 70.84 107.186 71.18 105.866 71.18C104.8 71.18 103.84 70.9467 102.986 70.48C102.146 70 101.486 69.3267 101.006 68.46C100.54 67.5933 100.306 66.5933 100.306 65.46C100.306 64.3133 100.54 63.3067 101.006 62.44C101.473 61.5733 102.126 60.9067 102.966 60.44C103.806 59.9733 104.773 59.74 105.866 59.74C106.92 59.74 107.86 59.9667 108.686 60.42C109.526 60.8733 110.173 61.52 110.626 62.36C111.093 63.1867 111.326 64.14 111.326 65.22ZM108.426 64.42C108.413 63.7 108.153 63.1267 107.646 62.7C107.14 62.26 106.52 62.04 105.786 62.04C105.093 62.04 104.506 62.2533 104.026 62.68C103.56 63.0933 103.273 63.6733 103.166 64.42H108.426ZM112.65 65.42C112.65 64.3 112.87 63.3067 113.31 62.44C113.764 61.5733 114.37 60.9067 115.13 60.44C115.904 59.9733 116.764 59.74 117.71 59.74C118.537 59.74 119.257 59.9067 119.87 60.24C120.497 60.5733 120.997 60.9933 121.37 61.5V59.92H124.19V71H121.37V69.38C121.01 69.9 120.51 70.3333 119.87 70.68C119.244 71.0133 118.517 71.18 117.69 71.18C116.757 71.18 115.904 70.94 115.13 70.46C114.37 69.98 113.764 69.3067 113.31 68.44C112.87 67.56 112.65 66.5533 112.65 65.42ZM121.37 65.46C121.37 64.78 121.237 64.2 120.97 63.72C120.704 63.2267 120.344 62.8533 119.89 62.6C119.437 62.3333 118.95 62.2 118.43 62.2C117.91 62.2 117.43 62.3267 116.99 62.58C116.55 62.8333 116.19 63.2067 115.91 63.7C115.644 64.18 115.51 64.7533 115.51 65.42C115.51 66.0867 115.644 66.6733 115.91 67.18C116.19 67.6733 116.55 68.0533 116.99 68.32C117.444 68.5867 117.924 68.72 118.43 68.72C118.95 68.72 119.437 68.5933 119.89 68.34C120.344 68.0733 120.704 67.7 120.97 67.22C121.237 66.7267 121.37 66.14 121.37 65.46ZM130.185 62.22V67.58C130.185 67.9533 130.272 68.2267 130.445 68.4C130.632 68.56 130.938 68.64 131.365 68.64H132.665V71H130.905C128.545 71 127.365 69.8533 127.365 67.56V62.22H126.045V59.92H127.365V57.18H130.185V59.92H132.665V62.22H130.185ZM144.979 65.22C144.979 65.62 144.952 65.98 144.899 66.3H136.799C136.865 67.1 137.145 67.7267 137.639 68.18C138.132 68.6333 138.739 68.86 139.459 68.86C140.499 68.86 141.239 68.4133 141.679 67.52H144.699C144.379 68.5867 143.765 69.4667 142.859 70.16C141.952 70.84 140.839 71.18 139.519 71.18C138.452 71.18 137.492 70.9467 136.639 70.48C135.799 70 135.139 69.3267 134.659 68.46C134.192 67.5933 133.959 66.5933 133.959 65.46C133.959 64.3133 134.192 63.3067 134.659 62.44C135.125 61.5733 135.779 60.9067 136.619 60.44C137.459 59.9733 138.425 59.74 139.519 59.74C140.572 59.74 141.512 59.9667 142.339 60.42C143.179 60.8733 143.825 61.52 144.279 62.36C144.745 63.1867 144.979 64.14 144.979 65.22ZM142.079 64.42C142.065 63.7 141.805 63.1267 141.299 62.7C140.792 62.26 140.172 62.04 139.439 62.04C138.745 62.04 138.159 62.2533 137.679 62.68C137.212 63.0933 136.925 63.6733 136.819 64.42H142.079ZM157.928 59.76C159.248 59.76 160.315 60.18 161.128 61.02C161.942 61.8467 162.348 63.0067 162.348 64.5V71H159.548V64.88C159.548 64 159.328 63.3267 158.888 62.86C158.448 62.38 157.848 62.14 157.088 62.14C156.315 62.14 155.702 62.38 155.248 62.86C154.808 63.3267 154.588 64 154.588 64.88V71H151.788V59.92H154.588V61.3C154.962 60.82 155.435 60.4467 156.008 60.18C156.595 59.9 157.235 59.76 157.928 59.76ZM175.311 65.22C175.311 65.62 175.284 65.98 175.231 66.3H167.131C167.198 67.1 167.478 67.7267 167.971 68.18C168.464 68.6333 169.071 68.86 169.791 68.86C170.831 68.86 171.571 68.4133 172.011 67.52H175.031C174.711 68.5867 174.098 69.4667 173.191 70.16C172.284 70.84 171.171 71.18 169.851 71.18C168.784 71.18 167.824 70.9467 166.971 70.48C166.131 70 165.471 69.3267 164.991 68.46C164.524 67.5933 164.291 66.5933 164.291 65.46C164.291 64.3133 164.524 63.3067 164.991 62.44C165.458 61.5733 166.111 60.9067 166.951 60.44C167.791 59.9733 168.758 59.74 169.851 59.74C170.904 59.74 171.844 59.9667 172.671 60.42C173.511 60.8733 174.158 61.52 174.611 62.36C175.078 63.1867 175.311 64.14 175.311 65.22ZM172.411 64.42C172.398 63.7 172.138 63.1267 171.631 62.7C171.124 62.26 170.504 62.04 169.771 62.04C169.078 62.04 168.491 62.2533 168.011 62.68C167.544 63.0933 167.258 63.6733 167.151 64.42H172.411ZM192.715 59.92L189.475 71H186.455L184.435 63.26L182.415 71H179.375L176.115 59.92H178.955L180.915 68.36L183.035 59.92H185.995L188.075 68.34L190.035 59.92H192.715ZM201.795 61.52C202.155 61.0133 202.649 60.5933 203.275 60.26C203.915 59.9133 204.642 59.74 205.455 59.74C206.402 59.74 207.255 59.9733 208.015 60.44C208.789 60.9067 209.395 61.5733 209.835 62.44C210.289 63.2933 210.515 64.2867 210.515 65.42C210.515 66.5533 210.289 67.56 209.835 68.44C209.395 69.3067 208.789 69.98 208.015 70.46C207.255 70.94 206.402 71.18 205.455 71.18C204.642 71.18 203.922 71.0133 203.295 70.68C202.682 70.3467 202.182 69.9267 201.795 69.42V76.28H198.995V59.92H201.795V61.52ZM207.655 65.42C207.655 64.7533 207.515 64.18 207.235 63.7C206.969 63.2067 206.609 62.8333 206.155 62.58C205.715 62.3267 205.235 62.2 204.715 62.2C204.209 62.2 203.729 62.3333 203.275 62.6C202.835 62.8533 202.475 63.2267 202.195 63.72C201.929 64.2133 201.795 64.7933 201.795 65.46C201.795 66.1267 201.929 66.7067 202.195 67.2C202.475 67.6933 202.835 68.0733 203.275 68.34C203.729 68.5933 204.209 68.72 204.715 68.72C205.235 68.72 205.715 68.5867 206.155 68.32C206.609 68.0533 206.969 67.6733 207.235 67.18C207.515 66.6867 207.655 66.1 207.655 65.42ZM211.83 65.42C211.83 64.3 212.05 63.3067 212.49 62.44C212.943 61.5733 213.55 60.9067 214.31 60.44C215.083 59.9733 215.943 59.74 216.89 59.74C217.717 59.74 218.437 59.9067 219.05 60.24C219.677 60.5733 220.177 60.9933 220.55 61.5V59.92H223.37V71H220.55V69.38C220.19 69.9 219.69 70.3333 219.05 70.68C218.423 71.0133 217.697 71.18 216.87 71.18C215.937 71.18 215.083 70.94 214.31 70.46C213.55 69.98 212.943 69.3067 212.49 68.44C212.05 67.56 211.83 66.5533 211.83 65.42ZM220.55 65.46C220.55 64.78 220.417 64.2 220.15 63.72C219.883 63.2267 219.523 62.8533 219.07 62.6C218.617 62.3333 218.13 62.2 217.61 62.2C217.09 62.2 216.61 62.3267 216.17 62.58C215.73 62.8333 215.37 63.2067 215.09 63.7C214.823 64.18 214.69 64.7533 214.69 65.42C214.69 66.0867 214.823 66.6733 215.09 67.18C215.37 67.6733 215.73 68.0533 216.17 68.32C216.623 68.5867 217.103 68.72 217.61 68.72C218.13 68.72 218.617 68.5933 219.07 68.34C219.523 68.0733 219.883 67.7 220.15 67.22C220.417 66.7267 220.55 66.14 220.55 65.46ZM230.345 71.18C229.438 71.18 228.625 71.02 227.905 70.7C227.185 70.3667 226.611 69.92 226.185 69.36C225.771 68.8 225.545 68.18 225.505 67.5H228.325C228.378 67.9267 228.585 68.28 228.945 68.56C229.318 68.84 229.778 68.98 230.325 68.98C230.858 68.98 231.271 68.8733 231.565 68.66C231.871 68.4467 232.025 68.1733 232.025 67.84C232.025 67.48 231.838 67.2133 231.465 67.04C231.105 66.8533 230.525 66.6533 229.725 66.44C228.898 66.24 228.218 66.0333 227.685 65.82C227.165 65.6067 226.711 65.28 226.325 64.84C225.951 64.4 225.765 63.8067 225.765 63.06C225.765 62.4467 225.938 61.8867 226.285 61.38C226.645 60.8733 227.151 60.4733 227.805 60.18C228.471 59.8867 229.251 59.74 230.145 59.74C231.465 59.74 232.518 60.0733 233.305 60.74C234.091 61.3933 234.525 62.28 234.605 63.4H231.925C231.885 62.96 231.698 62.6133 231.365 62.36C231.045 62.0933 230.611 61.96 230.065 61.96C229.558 61.96 229.165 62.0533 228.885 62.24C228.618 62.4267 228.485 62.6867 228.485 63.02C228.485 63.3933 228.671 63.68 229.045 63.88C229.418 64.0667 229.998 64.26 230.785 64.46C231.585 64.66 232.245 64.8667 232.765 65.08C233.285 65.2933 233.731 65.6267 234.105 66.08C234.491 66.52 234.691 67.1067 234.705 67.84C234.705 68.48 234.525 69.0533 234.165 69.56C233.818 70.0667 233.311 70.4667 232.645 70.76C231.991 71.04 231.225 71.18 230.345 71.18ZM241.243 71.18C240.336 71.18 239.523 71.02 238.803 70.7C238.083 70.3667 237.51 69.92 237.083 69.36C236.67 68.8 236.443 68.18 236.403 67.5H239.223C239.276 67.9267 239.483 68.28 239.843 68.56C240.216 68.84 240.676 68.98 241.223 68.98C241.756 68.98 242.17 68.8733 242.463 68.66C242.77 68.4467 242.923 68.1733 242.923 67.84C242.923 67.48 242.736 67.2133 242.363 67.04C242.003 66.8533 241.423 66.6533 240.623 66.44C239.796 66.24 239.116 66.0333 238.583 65.82C238.063 65.6067 237.61 65.28 237.223 64.84C236.85 64.4 236.663 63.8067 236.663 63.06C236.663 62.4467 236.836 61.8867 237.183 61.38C237.543 60.8733 238.05 60.4733 238.703 60.18C239.37 59.8867 240.15 59.74 241.043 59.74C242.363 59.74 243.416 60.0733 244.203 60.74C244.99 61.3933 245.423 62.28 245.503 63.4H242.823C242.783 62.96 242.596 62.6133 242.263 62.36C241.943 62.0933 241.51 61.96 240.963 61.96C240.456 61.96 240.063 62.0533 239.783 62.24C239.516 62.4267 239.383 62.6867 239.383 63.02C239.383 63.3933 239.57 63.68 239.943 63.88C240.316 64.0667 240.896 64.26 241.683 64.46C242.483 64.66 243.143 64.8667 243.663 65.08C244.183 65.2933 244.63 65.6267 245.003 66.08C245.39 66.52 245.59 67.1067 245.603 67.84C245.603 68.48 245.423 69.0533 245.063 69.56C244.716 70.0667 244.21 70.4667 243.543 70.76C242.89 71.04 242.123 71.18 241.243 71.18ZM263.261 59.92L260.021 71H257.001L254.981 63.26L252.961 71H249.921L246.661 59.92H249.501L251.461 68.36L253.581 59.92H256.541L258.621 68.34L260.581 59.92H263.261ZM269.696 71.18C268.63 71.18 267.67 70.9467 266.816 70.48C265.963 70 265.29 69.3267 264.796 68.46C264.316 67.5933 264.076 66.5933 264.076 65.46C264.076 64.3267 264.323 63.3267 264.816 62.46C265.323 61.5933 266.01 60.9267 266.876 60.46C267.743 59.98 268.71 59.74 269.776 59.74C270.843 59.74 271.81 59.98 272.676 60.46C273.543 60.9267 274.223 61.5933 274.716 62.46C275.223 63.3267 275.476 64.3267 275.476 65.46C275.476 66.5933 275.216 67.5933 274.696 68.46C274.19 69.3267 273.496 70 272.616 70.48C271.75 70.9467 270.776 71.18 269.696 71.18ZM269.696 68.74C270.203 68.74 270.676 68.62 271.116 68.38C271.57 68.1267 271.93 67.7533 272.196 67.26C272.463 66.7667 272.596 66.1667 272.596 65.46C272.596 64.4067 272.316 63.6 271.756 63.04C271.21 62.4667 270.536 62.18 269.736 62.18C268.936 62.18 268.263 62.4667 267.716 63.04C267.183 63.6 266.916 64.4067 266.916 65.46C266.916 66.5133 267.176 67.3267 267.696 67.9C268.23 68.46 268.896 68.74 269.696 68.74ZM280.33 61.64C280.69 61.0533 281.157 60.5933 281.73 60.26C282.317 59.9267 282.984 59.76 283.73 59.76V62.7H282.99C282.11 62.7 281.444 62.9067 280.99 63.32C280.55 63.7333 280.33 64.4533 280.33 65.48V71H277.53V59.92H280.33V61.64ZM284.896 65.42C284.896 64.3 285.116 63.3067 285.556 62.44C286.01 61.5733 286.623 60.9067 287.396 60.44C288.17 59.9733 289.03 59.74 289.976 59.74C290.696 59.74 291.383 59.9 292.036 60.22C292.69 60.5267 293.21 60.94 293.596 61.46V56.2H296.436V71H293.596V69.36C293.25 69.9067 292.763 70.3467 292.136 70.68C291.51 71.0133 290.783 71.18 289.956 71.18C289.023 71.18 288.17 70.94 287.396 70.46C286.623 69.98 286.01 69.3067 285.556 68.44C285.116 67.56 284.896 66.5533 284.896 65.42ZM293.616 65.46C293.616 64.78 293.483 64.2 293.216 63.72C292.95 63.2267 292.59 62.8533 292.136 62.6C291.683 62.3333 291.196 62.2 290.676 62.2C290.156 62.2 289.676 62.3267 289.236 62.58C288.796 62.8333 288.436 63.2067 288.156 63.7C287.89 64.18 287.756 64.7533 287.756 65.42C287.756 66.0867 287.89 66.6733 288.156 67.18C288.436 67.6733 288.796 68.0533 289.236 68.32C289.69 68.5867 290.17 68.72 290.676 68.72C291.196 68.72 291.683 68.5933 292.136 68.34C292.59 68.0733 292.95 67.7 293.216 67.22C293.483 66.7267 293.616 66.14 293.616 65.46Z" fill="black"/>
</svg>
