<svg width="375" height="812" viewBox="0 0 375 812" fill="none" xmlns="http://www.w3.org/2000/svg">
<rect width="375" height="812" fill="white"/>
<rect x="25" y="104" width="104.233" height="104.233" rx="15"/>
<rect x="25" y="104" width="104.233" height="104.233" rx="15" fill="black" fill-opacity="0.65"/>
<path d="M77.2283 169C70.4746 169 65 163.404 65 156.5C65 149.596 70.4746 144 77.2283 144C83.9819 144 89.4565 149.596 89.4565 156.5C89.4565 163.404 83.9819 169 77.2283 169ZM76.0091 161.5L84.6545 152.661L82.9254 150.894L76.0091 157.965L72.5497 154.429L70.8207 156.196L76.0091 161.5Z" fill="#0085FE"/>
<rect x="25" y="214.233" width="104.233" height="104.233" rx="15" fill="#D9D9D9"/>
<rect x="25" y="214.233" width="104.233" height="104.233" rx="15"/>
<rect x="25" y="214.233" width="104.233" height="104.233" rx="15"/>
<rect x="25" y="324.467" width="104.233" height="104.233" rx="15" fill="#D9D9D9"/>
<rect x="25" y="324.467" width="104.233" height="104.233" rx="15"/>
<rect x="25" y="324.467" width="104.233" height="104.233" rx="15"/>
<rect x="25" y="434.7" width="104.233" height="104.233" rx="15" fill="#D9D9D9"/>
<rect x="25" y="434.7" width="104.233" height="104.233" rx="15"/>
<rect x="25" y="434.7" width="104.233" height="104.233" rx="15"/>
<rect x="25" y="434.7" width="104.233" height="104.233" rx="15"/>
<rect x="25" y="544.934" width="104.233" height="104.233" rx="15" fill="#D9D9D9"/>
<rect x="25" y="544.934" width="104.233" height="104.233" rx="15"/>
<rect x="25" y="544.934" width="104.233" height="104.233" rx="15"/>
<rect x="25" y="655.167" width="104.233" height="104.233" rx="15" fill="#D9D9D9"/>
<rect x="25" y="655.167" width="104.233" height="104.233" rx="15"/>
<rect x="25" y="655.167" width="104.233" height="104.233" rx="15"/>
<rect x="135.233" y="104" width="104.233" height="104.233" rx="15" fill="#D9D9D9"/>
<rect x="135.233" y="104" width="104.233" height="104.233" rx="15"/>
<rect x="135.233" y="104" width="104.233" height="104.233" rx="15"/>
<rect x="135.233" y="214.233" width="104.233" height="104.233" rx="15" fill="#D9D9D9"/>
<rect x="135.233" y="214.233" width="104.233" height="104.233" rx="15"/>
<rect x="135.233" y="214.233" width="104.233" height="104.233" rx="15"/>
<rect x="135.233" y="324.467" width="104.233" height="104.233" rx="15" fill="#D9D9D9"/>
<rect x="135.233" y="324.467" width="104.233" height="104.233" rx="15"/>
<rect x="135.233" y="324.467" width="104.233" height="104.233" rx="15"/>
<rect x="135.233" y="434.7" width="104.233" height="104.233" rx="15" fill="#D9D9D9"/>
<rect x="135.233" y="434.7" width="104.233" height="104.233" rx="15"/>
<rect x="135.233" y="434.7" width="104.233" height="104.233" rx="15"/>
<rect x="135.233" y="434.7" width="104.233" height="104.233" rx="15"/>
<rect x="135.233" y="434.7" width="104.233" height="104.233" rx="15"/>
<rect x="135.233" y="544.934" width="104.233" height="104.233" rx="15" fill="#D9D9D9"/>
<rect x="135.233" y="544.934" width="104.233" height="104.233" rx="15"/>
<rect x="135.233" y="544.934" width="104.233" height="104.233" rx="15"/>
<rect x="135.233" y="655.167" width="104.233" height="104.233" rx="15" fill="#D9D9D9"/>
<rect x="135.233" y="655.167" width="104.233" height="104.233" rx="15"/>
<rect x="135.233" y="655.167" width="104.233" height="104.233" rx="15"/>
<rect x="245.466" y="104" width="104.233" height="104.233" rx="15" fill="#D9D9D9"/>
<rect x="245.466" y="104" width="104.233" height="104.233" rx="15"/>
<rect x="245.466" y="104" width="104.233" height="104.233" rx="15"/>
<rect x="245.466" y="214.233" width="104.233" height="104.233" rx="15" fill="#D9D9D9"/>
<rect x="245.466" y="214.233" width="104.233" height="104.233" rx="15"/>
<rect x="245.466" y="214.233" width="104.233" height="104.233" rx="15"/>
<rect x="245.466" y="324.467" width="104.233" height="104.233" rx="15" fill="#D9D9D9"/>
<rect x="245.466" y="324.467" width="104.233" height="104.233" rx="15"/>
<rect x="245.466" y="324.467" width="104.233" height="104.233" rx="15"/>
<rect x="245.466" y="434.7" width="104.233" height="104.233" rx="15" fill="#D9D9D9"/>
<rect x="245.466" y="434.7" width="104.233" height="104.233" rx="15"/>
<rect x="245.466" y="434.7" width="104.233" height="104.233" rx="15"/>
<rect x="245.466" y="544.934" width="104.233" height="104.233" rx="15" fill="#D9D9D9"/>
<rect x="245.466" y="544.934" width="104.233" height="104.233" rx="15"/>
<rect x="245.466" y="544.934" width="104.233" height="104.233" rx="15"/>
<rect x="245.466" y="655.167" width="104.233" height="104.233" rx="15" fill="#D9D9D9"/>
<rect x="245.466" y="655.167" width="104.233" height="104.233" rx="15"/>
<rect x="245.466" y="655.167" width="104.233" height="104.233" rx="15"/>
<rect x="245.466" y="655.167" width="104.233" height="104.233" rx="15"/>
<rect x="64.5" y="83.5" width="39" height="39" rx="9.5" transform="rotate(180 64.5 83.5)" stroke="#F0F0F0"/>
<path d="M48.5 71L41.5 64L48.5 57" stroke="#AAAAAA" stroke-width="1.5" stroke-linecap="round" stroke-linejoin="round"/>
<path d="M127.496 71.14C126.563 71.14 125.723 70.98 124.976 70.66C124.229 70.3267 123.643 69.86 123.216 69.26C122.789 68.66 122.576 67.96 122.576 67.16H125.016C125.069 67.76 125.303 68.2533 125.716 68.64C126.143 69.0267 126.736 69.22 127.496 69.22C128.283 69.22 128.896 69.0333 129.336 68.66C129.776 68.2733 129.996 67.78 129.996 67.18C129.996 66.7133 129.856 66.3333 129.576 66.04C129.309 65.7467 128.969 65.52 128.556 65.36C128.156 65.2 127.596 65.0267 126.876 64.84C125.969 64.6 125.229 64.36 124.656 64.12C124.096 63.8667 123.616 63.48 123.216 62.96C122.816 62.44 122.616 61.7467 122.616 60.88C122.616 60.08 122.816 59.38 123.216 58.78C123.616 58.18 124.176 57.72 124.896 57.4C125.616 57.08 126.449 56.92 127.396 56.92C128.743 56.92 129.843 57.26 130.696 57.94C131.563 58.6067 132.043 59.5267 132.136 60.7H129.616C129.576 60.1933 129.336 59.76 128.896 59.4C128.456 59.04 127.876 58.86 127.156 58.86C126.503 58.86 125.969 59.0267 125.556 59.36C125.143 59.6933 124.936 60.1733 124.936 60.8C124.936 61.2267 125.063 61.58 125.316 61.86C125.583 62.1267 125.916 62.34 126.316 62.5C126.716 62.66 127.263 62.8333 127.956 63.02C128.876 63.2733 129.623 63.5267 130.196 63.78C130.783 64.0333 131.276 64.4267 131.676 64.96C132.089 65.48 132.296 66.18 132.296 67.06C132.296 67.7667 132.103 68.4333 131.716 69.06C131.343 69.6867 130.789 70.1933 130.056 70.58C129.336 70.9533 128.483 71.14 127.496 71.14ZM145.086 65.22C145.086 65.6333 145.06 66.0067 145.006 66.34H136.586C136.653 67.22 136.98 67.9267 137.566 68.46C138.153 68.9933 138.873 69.26 139.726 69.26C140.953 69.26 141.82 68.7467 142.326 67.72H144.786C144.453 68.7333 143.846 69.5667 142.966 70.22C142.1 70.86 141.02 71.18 139.726 71.18C138.673 71.18 137.726 70.9467 136.886 70.48C136.06 70 135.406 69.3333 134.926 68.48C134.46 67.6133 134.226 66.6133 134.226 65.48C134.226 64.3467 134.453 63.3533 134.906 62.5C135.373 61.6333 136.02 60.9667 136.846 60.5C137.686 60.0333 138.646 59.8 139.726 59.8C140.766 59.8 141.693 60.0267 142.506 60.48C143.32 60.9333 143.953 61.5733 144.406 62.4C144.86 63.2133 145.086 64.1533 145.086 65.22ZM142.706 64.5C142.693 63.66 142.393 62.9867 141.806 62.48C141.22 61.9733 140.493 61.72 139.626 61.72C138.84 61.72 138.166 61.9733 137.606 62.48C137.046 62.9733 136.713 63.6467 136.606 64.5H142.706ZM149.61 56.2V71H147.33V56.2H149.61ZM162.704 65.22C162.704 65.6333 162.677 66.0067 162.624 66.34H154.204C154.27 67.22 154.597 67.9267 155.184 68.46C155.77 68.9933 156.49 69.26 157.344 69.26C158.57 69.26 159.437 68.7467 159.944 67.72H162.404C162.07 68.7333 161.464 69.5667 160.584 70.22C159.717 70.86 158.637 71.18 157.344 71.18C156.29 71.18 155.344 70.9467 154.504 70.48C153.677 70 153.024 69.3333 152.544 68.48C152.077 67.6133 151.844 66.6133 151.844 65.48C151.844 64.3467 152.07 63.3533 152.524 62.5C152.99 61.6333 153.637 60.9667 154.464 60.5C155.304 60.0333 156.264 59.8 157.344 59.8C158.384 59.8 159.31 60.0267 160.124 60.48C160.937 60.9333 161.57 61.5733 162.024 62.4C162.477 63.2133 162.704 64.1533 162.704 65.22ZM160.324 64.5C160.31 63.66 160.01 62.9867 159.424 62.48C158.837 61.9733 158.11 61.72 157.244 61.72C156.457 61.72 155.784 61.9733 155.224 62.48C154.664 62.9733 154.33 63.6467 154.224 64.5H160.324ZM164.187 65.48C164.187 64.3467 164.414 63.3533 164.867 62.5C165.334 61.6333 165.974 60.9667 166.787 60.5C167.601 60.0333 168.534 59.8 169.587 59.8C170.921 59.8 172.021 60.12 172.887 60.76C173.767 61.3867 174.361 62.2867 174.667 63.46H172.207C172.007 62.9133 171.687 62.4867 171.247 62.18C170.807 61.8733 170.254 61.72 169.587 61.72C168.654 61.72 167.907 62.0533 167.347 62.72C166.801 63.3733 166.527 64.2933 166.527 65.48C166.527 66.6667 166.801 67.5933 167.347 68.26C167.907 68.9267 168.654 69.26 169.587 69.26C170.907 69.26 171.781 68.68 172.207 67.52H174.667C174.347 68.64 173.747 69.5333 172.867 70.2C171.987 70.8533 170.894 71.18 169.587 71.18C168.534 71.18 167.601 70.9467 166.787 70.48C165.974 70 165.334 69.3333 164.867 68.48C164.414 67.6133 164.187 66.6133 164.187 65.48ZM179.599 61.84V67.94C179.599 68.3533 179.693 68.6533 179.879 68.84C180.079 69.0133 180.413 69.1 180.879 69.1H182.279V71H180.479C179.453 71 178.666 70.76 178.119 70.28C177.573 69.8 177.299 69.02 177.299 67.94V61.84H175.999V59.98H177.299V57.24H179.599V59.98H182.279V61.84H179.599ZM190.736 58.52C190.323 58.52 189.976 58.38 189.696 58.1C189.416 57.82 189.276 57.4733 189.276 57.06C189.276 56.6467 189.416 56.3 189.696 56.02C189.976 55.74 190.323 55.6 190.736 55.6C191.136 55.6 191.476 55.74 191.756 56.02C192.036 56.3 192.176 56.6467 192.176 57.06C192.176 57.4733 192.036 57.82 191.756 58.1C191.476 58.38 191.136 58.52 190.736 58.52ZM191.856 59.98V71H189.576V59.98H191.856ZM208.19 59.8C209.056 59.8 209.83 59.98 210.51 60.34C211.203 60.7 211.743 61.2333 212.13 61.94C212.53 62.6467 212.73 63.5 212.73 64.5V71H210.47V64.84C210.47 63.8533 210.223 63.1 209.73 62.58C209.236 62.0467 208.563 61.78 207.71 61.78C206.856 61.78 206.176 62.0467 205.67 62.58C205.176 63.1 204.93 63.8533 204.93 64.84V71H202.67V64.84C202.67 63.8533 202.423 63.1 201.93 62.58C201.436 62.0467 200.763 61.78 199.91 61.78C199.056 61.78 198.376 62.0467 197.87 62.58C197.376 63.1 197.13 63.8533 197.13 64.84V71H194.85V59.98H197.13V61.24C197.503 60.7867 197.976 60.4333 198.55 60.18C199.123 59.9267 199.736 59.8 200.39 59.8C201.27 59.8 202.056 59.9867 202.75 60.36C203.443 60.7333 203.976 61.2733 204.35 61.98C204.683 61.3133 205.203 60.7867 205.91 60.4C206.616 60 207.376 59.8 208.19 59.8ZM214.871 65.44C214.871 64.3333 215.098 63.3533 215.551 62.5C216.018 61.6467 216.644 60.9867 217.431 60.52C218.231 60.04 219.111 59.8 220.071 59.8C220.938 59.8 221.691 59.9733 222.331 60.32C222.984 60.6533 223.504 61.0733 223.891 61.58V59.98H226.191V71H223.891V69.36C223.504 69.88 222.978 70.3133 222.311 70.66C221.644 71.0067 220.884 71.18 220.031 71.18C219.084 71.18 218.218 70.94 217.431 70.46C216.644 69.9667 216.018 69.2867 215.551 68.42C215.098 67.54 214.871 66.5467 214.871 65.44ZM223.891 65.48C223.891 64.72 223.731 64.06 223.411 63.5C223.104 62.94 222.698 62.5133 222.191 62.22C221.684 61.9267 221.138 61.78 220.551 61.78C219.964 61.78 219.418 61.9267 218.911 62.22C218.404 62.5 217.991 62.92 217.671 63.48C217.364 64.0267 217.211 64.68 217.211 65.44C217.211 66.2 217.364 66.8667 217.671 67.44C217.991 68.0133 218.404 68.4533 218.911 68.76C219.431 69.0533 219.978 69.2 220.551 69.2C221.138 69.2 221.684 69.0533 222.191 68.76C222.698 68.4667 223.104 68.04 223.411 67.48C223.731 66.9067 223.891 66.24 223.891 65.48ZM233.626 59.8C234.479 59.8 235.232 59.9733 235.886 60.32C236.552 60.6533 237.072 61.0733 237.446 61.58V59.98H239.746V71.18C239.746 72.1933 239.532 73.0933 239.106 73.88C238.679 74.68 238.059 75.3067 237.246 75.76C236.446 76.2133 235.486 76.44 234.366 76.44C232.872 76.44 231.632 76.0867 230.646 75.38C229.659 74.6867 229.099 73.74 228.966 72.54H231.226C231.399 73.1133 231.766 73.5733 232.326 73.92C232.899 74.28 233.579 74.46 234.366 74.46C235.286 74.46 236.026 74.18 236.586 73.62C237.159 73.06 237.446 72.2467 237.446 71.18V69.34C237.059 69.86 236.532 70.3 235.866 70.66C235.212 71.0067 234.466 71.18 233.626 71.18C232.666 71.18 231.786 70.94 230.986 70.46C230.199 69.9667 229.572 69.2867 229.106 68.42C228.652 67.54 228.426 66.5467 228.426 65.44C228.426 64.3333 228.652 63.3533 229.106 62.5C229.572 61.6467 230.199 60.9867 230.986 60.52C231.786 60.04 232.666 59.8 233.626 59.8ZM237.446 65.48C237.446 64.72 237.286 64.06 236.966 63.5C236.659 62.94 236.252 62.5133 235.746 62.22C235.239 61.9267 234.692 61.78 234.106 61.78C233.519 61.78 232.972 61.9267 232.466 62.22C231.959 62.5 231.546 62.92 231.226 63.48C230.919 64.0267 230.766 64.68 230.766 65.44C230.766 66.2 230.919 66.8667 231.226 67.44C231.546 68.0133 231.959 68.4533 232.466 68.76C232.986 69.0533 233.532 69.2 234.106 69.2C234.692 69.2 235.239 69.0533 235.746 68.76C236.252 68.4667 236.659 68.04 236.966 67.48C237.286 66.9067 237.446 66.24 237.446 65.48ZM252.84 65.22C252.84 65.6333 252.814 66.0067 252.76 66.34H244.34C244.407 67.22 244.734 67.9267 245.32 68.46C245.907 68.9933 246.627 69.26 247.48 69.26C248.707 69.26 249.574 68.7467 250.08 67.72H252.54C252.207 68.7333 251.6 69.5667 250.72 70.22C249.854 70.86 248.774 71.18 247.48 71.18C246.427 71.18 245.48 70.9467 244.64 70.48C243.814 70 243.16 69.3333 242.68 68.48C242.214 67.6133 241.98 66.6133 241.98 65.48C241.98 64.3467 242.207 63.3533 242.66 62.5C243.127 61.6333 243.774 60.9667 244.6 60.5C245.44 60.0333 246.4 59.8 247.48 59.8C248.52 59.8 249.447 60.0267 250.26 60.48C251.074 60.9333 251.707 61.5733 252.16 62.4C252.614 63.2133 252.84 64.1533 252.84 65.22ZM250.46 64.5C250.447 63.66 250.147 62.9867 249.56 62.48C248.974 61.9733 248.247 61.72 247.38 61.72C246.594 61.72 245.92 61.9733 245.36 62.48C244.8 62.9733 244.467 63.6467 244.36 64.5H250.46Z" fill="black"/>
<path d="M315.892 58.77C316.928 58.77 317.833 58.9707 318.608 59.372C319.392 59.764 319.994 60.3333 320.414 61.08C320.843 61.8173 321.058 62.6807 321.058 63.67C321.058 64.6593 320.843 65.518 320.414 66.246C319.994 66.974 319.392 67.534 318.608 67.926C317.833 68.3087 316.928 68.5 315.892 68.5H312.714V58.77H315.892ZM315.892 67.198C317.031 67.198 317.903 66.89 318.51 66.274C319.117 65.658 319.42 64.79 319.42 63.67C319.42 62.5407 319.117 61.6587 318.51 61.024C317.903 60.3893 317.031 60.072 315.892 60.072H314.31V67.198H315.892ZM327.078 68.598C326.173 68.598 325.337 68.388 324.572 67.968C323.816 67.5387 323.214 66.946 322.766 66.19C322.327 65.4247 322.108 64.566 322.108 63.614C322.108 62.662 322.327 61.808 322.766 61.052C323.214 60.296 323.816 59.708 324.572 59.288C325.337 58.8587 326.173 58.644 327.078 58.644C327.993 58.644 328.828 58.8587 329.584 59.288C330.349 59.708 330.951 60.296 331.39 61.052C331.829 61.808 332.048 62.662 332.048 63.614C332.048 64.566 331.829 65.4247 331.39 66.19C330.951 66.946 330.349 67.5387 329.584 67.968C328.828 68.388 327.993 68.598 327.078 68.598ZM327.078 67.212C327.722 67.212 328.296 67.0673 328.8 66.778C329.304 66.4793 329.696 66.0593 329.976 65.518C330.265 64.9673 330.41 64.3327 330.41 63.614C330.41 62.8953 330.265 62.2653 329.976 61.724C329.696 61.1827 329.304 60.7673 328.8 60.478C328.296 60.1887 327.722 60.044 327.078 60.044C326.434 60.044 325.86 60.1887 325.356 60.478C324.852 60.7673 324.455 61.1827 324.166 61.724C323.886 62.2653 323.746 62.8953 323.746 63.614C323.746 64.3327 323.886 64.9673 324.166 65.518C324.455 66.0593 324.852 66.4793 325.356 66.778C325.86 67.0673 326.434 67.212 327.078 67.212ZM341.612 68.5H340.016L335.214 61.234V68.5H333.618V58.756H335.214L340.016 66.008V58.756H341.612V68.5ZM345.304 60.058V62.914H348.664V64.216H345.304V67.198H349.084V68.5H343.708V58.756H349.084V60.058H345.304Z" fill="#0065FF"/>
</svg>
