<svg width="375" height="812" viewBox="0 0 375 812" fill="none" xmlns="http://www.w3.org/2000/svg">
<rect width="375" height="812" fill="white"/>
<rect x="37.75" y="276.75" width="298.5" height="258.5" rx="24.25" fill="white" stroke="#3EAEFF" stroke-width="1.5" stroke-dasharray="8 18"/>
<path d="M67.6988 476.985H63.7468L63.0188 479H61.7708L65.0468 469.991H66.4118L69.6748 479H68.4268L67.6988 476.985ZM67.3608 476.023L65.7228 471.447L64.0848 476.023H67.3608ZM74.5736 471.746C75.4402 471.746 76.1422 472.01 76.6796 472.539C77.2169 473.059 77.4856 473.813 77.4856 474.801V479H76.3156V474.97C76.3156 474.259 76.1379 473.718 75.7826 473.345C75.4272 472.964 74.9419 472.773 74.3266 472.773C73.7026 472.773 73.2042 472.968 72.8316 473.358C72.4676 473.748 72.2856 474.316 72.2856 475.061V479H71.1026V471.876H72.2856V472.89C72.5196 472.526 72.8359 472.244 73.2346 472.045C73.6419 471.846 74.0882 471.746 74.5736 471.746ZM85.554 471.876L81.264 482.354H80.042L81.446 478.922L78.573 471.876H79.886L82.122 477.648L84.332 471.876H85.554ZM91.392 473.189C91.626 472.782 91.9727 472.444 92.432 472.175C92.9 471.898 93.4417 471.759 94.057 471.759C94.6897 471.759 95.2617 471.911 95.773 472.214C96.293 472.517 96.7003 472.946 96.995 473.501C97.2897 474.047 97.437 474.684 97.437 475.412C97.437 476.131 97.2897 476.773 96.995 477.336C96.7003 477.899 96.293 478.337 95.773 478.649C95.2617 478.961 94.6897 479.117 94.057 479.117C93.4503 479.117 92.913 478.983 92.445 478.714C91.9857 478.437 91.6347 478.094 91.392 477.687V482.38H90.209V471.876H91.392V473.189ZM96.228 475.412C96.228 474.875 96.1197 474.407 95.903 474.008C95.6863 473.609 95.3917 473.306 95.019 473.098C94.655 472.89 94.252 472.786 93.81 472.786C93.3767 472.786 92.9737 472.894 92.601 473.111C92.237 473.319 91.9423 473.627 91.717 474.034C91.5003 474.433 91.392 474.896 91.392 475.425C91.392 475.962 91.5003 476.435 91.717 476.842C91.9423 477.241 92.237 477.548 92.601 477.765C92.9737 477.973 93.3767 478.077 93.81 478.077C94.252 478.077 94.655 477.973 95.019 477.765C95.3917 477.548 95.6863 477.241 95.903 476.842C96.1197 476.435 96.228 475.958 96.228 475.412ZM100.177 473.033C100.385 472.626 100.68 472.309 101.061 472.084C101.451 471.859 101.923 471.746 102.478 471.746V472.968H102.166C100.84 472.968 100.177 473.687 100.177 475.126V479H98.9942V471.876H100.177V473.033ZM110.344 475.165C110.344 475.39 110.331 475.629 110.305 475.88H104.611C104.654 476.582 104.892 477.132 105.326 477.531C105.768 477.921 106.301 478.116 106.925 478.116C107.436 478.116 107.861 477.999 108.199 477.765C108.545 477.522 108.788 477.202 108.927 476.803H110.201C110.01 477.488 109.629 478.047 109.057 478.48C108.485 478.905 107.774 479.117 106.925 479.117C106.249 479.117 105.642 478.965 105.105 478.662C104.576 478.359 104.16 477.93 103.857 477.375C103.553 476.812 103.402 476.162 103.402 475.425C103.402 474.688 103.549 474.043 103.844 473.488C104.138 472.933 104.55 472.509 105.079 472.214C105.616 471.911 106.231 471.759 106.925 471.759C107.601 471.759 108.199 471.906 108.719 472.201C109.239 472.496 109.637 472.903 109.915 473.423C110.201 473.934 110.344 474.515 110.344 475.165ZM109.122 474.918C109.122 474.467 109.022 474.082 108.823 473.761C108.623 473.432 108.35 473.185 108.004 473.02C107.666 472.847 107.289 472.76 106.873 472.76C106.275 472.76 105.763 472.951 105.339 473.332C104.923 473.713 104.684 474.242 104.624 474.918H109.122ZM114.427 479.117C113.881 479.117 113.392 479.026 112.958 478.844C112.525 478.653 112.183 478.393 111.931 478.064C111.68 477.726 111.541 477.34 111.515 476.907H112.737C112.772 477.262 112.937 477.553 113.231 477.778C113.535 478.003 113.929 478.116 114.414 478.116C114.865 478.116 115.22 478.016 115.48 477.817C115.74 477.618 115.87 477.366 115.87 477.063C115.87 476.751 115.732 476.521 115.454 476.374C115.177 476.218 114.748 476.066 114.167 475.919C113.639 475.78 113.205 475.642 112.867 475.503C112.538 475.356 112.252 475.143 112.009 474.866C111.775 474.58 111.658 474.207 111.658 473.748C111.658 473.384 111.767 473.05 111.983 472.747C112.2 472.444 112.508 472.205 112.906 472.032C113.305 471.85 113.76 471.759 114.271 471.759C115.06 471.759 115.697 471.958 116.182 472.357C116.668 472.756 116.928 473.302 116.962 473.995H115.779C115.753 473.622 115.602 473.323 115.324 473.098C115.056 472.873 114.692 472.76 114.232 472.76C113.808 472.76 113.47 472.851 113.218 473.033C112.967 473.215 112.841 473.453 112.841 473.748C112.841 473.982 112.915 474.177 113.062 474.333C113.218 474.48 113.409 474.602 113.634 474.697C113.868 474.784 114.189 474.883 114.596 474.996C115.108 475.135 115.524 475.273 115.844 475.412C116.165 475.542 116.438 475.741 116.663 476.01C116.897 476.279 117.019 476.63 117.027 477.063C117.027 477.453 116.919 477.804 116.702 478.116C116.486 478.428 116.178 478.675 115.779 478.857C115.389 479.03 114.939 479.117 114.427 479.117ZM118.255 475.425C118.255 474.688 118.403 474.047 118.697 473.501C118.992 472.946 119.399 472.517 119.919 472.214C120.448 471.911 121.05 471.759 121.726 471.759C122.602 471.759 123.321 471.971 123.884 472.396C124.456 472.821 124.833 473.41 125.015 474.164H123.741C123.62 473.731 123.382 473.388 123.026 473.137C122.68 472.886 122.246 472.76 121.726 472.76C121.05 472.76 120.504 472.994 120.088 473.462C119.672 473.921 119.464 474.576 119.464 475.425C119.464 476.283 119.672 476.946 120.088 477.414C120.504 477.882 121.05 478.116 121.726 478.116C122.246 478.116 122.68 477.995 123.026 477.752C123.373 477.509 123.611 477.163 123.741 476.712H125.015C124.825 477.44 124.443 478.025 123.871 478.467C123.299 478.9 122.584 479.117 121.726 479.117C121.05 479.117 120.448 478.965 119.919 478.662C119.399 478.359 118.992 477.93 118.697 477.375C118.403 476.82 118.255 476.17 118.255 475.425ZM127.777 473.033C127.985 472.626 128.279 472.309 128.661 472.084C129.051 471.859 129.523 471.746 130.078 471.746V472.968H129.766C128.44 472.968 127.777 473.687 127.777 475.126V479H126.594V471.876H127.777V473.033ZM132.054 470.719C131.829 470.719 131.638 470.641 131.482 470.485C131.326 470.329 131.248 470.138 131.248 469.913C131.248 469.688 131.326 469.497 131.482 469.341C131.638 469.185 131.829 469.107 132.054 469.107C132.271 469.107 132.453 469.185 132.6 469.341C132.756 469.497 132.834 469.688 132.834 469.913C132.834 470.138 132.756 470.329 132.6 470.485C132.453 470.641 132.271 470.719 132.054 470.719ZM132.626 471.876V479H131.443V471.876H132.626ZM135.826 473.189C136.06 472.782 136.406 472.444 136.866 472.175C137.334 471.898 137.875 471.759 138.491 471.759C139.123 471.759 139.695 471.911 140.207 472.214C140.727 472.517 141.134 472.946 141.429 473.501C141.723 474.047 141.871 474.684 141.871 475.412C141.871 476.131 141.723 476.773 141.429 477.336C141.134 477.899 140.727 478.337 140.207 478.649C139.695 478.961 139.123 479.117 138.491 479.117C137.884 479.117 137.347 478.983 136.879 478.714C136.419 478.437 136.068 478.094 135.826 477.687V482.38H134.643V471.876H135.826V473.189ZM140.662 475.412C140.662 474.875 140.553 474.407 140.337 474.008C140.12 473.609 139.825 473.306 139.453 473.098C139.089 472.89 138.686 472.786 138.244 472.786C137.81 472.786 137.407 472.894 137.035 473.111C136.671 473.319 136.376 473.627 136.151 474.034C135.934 474.433 135.826 474.896 135.826 475.425C135.826 475.962 135.934 476.435 136.151 476.842C136.376 477.241 136.671 477.548 137.035 477.765C137.407 477.973 137.81 478.077 138.244 478.077C138.686 478.077 139.089 477.973 139.453 477.765C139.825 477.548 140.12 477.241 140.337 476.842C140.553 476.435 140.662 475.958 140.662 475.412ZM144.871 472.851V477.05C144.871 477.397 144.944 477.644 145.092 477.791C145.239 477.93 145.495 477.999 145.859 477.999H146.73V479H145.664C145.005 479 144.511 478.848 144.182 478.545C143.852 478.242 143.688 477.743 143.688 477.05V472.851H142.765V471.876H143.688V470.082H144.871V471.876H146.73V472.851H144.871ZM148.774 470.719C148.549 470.719 148.358 470.641 148.202 470.485C148.046 470.329 147.968 470.138 147.968 469.913C147.968 469.688 148.046 469.497 148.202 469.341C148.358 469.185 148.549 469.107 148.774 469.107C148.991 469.107 149.173 469.185 149.32 469.341C149.476 469.497 149.554 469.688 149.554 469.913C149.554 470.138 149.476 470.329 149.32 470.485C149.173 470.641 148.991 470.719 148.774 470.719ZM149.346 471.876V479H148.163V471.876H149.346ZM154.469 479.117C153.802 479.117 153.195 478.965 152.649 478.662C152.112 478.359 151.687 477.93 151.375 477.375C151.072 476.812 150.92 476.162 150.92 475.425C150.92 474.697 151.076 474.056 151.388 473.501C151.709 472.938 152.142 472.509 152.688 472.214C153.234 471.911 153.845 471.759 154.521 471.759C155.197 471.759 155.808 471.911 156.354 472.214C156.9 472.509 157.329 472.933 157.641 473.488C157.962 474.043 158.122 474.688 158.122 475.425C158.122 476.162 157.958 476.812 157.628 477.375C157.308 477.93 156.87 478.359 156.315 478.662C155.761 478.965 155.145 479.117 154.469 479.117ZM154.469 478.077C154.894 478.077 155.293 477.977 155.665 477.778C156.038 477.579 156.337 477.28 156.562 476.881C156.796 476.482 156.913 475.997 156.913 475.425C156.913 474.853 156.801 474.368 156.575 473.969C156.35 473.57 156.055 473.276 155.691 473.085C155.327 472.886 154.933 472.786 154.508 472.786C154.075 472.786 153.676 472.886 153.312 473.085C152.957 473.276 152.671 473.57 152.454 473.969C152.238 474.368 152.129 474.853 152.129 475.425C152.129 476.006 152.233 476.495 152.441 476.894C152.658 477.293 152.944 477.592 153.299 477.791C153.655 477.982 154.045 478.077 154.469 478.077ZM163.149 471.746C164.015 471.746 164.717 472.01 165.255 472.539C165.792 473.059 166.061 473.813 166.061 474.801V479H164.891V474.97C164.891 474.259 164.713 473.718 164.358 473.345C164.002 472.964 163.517 472.773 162.902 472.773C162.278 472.773 161.779 472.968 161.407 473.358C161.043 473.748 160.861 474.316 160.861 475.061V479H159.678V471.876H160.861V472.89C161.095 472.526 161.411 472.244 161.81 472.045C162.217 471.846 162.663 471.746 163.149 471.746ZM174.995 471.746C175.532 471.746 176.018 471.863 176.451 472.097C176.884 472.322 177.222 472.665 177.465 473.124C177.716 473.583 177.842 474.142 177.842 474.801V479H176.672V474.97C176.672 474.259 176.494 473.718 176.139 473.345C175.784 472.964 175.298 472.773 174.683 472.773C174.059 472.773 173.561 472.968 173.188 473.358C172.824 473.748 172.642 474.316 172.642 475.061V479H171.459V469.38H172.642V472.89C172.876 472.526 173.197 472.244 173.604 472.045C174.02 471.846 174.484 471.746 174.995 471.746ZM179.332 475.412C179.332 474.684 179.48 474.047 179.774 473.501C180.069 472.946 180.472 472.517 180.983 472.214C181.503 471.911 182.08 471.759 182.712 471.759C183.336 471.759 183.878 471.893 184.337 472.162C184.797 472.431 185.139 472.769 185.364 473.176V471.876H186.56V479H185.364V477.674C185.13 478.09 184.779 478.437 184.311 478.714C183.852 478.983 183.315 479.117 182.699 479.117C182.067 479.117 181.495 478.961 180.983 478.649C180.472 478.337 180.069 477.899 179.774 477.336C179.48 476.773 179.332 476.131 179.332 475.412ZM185.364 475.425C185.364 474.888 185.256 474.42 185.039 474.021C184.823 473.622 184.528 473.319 184.155 473.111C183.791 472.894 183.388 472.786 182.946 472.786C182.504 472.786 182.101 472.89 181.737 473.098C181.373 473.306 181.083 473.609 180.866 474.008C180.65 474.407 180.541 474.875 180.541 475.412C180.541 475.958 180.65 476.435 180.866 476.842C181.083 477.241 181.373 477.548 181.737 477.765C182.101 477.973 182.504 478.077 182.946 478.077C183.388 478.077 183.791 477.973 184.155 477.765C184.528 477.548 184.823 477.241 185.039 476.842C185.256 476.435 185.364 475.962 185.364 475.425ZM192.031 471.746C192.897 471.746 193.599 472.01 194.137 472.539C194.674 473.059 194.943 473.813 194.943 474.801V479H193.773V474.97C193.773 474.259 193.595 473.718 193.24 473.345C192.884 472.964 192.399 472.773 191.784 472.773C191.16 472.773 190.661 472.968 190.289 473.358C189.925 473.748 189.743 474.316 189.743 475.061V479H188.56V471.876H189.743V472.89C189.977 472.526 190.293 472.244 190.692 472.045C191.099 471.846 191.545 471.746 192.031 471.746ZM196.433 475.412C196.433 474.684 196.58 474.047 196.875 473.501C197.17 472.946 197.573 472.517 198.084 472.214C198.604 471.911 199.185 471.759 199.826 471.759C200.381 471.759 200.896 471.889 201.373 472.149C201.85 472.4 202.214 472.734 202.465 473.15V469.38H203.661V479H202.465V477.661C202.231 478.086 201.884 478.437 201.425 478.714C200.966 478.983 200.428 479.117 199.813 479.117C199.18 479.117 198.604 478.961 198.084 478.649C197.573 478.337 197.17 477.899 196.875 477.336C196.58 476.773 196.433 476.131 196.433 475.412ZM202.465 475.425C202.465 474.888 202.357 474.42 202.14 474.021C201.923 473.622 201.629 473.319 201.256 473.111C200.892 472.894 200.489 472.786 200.047 472.786C199.605 472.786 199.202 472.89 198.838 473.098C198.474 473.306 198.184 473.609 197.967 474.008C197.75 474.407 197.642 474.875 197.642 475.412C197.642 475.958 197.75 476.435 197.967 476.842C198.184 477.241 198.474 477.548 198.838 477.765C199.202 477.973 199.605 478.077 200.047 478.077C200.489 478.077 200.892 477.973 201.256 477.765C201.629 477.548 201.923 477.241 202.14 476.842C202.357 476.435 202.465 475.962 202.465 475.425ZM218.616 471.876L216.393 479H215.171L213.455 473.345L211.739 479H210.517L208.281 471.876H209.49L211.128 477.856L212.896 471.876H214.105L215.834 477.869L217.446 471.876H218.616ZM220.973 473.033C221.181 472.626 221.476 472.309 221.857 472.084C222.247 471.859 222.719 471.746 223.274 471.746V472.968H222.962C221.636 472.968 220.973 473.687 220.973 475.126V479H219.79V471.876H220.973V473.033ZM225.251 470.719C225.025 470.719 224.835 470.641 224.679 470.485C224.523 470.329 224.445 470.138 224.445 469.913C224.445 469.688 224.523 469.497 224.679 469.341C224.835 469.185 225.025 469.107 225.251 469.107C225.467 469.107 225.649 469.185 225.797 469.341C225.953 469.497 226.031 469.688 226.031 469.913C226.031 470.138 225.953 470.329 225.797 470.485C225.649 470.641 225.467 470.719 225.251 470.719ZM225.823 471.876V479H224.64V471.876H225.823ZM229.282 472.851V477.05C229.282 477.397 229.356 477.644 229.503 477.791C229.65 477.93 229.906 477.999 230.27 477.999H231.141V479H230.075C229.416 479 228.922 478.848 228.593 478.545C228.264 478.242 228.099 477.743 228.099 477.05V472.851H227.176V471.876H228.099V470.082H229.282V471.876H231.141V472.851H229.282ZM233.185 470.719C232.96 470.719 232.769 470.641 232.613 470.485C232.457 470.329 232.379 470.138 232.379 469.913C232.379 469.688 232.457 469.497 232.613 469.341C232.769 469.185 232.96 469.107 233.185 469.107C233.402 469.107 233.584 469.185 233.731 469.341C233.887 469.497 233.965 469.688 233.965 469.913C233.965 470.138 233.887 470.329 233.731 470.485C233.584 470.641 233.402 470.719 233.185 470.719ZM233.757 471.876V479H232.574V471.876H233.757ZM239.244 471.746C240.111 471.746 240.813 472.01 241.35 472.539C241.888 473.059 242.156 473.813 242.156 474.801V479H240.986V474.97C240.986 474.259 240.809 473.718 240.453 473.345C240.098 472.964 239.613 472.773 238.997 472.773C238.373 472.773 237.875 472.968 237.502 473.358C237.138 473.748 236.956 474.316 236.956 475.061V479H235.773V471.876H236.956V472.89C237.19 472.526 237.507 472.244 237.905 472.045C238.313 471.846 238.759 471.746 239.244 471.746ZM247.027 471.759C247.642 471.759 248.18 471.893 248.639 472.162C249.107 472.431 249.454 472.769 249.679 473.176V471.876H250.875V479.156C250.875 479.806 250.736 480.382 250.459 480.885C250.182 481.396 249.783 481.795 249.263 482.081C248.752 482.367 248.154 482.51 247.469 482.51C246.533 482.51 245.753 482.289 245.129 481.847C244.505 481.405 244.137 480.803 244.024 480.04H245.194C245.324 480.473 245.593 480.82 246 481.08C246.407 481.349 246.897 481.483 247.469 481.483C248.119 481.483 248.648 481.279 249.055 480.872C249.471 480.465 249.679 479.893 249.679 479.156V477.661C249.445 478.077 249.098 478.424 248.639 478.701C248.18 478.978 247.642 479.117 247.027 479.117C246.394 479.117 245.818 478.961 245.298 478.649C244.787 478.337 244.384 477.899 244.089 477.336C243.794 476.773 243.647 476.131 243.647 475.412C243.647 474.684 243.794 474.047 244.089 473.501C244.384 472.946 244.787 472.517 245.298 472.214C245.818 471.911 246.394 471.759 247.027 471.759ZM249.679 475.425C249.679 474.888 249.571 474.42 249.354 474.021C249.137 473.622 248.843 473.319 248.47 473.111C248.106 472.894 247.703 472.786 247.261 472.786C246.819 472.786 246.416 472.89 246.052 473.098C245.688 473.306 245.398 473.609 245.181 474.008C244.964 474.407 244.856 474.875 244.856 475.412C244.856 475.958 244.964 476.435 245.181 476.842C245.398 477.241 245.688 477.548 246.052 477.765C246.416 477.973 246.819 478.077 247.261 478.077C247.703 478.077 248.106 477.973 248.47 477.765C248.843 477.548 249.137 477.241 249.354 476.842C249.571 476.435 249.679 475.962 249.679 475.425ZM259.447 479.117C258.78 479.117 258.173 478.965 257.627 478.662C257.09 478.359 256.665 477.93 256.353 477.375C256.05 476.812 255.898 476.162 255.898 475.425C255.898 474.697 256.054 474.056 256.366 473.501C256.687 472.938 257.12 472.509 257.666 472.214C258.212 471.911 258.823 471.759 259.499 471.759C260.175 471.759 260.786 471.911 261.332 472.214C261.878 472.509 262.307 472.933 262.619 473.488C262.94 474.043 263.1 474.688 263.1 475.425C263.1 476.162 262.935 476.812 262.606 477.375C262.285 477.93 261.848 478.359 261.293 478.662C260.738 478.965 260.123 479.117 259.447 479.117ZM259.447 478.077C259.872 478.077 260.27 477.977 260.643 477.778C261.016 477.579 261.315 477.28 261.54 476.881C261.774 476.482 261.891 475.997 261.891 475.425C261.891 474.853 261.778 474.368 261.553 473.969C261.328 473.57 261.033 473.276 260.669 473.085C260.305 472.886 259.911 472.786 259.486 472.786C259.053 472.786 258.654 472.886 258.29 473.085C257.935 473.276 257.649 473.57 257.432 473.969C257.215 474.368 257.107 474.853 257.107 475.425C257.107 476.006 257.211 476.495 257.419 476.894C257.636 477.293 257.922 477.592 258.277 477.791C258.632 477.982 259.022 478.077 259.447 478.077ZM265.838 473.033C266.046 472.626 266.341 472.309 266.722 472.084C267.112 471.859 267.585 471.746 268.139 471.746V472.968H267.827C266.501 472.968 265.838 473.687 265.838 475.126V479H264.655V471.876H265.838V473.033ZM272.529 475.412C272.529 474.684 272.676 474.047 272.971 473.501C273.265 472.946 273.668 472.517 274.18 472.214C274.7 471.911 275.28 471.759 275.922 471.759C276.476 471.759 276.992 471.889 277.469 472.149C277.945 472.4 278.309 472.734 278.561 473.15V469.38H279.757V479H278.561V477.661C278.327 478.086 277.98 478.437 277.521 478.714C277.061 478.983 276.524 479.117 275.909 479.117C275.276 479.117 274.7 478.961 274.18 478.649C273.668 478.337 273.265 477.899 272.971 477.336C272.676 476.773 272.529 476.131 272.529 475.412ZM278.561 475.425C278.561 474.888 278.452 474.42 278.236 474.021C278.019 473.622 277.724 473.319 277.352 473.111C276.988 472.894 276.585 472.786 276.143 472.786C275.701 472.786 275.298 472.89 274.934 473.098C274.57 473.306 274.279 473.609 274.063 474.008C273.846 474.407 273.738 474.875 273.738 475.412C273.738 475.958 273.846 476.435 274.063 476.842C274.279 477.241 274.57 477.548 274.934 477.765C275.298 477.973 275.701 478.077 276.143 478.077C276.585 478.077 276.988 477.973 277.352 477.765C277.724 477.548 278.019 477.241 278.236 476.842C278.452 476.435 278.561 475.962 278.561 475.425ZM282.367 470.719C282.142 470.719 281.951 470.641 281.795 470.485C281.639 470.329 281.561 470.138 281.561 469.913C281.561 469.688 281.639 469.497 281.795 469.341C281.951 469.185 282.142 469.107 282.367 469.107C282.584 469.107 282.766 469.185 282.913 469.341C283.069 469.497 283.147 469.688 283.147 469.913C283.147 470.138 283.069 470.329 282.913 470.485C282.766 470.641 282.584 470.719 282.367 470.719ZM282.939 471.876V479H281.756V471.876H282.939ZM287.893 471.759C288.508 471.759 289.046 471.893 289.505 472.162C289.973 472.431 290.32 472.769 290.545 473.176V471.876H291.741V479.156C291.741 479.806 291.602 480.382 291.325 480.885C291.048 481.396 290.649 481.795 290.129 482.081C289.618 482.367 289.02 482.51 288.335 482.51C287.399 482.51 286.619 482.289 285.995 481.847C285.371 481.405 285.003 480.803 284.89 480.04H286.06C286.19 480.473 286.459 480.82 286.866 481.08C287.273 481.349 287.763 481.483 288.335 481.483C288.985 481.483 289.514 481.279 289.921 480.872C290.337 480.465 290.545 479.893 290.545 479.156V477.661C290.311 478.077 289.964 478.424 289.505 478.701C289.046 478.978 288.508 479.117 287.893 479.117C287.26 479.117 286.684 478.961 286.164 478.649C285.653 478.337 285.25 477.899 284.955 477.336C284.66 476.773 284.513 476.131 284.513 475.412C284.513 474.684 284.66 474.047 284.955 473.501C285.25 472.946 285.653 472.517 286.164 472.214C286.684 471.911 287.26 471.759 287.893 471.759ZM290.545 475.425C290.545 474.888 290.437 474.42 290.22 474.021C290.003 473.622 289.709 473.319 289.336 473.111C288.972 472.894 288.569 472.786 288.127 472.786C287.685 472.786 287.282 472.89 286.918 473.098C286.554 473.306 286.264 473.609 286.047 474.008C285.83 474.407 285.722 474.875 285.722 475.412C285.722 475.958 285.83 476.435 286.047 476.842C286.264 477.241 286.554 477.548 286.918 477.765C287.282 477.973 287.685 478.077 288.127 478.077C288.569 478.077 288.972 477.973 289.336 477.765C289.709 477.548 290.003 477.241 290.22 476.842C290.437 476.435 290.545 475.962 290.545 475.425ZM294.351 470.719C294.126 470.719 293.935 470.641 293.779 470.485C293.623 470.329 293.545 470.138 293.545 469.913C293.545 469.688 293.623 469.497 293.779 469.341C293.935 469.185 294.126 469.107 294.351 469.107C294.568 469.107 294.75 469.185 294.897 469.341C295.053 469.497 295.131 469.688 295.131 469.913C295.131 470.138 295.053 470.329 294.897 470.485C294.75 470.641 294.568 470.719 294.351 470.719ZM294.923 471.876V479H293.74V471.876H294.923ZM298.382 472.851V477.05C298.382 477.397 298.456 477.644 298.603 477.791C298.751 477.93 299.006 477.999 299.37 477.999H300.241V479H299.175C298.517 479 298.023 478.848 297.693 478.545C297.364 478.242 297.199 477.743 297.199 477.05V472.851H296.276V471.876H297.199V470.082H298.382V471.876H300.241V472.851H298.382ZM301.233 475.412C301.233 474.684 301.38 474.047 301.675 473.501C301.969 472.946 302.372 472.517 302.884 472.214C303.404 471.911 303.98 471.759 304.613 471.759C305.237 471.759 305.778 471.893 306.238 472.162C306.697 472.431 307.039 472.769 307.265 473.176V471.876H308.461V479H307.265V477.674C307.031 478.09 306.68 478.437 306.212 478.714C305.752 478.983 305.215 479.117 304.6 479.117C303.967 479.117 303.395 478.961 302.884 478.649C302.372 478.337 301.969 477.899 301.675 477.336C301.38 476.773 301.233 476.131 301.233 475.412ZM307.265 475.425C307.265 474.888 307.156 474.42 306.94 474.021C306.723 473.622 306.428 473.319 306.056 473.111C305.692 472.894 305.289 472.786 304.847 472.786C304.405 472.786 304.002 472.89 303.638 473.098C303.274 473.306 302.983 473.609 302.767 474.008C302.55 474.407 302.442 474.875 302.442 475.412C302.442 475.958 302.55 476.435 302.767 476.842C302.983 477.241 303.274 477.548 303.638 477.765C304.002 477.973 304.405 478.077 304.847 478.077C305.289 478.077 305.692 477.973 306.056 477.765C306.428 477.548 306.723 477.241 306.94 476.842C307.156 476.435 307.265 475.962 307.265 475.425ZM311.643 469.38V479H310.46V469.38H311.643ZM110.917 491.189C111.151 490.782 111.498 490.444 111.957 490.175C112.425 489.898 112.967 489.759 113.582 489.759C114.215 489.759 114.787 489.911 115.298 490.214C115.818 490.517 116.226 490.946 116.52 491.501C116.815 492.047 116.962 492.684 116.962 493.412C116.962 494.131 116.815 494.773 116.52 495.336C116.226 495.899 115.818 496.337 115.298 496.649C114.787 496.961 114.215 497.117 113.582 497.117C112.976 497.117 112.438 496.983 111.97 496.714C111.511 496.437 111.16 496.094 110.917 495.687V500.38H109.734V489.876H110.917V491.189ZM115.753 493.412C115.753 492.875 115.645 492.407 115.428 492.008C115.212 491.609 114.917 491.306 114.544 491.098C114.18 490.89 113.777 490.786 113.335 490.786C112.902 490.786 112.499 490.894 112.126 491.111C111.762 491.319 111.468 491.627 111.242 492.034C111.026 492.433 110.917 492.896 110.917 493.425C110.917 493.962 111.026 494.435 111.242 494.842C111.468 495.241 111.762 495.548 112.126 495.765C112.499 495.973 112.902 496.077 113.335 496.077C113.777 496.077 114.18 495.973 114.544 495.765C114.917 495.548 115.212 495.241 115.428 494.842C115.645 494.435 115.753 493.958 115.753 493.412ZM119.703 491.033C119.911 490.626 120.205 490.309 120.587 490.084C120.977 489.859 121.449 489.746 122.004 489.746V490.968H121.692C120.366 490.968 119.703 491.687 119.703 493.126V497H118.52V489.876H119.703V491.033ZM123.98 488.719C123.755 488.719 123.564 488.641 123.408 488.485C123.252 488.329 123.174 488.138 123.174 487.913C123.174 487.688 123.252 487.497 123.408 487.341C123.564 487.185 123.755 487.107 123.98 487.107C124.197 487.107 124.379 487.185 124.526 487.341C124.682 487.497 124.76 487.688 124.76 487.913C124.76 488.138 124.682 488.329 124.526 488.485C124.379 488.641 124.197 488.719 123.98 488.719ZM124.552 489.876V497H123.369V489.876H124.552ZM130.039 489.746C130.906 489.746 131.608 490.01 132.145 490.539C132.683 491.059 132.951 491.813 132.951 492.801V497H131.781V492.97C131.781 492.259 131.604 491.718 131.248 491.345C130.893 490.964 130.408 490.773 129.792 490.773C129.168 490.773 128.67 490.968 128.297 491.358C127.933 491.748 127.751 492.316 127.751 493.061V497H126.568V489.876H127.751V490.89C127.985 490.526 128.302 490.244 128.7 490.045C129.108 489.846 129.554 489.746 130.039 489.746ZM136.327 490.851V495.05C136.327 495.397 136.4 495.644 136.548 495.791C136.695 495.93 136.951 495.999 137.315 495.999H138.186V497H137.12C136.461 497 135.967 496.848 135.638 496.545C135.308 496.242 135.144 495.743 135.144 495.05V490.851H134.221V489.876H135.144V488.082H136.327V489.876H138.186V490.851H136.327ZM140.23 488.719C140.005 488.719 139.814 488.641 139.658 488.485C139.502 488.329 139.424 488.138 139.424 487.913C139.424 487.688 139.502 487.497 139.658 487.341C139.814 487.185 140.005 487.107 140.23 487.107C140.447 487.107 140.629 487.185 140.776 487.341C140.932 487.497 141.01 487.688 141.01 487.913C141.01 488.138 140.932 488.329 140.776 488.485C140.629 488.641 140.447 488.719 140.23 488.719ZM140.802 489.876V497H139.619V489.876H140.802ZM146.289 489.746C147.156 489.746 147.858 490.01 148.395 490.539C148.933 491.059 149.201 491.813 149.201 492.801V497H148.031V492.97C148.031 492.259 147.854 491.718 147.498 491.345C147.143 490.964 146.658 490.773 146.042 490.773C145.418 490.773 144.92 490.968 144.547 491.358C144.183 491.748 144.001 492.316 144.001 493.061V497H142.818V489.876H144.001V490.89C144.235 490.526 144.552 490.244 144.95 490.045C145.358 489.846 145.804 489.746 146.289 489.746ZM154.072 489.759C154.687 489.759 155.224 489.893 155.684 490.162C156.152 490.431 156.498 490.769 156.724 491.176V489.876H157.92V497.156C157.92 497.806 157.781 498.382 157.504 498.885C157.226 499.396 156.828 499.795 156.308 500.081C155.796 500.367 155.198 500.51 154.514 500.51C153.578 500.51 152.798 500.289 152.174 499.847C151.55 499.405 151.181 498.803 151.069 498.04H152.239C152.369 498.473 152.637 498.82 153.045 499.08C153.452 499.349 153.942 499.483 154.514 499.483C155.164 499.483 155.692 499.279 156.1 498.872C156.516 498.465 156.724 497.893 156.724 497.156V495.661C156.49 496.077 156.143 496.424 155.684 496.701C155.224 496.978 154.687 497.117 154.072 497.117C153.439 497.117 152.863 496.961 152.343 496.649C151.831 496.337 151.428 495.899 151.134 495.336C150.839 494.773 150.692 494.131 150.692 493.412C150.692 492.684 150.839 492.047 151.134 491.501C151.428 490.946 151.831 490.517 152.343 490.214C152.863 489.911 153.439 489.759 154.072 489.759ZM156.724 493.425C156.724 492.888 156.615 492.42 156.399 492.021C156.182 491.622 155.887 491.319 155.515 491.111C155.151 490.894 154.748 490.786 154.306 490.786C153.864 490.786 153.461 490.89 153.097 491.098C152.733 491.306 152.442 491.609 152.226 492.008C152.009 492.407 151.901 492.875 151.901 493.412C151.901 493.958 152.009 494.435 152.226 494.842C152.442 495.241 152.733 495.548 153.097 495.765C153.461 495.973 153.864 496.077 154.306 496.077C154.748 496.077 155.151 495.973 155.515 495.765C155.887 495.548 156.182 495.241 156.399 494.842C156.615 494.435 156.724 493.962 156.724 493.425ZM162.943 493.412C162.943 492.684 163.09 492.047 163.385 491.501C163.679 490.946 164.082 490.517 164.594 490.214C165.114 489.911 165.69 489.759 166.323 489.759C166.947 489.759 167.488 489.893 167.948 490.162C168.407 490.431 168.749 490.769 168.975 491.176V489.876H170.171V497H168.975V495.674C168.741 496.09 168.39 496.437 167.922 496.714C167.462 496.983 166.925 497.117 166.31 497.117C165.677 497.117 165.105 496.961 164.594 496.649C164.082 496.337 163.679 495.899 163.385 495.336C163.09 494.773 162.943 494.131 162.943 493.412ZM168.975 493.425C168.975 492.888 168.866 492.42 168.65 492.021C168.433 491.622 168.138 491.319 167.766 491.111C167.402 490.894 166.999 490.786 166.557 490.786C166.115 490.786 165.712 490.89 165.348 491.098C164.984 491.306 164.693 491.609 164.477 492.008C164.26 492.407 164.152 492.875 164.152 493.412C164.152 493.958 164.26 494.435 164.477 494.842C164.693 495.241 164.984 495.548 165.348 495.765C165.712 495.973 166.115 496.077 166.557 496.077C166.999 496.077 167.402 495.973 167.766 495.765C168.138 495.548 168.433 495.241 168.65 494.842C168.866 494.435 168.975 493.962 168.975 493.425ZM173.353 491.033C173.561 490.626 173.856 490.309 174.237 490.084C174.627 489.859 175.099 489.746 175.654 489.746V490.968H175.342C174.016 490.968 173.353 491.687 173.353 493.126V497H172.17V489.876H173.353V491.033ZM183.52 493.165C183.52 493.39 183.507 493.629 183.481 493.88H177.787C177.83 494.582 178.068 495.132 178.502 495.531C178.944 495.921 179.477 496.116 180.101 496.116C180.612 496.116 181.037 495.999 181.375 495.765C181.721 495.522 181.964 495.202 182.103 494.803H183.377C183.186 495.488 182.805 496.047 182.233 496.48C181.661 496.905 180.95 497.117 180.101 497.117C179.425 497.117 178.818 496.965 178.281 496.662C177.752 496.359 177.336 495.93 177.033 495.375C176.729 494.812 176.578 494.162 176.578 493.425C176.578 492.688 176.725 492.043 177.02 491.488C177.314 490.933 177.726 490.509 178.255 490.214C178.792 489.911 179.407 489.759 180.101 489.759C180.777 489.759 181.375 489.906 181.895 490.201C182.415 490.496 182.813 490.903 183.091 491.423C183.377 491.934 183.52 492.515 183.52 493.165ZM182.298 492.918C182.298 492.467 182.198 492.082 181.999 491.761C181.799 491.432 181.526 491.185 181.18 491.02C180.842 490.847 180.465 490.76 180.049 490.76C179.451 490.76 178.939 490.951 178.515 491.332C178.099 491.713 177.86 492.242 177.8 492.918H182.298ZM188.105 493.412C188.105 492.684 188.252 492.047 188.547 491.501C188.842 490.946 189.245 490.517 189.756 490.214C190.276 489.911 190.852 489.759 191.485 489.759C192.109 489.759 192.651 489.893 193.11 490.162C193.569 490.431 193.912 490.769 194.137 491.176V489.876H195.333V497H194.137V495.674C193.903 496.09 193.552 496.437 193.084 496.714C192.625 496.983 192.087 497.117 191.472 497.117C190.839 497.117 190.267 496.961 189.756 496.649C189.245 496.337 188.842 495.899 188.547 495.336C188.252 494.773 188.105 494.131 188.105 493.412ZM194.137 493.425C194.137 492.888 194.029 492.42 193.812 492.021C193.595 491.622 193.301 491.319 192.928 491.111C192.564 490.894 192.161 490.786 191.719 490.786C191.277 490.786 190.874 490.89 190.51 491.098C190.146 491.306 189.856 491.609 189.639 492.008C189.422 492.407 189.314 492.875 189.314 493.412C189.314 493.958 189.422 494.435 189.639 494.842C189.856 495.241 190.146 495.548 190.51 495.765C190.874 495.973 191.277 496.077 191.719 496.077C192.161 496.077 192.564 495.973 192.928 495.765C193.301 495.548 193.595 495.241 193.812 494.842C194.029 494.435 194.137 493.962 194.137 493.425ZM196.89 493.425C196.89 492.688 197.037 492.047 197.332 491.501C197.627 490.946 198.034 490.517 198.554 490.214C199.083 489.911 199.685 489.759 200.361 489.759C201.236 489.759 201.956 489.971 202.519 490.396C203.091 490.821 203.468 491.41 203.65 492.164H202.376C202.255 491.731 202.016 491.388 201.661 491.137C201.314 490.886 200.881 490.76 200.361 490.76C199.685 490.76 199.139 490.994 198.723 491.462C198.307 491.921 198.099 492.576 198.099 493.425C198.099 494.283 198.307 494.946 198.723 495.414C199.139 495.882 199.685 496.116 200.361 496.116C200.881 496.116 201.314 495.995 201.661 495.752C202.008 495.509 202.246 495.163 202.376 494.712H203.65C203.459 495.44 203.078 496.025 202.506 496.467C201.934 496.9 201.219 497.117 200.361 497.117C199.685 497.117 199.083 496.965 198.554 496.662C198.034 496.359 197.627 495.93 197.332 495.375C197.037 494.82 196.89 494.17 196.89 493.425ZM204.787 493.425C204.787 492.688 204.934 492.047 205.229 491.501C205.523 490.946 205.931 490.517 206.451 490.214C206.979 489.911 207.582 489.759 208.258 489.759C209.133 489.759 209.852 489.971 210.416 490.396C210.988 490.821 211.365 491.41 211.547 492.164H210.273C210.151 491.731 209.913 491.388 209.558 491.137C209.211 490.886 208.778 490.76 208.258 490.76C207.582 490.76 207.036 490.994 206.62 491.462C206.204 491.921 205.996 492.576 205.996 493.425C205.996 494.283 206.204 494.946 206.62 495.414C207.036 495.882 207.582 496.116 208.258 496.116C208.778 496.116 209.211 495.995 209.558 495.752C209.904 495.509 210.143 495.163 210.273 494.712H211.547C211.356 495.44 210.975 496.025 210.403 496.467C209.831 496.9 209.116 497.117 208.258 497.117C207.582 497.117 206.979 496.965 206.451 496.662C205.931 496.359 205.523 495.93 205.229 495.375C204.934 494.82 204.787 494.17 204.787 493.425ZM219.625 493.165C219.625 493.39 219.612 493.629 219.586 493.88H213.892C213.935 494.582 214.174 495.132 214.607 495.531C215.049 495.921 215.582 496.116 216.206 496.116C216.717 496.116 217.142 495.999 217.48 495.765C217.827 495.522 218.069 495.202 218.208 494.803H219.482C219.291 495.488 218.91 496.047 218.338 496.48C217.766 496.905 217.055 497.117 216.206 497.117C215.53 497.117 214.923 496.965 214.386 496.662C213.857 496.359 213.441 495.93 213.138 495.375C212.835 494.812 212.683 494.162 212.683 493.425C212.683 492.688 212.83 492.043 213.125 491.488C213.42 490.933 213.831 490.509 214.36 490.214C214.897 489.911 215.513 489.759 216.206 489.759C216.882 489.759 217.48 489.906 218 490.201C218.52 490.496 218.919 490.903 219.196 491.423C219.482 491.934 219.625 492.515 219.625 493.165ZM218.403 492.918C218.403 492.467 218.303 492.082 218.104 491.761C217.905 491.432 217.632 491.185 217.285 491.02C216.947 490.847 216.57 490.76 216.154 490.76C215.556 490.76 215.045 490.951 214.62 491.332C214.204 491.713 213.966 492.242 213.905 492.918H218.403ZM222.37 491.189C222.604 490.782 222.95 490.444 223.41 490.175C223.878 489.898 224.419 489.759 225.035 489.759C225.667 489.759 226.239 489.911 226.751 490.214C227.271 490.517 227.678 490.946 227.973 491.501C228.267 492.047 228.415 492.684 228.415 493.412C228.415 494.131 228.267 494.773 227.973 495.336C227.678 495.899 227.271 496.337 226.751 496.649C226.239 496.961 225.667 497.117 225.035 497.117C224.428 497.117 223.891 496.983 223.423 496.714C222.963 496.437 222.612 496.094 222.37 495.687V500.38H221.187V489.876H222.37V491.189ZM227.206 493.412C227.206 492.875 227.097 492.407 226.881 492.008C226.664 491.609 226.369 491.306 225.997 491.098C225.633 490.89 225.23 490.786 224.788 490.786C224.354 490.786 223.951 490.894 223.579 491.111C223.215 491.319 222.92 491.627 222.695 492.034C222.478 492.433 222.37 492.896 222.37 493.425C222.37 493.962 222.478 494.435 222.695 494.842C222.92 495.241 223.215 495.548 223.579 495.765C223.951 495.973 224.354 496.077 224.788 496.077C225.23 496.077 225.633 495.973 225.997 495.765C226.369 495.548 226.664 495.241 226.881 494.842C227.097 494.435 227.206 493.958 227.206 493.412ZM231.415 490.851V495.05C231.415 495.397 231.488 495.644 231.636 495.791C231.783 495.93 232.039 495.999 232.403 495.999H233.274V497H232.208C231.549 497 231.055 496.848 230.726 496.545C230.396 496.242 230.232 495.743 230.232 495.05V490.851H229.309V489.876H230.232V488.082H231.415V489.876H233.274V490.851H231.415ZM234.265 493.412C234.265 492.684 234.412 492.047 234.707 491.501C235.002 490.946 235.405 490.517 235.916 490.214C236.436 489.911 237.012 489.759 237.645 489.759C238.269 489.759 238.811 489.893 239.27 490.162C239.729 490.431 240.072 490.769 240.297 491.176V489.876H241.493V497H240.297V495.674C240.063 496.09 239.712 496.437 239.244 496.714C238.785 496.983 238.247 497.117 237.632 497.117C236.999 497.117 236.427 496.961 235.916 496.649C235.405 496.337 235.002 495.899 234.707 495.336C234.412 494.773 234.265 494.131 234.265 493.412ZM240.297 493.425C240.297 492.888 240.189 492.42 239.972 492.021C239.755 491.622 239.461 491.319 239.088 491.111C238.724 490.894 238.321 490.786 237.879 490.786C237.437 490.786 237.034 490.89 236.67 491.098C236.306 491.306 236.016 491.609 235.799 492.008C235.582 492.407 235.474 492.875 235.474 493.412C235.474 493.958 235.582 494.435 235.799 494.842C236.016 495.241 236.306 495.548 236.67 495.765C237.034 495.973 237.437 496.077 237.879 496.077C238.321 496.077 238.724 495.973 239.088 495.765C239.461 495.548 239.755 495.241 239.972 494.842C240.189 494.435 240.297 493.962 240.297 493.425ZM244.675 491.202C244.918 490.777 245.273 490.431 245.741 490.162C246.209 489.893 246.742 489.759 247.34 489.759C247.982 489.759 248.558 489.911 249.069 490.214C249.581 490.517 249.984 490.946 250.278 491.501C250.573 492.047 250.72 492.684 250.72 493.412C250.72 494.131 250.573 494.773 250.278 495.336C249.984 495.899 249.576 496.337 249.056 496.649C248.545 496.961 247.973 497.117 247.34 497.117C246.725 497.117 246.183 496.983 245.715 496.714C245.256 496.445 244.909 496.103 244.675 495.687V497H243.492V487.38H244.675V491.202ZM249.511 493.412C249.511 492.875 249.403 492.407 249.186 492.008C248.97 491.609 248.675 491.306 248.302 491.098C247.938 490.89 247.535 490.786 247.093 490.786C246.66 490.786 246.257 490.894 245.884 491.111C245.52 491.319 245.226 491.627 245 492.034C244.784 492.433 244.675 492.896 244.675 493.425C244.675 493.962 244.784 494.435 245 494.842C245.226 495.241 245.52 495.548 245.884 495.765C246.257 495.973 246.66 496.077 247.093 496.077C247.535 496.077 247.938 495.973 248.302 495.765C248.675 495.548 248.97 495.241 249.186 494.842C249.403 494.435 249.511 493.958 249.511 493.412ZM253.46 487.38V497H252.277V487.38H253.46ZM261.977 493.165C261.977 493.39 261.964 493.629 261.938 493.88H256.244C256.287 494.582 256.525 495.132 256.959 495.531C257.401 495.921 257.934 496.116 258.558 496.116C259.069 496.116 259.494 495.999 259.832 495.765C260.178 495.522 260.421 495.202 260.56 494.803H261.834C261.643 495.488 261.262 496.047 260.69 496.48C260.118 496.905 259.407 497.117 258.558 497.117C257.882 497.117 257.275 496.965 256.738 496.662C256.209 496.359 255.793 495.93 255.49 495.375C255.186 494.812 255.035 494.162 255.035 493.425C255.035 492.688 255.182 492.043 255.477 491.488C255.771 490.933 256.183 490.509 256.712 490.214C257.249 489.911 257.864 489.759 258.558 489.759C259.234 489.759 259.832 489.906 260.352 490.201C260.872 490.496 261.27 490.903 261.548 491.423C261.834 491.934 261.977 492.515 261.977 493.165ZM260.755 492.918C260.755 492.467 260.655 492.082 260.456 491.761C260.256 491.432 259.983 491.185 259.637 491.02C259.299 490.847 258.922 490.76 258.506 490.76C257.908 490.76 257.396 490.951 256.972 491.332C256.556 491.713 256.317 492.242 256.257 492.918H260.755ZM263.915 497.078C263.69 497.078 263.499 497 263.343 496.844C263.187 496.688 263.109 496.497 263.109 496.272C263.109 496.047 263.187 495.856 263.343 495.7C263.499 495.544 263.69 495.466 263.915 495.466C264.132 495.466 264.314 495.544 264.461 495.7C264.617 495.856 264.695 496.047 264.695 496.272C264.695 496.497 264.617 496.688 264.461 496.844C264.314 497 264.132 497.078 263.915 497.078Z" fill="#AAAAAA"/>
<path d="M77.7619 434.49V442.464C77.7619 443.412 78.0079 444.126 78.4999 444.606C79.0039 445.086 79.6999 445.326 80.5879 445.326C81.4879 445.326 82.1839 445.086 82.6759 444.606C83.1799 444.126 83.4319 443.412 83.4319 442.464V434.49H85.4839V442.428C85.4839 443.448 85.2619 444.312 84.8179 445.02C84.3739 445.728 83.7799 446.256 83.0359 446.604C82.2919 446.952 81.4699 447.126 80.5699 447.126C79.6699 447.126 78.8479 446.952 78.1039 446.604C77.3719 446.256 76.7899 445.728 76.3579 445.02C75.9259 444.312 75.7099 443.448 75.7099 442.428V434.49H77.7619ZM90.2077 438.54C90.5557 438.084 91.0297 437.7 91.6297 437.388C92.2297 437.076 92.9077 436.92 93.6637 436.92C94.5277 436.92 95.3137 437.136 96.0217 437.568C96.7417 437.988 97.3057 438.582 97.7137 439.35C98.1217 440.118 98.3257 441 98.3257 441.996C98.3257 442.992 98.1217 443.886 97.7137 444.678C97.3057 445.458 96.7417 446.07 96.0217 446.514C95.3137 446.946 94.5277 447.162 93.6637 447.162C92.9077 447.162 92.2357 447.012 91.6477 446.712C91.0597 446.4 90.5797 446.016 90.2077 445.56V451.716H88.1557V437.082H90.2077V438.54ZM96.2377 441.996C96.2377 441.312 96.0937 440.724 95.8057 440.232C95.5297 439.728 95.1577 439.35 94.6897 439.098C94.2337 438.834 93.7417 438.702 93.2137 438.702C92.6977 438.702 92.2057 438.834 91.7377 439.098C91.2817 439.362 90.9097 439.746 90.6217 440.25C90.3457 440.754 90.2077 441.348 90.2077 442.032C90.2077 442.716 90.3457 443.316 90.6217 443.832C90.9097 444.336 91.2817 444.72 91.7377 444.984C92.2057 445.248 92.6977 445.38 93.2137 445.38C93.7417 445.38 94.2337 445.248 94.6897 444.984C95.1577 444.708 95.5297 444.312 95.8057 443.796C96.0937 443.28 96.2377 442.68 96.2377 441.996ZM102.407 433.68V447H100.355V433.68H102.407ZM109.403 447.162C108.467 447.162 107.621 446.952 106.865 446.532C106.109 446.1 105.515 445.5 105.083 444.732C104.651 443.952 104.435 443.052 104.435 442.032C104.435 441.024 104.657 440.13 105.101 439.35C105.545 438.57 106.151 437.97 106.919 437.55C107.687 437.13 108.545 436.92 109.493 436.92C110.441 436.92 111.299 437.13 112.067 437.55C112.835 437.97 113.441 438.57 113.885 439.35C114.329 440.13 114.551 441.024 114.551 442.032C114.551 443.04 114.323 443.934 113.867 444.714C113.411 445.494 112.787 446.1 111.995 446.532C111.215 446.952 110.351 447.162 109.403 447.162ZM109.403 445.38C109.931 445.38 110.423 445.254 110.879 445.002C111.347 444.75 111.725 444.372 112.013 443.868C112.301 443.364 112.445 442.752 112.445 442.032C112.445 441.312 112.307 440.706 112.031 440.214C111.755 439.71 111.389 439.332 110.933 439.08C110.477 438.828 109.985 438.702 109.457 438.702C108.929 438.702 108.437 438.828 107.981 439.08C107.537 439.332 107.183 439.71 106.919 440.214C106.655 440.706 106.523 441.312 106.523 442.032C106.523 443.1 106.793 443.928 107.333 444.516C107.885 445.092 108.575 445.38 109.403 445.38ZM115.895 441.996C115.895 441 116.099 440.118 116.507 439.35C116.927 438.582 117.491 437.988 118.199 437.568C118.919 437.136 119.711 436.92 120.575 436.92C121.355 436.92 122.033 437.076 122.609 437.388C123.197 437.688 123.665 438.066 124.013 438.522V437.082H126.083V447H124.013V445.524C123.665 445.992 123.191 446.382 122.591 446.694C121.991 447.006 121.307 447.162 120.539 447.162C119.687 447.162 118.907 446.946 118.199 446.514C117.491 446.07 116.927 445.458 116.507 444.678C116.099 443.886 115.895 442.992 115.895 441.996ZM124.013 442.032C124.013 441.348 123.869 440.754 123.581 440.25C123.305 439.746 122.939 439.362 122.483 439.098C122.027 438.834 121.535 438.702 121.007 438.702C120.479 438.702 119.987 438.834 119.531 439.098C119.075 439.35 118.703 439.728 118.415 440.232C118.139 440.724 118.001 441.312 118.001 441.996C118.001 442.68 118.139 443.28 118.415 443.796C118.703 444.312 119.075 444.708 119.531 444.984C119.999 445.248 120.491 445.38 121.007 445.38C121.535 445.38 122.027 445.248 122.483 444.984C122.939 444.72 123.305 444.336 123.581 443.832C123.869 443.316 124.013 442.716 124.013 442.032ZM128.095 441.996C128.095 441 128.299 440.118 128.707 439.35C129.127 438.582 129.691 437.988 130.399 437.568C131.119 437.136 131.917 436.92 132.793 436.92C133.441 436.92 134.077 437.064 134.701 437.352C135.337 437.628 135.841 438 136.213 438.468V433.68H138.283V447H136.213V445.506C135.877 445.986 135.409 446.382 134.809 446.694C134.221 447.006 133.543 447.162 132.775 447.162C131.911 447.162 131.119 446.946 130.399 446.514C129.691 446.07 129.127 445.458 128.707 444.678C128.299 443.886 128.095 442.992 128.095 441.996ZM136.213 442.032C136.213 441.348 136.069 440.754 135.781 440.25C135.505 439.746 135.139 439.362 134.683 439.098C134.227 438.834 133.735 438.702 133.207 438.702C132.679 438.702 132.187 438.834 131.731 439.098C131.275 439.35 130.903 439.728 130.615 440.232C130.339 440.724 130.201 441.312 130.201 441.996C130.201 442.68 130.339 443.28 130.615 443.796C130.903 444.312 131.275 444.708 131.731 444.984C132.199 445.248 132.691 445.38 133.207 445.38C133.735 445.38 134.227 445.248 134.683 444.984C135.139 444.72 135.505 444.336 135.781 443.832C136.069 443.316 136.213 442.716 136.213 442.032ZM154.582 437.082L148.498 451.662H146.374L148.39 446.838L144.484 437.082H146.77L149.56 444.642L152.458 437.082H154.582ZM160.432 447.162C159.496 447.162 158.65 446.952 157.894 446.532C157.138 446.1 156.544 445.5 156.112 444.732C155.68 443.952 155.464 443.052 155.464 442.032C155.464 441.024 155.686 440.13 156.13 439.35C156.574 438.57 157.18 437.97 157.948 437.55C158.716 437.13 159.574 436.92 160.522 436.92C161.47 436.92 162.328 437.13 163.096 437.55C163.864 437.97 164.47 438.57 164.914 439.35C165.358 440.13 165.58 441.024 165.58 442.032C165.58 443.04 165.352 443.934 164.896 444.714C164.44 445.494 163.816 446.1 163.024 446.532C162.244 446.952 161.38 447.162 160.432 447.162ZM160.432 445.38C160.96 445.38 161.452 445.254 161.908 445.002C162.376 444.75 162.754 444.372 163.042 443.868C163.33 443.364 163.474 442.752 163.474 442.032C163.474 441.312 163.336 440.706 163.06 440.214C162.784 439.71 162.418 439.332 161.962 439.08C161.506 438.828 161.014 438.702 160.486 438.702C159.958 438.702 159.466 438.828 159.01 439.08C158.566 439.332 158.212 439.71 157.948 440.214C157.684 440.706 157.552 441.312 157.552 442.032C157.552 443.1 157.822 443.928 158.362 444.516C158.914 445.092 159.604 445.38 160.432 445.38ZM176.591 437.082V447H174.539V445.83C174.215 446.238 173.789 446.562 173.261 446.802C172.745 447.03 172.193 447.144 171.605 447.144C170.825 447.144 170.123 446.982 169.499 446.658C168.887 446.334 168.401 445.854 168.041 445.218C167.693 444.582 167.519 443.814 167.519 442.914V437.082H169.553V442.608C169.553 443.496 169.775 444.18 170.219 444.66C170.663 445.128 171.269 445.362 172.037 445.362C172.805 445.362 173.411 445.128 173.855 444.66C174.311 444.18 174.539 443.496 174.539 442.608V437.082H176.591ZM181.35 438.522C181.65 438.018 182.046 437.628 182.538 437.352C183.042 437.064 183.636 436.92 184.32 436.92V439.044H183.798C182.994 439.044 182.382 439.248 181.962 439.656C181.554 440.064 181.35 440.772 181.35 441.78V447H179.298V437.082H181.35V438.522ZM192.934 438.54C193.282 438.084 193.756 437.7 194.356 437.388C194.956 437.076 195.634 436.92 196.39 436.92C197.254 436.92 198.04 437.136 198.748 437.568C199.468 437.988 200.032 438.582 200.44 439.35C200.848 440.118 201.052 441 201.052 441.996C201.052 442.992 200.848 443.886 200.44 444.678C200.032 445.458 199.468 446.07 198.748 446.514C198.04 446.946 197.254 447.162 196.39 447.162C195.634 447.162 194.962 447.012 194.374 446.712C193.786 446.4 193.306 446.016 192.934 445.56V451.716H190.882V437.082H192.934V438.54ZM198.964 441.996C198.964 441.312 198.82 440.724 198.532 440.232C198.256 439.728 197.884 439.35 197.416 439.098C196.96 438.834 196.468 438.702 195.94 438.702C195.424 438.702 194.932 438.834 194.464 439.098C194.008 439.362 193.636 439.746 193.348 440.25C193.072 440.754 192.934 441.348 192.934 442.032C192.934 442.716 193.072 443.316 193.348 443.832C193.636 444.336 194.008 444.72 194.464 444.984C194.932 445.248 195.424 445.38 195.94 445.38C196.468 445.38 196.96 445.248 197.416 444.984C197.884 444.708 198.256 444.312 198.532 443.796C198.82 443.28 198.964 442.68 198.964 441.996ZM205.133 438.522C205.433 438.018 205.829 437.628 206.321 437.352C206.825 437.064 207.419 436.92 208.103 436.92V439.044H207.581C206.777 439.044 206.165 439.248 205.745 439.656C205.337 440.064 205.133 440.772 205.133 441.78V447H203.081V437.082H205.133V438.522ZM219.08 441.798C219.08 442.17 219.056 442.506 219.008 442.806H211.43C211.49 443.598 211.784 444.234 212.312 444.714C212.84 445.194 213.488 445.434 214.256 445.434C215.36 445.434 216.14 444.972 216.596 444.048H218.81C218.51 444.96 217.964 445.71 217.172 446.298C216.392 446.874 215.42 447.162 214.256 447.162C213.308 447.162 212.456 446.952 211.7 446.532C210.956 446.1 210.368 445.5 209.936 444.732C209.516 443.952 209.306 443.052 209.306 442.032C209.306 441.012 209.51 440.118 209.918 439.35C210.338 438.57 210.92 437.97 211.664 437.55C212.42 437.13 213.284 436.92 214.256 436.92C215.192 436.92 216.026 437.124 216.758 437.532C217.49 437.94 218.06 438.516 218.468 439.26C218.876 439.992 219.08 440.838 219.08 441.798ZM216.938 441.15C216.926 440.394 216.656 439.788 216.128 439.332C215.6 438.876 214.946 438.648 214.166 438.648C213.458 438.648 212.852 438.876 212.348 439.332C211.844 439.776 211.544 440.382 211.448 441.15H216.938ZM224.699 447.162C223.919 447.162 223.217 447.024 222.593 446.748C221.981 446.46 221.495 446.076 221.135 445.596C220.775 445.104 220.583 444.558 220.559 443.958H222.683C222.719 444.378 222.917 444.732 223.277 445.02C223.649 445.296 224.111 445.434 224.663 445.434C225.239 445.434 225.683 445.326 225.995 445.11C226.319 444.882 226.481 444.594 226.481 444.246C226.481 443.874 226.301 443.598 225.941 443.418C225.593 443.238 225.035 443.04 224.267 442.824C223.523 442.62 222.917 442.422 222.449 442.23C221.981 442.038 221.573 441.744 221.225 441.348C220.889 440.952 220.721 440.43 220.721 439.782C220.721 439.254 220.877 438.774 221.189 438.342C221.501 437.898 221.945 437.55 222.521 437.298C223.109 437.046 223.781 436.92 224.537 436.92C225.665 436.92 226.571 437.208 227.255 437.784C227.951 438.348 228.323 439.122 228.371 440.106H226.319C226.283 439.662 226.103 439.308 225.779 439.044C225.455 438.78 225.017 438.648 224.465 438.648C223.925 438.648 223.511 438.75 223.223 438.954C222.935 439.158 222.791 439.428 222.791 439.764C222.791 440.028 222.887 440.25 223.079 440.43C223.271 440.61 223.505 440.754 223.781 440.862C224.057 440.958 224.465 441.084 225.005 441.24C225.725 441.432 226.313 441.63 226.769 441.834C227.237 442.026 227.639 442.314 227.975 442.698C228.311 443.082 228.485 443.592 228.497 444.228C228.497 444.792 228.341 445.296 228.029 445.74C227.717 446.184 227.273 446.532 226.697 446.784C226.133 447.036 225.467 447.162 224.699 447.162ZM230.03 442.032C230.03 441.012 230.234 440.118 230.642 439.35C231.062 438.57 231.638 437.97 232.37 437.55C233.102 437.13 233.942 436.92 234.89 436.92C236.09 436.92 237.08 437.208 237.86 437.784C238.652 438.348 239.186 439.158 239.462 440.214H237.248C237.068 439.722 236.78 439.338 236.384 439.062C235.988 438.786 235.49 438.648 234.89 438.648C234.05 438.648 233.378 438.948 232.874 439.548C232.382 440.136 232.136 440.964 232.136 442.032C232.136 443.1 232.382 443.934 232.874 444.534C233.378 445.134 234.05 445.434 234.89 445.434C236.078 445.434 236.864 444.912 237.248 443.868H239.462C239.174 444.876 238.634 445.68 237.842 446.28C237.05 446.868 236.066 447.162 234.89 447.162C233.942 447.162 233.102 446.952 232.37 446.532C231.638 446.1 231.062 445.5 230.642 444.732C230.234 443.952 230.03 443.052 230.03 442.032ZM243.559 438.522C243.859 438.018 244.255 437.628 244.747 437.352C245.251 437.064 245.845 436.92 246.529 436.92V439.044H246.007C245.203 439.044 244.591 439.248 244.171 439.656C243.763 440.064 243.559 440.772 243.559 441.78V447H241.507V437.082H243.559V438.522ZM249.459 435.768C249.087 435.768 248.775 435.642 248.523 435.39C248.271 435.138 248.145 434.826 248.145 434.454C248.145 434.082 248.271 433.77 248.523 433.518C248.775 433.266 249.087 433.14 249.459 433.14C249.819 433.14 250.125 433.266 250.377 433.518C250.629 433.77 250.755 434.082 250.755 434.454C250.755 434.826 250.629 435.138 250.377 435.39C250.125 435.642 249.819 435.768 249.459 435.768ZM250.467 437.082V447H248.415V437.082H250.467ZM255.214 438.54C255.562 438.084 256.036 437.7 256.636 437.388C257.236 437.076 257.914 436.92 258.67 436.92C259.534 436.92 260.32 437.136 261.028 437.568C261.748 437.988 262.312 438.582 262.72 439.35C263.128 440.118 263.332 441 263.332 441.996C263.332 442.992 263.128 443.886 262.72 444.678C262.312 445.458 261.748 446.07 261.028 446.514C260.32 446.946 259.534 447.162 258.67 447.162C257.914 447.162 257.242 447.012 256.654 446.712C256.066 446.4 255.586 446.016 255.214 445.56V451.716H253.162V437.082H255.214V438.54ZM261.244 441.996C261.244 441.312 261.1 440.724 260.812 440.232C260.536 439.728 260.164 439.35 259.696 439.098C259.24 438.834 258.748 438.702 258.22 438.702C257.704 438.702 257.212 438.834 256.744 439.098C256.288 439.362 255.916 439.746 255.628 440.25C255.352 440.754 255.214 441.348 255.214 442.032C255.214 442.716 255.352 443.316 255.628 443.832C255.916 444.336 256.288 444.72 256.744 444.984C257.212 445.248 257.704 445.38 258.22 445.38C258.748 445.38 259.24 445.248 259.696 444.984C260.164 444.708 260.536 444.312 260.812 443.796C261.1 443.28 261.244 442.68 261.244 441.996ZM267.755 438.756V444.246C267.755 444.618 267.839 444.888 268.007 445.056C268.187 445.212 268.487 445.29 268.907 445.29H270.167V447H268.547C267.623 447 266.915 446.784 266.423 446.352C265.931 445.92 265.685 445.218 265.685 444.246V438.756H264.515V437.082H265.685V434.616H267.755V437.082H270.167V438.756H267.755ZM273.102 435.768C272.73 435.768 272.418 435.642 272.166 435.39C271.914 435.138 271.788 434.826 271.788 434.454C271.788 434.082 271.914 433.77 272.166 433.518C272.418 433.266 272.73 433.14 273.102 433.14C273.462 433.14 273.768 433.266 274.02 433.518C274.272 433.77 274.398 434.082 274.398 434.454C274.398 434.826 274.272 435.138 274.02 435.39C273.768 435.642 273.462 435.768 273.102 435.768ZM274.11 437.082V447H272.058V437.082H274.11ZM281.106 447.162C280.17 447.162 279.324 446.952 278.568 446.532C277.812 446.1 277.218 445.5 276.786 444.732C276.354 443.952 276.138 443.052 276.138 442.032C276.138 441.024 276.36 440.13 276.804 439.35C277.248 438.57 277.854 437.97 278.622 437.55C279.39 437.13 280.248 436.92 281.196 436.92C282.144 436.92 283.002 437.13 283.77 437.55C284.538 437.97 285.144 438.57 285.588 439.35C286.032 440.13 286.254 441.024 286.254 442.032C286.254 443.04 286.026 443.934 285.57 444.714C285.114 445.494 284.49 446.1 283.698 446.532C282.918 446.952 282.054 447.162 281.106 447.162ZM281.106 445.38C281.634 445.38 282.126 445.254 282.582 445.002C283.05 444.75 283.428 444.372 283.716 443.868C284.004 443.364 284.148 442.752 284.148 442.032C284.148 441.312 284.01 440.706 283.734 440.214C283.458 439.71 283.092 439.332 282.636 439.08C282.18 438.828 281.688 438.702 281.16 438.702C280.632 438.702 280.14 438.828 279.684 439.08C279.24 439.332 278.886 439.71 278.622 440.214C278.358 440.706 278.226 441.312 278.226 442.032C278.226 443.1 278.496 443.928 279.036 444.516C279.588 445.092 280.278 445.38 281.106 445.38ZM293.287 436.92C294.067 436.92 294.763 437.082 295.375 437.406C295.999 437.73 296.485 438.21 296.833 438.846C297.181 439.482 297.355 440.25 297.355 441.15V447H295.321V441.456C295.321 440.568 295.099 439.89 294.655 439.422C294.211 438.942 293.605 438.702 292.837 438.702C292.069 438.702 291.457 438.942 291.001 439.422C290.557 439.89 290.335 440.568 290.335 441.456V447H288.283V437.082H290.335V438.216C290.671 437.808 291.097 437.49 291.613 437.262C292.141 437.034 292.699 436.92 293.287 436.92Z" fill="black"/>
<rect x="137" y="312" width="100" height="100" rx="20" fill="#E5F3FF"/>
<path fill-rule="evenodd" clip-rule="evenodd" d="M189.527 363.305C189.926 363.713 190.573 363.713 190.973 363.305C191.386 362.897 191.386 362.237 190.986 361.829L187.034 357.782C186.938 357.683 186.828 357.613 186.704 357.557C186.58 357.501 186.456 357.473 186.318 357.473C186.181 357.473 186.043 357.501 185.919 357.557C185.795 357.613 185.685 357.683 185.589 357.782L181.651 361.829C181.251 362.237 181.251 362.897 181.651 363.305C182.05 363.713 182.697 363.713 183.096 363.305L185.286 361.056V367.844C185.286 368.421 185.74 368.884 186.318 368.884C186.883 368.884 187.337 368.421 187.337 367.844V361.056L189.527 363.305ZM197.013 357.874C197.336 357.87 197.689 357.866 198.009 357.866C198.353 357.866 198.642 358.147 198.642 358.498V369.798C198.642 373.283 195.861 376.108 192.446 376.108H181.499C177.905 376.108 175 373.143 175 369.489V354.338C175 350.853 177.768 348 181.21 348H188.563C188.907 348 189.196 348.295 189.196 348.646V353.172C189.196 355.744 191.262 357.852 193.795 357.866C194.375 357.866 194.889 357.87 195.34 357.874C195.694 357.877 196.01 357.88 196.288 357.88C196.484 357.88 196.738 357.877 197.013 357.874ZM197.397 355.822C196.265 355.827 194.932 355.822 193.973 355.813C192.45 355.813 191.195 354.532 191.195 352.978V349.273C191.195 348.668 191.914 348.367 192.326 348.804C193.386 349.928 195.008 351.65 196.38 353.106C196.936 353.696 197.451 354.243 197.871 354.688C198.272 355.114 197.977 355.821 197.397 355.822Z" fill="#0065FF"/>
<rect x="64.5" y="83.5" width="39" height="39" rx="9.5" transform="rotate(180 64.5 83.5)" stroke="#F0F0F0"/>
<path d="M48.5 71L41.5 64L48.5 57" stroke="#AAAAAA" stroke-width="1.5" stroke-linecap="round" stroke-linejoin="round"/>
<path d="M126.872 57.1V71H124.592V61.48L120.352 71H118.772L114.512 61.48V71H112.232V57.1H114.692L119.572 68L124.432 57.1H126.872ZM139.969 65.22C139.969 65.6333 139.942 66.0067 139.889 66.34H131.469C131.536 67.22 131.862 67.9267 132.449 68.46C133.036 68.9933 133.756 69.26 134.609 69.26C135.836 69.26 136.702 68.7467 137.209 67.72H139.669C139.336 68.7333 138.729 69.5667 137.849 70.22C136.982 70.86 135.902 71.18 134.609 71.18C133.556 71.18 132.609 70.9467 131.769 70.48C130.942 70 130.289 69.3333 129.809 68.48C129.342 67.6133 129.109 66.6133 129.109 65.48C129.109 64.3467 129.336 63.3533 129.789 62.5C130.256 61.6333 130.902 60.9667 131.729 60.5C132.569 60.0333 133.529 59.8 134.609 59.8C135.649 59.8 136.576 60.0267 137.389 60.48C138.202 60.9333 138.836 61.5733 139.289 62.4C139.742 63.2133 139.969 64.1533 139.969 65.22ZM137.589 64.5C137.576 63.66 137.276 62.9867 136.689 62.48C136.102 61.9733 135.376 61.72 134.509 61.72C133.722 61.72 133.049 61.9733 132.489 62.48C131.929 62.9733 131.596 63.6467 131.489 64.5H137.589ZM141.453 65.44C141.453 64.3333 141.68 63.3533 142.133 62.5C142.6 61.6467 143.226 60.9867 144.013 60.52C144.813 60.04 145.7 59.8 146.673 59.8C147.393 59.8 148.1 59.96 148.793 60.28C149.5 60.5867 150.06 61 150.473 61.52V56.2H152.773V71H150.473V69.34C150.1 69.8733 149.58 70.3133 148.913 70.66C148.26 71.0067 147.506 71.18 146.653 71.18C145.693 71.18 144.813 70.94 144.013 70.46C143.226 69.9667 142.6 69.2867 142.133 68.42C141.68 67.54 141.453 66.5467 141.453 65.44ZM150.473 65.48C150.473 64.72 150.313 64.06 149.993 63.5C149.686 62.94 149.28 62.5133 148.773 62.22C148.266 61.9267 147.72 61.78 147.133 61.78C146.546 61.78 146 61.9267 145.493 62.22C144.986 62.5 144.573 62.92 144.253 63.48C143.946 64.0267 143.793 64.68 143.793 65.44C143.793 66.2 143.946 66.8667 144.253 67.44C144.573 68.0133 144.986 68.4533 145.493 68.76C146.013 69.0533 146.56 69.2 147.133 69.2C147.72 69.2 148.266 69.0533 148.773 68.76C149.28 68.4667 149.686 68.04 149.993 67.48C150.313 66.9067 150.473 66.24 150.473 65.48ZM156.928 58.52C156.514 58.52 156.168 58.38 155.888 58.1C155.608 57.82 155.468 57.4733 155.468 57.06C155.468 56.6467 155.608 56.3 155.888 56.02C156.168 55.74 156.514 55.6 156.928 55.6C157.328 55.6 157.668 55.74 157.948 56.02C158.228 56.3 158.368 56.6467 158.368 57.06C158.368 57.4733 158.228 57.82 157.948 58.1C157.668 58.38 157.328 58.52 156.928 58.52ZM158.048 59.98V71H155.768V59.98H158.048ZM160.281 65.48C160.281 64.3467 160.508 63.3533 160.961 62.5C161.428 61.6333 162.068 60.9667 162.881 60.5C163.694 60.0333 164.628 59.8 165.681 59.8C167.014 59.8 168.114 60.12 168.981 60.76C169.861 61.3867 170.454 62.2867 170.761 63.46H168.301C168.101 62.9133 167.781 62.4867 167.341 62.18C166.901 61.8733 166.348 61.72 165.681 61.72C164.748 61.72 164.001 62.0533 163.441 62.72C162.894 63.3733 162.621 64.2933 162.621 65.48C162.621 66.6667 162.894 67.5933 163.441 68.26C164.001 68.9267 164.748 69.26 165.681 69.26C167.001 69.26 167.874 68.68 168.301 67.52H170.761C170.441 68.64 169.841 69.5333 168.961 70.2C168.081 70.8533 166.988 71.18 165.681 71.18C164.628 71.18 163.694 70.9467 162.881 70.48C162.068 70 161.428 69.3333 160.961 68.48C160.508 67.6133 160.281 66.6133 160.281 65.48ZM174.193 58.52C173.78 58.52 173.433 58.38 173.153 58.1C172.873 57.82 172.733 57.4733 172.733 57.06C172.733 56.6467 172.873 56.3 173.153 56.02C173.433 55.74 173.78 55.6 174.193 55.6C174.593 55.6 174.933 55.74 175.213 56.02C175.493 56.3 175.633 56.6467 175.633 57.06C175.633 57.4733 175.493 57.82 175.213 58.1C174.933 58.38 174.593 58.52 174.193 58.52ZM175.313 59.98V71H173.033V59.98H175.313ZM183.867 59.8C184.733 59.8 185.507 59.98 186.187 60.34C186.88 60.7 187.42 61.2333 187.807 61.94C188.193 62.6467 188.387 63.5 188.387 64.5V71H186.127V64.84C186.127 63.8533 185.88 63.1 185.387 62.58C184.893 62.0467 184.22 61.78 183.367 61.78C182.513 61.78 181.833 62.0467 181.327 62.58C180.833 63.1 180.587 63.8533 180.587 64.84V71H178.307V59.98H180.587V61.24C180.96 60.7867 181.433 60.4333 182.007 60.18C182.593 59.9267 183.213 59.8 183.867 59.8ZM201.395 65.22C201.395 65.6333 201.368 66.0067 201.315 66.34H192.895C192.962 67.22 193.288 67.9267 193.875 68.46C194.462 68.9933 195.182 69.26 196.035 69.26C197.262 69.26 198.128 68.7467 198.635 67.72H201.095C200.762 68.7333 200.155 69.5667 199.275 70.22C198.408 70.86 197.328 71.18 196.035 71.18C194.982 71.18 194.035 70.9467 193.195 70.48C192.368 70 191.715 69.3333 191.235 68.48C190.768 67.6133 190.535 66.6133 190.535 65.48C190.535 64.3467 190.762 63.3533 191.215 62.5C191.682 61.6333 192.328 60.9667 193.155 60.5C193.995 60.0333 194.955 59.8 196.035 59.8C197.075 59.8 198.002 60.0267 198.815 60.48C199.628 60.9333 200.262 61.5733 200.715 62.4C201.168 63.2133 201.395 64.1533 201.395 65.22ZM199.015 64.5C199.002 63.66 198.702 62.9867 198.115 62.48C197.528 61.9733 196.802 61.72 195.935 61.72C195.148 61.72 194.475 61.9733 193.915 62.48C193.355 62.9733 193.022 63.6467 192.915 64.5H199.015ZM215.174 71.14C213.881 71.14 212.687 70.84 211.594 70.24C210.514 69.6267 209.654 68.78 209.014 67.7C208.387 66.6067 208.074 65.38 208.074 64.02C208.074 62.66 208.387 61.44 209.014 60.36C209.654 59.28 210.514 58.44 211.594 57.84C212.687 57.2267 213.881 56.92 215.174 56.92C216.481 56.92 217.674 57.2267 218.754 57.84C219.847 58.44 220.707 59.28 221.334 60.36C221.961 61.44 222.274 62.66 222.274 64.02C222.274 65.38 221.961 66.6067 221.334 67.7C220.707 68.78 219.847 69.6267 218.754 70.24C217.674 70.84 216.481 71.14 215.174 71.14ZM215.174 69.16C216.094 69.16 216.914 68.9533 217.634 68.54C218.354 68.1133 218.914 67.5133 219.314 66.74C219.727 65.9533 219.934 65.0467 219.934 64.02C219.934 62.9933 219.727 62.0933 219.314 61.32C218.914 60.5467 218.354 59.9533 217.634 59.54C216.914 59.1267 216.094 58.92 215.174 58.92C214.254 58.92 213.434 59.1267 212.714 59.54C211.994 59.9533 211.427 60.5467 211.014 61.32C210.614 62.0933 210.414 62.9933 210.414 64.02C210.414 65.0467 210.614 65.9533 211.014 66.74C211.427 67.5133 211.994 68.1133 212.714 68.54C213.434 68.9533 214.254 69.16 215.174 69.16ZM226.798 61.58C227.131 61.02 227.571 60.5867 228.118 60.28C228.678 59.96 229.338 59.8 230.098 59.8V62.16H229.518C228.624 62.16 227.944 62.3867 227.478 62.84C227.024 63.2933 226.798 64.08 226.798 65.2V71H224.518V59.98H226.798V61.58ZM231.433 65.44C231.433 64.3333 231.66 63.3533 232.113 62.5C232.58 61.6467 233.207 60.9867 233.993 60.52C234.793 60.04 235.68 59.8 236.653 59.8C237.373 59.8 238.08 59.96 238.773 60.28C239.48 60.5867 240.04 61 240.453 61.52V56.2H242.753V71H240.453V69.34C240.08 69.8733 239.56 70.3133 238.893 70.66C238.24 71.0067 237.487 71.18 236.633 71.18C235.673 71.18 234.793 70.94 233.993 70.46C233.207 69.9667 232.58 69.2867 232.113 68.42C231.66 67.54 231.433 66.5467 231.433 65.44ZM240.453 65.48C240.453 64.72 240.293 64.06 239.973 63.5C239.667 62.94 239.26 62.5133 238.753 62.22C238.247 61.9267 237.7 61.78 237.113 61.78C236.527 61.78 235.98 61.9267 235.473 62.22C234.967 62.5 234.553 62.92 234.233 63.48C233.927 64.0267 233.773 64.68 233.773 65.44C233.773 66.2 233.927 66.8667 234.233 67.44C234.553 68.0133 234.967 68.4533 235.473 68.76C235.993 69.0533 236.54 69.2 237.113 69.2C237.7 69.2 238.247 69.0533 238.753 68.76C239.26 68.4667 239.667 68.04 239.973 67.48C240.293 66.9067 240.453 66.24 240.453 65.48ZM255.848 65.22C255.848 65.6333 255.821 66.0067 255.768 66.34H247.348C247.415 67.22 247.741 67.9267 248.328 68.46C248.915 68.9933 249.635 69.26 250.488 69.26C251.715 69.26 252.581 68.7467 253.088 67.72H255.548C255.215 68.7333 254.608 69.5667 253.728 70.22C252.861 70.86 251.781 71.18 250.488 71.18C249.435 71.18 248.488 70.9467 247.648 70.48C246.821 70 246.168 69.3333 245.688 68.48C245.221 67.6133 244.988 66.6133 244.988 65.48C244.988 64.3467 245.215 63.3533 245.668 62.5C246.135 61.6333 246.781 60.9667 247.608 60.5C248.448 60.0333 249.408 59.8 250.488 59.8C251.528 59.8 252.455 60.0267 253.268 60.48C254.081 60.9333 254.715 61.5733 255.168 62.4C255.621 63.2133 255.848 64.1533 255.848 65.22ZM253.468 64.5C253.455 63.66 253.155 62.9867 252.568 62.48C251.981 61.9733 251.255 61.72 250.388 61.72C249.601 61.72 248.928 61.9733 248.368 62.48C247.808 62.9733 247.475 63.6467 247.368 64.5H253.468ZM260.372 61.58C260.705 61.02 261.145 60.5867 261.692 60.28C262.252 59.96 262.912 59.8 263.672 59.8V62.16H263.092C262.198 62.16 261.518 62.3867 261.052 62.84C260.598 63.2933 260.372 64.08 260.372 65.2V71H258.092V59.98H260.372V61.58Z" fill="#14161A"/>
<rect x="349.5" y="83.5" width="39" height="39" rx="9.5" transform="rotate(180 349.5 83.5)" stroke="#F0F0F0"/>
<g clip-path="url(#clip0_327_6410)">
<path d="M330 56.5C329.083 56.5 328.333 57.25 328.333 58.1667C328.333 59.0833 329.083 59.8333 330 59.8333C330.917 59.8333 331.667 59.0833 331.667 58.1667C331.667 57.25 330.917 56.5 330 56.5ZM330 68.1667C329.083 68.1667 328.333 68.9167 328.333 69.8333C328.333 70.75 329.083 71.5 330 71.5C330.917 71.5 331.667 70.75 331.667 69.8333C331.667 68.9167 330.917 68.1667 330 68.1667ZM330 62.3333C329.083 62.3333 328.333 63.0833 328.333 64C328.333 64.9167 329.083 65.6667 330 65.6667C330.917 65.6667 331.667 64.9167 331.667 64C331.667 63.0833 330.917 62.3333 330 62.3333Z" fill="#AAAAAA"/>
</g>
<defs>
<clipPath id="clip0_327_6410">
<rect x="320" y="54" width="20" height="20" rx="10" fill="white"/>
</clipPath>
</defs>
</svg>
