<svg width="375" height="812" viewBox="0 0 375 812" fill="none" xmlns="http://www.w3.org/2000/svg">
<g clip-path="url(#clip0_327_6783)">
<rect width="375" height="812" fill="white"/>
<g filter="url(#filter0_d_327_6783)">
<rect x="322" y="683" width="282" height="95" rx="12" fill="white"/>
<rect x="332" y="693" width="75" height="75" rx="8"/>
</g>
<g filter="url(#filter1_d_327_6783)">
<rect x="25" y="683" width="282" height="95" rx="12" fill="white"/>
<path d="M121.58 730.388C121.404 729.5 120.856 729.056 119.936 729.056C119.224 729.056 118.692 729.332 118.34 729.884C117.988 730.428 117.816 731.328 117.824 732.584C118.008 732.168 118.312 731.844 118.736 731.612C119.168 731.372 119.648 731.252 120.176 731.252C121 731.252 121.656 731.508 122.144 732.02C122.64 732.532 122.888 733.24 122.888 734.144C122.888 734.688 122.78 735.176 122.564 735.608C122.356 736.04 122.036 736.384 121.604 736.64C121.18 736.896 120.664 737.024 120.056 737.024C119.232 737.024 118.588 736.84 118.124 736.472C117.66 736.104 117.336 735.596 117.152 734.948C116.968 734.3 116.876 733.5 116.876 732.548C116.876 729.612 117.9 728.144 119.948 728.144C120.732 728.144 121.348 728.356 121.796 728.78C122.244 729.204 122.508 729.74 122.588 730.388H121.58ZM119.948 732.176C119.604 732.176 119.28 732.248 118.976 732.392C118.672 732.528 118.424 732.74 118.232 733.028C118.048 733.308 117.956 733.652 117.956 734.06C117.956 734.668 118.132 735.164 118.484 735.548C118.836 735.924 119.34 736.112 119.996 736.112C120.556 736.112 121 735.94 121.328 735.596C121.664 735.244 121.832 734.772 121.832 734.18C121.832 733.556 121.672 733.068 121.352 732.716C121.032 732.356 120.564 732.176 119.948 732.176ZM133.025 728.696V737H131.933V730.808L129.173 737H128.405L125.633 730.796V737H124.541V728.696H125.717L128.789 735.56L131.861 728.696H133.025ZM141.213 731.06C140.981 730.572 140.645 730.196 140.205 729.932C139.765 729.66 139.253 729.524 138.669 729.524C138.085 729.524 137.557 729.66 137.085 729.932C136.621 730.196 136.253 730.58 135.981 731.084C135.717 731.58 135.585 732.156 135.585 732.812C135.585 733.468 135.717 734.044 135.981 734.54C136.253 735.036 136.621 735.42 137.085 735.692C137.557 735.956 138.085 736.088 138.669 736.088C139.485 736.088 140.157 735.844 140.685 735.356C141.213 734.868 141.521 734.208 141.609 733.376H138.273V732.488H142.773V733.328C142.709 734.016 142.493 734.648 142.125 735.224C141.757 735.792 141.273 736.244 140.673 736.58C140.073 736.908 139.405 737.072 138.669 737.072C137.893 737.072 137.185 736.892 136.545 736.532C135.905 736.164 135.397 735.656 135.021 735.008C134.653 734.36 134.469 733.628 134.469 732.812C134.469 731.996 134.653 731.264 135.021 730.616C135.397 729.96 135.905 729.452 136.545 729.092C137.185 728.724 137.893 728.54 138.669 728.54C139.557 728.54 140.341 728.76 141.021 729.2C141.709 729.64 142.209 730.26 142.521 731.06H141.213ZM149.569 729.272H145.357V732.008C145.541 731.752 145.813 731.544 146.173 731.384C146.533 731.216 146.921 731.132 147.337 731.132C148.001 731.132 148.541 731.272 148.957 731.552C149.373 731.824 149.669 732.18 149.845 732.62C150.029 733.052 150.121 733.512 150.121 734C150.121 734.576 150.013 735.092 149.797 735.548C149.581 736.004 149.249 736.364 148.801 736.628C148.361 736.892 147.813 737.024 147.157 737.024C146.317 737.024 145.637 736.808 145.117 736.376C144.597 735.944 144.281 735.368 144.169 734.648H145.237C145.341 735.104 145.561 735.46 145.897 735.716C146.233 735.972 146.657 736.1 147.169 736.1C147.801 736.1 148.277 735.912 148.597 735.536C148.917 735.152 149.077 734.648 149.077 734.024C149.077 733.4 148.917 732.92 148.597 732.584C148.277 732.24 147.805 732.068 147.181 732.068C146.757 732.068 146.385 732.172 146.065 732.38C145.753 732.58 145.525 732.856 145.381 733.208H144.349V728.312H149.569V729.272ZM157.992 733.076H155.436V735.668H154.416V733.076H151.872V732.152H154.416V729.548H155.436V732.152H157.992V733.076ZM166.652 738.584L164.984 736.916C164.576 737.028 164.16 737.084 163.736 737.084C162.96 737.084 162.252 736.904 161.612 736.544C160.972 736.176 160.464 735.668 160.088 735.02C159.72 734.364 159.536 733.628 159.536 732.812C159.536 731.996 159.72 731.264 160.088 730.616C160.464 729.96 160.972 729.452 161.612 729.092C162.252 728.724 162.96 728.54 163.736 728.54C164.52 728.54 165.232 728.724 165.872 729.092C166.512 729.452 167.016 729.956 167.384 730.604C167.752 731.252 167.936 731.988 167.936 732.812C167.936 733.612 167.76 734.332 167.408 734.972C167.056 735.612 166.572 736.116 165.956 736.484L168.068 738.584H166.652ZM160.652 732.812C160.652 733.476 160.784 734.06 161.048 734.564C161.32 735.068 161.688 735.456 162.152 735.728C162.624 736 163.152 736.136 163.736 736.136C164.32 736.136 164.844 736 165.308 735.728C165.78 735.456 166.148 735.068 166.412 734.564C166.684 734.06 166.82 733.476 166.82 732.812C166.82 732.14 166.684 731.556 166.412 731.06C166.148 730.556 165.784 730.168 165.32 729.896C164.856 729.624 164.328 729.488 163.736 729.488C163.144 729.488 162.616 729.624 162.152 729.896C161.688 730.168 161.32 730.556 161.048 731.06C160.784 731.556 160.652 732.14 160.652 732.812ZM179.913 728.636L177.489 737H176.265L174.321 730.268L172.305 737L171.093 737.012L168.753 728.636H169.917L171.741 735.728L173.757 728.636H174.981L176.901 735.704L178.737 728.636H179.913ZM187.444 731.06C187.212 730.572 186.876 730.196 186.436 729.932C185.996 729.66 185.484 729.524 184.9 729.524C184.316 729.524 183.788 729.66 183.316 729.932C182.852 730.196 182.484 730.58 182.212 731.084C181.948 731.58 181.816 732.156 181.816 732.812C181.816 733.468 181.948 734.044 182.212 734.54C182.484 735.036 182.852 735.42 183.316 735.692C183.788 735.956 184.316 736.088 184.9 736.088C185.716 736.088 186.388 735.844 186.916 735.356C187.444 734.868 187.752 734.208 187.84 733.376H184.504V732.488H189.004V733.328C188.94 734.016 188.724 734.648 188.356 735.224C187.988 735.792 187.504 736.244 186.904 736.58C186.304 736.908 185.636 737.072 184.9 737.072C184.124 737.072 183.416 736.892 182.776 736.532C182.136 736.164 181.628 735.656 181.252 735.008C180.884 734.36 180.7 733.628 180.7 732.812C180.7 731.996 180.884 731.264 181.252 730.616C181.628 729.96 182.136 729.452 182.776 729.092C183.416 728.724 184.124 728.54 184.9 728.54C185.788 728.54 186.572 728.76 187.252 729.2C187.94 729.64 188.44 730.26 188.752 731.06H187.444ZM191.575 735.488L190.231 738.716H189.499L190.375 735.488H191.575ZM198.678 737.084C198.126 737.084 197.63 736.988 197.19 736.796C196.758 736.596 196.418 736.324 196.17 735.98C195.922 735.628 195.794 735.224 195.786 734.768H196.95C196.99 735.16 197.15 735.492 197.43 735.764C197.718 736.028 198.134 736.16 198.678 736.16C199.198 736.16 199.606 736.032 199.902 735.776C200.206 735.512 200.358 735.176 200.358 734.768C200.358 734.448 200.27 734.188 200.094 733.988C199.918 733.788 199.698 733.636 199.434 733.532C199.17 733.428 198.814 733.316 198.366 733.196C197.814 733.052 197.37 732.908 197.034 732.764C196.706 732.62 196.422 732.396 196.182 732.092C195.95 731.78 195.834 731.364 195.834 730.844C195.834 730.388 195.95 729.984 196.182 729.632C196.414 729.28 196.738 729.008 197.154 728.816C197.578 728.624 198.062 728.528 198.606 728.528C199.39 728.528 200.03 728.724 200.526 729.116C201.03 729.508 201.314 730.028 201.378 730.676H200.178C200.138 730.356 199.97 730.076 199.674 729.836C199.378 729.588 198.986 729.464 198.498 729.464C198.042 729.464 197.67 729.584 197.382 729.824C197.094 730.056 196.95 730.384 196.95 730.808C196.95 731.112 197.034 731.36 197.202 731.552C197.378 731.744 197.59 731.892 197.838 731.996C198.094 732.092 198.45 732.204 198.906 732.332C199.458 732.484 199.902 732.636 200.238 732.788C200.574 732.932 200.862 733.16 201.102 733.472C201.342 733.776 201.462 734.192 201.462 734.72C201.462 735.128 201.354 735.512 201.138 735.872C200.922 736.232 200.602 736.524 200.178 736.748C199.754 736.972 199.254 737.084 198.678 737.084ZM204.401 731.324V735.2C204.401 735.52 204.469 735.748 204.605 735.884C204.741 736.012 204.977 736.076 205.313 736.076H206.117V737H205.133C204.525 737 204.069 736.86 203.765 736.58C203.461 736.3 203.309 735.84 203.309 735.2V731.324H202.457V730.424H203.309V728.768H204.401V730.424H206.117V731.324H204.401ZM207.032 733.688C207.032 733.016 207.168 732.428 207.44 731.924C207.712 731.412 208.084 731.016 208.556 730.736C209.036 730.456 209.568 730.316 210.152 730.316C210.728 730.316 211.228 730.44 211.652 730.688C212.076 730.936 212.392 731.248 212.6 731.624V730.424H213.704V737H212.6V735.776C212.384 736.16 212.06 736.48 211.628 736.736C211.204 736.984 210.708 737.108 210.14 737.108C209.556 737.108 209.028 736.964 208.556 736.676C208.084 736.388 207.712 735.984 207.44 735.464C207.168 734.944 207.032 734.352 207.032 733.688ZM212.6 733.7C212.6 733.204 212.5 732.772 212.3 732.404C212.1 732.036 211.828 731.756 211.484 731.564C211.148 731.364 210.776 731.264 210.368 731.264C209.96 731.264 209.588 731.36 209.252 731.552C208.916 731.744 208.648 732.024 208.448 732.392C208.248 732.76 208.148 733.192 208.148 733.688C208.148 734.192 208.248 734.632 208.448 735.008C208.648 735.376 208.916 735.66 209.252 735.86C209.588 736.052 209.96 736.148 210.368 736.148C210.776 736.148 211.148 736.052 211.484 735.86C211.828 735.66 212.1 735.376 212.3 735.008C212.5 734.632 212.6 734.196 212.6 733.7ZM215.141 733.688C215.141 733.016 215.277 732.428 215.549 731.924C215.821 731.412 216.193 731.016 216.665 730.736C217.145 730.456 217.681 730.316 218.273 730.316C218.785 730.316 219.261 730.436 219.701 730.676C220.141 730.908 220.477 731.216 220.709 731.6V728.12H221.813V737H220.709V735.764C220.493 736.156 220.173 736.48 219.749 736.736C219.325 736.984 218.829 737.108 218.261 737.108C217.677 737.108 217.145 736.964 216.665 736.676C216.193 736.388 215.821 735.984 215.549 735.464C215.277 734.944 215.141 734.352 215.141 733.688ZM220.709 733.7C220.709 733.204 220.609 732.772 220.409 732.404C220.209 732.036 219.937 731.756 219.593 731.564C219.257 731.364 218.885 731.264 218.477 731.264C218.069 731.264 217.697 731.36 217.361 731.552C217.025 731.744 216.757 732.024 216.557 732.392C216.357 732.76 216.257 733.192 216.257 733.688C216.257 734.192 216.357 734.632 216.557 735.008C216.757 735.376 217.025 735.66 217.361 735.86C217.697 736.052 218.069 736.148 218.477 736.148C218.885 736.148 219.257 736.052 219.593 735.86C219.937 735.66 220.209 735.376 220.409 735.008C220.609 734.632 220.709 734.196 220.709 733.7ZM224.222 729.356C224.014 729.356 223.838 729.284 223.694 729.14C223.55 728.996 223.478 728.82 223.478 728.612C223.478 728.404 223.55 728.228 223.694 728.084C223.838 727.94 224.014 727.868 224.222 727.868C224.422 727.868 224.59 727.94 224.726 728.084C224.87 728.228 224.942 728.404 224.942 728.612C224.942 728.82 224.87 728.996 224.726 729.14C224.59 729.284 224.422 729.356 224.222 729.356ZM224.75 730.424V737H223.658V730.424H224.75ZM232.444 730.424V737H231.352V736.028C231.144 736.364 230.852 736.628 230.476 736.82C230.108 737.004 229.7 737.096 229.252 737.096C228.74 737.096 228.28 736.992 227.872 736.784C227.464 736.568 227.14 736.248 226.9 735.824C226.668 735.4 226.552 734.884 226.552 734.276V730.424H227.632V734.132C227.632 734.78 227.796 735.28 228.124 735.632C228.452 735.976 228.9 736.148 229.468 736.148C230.052 736.148 230.512 735.968 230.848 735.608C231.184 735.248 231.352 734.724 231.352 734.036V730.424H232.444ZM242.195 730.304C242.707 730.304 243.163 730.412 243.563 730.628C243.963 730.836 244.279 731.152 244.511 731.576C244.743 732 244.859 732.516 244.859 733.124V737H243.779V733.28C243.779 732.624 243.615 732.124 243.287 731.78C242.967 731.428 242.531 731.252 241.979 731.252C241.411 731.252 240.959 731.436 240.623 731.804C240.287 732.164 240.119 732.688 240.119 733.376V737H239.039V733.28C239.039 732.624 238.875 732.124 238.547 731.78C238.227 731.428 237.791 731.252 237.239 731.252C236.671 731.252 236.219 731.436 235.883 731.804C235.547 732.164 235.379 732.688 235.379 733.376V737H234.287V730.424H235.379V731.372C235.595 731.028 235.883 730.764 236.243 730.58C236.611 730.396 237.015 730.304 237.455 730.304C238.007 730.304 238.495 730.428 238.919 730.676C239.343 730.924 239.659 731.288 239.867 731.768C240.051 731.304 240.355 730.944 240.779 730.688C241.203 730.432 241.675 730.304 242.195 730.304ZM254.254 737L252.262 733.58H250.942V737H249.85V728.636H252.55C253.182 728.636 253.714 728.744 254.146 728.96C254.586 729.176 254.914 729.468 255.13 729.836C255.346 730.204 255.454 730.624 255.454 731.096C255.454 731.672 255.286 732.18 254.95 732.62C254.622 733.06 254.126 733.352 253.462 733.496L255.562 737H254.254ZM250.942 732.704H252.55C253.142 732.704 253.586 732.56 253.882 732.272C254.178 731.976 254.326 731.584 254.326 731.096C254.326 730.6 254.178 730.216 253.882 729.944C253.594 729.672 253.15 729.536 252.55 729.536H250.942V732.704ZM256.743 733.688C256.743 733.016 256.879 732.428 257.151 731.924C257.423 731.412 257.795 731.016 258.267 730.736C258.747 730.456 259.283 730.316 259.875 730.316C260.387 730.316 260.863 730.436 261.303 730.676C261.743 730.908 262.079 731.216 262.311 731.6V728.12H263.415V737H262.311V735.764C262.095 736.156 261.775 736.48 261.351 736.736C260.927 736.984 260.431 737.108 259.863 737.108C259.279 737.108 258.747 736.964 258.267 736.676C257.795 736.388 257.423 735.984 257.151 735.464C256.879 734.944 256.743 734.352 256.743 733.688ZM262.311 733.7C262.311 733.204 262.211 732.772 262.011 732.404C261.811 732.036 261.539 731.756 261.195 731.564C260.859 731.364 260.487 731.264 260.079 731.264C259.671 731.264 259.299 731.36 258.963 731.552C258.627 731.744 258.359 732.024 258.159 732.392C257.959 732.76 257.859 733.192 257.859 733.688C257.859 734.192 257.959 734.632 258.159 735.008C258.359 735.376 258.627 735.66 258.963 735.86C259.299 736.052 259.671 736.148 260.079 736.148C260.487 736.148 260.859 736.052 261.195 735.86C261.539 735.66 261.811 735.376 262.011 735.008C262.211 734.632 262.311 734.196 262.311 733.7ZM265.608 737.072C265.4 737.072 265.224 737 265.08 736.856C264.936 736.712 264.864 736.536 264.864 736.328C264.864 736.12 264.936 735.944 265.08 735.8C265.224 735.656 265.4 735.584 265.608 735.584C265.808 735.584 265.976 735.656 266.112 735.8C266.256 735.944 266.328 736.12 266.328 736.328C266.328 736.536 266.256 736.712 266.112 736.856C265.976 737 265.808 737.072 265.608 737.072Z" fill="#666666"/>
<path d="M120.716 758.084C119.94 758.084 119.232 757.904 118.592 757.544C117.952 757.176 117.444 756.668 117.068 756.02C116.7 755.364 116.516 754.628 116.516 753.812C116.516 752.996 116.7 752.264 117.068 751.616C117.444 750.96 117.952 750.452 118.592 750.092C119.232 749.724 119.94 749.54 120.716 749.54C121.5 749.54 122.212 749.724 122.852 750.092C123.492 750.452 123.996 750.956 124.364 751.604C124.732 752.252 124.916 752.988 124.916 753.812C124.916 754.636 124.732 755.372 124.364 756.02C123.996 756.668 123.492 757.176 122.852 757.544C122.212 757.904 121.5 758.084 120.716 758.084ZM120.716 757.136C121.3 757.136 121.824 757 122.288 756.728C122.76 756.456 123.128 756.068 123.392 755.564C123.664 755.06 123.8 754.476 123.8 753.812C123.8 753.14 123.664 752.556 123.392 752.06C123.128 751.556 122.764 751.168 122.3 750.896C121.836 750.624 121.308 750.488 120.716 750.488C120.124 750.488 119.596 750.624 119.132 750.896C118.668 751.168 118.3 751.556 118.028 752.06C117.764 752.556 117.632 753.14 117.632 753.812C117.632 754.476 117.764 755.06 118.028 755.564C118.3 756.068 118.668 756.456 119.132 756.728C119.604 757 120.132 757.136 120.716 757.136ZM127.45 752.636C127.666 752.26 127.986 751.948 128.41 751.7C128.842 751.444 129.342 751.316 129.91 751.316C130.494 751.316 131.022 751.456 131.494 751.736C131.974 752.016 132.35 752.412 132.622 752.924C132.894 753.428 133.03 754.016 133.03 754.688C133.03 755.352 132.894 755.944 132.622 756.464C132.35 756.984 131.974 757.388 131.494 757.676C131.022 757.964 130.494 758.108 129.91 758.108C129.35 758.108 128.854 757.984 128.422 757.736C127.998 757.48 127.674 757.164 127.45 756.788V761.12H126.358V751.424H127.45V752.636ZM131.914 754.688C131.914 754.192 131.814 753.76 131.614 753.392C131.414 753.024 131.142 752.744 130.798 752.552C130.462 752.36 130.09 752.264 129.682 752.264C129.282 752.264 128.91 752.364 128.566 752.564C128.23 752.756 127.958 753.04 127.75 753.416C127.55 753.784 127.45 754.212 127.45 754.7C127.45 755.196 127.55 755.632 127.75 756.008C127.958 756.376 128.23 756.66 128.566 756.86C128.91 757.052 129.282 757.148 129.682 757.148C130.09 757.148 130.462 757.052 130.798 756.86C131.142 756.66 131.414 756.376 131.614 756.008C131.814 755.632 131.914 755.192 131.914 754.688ZM140.467 754.46C140.467 754.668 140.455 754.888 140.431 755.12H135.175C135.215 755.768 135.435 756.276 135.835 756.644C136.243 757.004 136.735 757.184 137.311 757.184C137.783 757.184 138.175 757.076 138.487 756.86C138.807 756.636 139.031 756.34 139.159 755.972H140.335C140.159 756.604 139.807 757.12 139.279 757.52C138.751 757.912 138.095 758.108 137.311 758.108C136.687 758.108 136.127 757.968 135.631 757.688C135.143 757.408 134.759 757.012 134.479 756.5C134.199 755.98 134.059 755.38 134.059 754.7C134.059 754.02 134.195 753.424 134.467 752.912C134.739 752.4 135.119 752.008 135.607 751.736C136.103 751.456 136.671 751.316 137.311 751.316C137.935 751.316 138.487 751.452 138.967 751.724C139.447 751.996 139.815 752.372 140.071 752.852C140.335 753.324 140.467 753.86 140.467 754.46ZM139.339 754.232C139.339 753.816 139.247 753.46 139.063 753.164C138.879 752.86 138.627 752.632 138.307 752.48C137.995 752.32 137.647 752.24 137.263 752.24C136.711 752.24 136.239 752.416 135.847 752.768C135.463 753.12 135.243 753.608 135.187 754.232H139.339ZM145.112 751.304C145.912 751.304 146.56 751.548 147.056 752.036C147.552 752.516 147.8 753.212 147.8 754.124V758H146.72V754.28C146.72 753.624 146.556 753.124 146.228 752.78C145.9 752.428 145.452 752.252 144.884 752.252C144.308 752.252 143.848 752.432 143.504 752.792C143.168 753.152 143 753.676 143 754.364V758H141.908V751.424H143V752.36C143.216 752.024 143.508 751.764 143.876 751.58C144.252 751.396 144.664 751.304 145.112 751.304ZM152.471 757.124C153.487 756.308 154.283 755.64 154.859 755.12C155.435 754.592 155.919 754.044 156.311 753.476C156.711 752.9 156.911 752.336 156.911 751.784C156.911 751.264 156.783 750.856 156.527 750.56C156.279 750.256 155.875 750.104 155.315 750.104C154.771 750.104 154.347 750.276 154.043 750.62C153.747 750.956 153.587 751.408 153.563 751.976H152.507C152.539 751.08 152.811 750.388 153.323 749.9C153.835 749.412 154.495 749.168 155.303 749.168C156.127 749.168 156.779 749.396 157.259 749.852C157.747 750.308 157.991 750.936 157.991 751.736C157.991 752.4 157.791 753.048 157.391 753.68C156.999 754.304 156.551 754.856 156.047 755.336C155.543 755.808 154.899 756.36 154.115 756.992H158.243V757.904H152.471V757.124ZM159.242 756.068V755.24L163.454 749.408H164.762V755.12H165.962V756.068H164.762V758H163.682V756.068H159.242ZM163.73 750.548L160.502 755.12H163.73V750.548ZM176.876 749.636V758H175.784V754.208H171.524V758H170.432V749.636H171.524V753.308H175.784V749.636H176.876ZM181.608 758.108C180.992 758.108 180.432 757.968 179.928 757.688C179.432 757.408 179.04 757.012 178.752 756.5C178.472 755.98 178.332 755.38 178.332 754.7C178.332 754.028 178.476 753.436 178.764 752.924C179.06 752.404 179.46 752.008 179.964 751.736C180.468 751.456 181.032 751.316 181.656 751.316C182.28 751.316 182.844 751.456 183.348 751.736C183.852 752.008 184.248 752.4 184.536 752.912C184.832 753.424 184.98 754.02 184.98 754.7C184.98 755.38 184.828 755.98 184.524 756.5C184.228 757.012 183.824 757.408 183.312 757.688C182.8 757.968 182.232 758.108 181.608 758.108ZM181.608 757.148C182 757.148 182.368 757.056 182.712 756.872C183.056 756.688 183.332 756.412 183.54 756.044C183.756 755.676 183.864 755.228 183.864 754.7C183.864 754.172 183.76 753.724 183.552 753.356C183.344 752.988 183.072 752.716 182.736 752.54C182.4 752.356 182.036 752.264 181.644 752.264C181.244 752.264 180.876 752.356 180.54 752.54C180.212 752.716 179.948 752.988 179.748 753.356C179.548 753.724 179.448 754.172 179.448 754.7C179.448 755.236 179.544 755.688 179.736 756.056C179.936 756.424 180.2 756.7 180.528 756.884C180.856 757.06 181.216 757.148 181.608 757.148ZM192.248 751.424V758H191.156V757.028C190.948 757.364 190.656 757.628 190.28 757.82C189.912 758.004 189.504 758.096 189.056 758.096C188.544 758.096 188.084 757.992 187.676 757.784C187.268 757.568 186.944 757.248 186.704 756.824C186.472 756.4 186.356 755.884 186.356 755.276V751.424H187.436V755.132C187.436 755.78 187.6 756.28 187.928 756.632C188.256 756.976 188.704 757.148 189.272 757.148C189.856 757.148 190.316 756.968 190.652 756.608C190.988 756.248 191.156 755.724 191.156 755.036V751.424H192.248ZM195.184 752.492C195.376 752.116 195.648 751.824 196 751.616C196.36 751.408 196.796 751.304 197.308 751.304V752.432H197.02C195.796 752.432 195.184 753.096 195.184 754.424V758H194.092V751.424H195.184V752.492ZM200.897 758.108C200.393 758.108 199.941 758.024 199.541 757.856C199.141 757.68 198.825 757.44 198.593 757.136C198.361 756.824 198.233 756.468 198.209 756.068H199.337C199.369 756.396 199.521 756.664 199.793 756.872C200.073 757.08 200.437 757.184 200.885 757.184C201.301 757.184 201.629 757.092 201.869 756.908C202.109 756.724 202.229 756.492 202.229 756.212C202.229 755.924 202.101 755.712 201.845 755.576C201.589 755.432 201.193 755.292 200.657 755.156C200.169 755.028 199.769 754.9 199.457 754.772C199.153 754.636 198.889 754.44 198.665 754.184C198.449 753.92 198.341 753.576 198.341 753.152C198.341 752.816 198.441 752.508 198.641 752.228C198.841 751.948 199.125 751.728 199.493 751.568C199.861 751.4 200.281 751.316 200.753 751.316C201.481 751.316 202.069 751.5 202.517 751.868C202.965 752.236 203.205 752.74 203.237 753.38H202.145C202.121 753.036 201.981 752.76 201.725 752.552C201.477 752.344 201.141 752.24 200.717 752.24C200.325 752.24 200.013 752.324 199.781 752.492C199.549 752.66 199.433 752.88 199.433 753.152C199.433 753.368 199.501 753.548 199.637 753.692C199.781 753.828 199.957 753.94 200.165 754.028C200.381 754.108 200.677 754.2 201.053 754.304C201.525 754.432 201.909 754.56 202.205 754.688C202.501 754.808 202.753 754.992 202.961 755.24C203.177 755.488 203.289 755.812 203.297 756.212C203.297 756.572 203.197 756.896 202.997 757.184C202.797 757.472 202.513 757.7 202.145 757.868C201.785 758.028 201.369 758.108 200.897 758.108Z" fill="#0065FF"/>
<path d="M116.592 709.416C116.592 708.328 116.843 707.352 117.344 706.488C117.856 705.624 118.544 704.952 119.408 704.472C120.283 703.981 121.237 703.736 122.272 703.736C123.456 703.736 124.507 704.029 125.424 704.616C126.352 705.192 127.024 706.013 127.44 707.08H125.248C124.96 706.493 124.56 706.056 124.048 705.768C123.536 705.48 122.944 705.336 122.272 705.336C121.536 705.336 120.88 705.501 120.304 705.832C119.728 706.163 119.275 706.637 118.944 707.256C118.624 707.875 118.464 708.595 118.464 709.416C118.464 710.237 118.624 710.957 118.944 711.576C119.275 712.195 119.728 712.675 120.304 713.016C120.88 713.347 121.536 713.512 122.272 713.512C122.944 713.512 123.536 713.368 124.048 713.08C124.56 712.792 124.96 712.355 125.248 711.768H127.44C127.024 712.835 126.352 713.656 125.424 714.232C124.507 714.808 123.456 715.096 122.272 715.096C121.227 715.096 120.272 714.856 119.408 714.376C118.544 713.885 117.856 713.208 117.344 712.344C116.843 711.48 116.592 710.504 116.592 709.416ZM137.655 710.376C137.655 710.707 137.634 711.005 137.591 711.272H130.855C130.908 711.976 131.17 712.541 131.639 712.968C132.108 713.395 132.684 713.608 133.367 713.608C134.348 713.608 135.042 713.197 135.447 712.376H137.415C137.148 713.187 136.663 713.853 135.959 714.376C135.266 714.888 134.402 715.144 133.367 715.144C132.524 715.144 131.767 714.957 131.095 714.584C130.434 714.2 129.911 713.667 129.527 712.984C129.154 712.291 128.967 711.491 128.967 710.584C128.967 709.677 129.148 708.883 129.511 708.2C129.884 707.507 130.402 706.973 131.063 706.6C131.735 706.227 132.503 706.04 133.367 706.04C134.199 706.04 134.94 706.221 135.591 706.584C136.242 706.947 136.748 707.459 137.111 708.12C137.474 708.771 137.655 709.523 137.655 710.376ZM135.751 709.8C135.74 709.128 135.5 708.589 135.031 708.184C134.562 707.779 133.98 707.576 133.287 707.576C132.658 707.576 132.119 707.779 131.671 708.184C131.223 708.579 130.956 709.117 130.871 709.8H135.751ZM143.898 706.04C144.591 706.04 145.21 706.184 145.754 706.472C146.309 706.76 146.741 707.187 147.05 707.752C147.359 708.317 147.514 709 147.514 709.8V715H145.706V710.072C145.706 709.283 145.509 708.68 145.114 708.264C144.719 707.837 144.181 707.624 143.498 707.624C142.815 707.624 142.271 707.837 141.866 708.264C141.471 708.68 141.274 709.283 141.274 710.072V715H139.45V706.184H141.274V707.192C141.573 706.829 141.951 706.547 142.41 706.344C142.879 706.141 143.375 706.04 143.898 706.04ZM151.969 707.672V712.552C151.969 712.883 152.043 713.123 152.193 713.272C152.353 713.411 152.619 713.48 152.993 713.48H154.113V715H152.673C151.851 715 151.222 714.808 150.785 714.424C150.347 714.04 150.129 713.416 150.129 712.552V707.672H149.089V706.184H150.129V703.992H151.969V706.184H154.113V707.672H151.969ZM163.874 710.376C163.874 710.707 163.852 711.005 163.81 711.272H157.074C157.127 711.976 157.388 712.541 157.858 712.968C158.327 713.395 158.903 713.608 159.586 713.608C160.567 713.608 161.26 713.197 161.666 712.376H163.634C163.367 713.187 162.882 713.853 162.178 714.376C161.484 714.888 160.62 715.144 159.586 715.144C158.743 715.144 157.986 714.957 157.314 714.584C156.652 714.2 156.13 713.667 155.746 712.984C155.372 712.291 155.186 711.491 155.186 710.584C155.186 709.677 155.367 708.883 155.73 708.2C156.103 707.507 156.62 706.973 157.282 706.6C157.954 706.227 158.722 706.04 159.586 706.04C160.418 706.04 161.159 706.221 161.81 706.584C162.46 706.947 162.967 707.459 163.33 708.12C163.692 708.771 163.874 709.523 163.874 710.376ZM161.97 709.8C161.959 709.128 161.719 708.589 161.25 708.184C160.78 707.779 160.199 707.576 159.506 707.576C158.876 707.576 158.338 707.779 157.89 708.184C157.442 708.579 157.175 709.117 157.09 709.8H161.97ZM167.493 707.464C167.759 707.016 168.111 706.669 168.549 706.424C168.997 706.168 169.525 706.04 170.133 706.04V707.928H169.669C168.954 707.928 168.41 708.109 168.037 708.472C167.674 708.835 167.493 709.464 167.493 710.36V715H165.669V706.184H167.493V707.464ZM183.742 707.192C183.742 707.757 183.608 708.291 183.342 708.792C183.075 709.293 182.648 709.704 182.062 710.024C181.475 710.333 180.723 710.488 179.806 710.488H177.79V715H175.966V703.88H179.806C180.659 703.88 181.379 704.029 181.966 704.328C182.563 704.616 183.006 705.011 183.294 705.512C183.592 706.013 183.742 706.573 183.742 707.192ZM179.806 709C180.499 709 181.016 708.845 181.358 708.536C181.699 708.216 181.87 707.768 181.87 707.192C181.87 705.976 181.182 705.368 179.806 705.368H177.79V709H179.806ZM190.041 706.04C190.713 706.04 191.311 706.184 191.833 706.472C192.367 706.76 192.783 707.187 193.081 707.752C193.391 708.317 193.545 709 193.545 709.8V715H191.737V710.072C191.737 709.283 191.54 708.68 191.145 708.264C190.751 707.837 190.212 707.624 189.529 707.624C188.847 707.624 188.303 707.837 187.897 708.264C187.503 708.68 187.305 709.283 187.305 710.072V715H185.481V703.16H187.305V707.208C187.615 706.835 188.004 706.547 188.473 706.344C188.953 706.141 189.476 706.04 190.041 706.04ZM195.264 710.552C195.264 709.667 195.445 708.883 195.808 708.2C196.181 707.517 196.683 706.989 197.312 706.616C197.952 706.232 198.656 706.04 199.424 706.04C200.117 706.04 200.72 706.179 201.232 706.456C201.755 706.723 202.171 707.059 202.48 707.464V706.184H204.32V715H202.48V713.688C202.171 714.104 201.749 714.451 201.216 714.728C200.683 715.005 200.075 715.144 199.392 715.144C198.635 715.144 197.941 714.952 197.312 714.568C196.683 714.173 196.181 713.629 195.808 712.936C195.445 712.232 195.264 711.437 195.264 710.552ZM202.48 710.584C202.48 709.976 202.352 709.448 202.096 709C201.851 708.552 201.525 708.211 201.12 707.976C200.715 707.741 200.277 707.624 199.808 707.624C199.339 707.624 198.901 707.741 198.496 707.976C198.091 708.2 197.76 708.536 197.504 708.984C197.259 709.421 197.136 709.944 197.136 710.552C197.136 711.16 197.259 711.693 197.504 712.152C197.76 712.611 198.091 712.963 198.496 713.208C198.912 713.443 199.349 713.56 199.808 713.56C200.277 713.56 200.715 713.443 201.12 713.208C201.525 712.973 201.851 712.632 202.096 712.184C202.352 711.725 202.48 711.192 202.48 710.584ZM208.54 707.464C208.806 707.016 209.158 706.669 209.596 706.424C210.044 706.168 210.572 706.04 211.18 706.04V707.928H210.716C210.001 707.928 209.457 708.109 209.084 708.472C208.721 708.835 208.54 709.464 208.54 710.36V715H206.716V706.184H208.54V707.464ZM223.528 706.04C224.222 706.04 224.84 706.184 225.384 706.472C225.939 706.76 226.371 707.187 226.68 707.752C227 708.317 227.16 709 227.16 709.8V715H225.352V710.072C225.352 709.283 225.155 708.68 224.76 708.264C224.366 707.837 223.827 707.624 223.144 707.624C222.462 707.624 221.918 707.837 221.512 708.264C221.118 708.68 220.92 709.283 220.92 710.072V715H219.112V710.072C219.112 709.283 218.915 708.68 218.52 708.264C218.126 707.837 217.587 707.624 216.904 707.624C216.222 707.624 215.678 707.837 215.272 708.264C214.878 708.68 214.68 709.283 214.68 710.072V715H212.856V706.184H214.68V707.192C214.979 706.829 215.358 706.547 215.816 706.344C216.275 706.141 216.766 706.04 217.288 706.04C217.992 706.04 218.622 706.189 219.176 706.488C219.731 706.787 220.158 707.219 220.456 707.784C220.723 707.251 221.139 706.829 221.704 706.52C222.27 706.2 222.878 706.04 223.528 706.04ZM228.873 710.552C228.873 709.667 229.055 708.883 229.417 708.2C229.791 707.517 230.292 706.989 230.921 706.616C231.561 706.232 232.265 706.04 233.033 706.04C233.727 706.04 234.329 706.179 234.841 706.456C235.364 706.723 235.78 707.059 236.089 707.464V706.184H237.929V715H236.089V713.688C235.78 714.104 235.359 714.451 234.825 714.728C234.292 715.005 233.684 715.144 233.001 715.144C232.244 715.144 231.551 714.952 230.921 714.568C230.292 714.173 229.791 713.629 229.417 712.936C229.055 712.232 228.873 711.437 228.873 710.552ZM236.089 710.584C236.089 709.976 235.961 709.448 235.705 709C235.46 708.552 235.135 708.211 234.729 707.976C234.324 707.741 233.887 707.624 233.417 707.624C232.948 707.624 232.511 707.741 232.105 707.976C231.7 708.2 231.369 708.536 231.113 708.984C230.868 709.421 230.745 709.944 230.745 710.552C230.745 711.16 230.868 711.693 231.113 712.152C231.369 712.611 231.7 712.963 232.105 713.208C232.521 713.443 232.959 713.56 233.417 713.56C233.887 713.56 234.324 713.443 234.729 713.208C235.135 712.973 235.46 712.632 235.705 712.184C235.961 711.725 236.089 711.192 236.089 710.584ZM239.717 710.584C239.717 709.677 239.898 708.883 240.261 708.2C240.634 707.507 241.146 706.973 241.797 706.6C242.448 706.227 243.194 706.04 244.037 706.04C245.104 706.04 245.984 706.296 246.677 706.808C247.381 707.309 247.856 708.029 248.101 708.968H246.133C245.973 708.531 245.717 708.189 245.365 707.944C245.013 707.699 244.57 707.576 244.037 707.576C243.29 707.576 242.693 707.843 242.245 708.376C241.808 708.899 241.589 709.635 241.589 710.584C241.589 711.533 241.808 712.275 242.245 712.808C242.693 713.341 243.29 713.608 244.037 713.608C245.093 713.608 245.792 713.144 246.133 712.216H248.101C247.845 713.112 247.365 713.827 246.661 714.36C245.957 714.883 245.082 715.144 244.037 715.144C243.194 715.144 242.448 714.957 241.797 714.584C241.146 714.2 240.634 713.667 240.261 712.984C239.898 712.291 239.717 711.491 239.717 710.584ZM257.855 706.184L252.447 719.144H250.559L252.351 714.856L248.879 706.184H250.911L253.391 712.904L255.967 706.184H257.855Z" fill="black"/>
<rect x="35" y="693" width="75" height="75" rx="8"/>
<path d="M274.518 756.907V756.01L279.081 749.692H280.498V755.88H281.798V756.907H280.498V759H279.328V756.907H274.518ZM279.38 750.927L275.883 755.88H279.38V750.927ZM283.552 759.078C283.326 759.078 283.136 759 282.98 758.844C282.824 758.688 282.746 758.497 282.746 758.272C282.746 758.047 282.824 757.856 282.98 757.7C283.136 757.544 283.326 757.466 283.552 757.466C283.768 757.466 283.95 757.544 284.098 757.7C284.254 757.856 284.332 758.047 284.332 758.272C284.332 758.497 284.254 758.688 284.098 758.844C283.95 759 283.768 759.078 283.552 759.078ZM291.494 750.524L287.88 759H286.684L290.35 750.641H285.332V749.627H291.494V750.524Z" fill="#AAAAAA"/>
<path d="M267.958 755.599C267.829 755.717 267.769 755.889 267.799 756.058L268.243 758.388C268.281 758.586 268.193 758.786 268.018 758.9C267.847 759.018 267.62 759.033 267.433 758.938L265.219 757.844C265.142 757.805 265.057 757.784 264.969 757.782H264.834C264.787 757.788 264.741 757.802 264.699 757.824L262.484 758.924C262.375 758.976 262.251 758.994 262.129 758.976C261.833 758.923 261.636 758.656 261.684 758.374L262.129 756.043C262.159 755.873 262.099 755.7 261.97 755.58L260.164 753.922C260.013 753.783 259.961 753.575 260.03 753.387C260.097 753.199 260.268 753.062 260.474 753.031L262.959 752.69C263.148 752.671 263.314 752.562 263.399 752.401L264.494 750.275C264.52 750.227 264.553 750.184 264.594 750.147L264.639 750.114C264.662 750.089 264.689 750.069 264.719 750.052L264.774 750.033L264.859 750H265.069C265.257 750.018 265.423 750.125 265.509 750.284L266.619 752.401C266.699 752.556 266.854 752.664 267.034 752.69L269.518 753.031C269.728 753.06 269.904 753.197 269.973 753.387C270.039 753.577 269.982 753.785 269.828 753.922L267.958 755.599Z" fill="#FFA114"/>
</g>
<path d="M38.92 668H36.64L29.78 657.62V668H27.5V654.08H29.78L36.64 664.44V654.08H38.92V668ZM52.0141 662.22C52.0141 662.633 51.9874 663.007 51.9341 663.34H43.5141C43.5807 664.22 43.9074 664.927 44.4941 665.46C45.0807 665.993 45.8007 666.26 46.6541 666.26C47.8807 666.26 48.7474 665.747 49.2541 664.72H51.7141C51.3807 665.733 50.7741 666.567 49.8941 667.22C49.0274 667.86 47.9474 668.18 46.6541 668.18C45.6007 668.18 44.6541 667.947 43.8141 667.48C42.9874 667 42.3341 666.333 41.8541 665.48C41.3874 664.613 41.1541 663.613 41.1541 662.48C41.1541 661.347 41.3807 660.353 41.8341 659.5C42.3007 658.633 42.9474 657.967 43.7741 657.5C44.6141 657.033 45.5741 656.8 46.6541 656.8C47.6941 656.8 48.6207 657.027 49.4341 657.48C50.2474 657.933 50.8807 658.573 51.3341 659.4C51.7874 660.213 52.0141 661.153 52.0141 662.22ZM49.6341 661.5C49.6207 660.66 49.3207 659.987 48.7341 659.48C48.1474 658.973 47.4207 658.72 46.5541 658.72C45.7674 658.72 45.0941 658.973 44.5341 659.48C43.9741 659.973 43.6407 660.647 43.5341 661.5H49.6341ZM53.4978 662.44C53.4978 661.333 53.7245 660.353 54.1778 659.5C54.6445 658.647 55.2711 657.987 56.0578 657.52C56.8578 657.04 57.7378 656.8 58.6978 656.8C59.5645 656.8 60.3178 656.973 60.9578 657.32C61.6111 657.653 62.1311 658.073 62.5178 658.58V656.98H64.8178V668H62.5178V666.36C62.1311 666.88 61.6045 667.313 60.9378 667.66C60.2711 668.007 59.5111 668.18 58.6578 668.18C57.7111 668.18 56.8445 667.94 56.0578 667.46C55.2711 666.967 54.6445 666.287 54.1778 665.42C53.7245 664.54 53.4978 663.547 53.4978 662.44ZM62.5178 662.48C62.5178 661.72 62.3578 661.06 62.0378 660.5C61.7311 659.94 61.3245 659.513 60.8178 659.22C60.3111 658.927 59.7645 658.78 59.1778 658.78C58.5911 658.78 58.0445 658.927 57.5378 659.22C57.0311 659.5 56.6178 659.92 56.2978 660.48C55.9911 661.027 55.8378 661.68 55.8378 662.44C55.8378 663.2 55.9911 663.867 56.2978 664.44C56.6178 665.013 57.0311 665.453 57.5378 665.76C58.0578 666.053 58.6045 666.2 59.1778 666.2C59.7645 666.2 60.3111 666.053 60.8178 665.76C61.3245 665.467 61.7311 665.04 62.0378 664.48C62.3578 663.907 62.5178 663.24 62.5178 662.48ZM70.0925 658.58C70.4258 658.02 70.8658 657.587 71.4125 657.28C71.9725 656.96 72.6325 656.8 73.3925 656.8V659.16H72.8125C71.9192 659.16 71.2392 659.387 70.7725 659.84C70.3192 660.293 70.0925 661.08 70.0925 662.2V668H67.8125V656.98H70.0925V658.58ZM85.5883 662.22C85.5883 662.633 85.5616 663.007 85.5083 663.34H77.0883C77.1549 664.22 77.4816 664.927 78.0683 665.46C78.6549 665.993 79.3749 666.26 80.2283 666.26C81.4549 666.26 82.3216 665.747 82.8283 664.72H85.2883C84.9549 665.733 84.3483 666.567 83.4683 667.22C82.6016 667.86 81.5216 668.18 80.2283 668.18C79.1749 668.18 78.2283 667.947 77.3883 667.48C76.5616 667 75.9083 666.333 75.4283 665.48C74.9616 664.613 74.7283 663.613 74.7283 662.48C74.7283 661.347 74.9549 660.353 75.4083 659.5C75.8749 658.633 76.5216 657.967 77.3483 657.5C78.1883 657.033 79.1483 656.8 80.2283 656.8C81.2683 656.8 82.1949 657.027 83.0083 657.48C83.8216 657.933 84.4549 658.573 84.9083 659.4C85.3616 660.213 85.5883 661.153 85.5883 662.22ZM83.2083 661.5C83.1949 660.66 82.8949 659.987 82.3083 659.48C81.7216 658.973 80.9949 658.72 80.1283 658.72C79.3416 658.72 78.6683 658.973 78.1083 659.48C77.5483 659.973 77.2149 660.647 77.1083 661.5H83.2083ZM91.832 668.18C90.9654 668.18 90.1854 668.027 89.492 667.72C88.812 667.4 88.272 666.973 87.872 666.44C87.472 665.893 87.2587 665.287 87.232 664.62H89.592C89.632 665.087 89.852 665.48 90.252 665.8C90.6654 666.107 91.1787 666.26 91.792 666.26C92.432 666.26 92.9254 666.14 93.272 665.9C93.632 665.647 93.812 665.327 93.812 664.94C93.812 664.527 93.612 664.22 93.212 664.02C92.8254 663.82 92.2054 663.6 91.352 663.36C90.5254 663.133 89.852 662.913 89.332 662.7C88.812 662.487 88.3587 662.16 87.972 661.72C87.5987 661.28 87.412 660.7 87.412 659.98C87.412 659.393 87.5854 658.86 87.932 658.38C88.2787 657.887 88.772 657.5 89.412 657.22C90.0654 656.94 90.812 656.8 91.652 656.8C92.9054 656.8 93.912 657.12 94.672 657.76C95.4454 658.387 95.8587 659.247 95.912 660.34H93.632C93.592 659.847 93.392 659.453 93.032 659.16C92.672 658.867 92.1854 658.72 91.572 658.72C90.972 658.72 90.512 658.833 90.192 659.06C89.872 659.287 89.712 659.587 89.712 659.96C89.712 660.253 89.8187 660.5 90.032 660.7C90.2454 660.9 90.5054 661.06 90.812 661.18C91.1187 661.287 91.572 661.427 92.172 661.6C92.972 661.813 93.6254 662.033 94.132 662.26C94.652 662.473 95.0987 662.793 95.472 663.22C95.8454 663.647 96.0387 664.213 96.052 664.92C96.052 665.547 95.8787 666.107 95.532 666.6C95.1854 667.093 94.692 667.48 94.052 667.76C93.4254 668.04 92.6854 668.18 91.832 668.18ZM101.176 658.84V664.94C101.176 665.353 101.269 665.653 101.456 665.84C101.656 666.013 101.989 666.1 102.456 666.1H103.856V668H102.056C101.029 668 100.242 667.76 99.6956 667.28C99.149 666.8 98.8756 666.02 98.8756 664.94V658.84H97.5756V656.98H98.8756V654.24H101.176V656.98H103.856V658.84H101.176ZM120.872 658.24C120.872 658.947 120.706 659.613 120.372 660.24C120.039 660.867 119.506 661.38 118.772 661.78C118.039 662.167 117.099 662.36 115.952 662.36H113.432V668H111.152V654.1H115.952C117.019 654.1 117.919 654.287 118.652 654.66C119.399 655.02 119.952 655.513 120.312 656.14C120.686 656.767 120.872 657.467 120.872 658.24ZM115.952 660.5C116.819 660.5 117.466 660.307 117.892 659.92C118.319 659.52 118.532 658.96 118.532 658.24C118.532 656.72 117.672 655.96 115.952 655.96H113.432V660.5H115.952ZM128.747 656.8C129.587 656.8 130.334 656.98 130.987 657.34C131.654 657.7 132.174 658.233 132.547 658.94C132.934 659.647 133.127 660.5 133.127 661.5V668H130.867V661.84C130.867 660.853 130.62 660.1 130.127 659.58C129.634 659.047 128.96 658.78 128.107 658.78C127.254 658.78 126.574 659.047 126.067 659.58C125.574 660.1 125.327 660.853 125.327 661.84V668H123.047V653.2H125.327V658.26C125.714 657.793 126.2 657.433 126.787 657.18C127.387 656.927 128.04 656.8 128.747 656.8ZM135.275 662.44C135.275 661.333 135.502 660.353 135.955 659.5C136.422 658.647 137.048 657.987 137.835 657.52C138.635 657.04 139.515 656.8 140.475 656.8C141.342 656.8 142.095 656.973 142.735 657.32C143.388 657.653 143.908 658.073 144.295 658.58V656.98H146.595V668H144.295V666.36C143.908 666.88 143.382 667.313 142.715 667.66C142.048 668.007 141.288 668.18 140.435 668.18C139.488 668.18 138.622 667.94 137.835 667.46C137.048 666.967 136.422 666.287 135.955 665.42C135.502 664.54 135.275 663.547 135.275 662.44ZM144.295 662.48C144.295 661.72 144.135 661.06 143.815 660.5C143.508 659.94 143.102 659.513 142.595 659.22C142.088 658.927 141.542 658.78 140.955 658.78C140.368 658.78 139.822 658.927 139.315 659.22C138.808 659.5 138.395 659.92 138.075 660.48C137.768 661.027 137.615 661.68 137.615 662.44C137.615 663.2 137.768 663.867 138.075 664.44C138.395 665.013 138.808 665.453 139.315 665.76C139.835 666.053 140.382 666.2 140.955 666.2C141.542 666.2 142.088 666.053 142.595 665.76C143.102 665.467 143.508 665.04 143.815 664.48C144.135 663.907 144.295 663.24 144.295 662.48ZM151.87 658.58C152.203 658.02 152.643 657.587 153.19 657.28C153.75 656.96 154.41 656.8 155.17 656.8V659.16H154.59C153.697 659.16 153.017 659.387 152.55 659.84C152.097 660.293 151.87 661.08 151.87 662.2V668H149.59V656.98H151.87V658.58ZM170.606 656.8C171.472 656.8 172.246 656.98 172.926 657.34C173.619 657.7 174.159 658.233 174.546 658.94C174.946 659.647 175.146 660.5 175.146 661.5V668H172.886V661.84C172.886 660.853 172.639 660.1 172.146 659.58C171.652 659.047 170.979 658.78 170.126 658.78C169.272 658.78 168.592 659.047 168.086 659.58C167.592 660.1 167.346 660.853 167.346 661.84V668H165.086V661.84C165.086 660.853 164.839 660.1 164.346 659.58C163.852 659.047 163.179 658.78 162.326 658.78C161.472 658.78 160.792 659.047 160.286 659.58C159.792 660.1 159.546 660.853 159.546 661.84V668H157.266V656.98H159.546V658.24C159.919 657.787 160.392 657.433 160.966 657.18C161.539 656.927 162.152 656.8 162.806 656.8C163.686 656.8 164.472 656.987 165.166 657.36C165.859 657.733 166.392 658.273 166.766 658.98C167.099 658.313 167.619 657.787 168.326 657.4C169.032 657 169.792 656.8 170.606 656.8ZM177.287 662.44C177.287 661.333 177.514 660.353 177.967 659.5C178.434 658.647 179.06 657.987 179.847 657.52C180.647 657.04 181.527 656.8 182.487 656.8C183.354 656.8 184.107 656.973 184.747 657.32C185.4 657.653 185.92 658.073 186.307 658.58V656.98H188.607V668H186.307V666.36C185.92 666.88 185.394 667.313 184.727 667.66C184.06 668.007 183.3 668.18 182.447 668.18C181.5 668.18 180.634 667.94 179.847 667.46C179.06 666.967 178.434 666.287 177.967 665.42C177.514 664.54 177.287 663.547 177.287 662.44ZM186.307 662.48C186.307 661.72 186.147 661.06 185.827 660.5C185.52 659.94 185.114 659.513 184.607 659.22C184.1 658.927 183.554 658.78 182.967 658.78C182.38 658.78 181.834 658.927 181.327 659.22C180.82 659.5 180.407 659.92 180.087 660.48C179.78 661.027 179.627 661.68 179.627 662.44C179.627 663.2 179.78 663.867 180.087 664.44C180.407 665.013 180.82 665.453 181.327 665.76C181.847 666.053 182.394 666.2 182.967 666.2C183.554 666.2 184.1 666.053 184.607 665.76C185.114 665.467 185.52 665.04 185.827 664.48C186.147 663.907 186.307 663.24 186.307 662.48ZM190.842 662.48C190.842 661.347 191.068 660.353 191.522 659.5C191.988 658.633 192.628 657.967 193.442 657.5C194.255 657.033 195.188 656.8 196.242 656.8C197.575 656.8 198.675 657.12 199.542 657.76C200.422 658.387 201.015 659.287 201.322 660.46H198.862C198.662 659.913 198.342 659.487 197.902 659.18C197.462 658.873 196.908 658.72 196.242 658.72C195.308 658.72 194.562 659.053 194.002 659.72C193.455 660.373 193.182 661.293 193.182 662.48C193.182 663.667 193.455 664.593 194.002 665.26C194.562 665.927 195.308 666.26 196.242 666.26C197.562 666.26 198.435 665.68 198.862 664.52H201.322C201.002 665.64 200.402 666.533 199.522 667.2C198.642 667.853 197.548 668.18 196.242 668.18C195.188 668.18 194.255 667.947 193.442 667.48C192.628 667 191.988 666.333 191.522 665.48C191.068 664.613 190.842 663.613 190.842 662.48ZM213.514 656.98L206.754 673.18H204.394L206.634 667.82L202.294 656.98H204.834L207.934 665.38L211.154 656.98H213.514Z" fill="black"/>
<rect x="25" y="174" width="325" height="454" rx="20"/>
<g clip-path="url(#clip1_327_6783)">
<path d="M158.389 369.909C158.389 368.165 159.085 366.493 160.323 365.26C161.562 364.027 163.242 363.335 164.994 363.335C166.746 363.335 168.426 364.027 169.665 365.26C170.904 366.493 171.6 368.165 171.6 369.909H158.389ZM164.994 362.513C162.257 362.513 160.04 360.307 160.04 357.583C160.04 354.859 162.257 352.652 164.994 352.652C167.731 352.652 169.949 354.859 169.949 357.583C169.949 360.307 167.731 362.513 164.994 362.513Z" fill="#888888"/>
</g>
<g clip-path="url(#clip2_327_6783)">
<path d="M257.474 342.627V344.271H240.96V342.627H241.785V337.074C241.277 336.736 240.86 336.279 240.572 335.742C240.284 335.206 240.134 334.607 240.134 333.999C240.134 333.319 240.319 332.664 240.657 332.106L242.896 328.247C242.968 328.122 243.073 328.018 243.198 327.946C243.324 327.874 243.466 327.836 243.611 327.836H254.823C254.968 327.836 255.111 327.874 255.236 327.946C255.362 328.018 255.466 328.122 255.538 328.247L257.77 332.094C258.262 332.908 258.42 333.88 258.212 334.808C258.003 335.735 257.443 336.547 256.648 337.074V342.627H257.474ZM244.088 329.479L242.079 332.941C241.884 333.421 241.878 333.957 242.063 334.441C242.248 334.925 242.609 335.322 243.075 335.552C243.541 335.782 244.078 335.829 244.577 335.683C245.076 335.536 245.501 335.207 245.767 334.762C246.044 334.075 247.022 334.075 247.299 334.762C247.452 335.144 247.717 335.471 248.059 335.702C248.401 335.932 248.804 336.055 249.217 336.055C249.63 336.055 250.033 335.932 250.375 335.702C250.717 335.471 250.981 335.144 251.134 334.762C251.411 334.075 252.389 334.075 252.667 334.762C252.774 335.025 252.934 335.262 253.138 335.46C253.342 335.658 253.585 335.812 253.851 335.912C254.118 336.011 254.402 336.055 254.686 336.041C254.971 336.026 255.249 335.953 255.503 335.826C255.758 335.699 255.983 335.521 256.166 335.303C256.348 335.086 256.483 334.833 256.562 334.561C256.641 334.288 256.663 334.003 256.626 333.722C256.589 333.441 256.494 333.171 256.347 332.928L254.344 329.479H244.088Z" fill="#888888"/>
</g>
<g clip-path="url(#clip3_327_6783)">
<path d="M203.968 285.435V287.078H187.453V285.435H188.279V279.881C187.771 279.544 187.354 279.086 187.066 278.55C186.778 278.014 186.627 277.415 186.628 276.807C186.628 276.127 186.813 275.472 187.15 274.914L189.39 271.054C189.462 270.93 189.566 270.826 189.692 270.754C189.817 270.682 189.96 270.644 190.105 270.644H201.317C201.462 270.644 201.604 270.682 201.73 270.754C201.855 270.826 201.96 270.93 202.032 271.054L204.263 274.902C204.756 275.716 204.914 276.688 204.705 277.615C204.496 278.543 203.937 279.354 203.142 279.881V285.435H203.968ZM190.582 272.287L188.573 275.749C188.378 276.229 188.372 276.765 188.557 277.249C188.741 277.733 189.103 278.13 189.569 278.36C190.035 278.59 190.571 278.637 191.07 278.49C191.57 278.344 191.995 278.015 192.261 277.57C192.537 276.882 193.516 276.882 193.793 277.57C193.946 277.952 194.211 278.279 194.552 278.509C194.894 278.74 195.298 278.863 195.711 278.863C196.123 278.863 196.527 278.74 196.869 278.509C197.21 278.279 197.475 277.952 197.628 277.57C197.904 276.882 198.883 276.882 199.16 277.57C199.267 277.832 199.428 278.07 199.632 278.268C199.836 278.466 200.079 278.619 200.345 278.719C200.611 278.819 200.896 278.863 201.18 278.848C201.464 278.834 201.743 278.76 201.997 278.634C202.252 278.507 202.477 278.329 202.659 278.111C202.841 277.893 202.976 277.64 203.056 277.368C203.135 277.096 203.157 276.811 203.12 276.53C203.083 276.249 202.988 275.978 202.841 275.736L200.838 272.287H190.582Z" fill="#888888"/>
</g>
<g clip-path="url(#clip4_327_6783)">
<path d="M317.916 437.29V438.934H301.402V437.29H302.227V431.737C301.719 431.399 301.302 430.942 301.014 430.406C300.726 429.869 300.576 429.27 300.576 428.662C300.576 427.982 300.761 427.328 301.099 426.77L303.338 422.91C303.411 422.785 303.515 422.681 303.64 422.609C303.766 422.537 303.908 422.499 304.053 422.499H315.265C315.41 422.499 315.553 422.537 315.678 422.609C315.804 422.681 315.908 422.785 315.981 422.91L318.212 426.757C318.704 427.571 318.863 428.543 318.654 429.471C318.445 430.398 317.885 431.21 317.09 431.737V437.29H317.916ZM304.53 424.142L302.521 427.604C302.326 428.084 302.32 428.62 302.505 429.104C302.69 429.588 303.051 429.985 303.517 430.215C303.984 430.446 304.52 430.492 305.019 430.346C305.518 430.199 305.943 429.87 306.209 429.425C306.486 428.738 307.464 428.738 307.742 429.425C307.895 429.807 308.159 430.134 308.501 430.365C308.843 430.595 309.246 430.718 309.659 430.718C310.072 430.718 310.475 430.595 310.817 430.365C311.159 430.134 311.423 429.807 311.576 429.425C311.853 428.738 312.831 428.738 313.109 429.425C313.216 429.688 313.376 429.926 313.58 430.123C313.784 430.321 314.027 430.475 314.293 430.575C314.56 430.675 314.844 430.718 315.128 430.704C315.413 430.689 315.691 430.616 315.946 430.489C316.2 430.362 316.426 430.184 316.608 429.967C316.79 429.749 316.925 429.496 317.004 429.224C317.083 428.952 317.105 428.666 317.068 428.385C317.031 428.104 316.936 427.834 316.789 427.591L314.787 424.142H304.53Z" fill="#888888"/>
</g>
<g clip-path="url(#clip5_327_6783)">
<path d="M204.959 485.609V487.252H188.444V485.609H189.27V480.055C188.762 479.718 188.345 479.26 188.057 478.724C187.769 478.187 187.618 477.589 187.619 476.98C187.619 476.301 187.804 475.646 188.141 475.088L190.381 471.228C190.453 471.103 190.557 471 190.683 470.927C190.809 470.855 190.951 470.817 191.096 470.817H202.308C202.453 470.817 202.596 470.855 202.721 470.927C202.847 471 202.951 471.103 203.023 471.228L205.254 475.076C205.747 475.89 205.905 476.862 205.696 477.789C205.488 478.716 204.928 479.528 204.133 480.055V485.609H204.959ZM191.573 472.461L189.564 475.923C189.369 476.403 189.363 476.938 189.548 477.423C189.732 477.907 190.094 478.304 190.56 478.534C191.026 478.764 191.562 478.81 192.062 478.664C192.561 478.517 192.986 478.189 193.252 477.744C193.528 477.056 194.507 477.056 194.784 477.744C194.937 478.125 195.202 478.453 195.544 478.683C195.885 478.914 196.289 479.037 196.702 479.037C197.114 479.037 197.518 478.914 197.86 478.683C198.201 478.453 198.466 478.125 198.619 477.744C198.896 477.056 199.874 477.056 200.151 477.744C200.259 478.006 200.419 478.244 200.623 478.442C200.827 478.639 201.07 478.793 201.336 478.893C201.603 478.993 201.887 479.037 202.171 479.022C202.455 479.007 202.734 478.934 202.988 478.807C203.243 478.681 203.468 478.503 203.65 478.285C203.833 478.067 203.967 477.814 204.047 477.542C204.126 477.27 204.148 476.984 204.111 476.703C204.074 476.423 203.979 476.152 203.832 475.91L201.829 472.461H191.573Z" fill="#888888"/>
</g>
<g clip-path="url(#clip6_327_6783)">
<path d="M74.166 500.4V502.043H57.6518V500.4H58.4775V494.846C57.9691 494.509 57.5524 494.051 57.2644 493.515C56.9763 492.979 56.8257 492.38 56.8261 491.771C56.8261 491.092 57.011 490.437 57.3487 489.879L59.5881 486.019C59.6605 485.894 59.7648 485.791 59.8903 485.718C60.0158 485.646 60.1582 485.608 60.3031 485.608H71.5155C71.6604 485.608 71.8028 485.646 71.9283 485.718C72.0538 485.791 72.1581 485.894 72.2305 486.019L74.4616 489.867C74.9542 490.681 75.1125 491.653 74.9037 492.58C74.6949 493.508 74.1349 494.319 73.3403 494.846V500.4H74.166ZM60.7804 487.252L58.7714 490.714C58.5762 491.194 58.5703 491.73 58.755 492.214C58.9397 492.698 59.3013 493.095 59.7674 493.325C60.2335 493.555 60.7698 493.601 61.2689 493.455C61.7679 493.308 62.193 492.98 62.4591 492.535C62.7357 491.847 63.7141 491.847 63.9916 492.535C64.1446 492.916 64.4091 493.244 64.7508 493.474C65.0926 493.705 65.496 493.828 65.9089 493.828C66.3217 493.828 66.7251 493.705 67.0669 493.474C67.4087 493.244 67.6732 492.916 67.8262 492.535C68.1028 491.847 69.0813 491.847 69.3587 492.535C69.4659 492.797 69.6264 493.035 69.8303 493.233C70.0342 493.43 70.2769 493.584 70.5434 493.684C70.8098 493.784 71.0941 493.828 71.3784 493.813C71.6628 493.798 71.9409 493.725 72.1955 493.598C72.4501 493.472 72.6755 493.294 72.8577 493.076C73.0398 492.858 73.1748 492.605 73.254 492.333C73.3332 492.061 73.355 491.775 73.3179 491.495C73.2809 491.214 73.1859 490.943 73.0389 490.701L71.0365 487.252H60.7804Z" fill="#888888"/>
</g>
<g clip-path="url(#clip7_327_6783)">
<path d="M88.0379 414.611V416.254H71.5237V414.611H72.3494V409.057C71.8411 408.72 71.4244 408.262 71.1363 407.726C70.8482 407.189 70.6977 406.591 70.698 405.982C70.698 405.303 70.883 404.648 71.2207 404.09L73.46 400.23C73.5325 400.105 73.6367 400.002 73.7622 399.929C73.8877 399.857 74.0301 399.819 74.1751 399.819H85.3874C85.5323 399.819 85.6747 399.857 85.8002 399.929C85.9258 400.002 86.03 400.105 86.1025 400.23L88.3335 404.078C88.8261 404.892 88.9845 405.864 88.7756 406.791C88.5668 407.718 88.0069 408.53 87.2122 409.057V414.611H88.0379ZM74.6523 401.463L72.6434 404.925C72.4482 405.405 72.4423 405.94 72.627 406.425C72.8116 406.909 73.1732 407.306 73.6393 407.536C74.1054 407.766 74.6417 407.812 75.1408 407.666C75.6399 407.519 76.065 407.191 76.331 406.746C76.6076 406.058 77.5861 406.058 77.8635 406.746C78.0165 407.127 78.281 407.455 78.6228 407.685C78.9646 407.916 79.368 408.039 79.7808 408.039C80.1937 408.039 80.5971 407.916 80.9389 407.685C81.2806 407.455 81.5451 407.127 81.6981 406.746C81.9747 406.058 82.9532 406.058 83.2306 406.746C83.3378 407.008 83.4984 407.246 83.7022 407.444C83.9061 407.641 84.1489 407.795 84.4153 407.895C84.6817 407.995 84.9661 408.039 85.2504 408.024C85.5347 408.009 85.8129 407.936 86.0675 407.809C86.322 407.683 86.5475 407.505 86.7296 407.287C86.9118 407.069 87.0467 406.816 87.1259 406.544C87.2051 406.272 87.2269 405.986 87.1899 405.705C87.1529 405.425 87.0579 405.154 86.9108 404.912L84.9085 401.463H74.6523Z" fill="#888888"/>
</g>
<g filter="url(#filter2_d_327_6783)">
<rect x="24" y="104" width="328" height="50" rx="10" fill="white"/>
</g>
<path d="M74.258 129.002C74.7807 129.095 75.224 129.371 75.588 129.828C75.952 130.285 76.134 130.803 76.134 131.382C76.134 131.877 76.0033 132.325 75.742 132.726C75.49 133.118 75.1213 133.431 74.636 133.664C74.1507 133.888 73.586 134 72.942 134H69.05V124.27H72.76C73.4227 124.27 73.992 124.382 74.468 124.606C74.944 124.83 75.3033 125.133 75.546 125.516C75.7887 125.889 75.91 126.309 75.91 126.776C75.91 127.336 75.7607 127.803 75.462 128.176C75.1633 128.549 74.762 128.825 74.258 129.002ZM70.646 128.358H72.62C73.1427 128.358 73.5487 128.241 73.838 128.008C74.1367 127.765 74.286 127.42 74.286 126.972C74.286 126.533 74.1367 126.193 73.838 125.95C73.5487 125.698 73.1427 125.572 72.62 125.572H70.646V128.358ZM72.802 132.698C73.3433 132.698 73.768 132.567 74.076 132.306C74.384 132.045 74.538 131.681 74.538 131.214C74.538 130.738 74.3747 130.36 74.048 130.08C73.7213 129.8 73.2873 129.66 72.746 129.66H70.646V132.698H72.802ZM84.9384 129.954C84.9384 130.243 84.9197 130.505 84.8824 130.738H78.9884C79.035 131.354 79.2637 131.849 79.6744 132.222C80.085 132.595 80.589 132.782 81.1864 132.782C82.045 132.782 82.6517 132.423 83.0064 131.704H84.7284C84.495 132.413 84.0704 132.997 83.4544 133.454C82.8477 133.902 82.0917 134.126 81.1864 134.126C80.449 134.126 79.7864 133.963 79.1984 133.636C78.6197 133.3 78.1624 132.833 77.8264 132.236C77.4997 131.629 77.3364 130.929 77.3364 130.136C77.3364 129.343 77.495 128.647 77.8124 128.05C78.139 127.443 78.5917 126.977 79.1704 126.65C79.7584 126.323 80.4304 126.16 81.1864 126.16C81.9144 126.16 82.563 126.319 83.1324 126.636C83.7017 126.953 84.145 127.401 84.4624 127.98C84.7797 128.549 84.9384 129.207 84.9384 129.954ZM83.2724 129.45C83.263 128.862 83.053 128.391 82.6424 128.036C82.2317 127.681 81.723 127.504 81.1164 127.504C80.5657 127.504 80.0944 127.681 79.7024 128.036C79.3104 128.381 79.077 128.853 79.0024 129.45H83.2724ZM85.977 130.108C85.977 129.333 86.1357 128.647 86.453 128.05C86.7797 127.453 87.2183 126.991 87.769 126.664C88.329 126.328 88.9497 126.16 89.631 126.16C90.135 126.16 90.6297 126.272 91.115 126.496C91.6097 126.711 92.0017 127 92.291 127.364V123.64H93.901V134H92.291V132.838C92.0297 133.211 91.6657 133.519 91.199 133.762C90.7417 134.005 90.2143 134.126 89.617 134.126C88.945 134.126 88.329 133.958 87.769 133.622C87.2183 133.277 86.7797 132.801 86.453 132.194C86.1357 131.578 85.977 130.883 85.977 130.108ZM92.291 130.136C92.291 129.604 92.179 129.142 91.955 128.75C91.7403 128.358 91.4557 128.059 91.101 127.854C90.7463 127.649 90.3637 127.546 89.953 127.546C89.5423 127.546 89.1597 127.649 88.805 127.854C88.4503 128.05 88.161 128.344 87.937 128.736C87.7223 129.119 87.615 129.576 87.615 130.108C87.615 130.64 87.7223 131.107 87.937 131.508C88.161 131.909 88.4503 132.217 88.805 132.432C89.169 132.637 89.5517 132.74 89.953 132.74C90.3637 132.74 90.7463 132.637 91.101 132.432C91.4557 132.227 91.7403 131.928 91.955 131.536C92.179 131.135 92.291 130.668 92.291 130.136ZM105.335 126.16C105.942 126.16 106.483 126.286 106.959 126.538C107.445 126.79 107.823 127.163 108.093 127.658C108.373 128.153 108.513 128.75 108.513 129.45V134H106.931V129.688C106.931 128.997 106.759 128.47 106.413 128.106C106.068 127.733 105.597 127.546 104.999 127.546C104.402 127.546 103.926 127.733 103.571 128.106C103.226 128.47 103.053 128.997 103.053 129.688V134H101.471V129.688C101.471 128.997 101.299 128.47 100.953 128.106C100.608 127.733 100.137 127.546 99.5393 127.546C98.9419 127.546 98.4659 127.733 98.1113 128.106C97.7659 128.47 97.5933 128.997 97.5933 129.688V134H95.9973V126.286H97.5933V127.168C97.8546 126.851 98.1859 126.603 98.5873 126.426C98.9886 126.249 99.4179 126.16 99.8753 126.16C100.491 126.16 101.042 126.291 101.527 126.552C102.013 126.813 102.386 127.191 102.647 127.686C102.881 127.219 103.245 126.851 103.739 126.58C104.234 126.3 104.766 126.16 105.335 126.16ZM111.356 125.264C111.067 125.264 110.824 125.166 110.628 124.97C110.432 124.774 110.334 124.531 110.334 124.242C110.334 123.953 110.432 123.71 110.628 123.514C110.824 123.318 111.067 123.22 111.356 123.22C111.636 123.22 111.874 123.318 112.07 123.514C112.266 123.71 112.364 123.953 112.364 124.242C112.364 124.531 112.266 124.774 112.07 124.97C111.874 125.166 111.636 125.264 111.356 125.264ZM112.14 126.286V134H110.544V126.286H112.14ZM118.128 126.16C118.734 126.16 119.276 126.286 119.752 126.538C120.237 126.79 120.615 127.163 120.886 127.658C121.156 128.153 121.292 128.75 121.292 129.45V134H119.71V129.688C119.71 128.997 119.537 128.47 119.192 128.106C118.846 127.733 118.375 127.546 117.778 127.546C117.18 127.546 116.704 127.733 116.35 128.106C116.004 128.47 115.832 128.997 115.832 129.688V134H114.236V126.286H115.832V127.168C116.093 126.851 116.424 126.603 116.826 126.426C117.236 126.249 117.67 126.16 118.128 126.16ZM126.127 134.126C125.521 134.126 124.975 134.019 124.489 133.804C124.013 133.58 123.635 133.281 123.355 132.908C123.075 132.525 122.926 132.101 122.907 131.634H124.559C124.587 131.961 124.741 132.236 125.021 132.46C125.311 132.675 125.67 132.782 126.099 132.782C126.547 132.782 126.893 132.698 127.135 132.53C127.387 132.353 127.513 132.129 127.513 131.858C127.513 131.569 127.373 131.354 127.093 131.214C126.823 131.074 126.389 130.92 125.791 130.752C125.213 130.593 124.741 130.439 124.377 130.29C124.013 130.141 123.696 129.912 123.425 129.604C123.164 129.296 123.033 128.89 123.033 128.386C123.033 127.975 123.155 127.602 123.397 127.266C123.64 126.921 123.985 126.65 124.433 126.454C124.891 126.258 125.413 126.16 126.001 126.16C126.879 126.16 127.583 126.384 128.115 126.832C128.657 127.271 128.946 127.873 128.983 128.638H127.387C127.359 128.293 127.219 128.017 126.967 127.812C126.715 127.607 126.375 127.504 125.945 127.504C125.525 127.504 125.203 127.583 124.979 127.742C124.755 127.901 124.643 128.111 124.643 128.372C124.643 128.577 124.718 128.75 124.867 128.89C125.017 129.03 125.199 129.142 125.413 129.226C125.628 129.301 125.945 129.399 126.365 129.52C126.925 129.669 127.383 129.823 127.737 129.982C128.101 130.131 128.414 130.355 128.675 130.654C128.937 130.953 129.072 131.349 129.081 131.844C129.081 132.283 128.96 132.675 128.717 133.02C128.475 133.365 128.129 133.636 127.681 133.832C127.243 134.028 126.725 134.126 126.127 134.126ZM132.668 127.588V131.858C132.668 132.147 132.733 132.357 132.864 132.488C133.004 132.609 133.237 132.67 133.564 132.67H134.544V134H133.284C132.565 134 132.015 133.832 131.632 133.496C131.249 133.16 131.058 132.614 131.058 131.858V127.588H130.148V126.286H131.058V124.368H132.668V126.286H134.544V127.588H132.668ZM143.085 129.954C143.085 130.243 143.066 130.505 143.029 130.738H137.135C137.182 131.354 137.41 131.849 137.821 132.222C138.232 132.595 138.736 132.782 139.333 132.782C140.192 132.782 140.798 132.423 141.153 131.704H142.875C142.642 132.413 142.217 132.997 141.601 133.454C140.994 133.902 140.238 134.126 139.333 134.126C138.596 134.126 137.933 133.963 137.345 133.636C136.766 133.3 136.309 132.833 135.973 132.236C135.646 131.629 135.483 130.929 135.483 130.136C135.483 129.343 135.642 128.647 135.959 128.05C136.286 127.443 136.738 126.977 137.317 126.65C137.905 126.323 138.577 126.16 139.333 126.16C140.061 126.16 140.71 126.319 141.279 126.636C141.848 126.953 142.292 127.401 142.609 127.98C142.926 128.549 143.085 129.207 143.085 129.954ZM141.419 129.45C141.41 128.862 141.2 128.391 140.789 128.036C140.378 127.681 139.87 127.504 139.263 127.504C138.712 127.504 138.241 127.681 137.849 128.036C137.457 128.381 137.224 128.853 137.149 129.45H141.419ZM146.251 127.406C146.485 127.014 146.793 126.711 147.175 126.496C147.567 126.272 148.029 126.16 148.561 126.16V127.812H148.155C147.53 127.812 147.054 127.971 146.727 128.288C146.41 128.605 146.251 129.156 146.251 129.94V134H144.655V126.286H146.251V127.406ZM151.779 132.082L150.085 135.946H149.049L150.043 132.082H151.779ZM158.392 124.27V130.472C158.392 131.209 158.583 131.765 158.966 132.138C159.358 132.511 159.899 132.698 160.59 132.698C161.29 132.698 161.831 132.511 162.214 132.138C162.606 131.765 162.802 131.209 162.802 130.472V124.27H164.398V130.444C164.398 131.237 164.225 131.909 163.88 132.46C163.534 133.011 163.072 133.421 162.494 133.692C161.915 133.963 161.276 134.098 160.576 134.098C159.876 134.098 159.236 133.963 158.658 133.692C158.088 133.421 157.636 133.011 157.3 132.46C156.964 131.909 156.796 131.237 156.796 130.444V124.27H158.392ZM169.682 134.098C169.028 134.098 168.44 133.986 167.918 133.762C167.395 133.529 166.984 133.202 166.686 132.782C166.387 132.362 166.238 131.872 166.238 131.312H167.946C167.983 131.732 168.146 132.077 168.436 132.348C168.734 132.619 169.15 132.754 169.682 132.754C170.232 132.754 170.662 132.623 170.97 132.362C171.278 132.091 171.432 131.746 171.432 131.326C171.432 130.999 171.334 130.733 171.138 130.528C170.951 130.323 170.713 130.164 170.424 130.052C170.144 129.94 169.752 129.819 169.248 129.688C168.613 129.52 168.095 129.352 167.694 129.184C167.302 129.007 166.966 128.736 166.686 128.372C166.406 128.008 166.266 127.523 166.266 126.916C166.266 126.356 166.406 125.866 166.686 125.446C166.966 125.026 167.358 124.704 167.862 124.48C168.366 124.256 168.949 124.144 169.612 124.144C170.554 124.144 171.324 124.382 171.922 124.858C172.528 125.325 172.864 125.969 172.93 126.79H171.166C171.138 126.435 170.97 126.132 170.662 125.88C170.354 125.628 169.948 125.502 169.444 125.502C168.986 125.502 168.613 125.619 168.324 125.852C168.034 126.085 167.89 126.421 167.89 126.86C167.89 127.159 167.978 127.406 168.156 127.602C168.342 127.789 168.576 127.938 168.856 128.05C169.136 128.162 169.518 128.283 170.004 128.414C170.648 128.591 171.17 128.769 171.572 128.946C171.982 129.123 172.328 129.399 172.608 129.772C172.897 130.136 173.042 130.626 173.042 131.242C173.042 131.737 172.906 132.203 172.636 132.642C172.374 133.081 171.987 133.435 171.474 133.706C170.97 133.967 170.372 134.098 169.682 134.098Z" fill="#AAAAAA"/>
<path fill-rule="evenodd" clip-rule="evenodd" d="M47.4565 122.036C51.0023 122.036 53.8773 124.91 53.8773 128.457C53.8773 132.003 51.0023 134.878 47.4565 134.878C43.9101 134.878 41.0358 132.003 41.0358 128.457C41.0358 124.91 43.9101 122.036 47.4565 122.036Z" stroke="#AAAAAA" stroke-width="1.5" stroke-linecap="round" stroke-linejoin="round"/>
<path fill-rule="evenodd" clip-rule="evenodd" d="M53.9242 133.866C54.5085 133.866 54.982 134.34 54.982 134.924C54.982 135.509 54.5085 135.983 53.9242 135.983C53.3399 135.983 52.8656 135.509 52.8656 134.924C52.8656 134.34 53.3399 133.866 53.9242 133.866Z" stroke="#AAAAAA" stroke-width="1.5" stroke-linecap="round" stroke-linejoin="round"/>
<rect x="64.5" y="83.5" width="39" height="39" rx="9.5" transform="rotate(180 64.5 83.5)" stroke="#F0F0F0"/>
<path d="M48.5 71L41.5 64L48.5 57" stroke="#AAAAAA" stroke-width="1.5" stroke-linecap="round" stroke-linejoin="round"/>
<path d="M106.553 71H104.273L97.4128 60.62V71H95.1328V57.08H97.4128L104.273 67.44V57.08H106.553V71ZM119.647 65.22C119.647 65.6333 119.62 66.0067 119.567 66.34H111.147C111.214 67.22 111.54 67.9267 112.127 68.46C112.714 68.9933 113.434 69.26 114.287 69.26C115.514 69.26 116.38 68.7467 116.887 67.72H119.347C119.014 68.7333 118.407 69.5667 117.527 70.22C116.66 70.86 115.58 71.18 114.287 71.18C113.234 71.18 112.287 70.9467 111.447 70.48C110.62 70 109.967 69.3333 109.487 68.48C109.02 67.6133 108.787 66.6133 108.787 65.48C108.787 64.3467 109.014 63.3533 109.467 62.5C109.934 61.6333 110.58 60.9667 111.407 60.5C112.247 60.0333 113.207 59.8 114.287 59.8C115.327 59.8 116.254 60.0267 117.067 60.48C117.88 60.9333 118.514 61.5733 118.967 62.4C119.42 63.2133 119.647 64.1533 119.647 65.22ZM117.267 64.5C117.254 63.66 116.954 62.9867 116.367 62.48C115.78 61.9733 115.054 61.72 114.187 61.72C113.4 61.72 112.727 61.9733 112.167 62.48C111.607 62.9733 111.274 63.6467 111.167 64.5H117.267ZM121.131 65.44C121.131 64.3333 121.357 63.3533 121.811 62.5C122.277 61.6467 122.904 60.9867 123.691 60.52C124.491 60.04 125.371 59.8 126.331 59.8C127.197 59.8 127.951 59.9733 128.591 60.32C129.244 60.6533 129.764 61.0733 130.151 61.58V59.98H132.451V71H130.151V69.36C129.764 69.88 129.237 70.3133 128.571 70.66C127.904 71.0067 127.144 71.18 126.291 71.18C125.344 71.18 124.477 70.94 123.691 70.46C122.904 69.9667 122.277 69.2867 121.811 68.42C121.357 67.54 121.131 66.5467 121.131 65.44ZM130.151 65.48C130.151 64.72 129.991 64.06 129.671 63.5C129.364 62.94 128.957 62.5133 128.451 62.22C127.944 61.9267 127.397 61.78 126.811 61.78C126.224 61.78 125.677 61.9267 125.171 62.22C124.664 62.5 124.251 62.92 123.931 63.48C123.624 64.0267 123.471 64.68 123.471 65.44C123.471 66.2 123.624 66.8667 123.931 67.44C124.251 68.0133 124.664 68.4533 125.171 68.76C125.691 69.0533 126.237 69.2 126.811 69.2C127.397 69.2 127.944 69.0533 128.451 68.76C128.957 68.4667 129.364 68.04 129.671 67.48C129.991 66.9067 130.151 66.24 130.151 65.48ZM137.725 61.58C138.059 61.02 138.499 60.5867 139.045 60.28C139.605 59.96 140.265 59.8 141.025 59.8V62.16H140.445C139.552 62.16 138.872 62.3867 138.405 62.84C137.952 63.2933 137.725 64.08 137.725 65.2V71H135.445V59.98H137.725V61.58ZM153.221 65.22C153.221 65.6333 153.194 66.0067 153.141 66.34H144.721C144.788 67.22 145.114 67.9267 145.701 68.46C146.288 68.9933 147.008 69.26 147.861 69.26C149.088 69.26 149.954 68.7467 150.461 67.72H152.921C152.588 68.7333 151.981 69.5667 151.101 70.22C150.234 70.86 149.154 71.18 147.861 71.18C146.808 71.18 145.861 70.9467 145.021 70.48C144.194 70 143.541 69.3333 143.061 68.48C142.594 67.6133 142.361 66.6133 142.361 65.48C142.361 64.3467 142.588 63.3533 143.041 62.5C143.508 61.6333 144.154 60.9667 144.981 60.5C145.821 60.0333 146.781 59.8 147.861 59.8C148.901 59.8 149.828 60.0267 150.641 60.48C151.454 60.9333 152.088 61.5733 152.541 62.4C152.994 63.2133 153.221 64.1533 153.221 65.22ZM150.841 64.5C150.828 63.66 150.528 62.9867 149.941 62.48C149.354 61.9733 148.628 61.72 147.761 61.72C146.974 61.72 146.301 61.9733 145.741 62.48C145.181 62.9733 144.848 63.6467 144.741 64.5H150.841ZM159.465 71.18C158.598 71.18 157.818 71.0267 157.125 70.72C156.445 70.4 155.905 69.9733 155.505 69.44C155.105 68.8933 154.892 68.2867 154.865 67.62H157.225C157.265 68.0867 157.485 68.48 157.885 68.8C158.298 69.1067 158.812 69.26 159.425 69.26C160.065 69.26 160.558 69.14 160.905 68.9C161.265 68.6467 161.445 68.3267 161.445 67.94C161.445 67.5267 161.245 67.22 160.845 67.02C160.458 66.82 159.838 66.6 158.985 66.36C158.158 66.1333 157.485 65.9133 156.965 65.7C156.445 65.4867 155.992 65.16 155.605 64.72C155.232 64.28 155.045 63.7 155.045 62.98C155.045 62.3933 155.218 61.86 155.565 61.38C155.912 60.8867 156.405 60.5 157.045 60.22C157.698 59.94 158.445 59.8 159.285 59.8C160.538 59.8 161.545 60.12 162.305 60.76C163.078 61.3867 163.492 62.2467 163.545 63.34H161.265C161.225 62.8467 161.025 62.4533 160.665 62.16C160.305 61.8667 159.818 61.72 159.205 61.72C158.605 61.72 158.145 61.8333 157.825 62.06C157.505 62.2867 157.345 62.5867 157.345 62.96C157.345 63.2533 157.452 63.5 157.665 63.7C157.878 63.9 158.138 64.06 158.445 64.18C158.752 64.2867 159.205 64.4267 159.805 64.6C160.605 64.8133 161.258 65.0333 161.765 65.26C162.285 65.4733 162.732 65.7933 163.105 66.22C163.478 66.6467 163.672 67.2133 163.685 67.92C163.685 68.5467 163.512 69.1067 163.165 69.6C162.818 70.0933 162.325 70.48 161.685 70.76C161.058 71.04 160.318 71.18 159.465 71.18ZM168.808 61.84V67.94C168.808 68.3533 168.902 68.6533 169.088 68.84C169.288 69.0133 169.622 69.1 170.088 69.1H171.488V71H169.688C168.662 71 167.875 70.76 167.328 70.28C166.782 69.8 166.508 69.02 166.508 67.94V61.84H165.208V59.98H166.508V57.24H168.808V59.98H171.488V61.84H168.808ZM188.505 61.24C188.505 61.9467 188.338 62.6133 188.005 63.24C187.672 63.8667 187.138 64.38 186.405 64.78C185.672 65.1667 184.732 65.36 183.585 65.36H181.065V71H178.785V57.1H183.585C184.652 57.1 185.552 57.2867 186.285 57.66C187.032 58.02 187.585 58.5133 187.945 59.14C188.318 59.7667 188.505 60.4667 188.505 61.24ZM183.585 63.5C184.452 63.5 185.098 63.3067 185.525 62.92C185.952 62.52 186.165 61.96 186.165 61.24C186.165 59.72 185.305 58.96 183.585 58.96H181.065V63.5H183.585ZM196.38 59.8C197.22 59.8 197.966 59.98 198.62 60.34C199.286 60.7 199.806 61.2333 200.18 61.94C200.566 62.6467 200.76 63.5 200.76 64.5V71H198.5V64.84C198.5 63.8533 198.253 63.1 197.76 62.58C197.266 62.0467 196.593 61.78 195.74 61.78C194.886 61.78 194.206 62.0467 193.7 62.58C193.206 63.1 192.96 63.8533 192.96 64.84V71H190.68V56.2H192.96V61.26C193.346 60.7933 193.833 60.4333 194.42 60.18C195.02 59.9267 195.673 59.8 196.38 59.8ZM202.908 65.44C202.908 64.3333 203.135 63.3533 203.588 62.5C204.055 61.6467 204.681 60.9867 205.468 60.52C206.268 60.04 207.148 59.8 208.108 59.8C208.975 59.8 209.728 59.9733 210.368 60.32C211.021 60.6533 211.541 61.0733 211.928 61.58V59.98H214.228V71H211.928V69.36C211.541 69.88 211.015 70.3133 210.348 70.66C209.681 71.0067 208.921 71.18 208.068 71.18C207.121 71.18 206.255 70.94 205.468 70.46C204.681 69.9667 204.055 69.2867 203.588 68.42C203.135 67.54 202.908 66.5467 202.908 65.44ZM211.928 65.48C211.928 64.72 211.768 64.06 211.448 63.5C211.141 62.94 210.735 62.5133 210.228 62.22C209.721 61.9267 209.175 61.78 208.588 61.78C208.001 61.78 207.455 61.9267 206.948 62.22C206.441 62.5 206.028 62.92 205.708 63.48C205.401 64.0267 205.248 64.68 205.248 65.44C205.248 66.2 205.401 66.8667 205.708 67.44C206.028 68.0133 206.441 68.4533 206.948 68.76C207.468 69.0533 208.015 69.2 208.588 69.2C209.175 69.2 209.721 69.0533 210.228 68.76C210.735 68.4667 211.141 68.04 211.448 67.48C211.768 66.9067 211.928 66.24 211.928 65.48ZM219.503 61.58C219.836 61.02 220.276 60.5867 220.823 60.28C221.383 59.96 222.043 59.8 222.803 59.8V62.16H222.223C221.329 62.16 220.649 62.3867 220.183 62.84C219.729 63.2933 219.503 64.08 219.503 65.2V71H217.223V59.98H219.503V61.58ZM238.238 59.8C239.105 59.8 239.878 59.98 240.558 60.34C241.252 60.7 241.792 61.2333 242.178 61.94C242.578 62.6467 242.778 63.5 242.778 64.5V71H240.518V64.84C240.518 63.8533 240.272 63.1 239.778 62.58C239.285 62.0467 238.612 61.78 237.758 61.78C236.905 61.78 236.225 62.0467 235.718 62.58C235.225 63.1 234.978 63.8533 234.978 64.84V71H232.718V64.84C232.718 63.8533 232.472 63.1 231.978 62.58C231.485 62.0467 230.812 61.78 229.958 61.78C229.105 61.78 228.425 62.0467 227.918 62.58C227.425 63.1 227.178 63.8533 227.178 64.84V71H224.898V59.98H227.178V61.24C227.552 60.7867 228.025 60.4333 228.598 60.18C229.172 59.9267 229.785 59.8 230.438 59.8C231.318 59.8 232.105 59.9867 232.798 60.36C233.492 60.7333 234.025 61.2733 234.398 61.98C234.732 61.3133 235.252 60.7867 235.958 60.4C236.665 60 237.425 59.8 238.238 59.8ZM244.92 65.44C244.92 64.3333 245.146 63.3533 245.6 62.5C246.066 61.6467 246.693 60.9867 247.48 60.52C248.28 60.04 249.16 59.8 250.12 59.8C250.986 59.8 251.74 59.9733 252.38 60.32C253.033 60.6533 253.553 61.0733 253.94 61.58V59.98H256.24V71H253.94V69.36C253.553 69.88 253.026 70.3133 252.36 70.66C251.693 71.0067 250.933 71.18 250.08 71.18C249.133 71.18 248.266 70.94 247.48 70.46C246.693 69.9667 246.066 69.2867 245.6 68.42C245.146 67.54 244.92 66.5467 244.92 65.44ZM253.94 65.48C253.94 64.72 253.78 64.06 253.46 63.5C253.153 62.94 252.746 62.5133 252.24 62.22C251.733 61.9267 251.186 61.78 250.6 61.78C250.013 61.78 249.466 61.9267 248.96 62.22C248.453 62.5 248.04 62.92 247.72 63.48C247.413 64.0267 247.26 64.68 247.26 65.44C247.26 66.2 247.413 66.8667 247.72 67.44C248.04 68.0133 248.453 68.4533 248.96 68.76C249.48 69.0533 250.026 69.2 250.6 69.2C251.186 69.2 251.733 69.0533 252.24 68.76C252.746 68.4667 253.153 68.04 253.46 67.48C253.78 66.9067 253.94 66.24 253.94 65.48ZM258.474 65.48C258.474 64.3467 258.701 63.3533 259.154 62.5C259.621 61.6333 260.261 60.9667 261.074 60.5C261.888 60.0333 262.821 59.8 263.874 59.8C265.208 59.8 266.308 60.12 267.174 60.76C268.054 61.3867 268.648 62.2867 268.954 63.46H266.494C266.294 62.9133 265.974 62.4867 265.534 62.18C265.094 61.8733 264.541 61.72 263.874 61.72C262.941 61.72 262.194 62.0533 261.634 62.72C261.088 63.3733 260.814 64.2933 260.814 65.48C260.814 66.6667 261.088 67.5933 261.634 68.26C262.194 68.9267 262.941 69.26 263.874 69.26C265.194 69.26 266.068 68.68 266.494 67.52H268.954C268.634 68.64 268.034 69.5333 267.154 70.2C266.274 70.8533 265.181 71.18 263.874 71.18C262.821 71.18 261.888 70.9467 261.074 70.48C260.261 70 259.621 69.3333 259.154 68.48C258.701 67.6133 258.474 66.6133 258.474 65.48ZM281.147 59.98L274.387 76.18H272.027L274.267 70.82L269.927 59.98H272.467L275.567 68.38L278.787 59.98H281.147Z" fill="black"/>
<rect x="349.5" y="83.5" width="39" height="39" rx="9.5" transform="rotate(180 349.5 83.5)" stroke="#F0F0F0"/>
<g clip-path="url(#clip8_327_6783)">
<path d="M330 56.5C329.083 56.5 328.333 57.25 328.333 58.1667C328.333 59.0833 329.083 59.8333 330 59.8333C330.917 59.8333 331.667 59.0833 331.667 58.1667C331.667 57.25 330.917 56.5 330 56.5ZM330 68.1667C329.083 68.1667 328.333 68.9167 328.333 69.8333C328.333 70.75 329.083 71.5 330 71.5C330.917 71.5 331.667 70.75 331.667 69.8333C331.667 68.9167 330.917 68.1667 330 68.1667ZM330 62.3333C329.083 62.3333 328.333 63.0833 328.333 64C328.333 64.9167 329.083 65.6667 330 65.6667C330.917 65.6667 331.667 64.9167 331.667 64C331.667 63.0833 330.917 62.3333 330 62.3333Z" fill="#AAAAAA"/>
</g>
</g>
<defs>
<filter id="filter0_d_327_6783" x="297" y="668" width="342" height="155" filterUnits="userSpaceOnUse" color-interpolation-filters="sRGB">
<feFlood flood-opacity="0" result="BackgroundImageFix"/>
<feColorMatrix in="SourceAlpha" type="matrix" values="0 0 0 0 0 0 0 0 0 0 0 0 0 0 0 0 0 0 127 0" result="hardAlpha"/>
<feOffset dx="5" dy="15"/>
<feGaussianBlur stdDeviation="15"/>
<feComposite in2="hardAlpha" operator="out"/>
<feColorMatrix type="matrix" values="0 0 0 0 0 0 0 0 0 0 0 0 0 0 0 0 0 0 0.06 0"/>
<feBlend mode="normal" in2="BackgroundImageFix" result="effect1_dropShadow_327_6783"/>
<feBlend mode="normal" in="SourceGraphic" in2="effect1_dropShadow_327_6783" result="shape"/>
</filter>
<filter id="filter1_d_327_6783" x="0" y="668" width="342" height="155" filterUnits="userSpaceOnUse" color-interpolation-filters="sRGB">
<feFlood flood-opacity="0" result="BackgroundImageFix"/>
<feColorMatrix in="SourceAlpha" type="matrix" values="0 0 0 0 0 0 0 0 0 0 0 0 0 0 0 0 0 0 127 0" result="hardAlpha"/>
<feOffset dx="5" dy="15"/>
<feGaussianBlur stdDeviation="15"/>
<feComposite in2="hardAlpha" operator="out"/>
<feColorMatrix type="matrix" values="0 0 0 0 0 0 0 0 0 0 0 0 0 0 0 0 0 0 0.06 0"/>
<feBlend mode="normal" in2="BackgroundImageFix" result="effect1_dropShadow_327_6783"/>
<feBlend mode="normal" in="SourceGraphic" in2="effect1_dropShadow_327_6783" result="shape"/>
</filter>
<filter id="filter2_d_327_6783" x="-2" y="84" width="388" height="110" filterUnits="userSpaceOnUse" color-interpolation-filters="sRGB">
<feFlood flood-opacity="0" result="BackgroundImageFix"/>
<feColorMatrix in="SourceAlpha" type="matrix" values="0 0 0 0 0 0 0 0 0 0 0 0 0 0 0 0 0 0 127 0" result="hardAlpha"/>
<feOffset dx="4" dy="10"/>
<feGaussianBlur stdDeviation="15"/>
<feComposite in2="hardAlpha" operator="out"/>
<feColorMatrix type="matrix" values="0 0 0 0 0 0 0 0 0 0 0 0 0 0 0 0 0 0 0.06 0"/>
<feBlend mode="normal" in2="BackgroundImageFix" result="effect1_dropShadow_327_6783"/>
<feBlend mode="normal" in="SourceGraphic" in2="effect1_dropShadow_327_6783" result="shape"/>
</filter>
<clipPath id="clip0_327_6783">
<rect width="375" height="812" fill="white"/>
</clipPath>
<clipPath id="clip1_327_6783">
<rect width="19.8171" height="19.7216" fill="white" transform="translate(155.085 351.83)"/>
</clipPath>
<clipPath id="clip2_327_6783">
<rect width="19.8171" height="19.7216" fill="white" transform="translate(239.308 326.192)"/>
</clipPath>
<clipPath id="clip3_327_6783">
<rect width="19.8171" height="19.7216" fill="white" transform="translate(185.802 269)"/>
</clipPath>
<clipPath id="clip4_327_6783">
<rect width="19.8171" height="19.7216" fill="white" transform="translate(299.75 420.855)"/>
</clipPath>
<clipPath id="clip5_327_6783">
<rect width="19.8171" height="19.7216" fill="white" transform="translate(186.793 469.174)"/>
</clipPath>
<clipPath id="clip6_327_6783">
<rect width="19.8171" height="19.7216" fill="white" transform="translate(56 483.965)"/>
</clipPath>
<clipPath id="clip7_327_6783">
<rect width="19.8171" height="19.7216" fill="white" transform="translate(69.8721 398.176)"/>
</clipPath>
<clipPath id="clip8_327_6783">
<rect width="20" height="20" fill="white" transform="translate(320 54)"/>
</clipPath>
</defs>
</svg>
