<svg width="375" height="812" viewBox="0 0 375 812" fill="none" xmlns="http://www.w3.org/2000/svg">
<rect width="375" height="812" fill="white"/>
<rect x="25" y="733" width="325" height="45" rx="8" fill="#0085FE"/>
<path d="M155.533 755.1C155.533 754.139 155.748 753.28 156.177 752.524C156.616 751.759 157.208 751.166 157.955 750.746C158.711 750.317 159.556 750.102 160.489 750.102C161.581 750.102 162.538 750.382 163.359 750.942C164.18 751.502 164.754 752.277 165.081 753.266H162.827C162.603 752.799 162.286 752.449 161.875 752.216C161.474 751.983 161.007 751.866 160.475 751.866C159.906 751.866 159.397 752.001 158.949 752.272C158.51 752.533 158.165 752.907 157.913 753.392C157.67 753.877 157.549 754.447 157.549 755.1C157.549 755.744 157.67 756.313 157.913 756.808C158.165 757.293 158.51 757.671 158.949 757.942C159.397 758.203 159.906 758.334 160.475 758.334C161.007 758.334 161.474 758.217 161.875 757.984C162.286 757.741 162.603 757.387 162.827 756.92H165.081C164.754 757.919 164.18 758.698 163.359 759.258C162.547 759.809 161.59 760.084 160.489 760.084C159.556 760.084 158.711 759.874 157.955 759.454C157.208 759.025 156.616 758.432 156.177 757.676C155.748 756.92 155.533 756.061 155.533 755.1ZM171.291 760.098C170.376 760.098 169.536 759.883 168.771 759.454C168.006 759.025 167.399 758.432 166.951 757.676C166.503 756.911 166.279 756.047 166.279 755.086C166.279 754.134 166.503 753.28 166.951 752.524C167.399 751.759 168.006 751.161 168.771 750.732C169.536 750.303 170.376 750.088 171.291 750.088C172.215 750.088 173.055 750.303 173.811 750.732C174.576 751.161 175.178 751.759 175.617 752.524C176.065 753.28 176.289 754.134 176.289 755.086C176.289 756.047 176.065 756.911 175.617 757.676C175.178 758.432 174.576 759.025 173.811 759.454C173.046 759.883 172.206 760.098 171.291 760.098ZM171.291 758.348C171.879 758.348 172.397 758.217 172.845 757.956C173.293 757.685 173.643 757.303 173.895 756.808C174.147 756.313 174.273 755.739 174.273 755.086C174.273 754.433 174.147 753.863 173.895 753.378C173.643 752.883 173.293 752.505 172.845 752.244C172.397 751.983 171.879 751.852 171.291 751.852C170.703 751.852 170.18 751.983 169.723 752.244C169.275 752.505 168.925 752.883 168.673 753.378C168.421 753.863 168.295 754.433 168.295 755.086C168.295 755.739 168.421 756.313 168.673 756.808C168.925 757.303 169.275 757.685 169.723 757.956C170.18 758.217 170.703 758.348 171.291 758.348ZM186.105 760H184.145L179.707 753.294V760H177.747V750.214H179.707L184.145 756.934V750.214H186.105V760ZM194.076 750.228V751.81H190.002V754.316H193.124V755.87H190.002V760H188.042V750.228H194.076ZM197.426 750.228V760H195.466V750.228H197.426ZM204.402 760L202.246 756.192H201.322V760H199.362V750.228H203.03C203.786 750.228 204.43 750.363 204.962 750.634C205.494 750.895 205.891 751.255 206.152 751.712C206.423 752.16 206.558 752.664 206.558 753.224C206.558 753.868 206.372 754.451 205.998 754.974C205.625 755.487 205.07 755.842 204.332 756.038L206.67 760H204.402ZM201.322 754.722H202.96C203.492 754.722 203.889 754.596 204.15 754.344C204.412 754.083 204.542 753.723 204.542 753.266C204.542 752.818 204.412 752.473 204.15 752.23C203.889 751.978 203.492 751.852 202.96 751.852H201.322V754.722ZM218.985 750.228V760H217.025V753.644L214.407 760H212.923L210.291 753.644V760H208.331V750.228H210.557L213.665 757.494L216.773 750.228H218.985Z" fill="white"/>
<path d="M300.376 377.68H304.096V379H298.996V370.6H304.036V371.92H300.376V374.104H303.736V375.412H300.376V377.68ZM309.91 370.6H311.206V379H309.91V378.136C309.422 378.816 308.722 379.156 307.81 379.156C306.986 379.156 306.282 378.852 305.698 378.244C305.114 377.628 304.822 376.88 304.822 376C304.822 375.112 305.114 374.364 305.698 373.756C306.282 373.148 306.986 372.844 307.81 372.844C308.722 372.844 309.422 373.18 309.91 373.852V370.6ZM306.658 377.38C307.018 377.74 307.47 377.92 308.014 377.92C308.558 377.92 309.01 377.74 309.37 377.38C309.73 377.012 309.91 376.552 309.91 376C309.91 375.448 309.73 374.992 309.37 374.632C309.01 374.264 308.558 374.08 308.014 374.08C307.47 374.08 307.018 374.264 306.658 374.632C306.298 374.992 306.118 375.448 306.118 376C306.118 376.552 306.298 377.012 306.658 377.38ZM313.941 371.86C313.781 372.02 313.589 372.1 313.365 372.1C313.141 372.1 312.945 372.02 312.777 371.86C312.617 371.692 312.537 371.496 312.537 371.272C312.537 371.048 312.617 370.856 312.777 370.696C312.937 370.528 313.133 370.444 313.365 370.444C313.597 370.444 313.793 370.528 313.953 370.696C314.113 370.856 314.193 371.048 314.193 371.272C314.193 371.496 314.109 371.692 313.941 371.86ZM312.717 379V373H314.013V379H312.717ZM318.866 374.248H317.378V377.128C317.378 377.376 317.434 377.556 317.546 377.668C317.658 377.772 317.822 377.832 318.038 377.848C318.262 377.856 318.538 377.852 318.866 377.836V379C317.874 379.12 317.162 379.036 316.73 378.748C316.298 378.452 316.082 377.912 316.082 377.128V374.248H314.978V373H316.082V371.704L317.378 371.32V373H318.866V374.248ZM327.156 379.156C325.892 379.156 324.844 378.74 324.012 377.908C323.18 377.068 322.764 376.032 322.764 374.8C322.764 373.568 323.18 372.536 324.012 371.704C324.844 370.864 325.892 370.444 327.156 370.444C327.916 370.444 328.616 370.624 329.256 370.984C329.904 371.344 330.408 371.832 330.768 372.448L329.568 373.144C329.344 372.728 329.016 372.4 328.584 372.16C328.16 371.912 327.684 371.788 327.156 371.788C326.26 371.788 325.532 372.072 324.972 372.64C324.42 373.208 324.144 373.928 324.144 374.8C324.144 375.672 324.42 376.392 324.972 376.96C325.532 377.528 326.26 377.812 327.156 377.812C327.684 377.812 328.164 377.692 328.596 377.452C329.028 377.204 329.352 376.872 329.568 376.456L330.768 377.14C330.416 377.756 329.916 378.248 329.268 378.616C328.628 378.976 327.924 379.156 327.156 379.156ZM336.571 373H337.867V379H336.571V378.136C336.083 378.816 335.383 379.156 334.471 379.156C333.647 379.156 332.943 378.852 332.359 378.244C331.775 377.628 331.483 376.88 331.483 376C331.483 375.112 331.775 374.364 332.359 373.756C332.943 373.148 333.647 372.844 334.471 372.844C335.383 372.844 336.083 373.18 336.571 373.852V373ZM333.319 377.38C333.679 377.74 334.131 377.92 334.675 377.92C335.219 377.92 335.671 377.74 336.031 377.38C336.391 377.012 336.571 376.552 336.571 376C336.571 375.448 336.391 374.992 336.031 374.632C335.671 374.264 335.219 374.08 334.675 374.08C334.131 374.08 333.679 374.264 333.319 374.632C332.959 374.992 332.779 375.448 332.779 376C332.779 376.552 332.959 377.012 333.319 377.38ZM340.673 374.008C341.001 373.264 341.617 372.892 342.521 372.892V374.296C342.025 374.264 341.593 374.384 341.225 374.656C340.857 374.92 340.673 375.36 340.673 375.976V379H339.377V373H340.673V374.008ZM347.949 370.6H349.245V379H347.949V378.136C347.461 378.816 346.761 379.156 345.849 379.156C345.025 379.156 344.321 378.852 343.737 378.244C343.153 377.628 342.861 376.88 342.861 376C342.861 375.112 343.153 374.364 343.737 373.756C344.321 373.148 345.025 372.844 345.849 372.844C346.761 372.844 347.461 373.18 347.949 373.852V370.6ZM344.697 377.38C345.057 377.74 345.509 377.92 346.053 377.92C346.597 377.92 347.049 377.74 347.409 377.38C347.769 377.012 347.949 376.552 347.949 376C347.949 375.448 347.769 374.992 347.409 374.632C347.049 374.264 346.597 374.08 346.053 374.08C345.509 374.08 345.057 374.264 344.697 374.632C344.337 374.992 344.157 375.448 344.157 376C344.157 376.552 344.337 377.012 344.697 377.38Z" fill="#0065FF"/>
<path fill-rule="evenodd" clip-rule="evenodd" d="M286.542 378.46L291.424 372.147C291.689 371.807 291.783 371.413 291.695 371.013C291.618 370.648 291.394 370.302 291.058 370.039L290.239 369.388C289.525 368.821 288.641 368.881 288.134 369.532L287.586 370.243C287.515 370.332 287.533 370.463 287.621 370.535C287.621 370.535 289.007 371.646 289.036 371.67C289.13 371.759 289.201 371.879 289.219 372.022C289.248 372.303 289.054 372.566 288.765 372.601C288.629 372.619 288.5 372.577 288.405 372.5L286.949 371.341C286.878 371.288 286.772 371.299 286.713 371.371L283.253 375.85C283.029 376.131 282.952 376.495 283.029 376.847L283.471 378.765C283.495 378.866 283.583 378.938 283.689 378.938L285.635 378.914C285.988 378.908 286.318 378.747 286.542 378.46ZM289.266 377.863H292.439C292.748 377.863 293 378.118 293 378.431C293 378.746 292.748 379 292.439 379H289.266C288.957 379 288.705 378.746 288.705 378.431C288.705 378.118 288.957 377.863 289.266 377.863Z" fill="#0065FF"/>
<rect opacity="0.5" x="25.5" y="285.5" width="324" height="49" rx="7.5" stroke="#0065FF" stroke-dasharray="4 4"/>
<path d="M139.529 314L138.941 312.308H135.365L134.777 314H133.277L136.325 305.6H137.981L141.017 314H139.529ZM135.821 311.012H138.485L137.153 307.22L135.821 311.012ZM146.436 305.6H147.732V314H146.436V313.136C145.948 313.816 145.248 314.156 144.336 314.156C143.512 314.156 142.808 313.852 142.224 313.244C141.64 312.628 141.348 311.88 141.348 311C141.348 310.112 141.64 309.364 142.224 308.756C142.808 308.148 143.512 307.844 144.336 307.844C145.248 307.844 145.948 308.18 146.436 308.852V305.6ZM143.184 312.38C143.544 312.74 143.996 312.92 144.54 312.92C145.084 312.92 145.536 312.74 145.896 312.38C146.256 312.012 146.436 311.552 146.436 311C146.436 310.448 146.256 309.992 145.896 309.632C145.536 309.264 145.084 309.08 144.54 309.08C143.996 309.08 143.544 309.264 143.184 309.632C142.824 309.992 142.644 310.448 142.644 311C142.644 311.552 142.824 312.012 143.184 312.38ZM153.994 305.6H155.29V314H153.994V313.136C153.506 313.816 152.806 314.156 151.894 314.156C151.07 314.156 150.366 313.852 149.782 313.244C149.198 312.628 148.906 311.88 148.906 311C148.906 310.112 149.198 309.364 149.782 308.756C150.366 308.148 151.07 307.844 151.894 307.844C152.806 307.844 153.506 308.18 153.994 308.852V305.6ZM150.742 312.38C151.102 312.74 151.554 312.92 152.098 312.92C152.642 312.92 153.094 312.74 153.454 312.38C153.814 312.012 153.994 311.552 153.994 311C153.994 310.448 153.814 309.992 153.454 309.632C153.094 309.264 152.642 309.08 152.098 309.08C151.554 309.08 151.102 309.264 150.742 309.632C150.382 309.992 150.202 310.448 150.202 311C150.202 311.552 150.382 312.012 150.742 312.38ZM164.925 305.6H166.305V314H165.225L161.265 308.3V314H159.885V305.6H160.965L164.925 311.3V305.6ZM168.919 311.552C169.015 312.008 169.235 312.36 169.579 312.608C169.923 312.848 170.343 312.968 170.839 312.968C171.527 312.968 172.043 312.72 172.387 312.224L173.455 312.848C172.863 313.72 171.987 314.156 170.827 314.156C169.851 314.156 169.063 313.86 168.463 313.268C167.863 312.668 167.563 311.912 167.563 311C167.563 310.104 167.859 309.356 168.451 308.756C169.043 308.148 169.803 307.844 170.731 307.844C171.611 307.844 172.331 308.152 172.891 308.768C173.459 309.384 173.743 310.132 173.743 311.012C173.743 311.148 173.727 311.328 173.695 311.552H168.919ZM168.907 310.496H172.435C172.347 310.008 172.143 309.64 171.823 309.392C171.511 309.144 171.143 309.02 170.719 309.02C170.239 309.02 169.839 309.152 169.519 309.416C169.199 309.68 168.995 310.04 168.907 310.496ZM181.561 308H182.929L181.045 314H179.773L178.525 309.956L177.265 314H175.993L174.109 308H175.477L176.641 312.14L177.901 308H179.137L180.385 312.14L181.561 308ZM190.939 314.156C189.675 314.156 188.627 313.74 187.795 312.908C186.963 312.068 186.547 311.032 186.547 309.8C186.547 308.568 186.963 307.536 187.795 306.704C188.627 305.864 189.675 305.444 190.939 305.444C191.699 305.444 192.399 305.624 193.039 305.984C193.687 306.344 194.191 306.832 194.551 307.448L193.351 308.144C193.127 307.728 192.799 307.4 192.367 307.16C191.943 306.912 191.467 306.788 190.939 306.788C190.043 306.788 189.315 307.072 188.755 307.64C188.203 308.208 187.927 308.928 187.927 309.8C187.927 310.672 188.203 311.392 188.755 311.96C189.315 312.528 190.043 312.812 190.939 312.812C191.467 312.812 191.947 312.692 192.379 312.452C192.811 312.204 193.135 311.872 193.351 311.456L194.551 312.14C194.199 312.756 193.699 313.248 193.051 313.616C192.411 313.976 191.707 314.156 190.939 314.156ZM200.354 308H201.65V314H200.354V313.136C199.866 313.816 199.166 314.156 198.254 314.156C197.43 314.156 196.726 313.852 196.142 313.244C195.558 312.628 195.266 311.88 195.266 311C195.266 310.112 195.558 309.364 196.142 308.756C196.726 308.148 197.43 307.844 198.254 307.844C199.166 307.844 199.866 308.18 200.354 308.852V308ZM197.102 312.38C197.462 312.74 197.914 312.92 198.458 312.92C199.002 312.92 199.454 312.74 199.814 312.38C200.174 312.012 200.354 311.552 200.354 311C200.354 310.448 200.174 309.992 199.814 309.632C199.454 309.264 199.002 309.08 198.458 309.08C197.914 309.08 197.462 309.264 197.102 309.632C196.742 309.992 196.562 310.448 196.562 311C196.562 311.552 196.742 312.012 197.102 312.38ZM204.456 309.008C204.784 308.264 205.4 307.892 206.304 307.892V309.296C205.808 309.264 205.376 309.384 205.008 309.656C204.64 309.92 204.456 310.36 204.456 310.976V314H203.16V308H204.456V309.008ZM211.733 305.6H213.029V314H211.733V313.136C211.245 313.816 210.545 314.156 209.633 314.156C208.809 314.156 208.105 313.852 207.521 313.244C206.937 312.628 206.645 311.88 206.645 311C206.645 310.112 206.937 309.364 207.521 308.756C208.105 308.148 208.809 307.844 209.633 307.844C210.545 307.844 211.245 308.18 211.733 308.852V305.6ZM208.481 312.38C208.841 312.74 209.293 312.92 209.837 312.92C210.381 312.92 210.833 312.74 211.193 312.38C211.553 312.012 211.733 311.552 211.733 311C211.733 310.448 211.553 309.992 211.193 309.632C210.833 309.264 210.381 309.08 209.837 309.08C209.293 309.08 208.841 309.264 208.481 309.632C208.121 309.992 207.941 310.448 207.941 311C207.941 311.552 208.121 312.012 208.481 312.38Z" fill="#0065FF"/>
<rect x="225" y="298" width="25" height="25" rx="6" fill="#0065FF"/>
<path d="M242.025 310.409V311.591H237.616V316H236.409V311.591H232V310.409H236.409V306H237.616V310.409H242.025Z" fill="white"/>
<path d="M35.976 173.312V183H34.702V175.776L31.482 183H30.586L27.352 175.762V183H26.078V173.312H27.45L31.034 181.32L34.618 173.312H35.976ZM45.1366 178.87C45.1366 179.113 45.1226 179.369 45.0946 179.64H38.9626C39.0093 180.396 39.2659 180.989 39.7326 181.418C40.2086 181.838 40.7826 182.048 41.4546 182.048C42.0053 182.048 42.4626 181.922 42.8266 181.67C43.1999 181.409 43.4613 181.063 43.6106 180.634H44.9826C44.7773 181.371 44.3666 181.973 43.7506 182.44C43.1346 182.897 42.3693 183.126 41.4546 183.126C40.7266 183.126 40.0733 182.963 39.4946 182.636C38.9253 182.309 38.4773 181.847 38.1506 181.25C37.8239 180.643 37.6606 179.943 37.6606 179.15C37.6606 178.357 37.8193 177.661 38.1366 177.064C38.4539 176.467 38.8973 176.009 39.4666 175.692C40.0453 175.365 40.7079 175.202 41.4546 175.202C42.1826 175.202 42.8266 175.361 43.3866 175.678C43.9466 175.995 44.3759 176.434 44.6746 176.994C44.9826 177.545 45.1366 178.17 45.1366 178.87ZM43.8206 178.604C43.8206 178.119 43.7133 177.703 43.4986 177.358C43.2839 177.003 42.9899 176.737 42.6166 176.56C42.2526 176.373 41.8466 176.28 41.3986 176.28C40.7546 176.28 40.2039 176.485 39.7466 176.896C39.2986 177.307 39.0419 177.876 38.9766 178.604H43.8206ZM46.3422 179.136C46.3422 178.352 46.5009 177.666 46.8182 177.078C47.1356 176.481 47.5696 176.019 48.1202 175.692C48.6802 175.365 49.3056 175.202 49.9962 175.202C50.5936 175.202 51.1489 175.342 51.6622 175.622C52.1756 175.893 52.5676 176.252 52.8382 176.7V172.64H54.1262V183H52.8382V181.558C52.5862 182.015 52.2129 182.393 51.7182 182.692C51.2236 182.981 50.6449 183.126 49.9822 183.126C49.3009 183.126 48.6802 182.958 48.1202 182.622C47.5696 182.286 47.1356 181.815 46.8182 181.208C46.5009 180.601 46.3422 179.911 46.3422 179.136ZM52.8382 179.15C52.8382 178.571 52.7216 178.067 52.4882 177.638C52.2549 177.209 51.9376 176.882 51.5362 176.658C51.1442 176.425 50.7102 176.308 50.2342 176.308C49.7582 176.308 49.3242 176.42 48.9322 176.644C48.5402 176.868 48.2276 177.195 47.9942 177.624C47.7609 178.053 47.6442 178.557 47.6442 179.136C47.6442 179.724 47.7609 180.237 47.9942 180.676C48.2276 181.105 48.5402 181.437 48.9322 181.67C49.3242 181.894 49.7582 182.006 50.2342 182.006C50.7102 182.006 51.1442 181.894 51.5362 181.67C51.9376 181.437 52.2549 181.105 52.4882 180.676C52.7216 180.237 52.8382 179.729 52.8382 179.15ZM56.9372 174.082C56.6945 174.082 56.4892 173.998 56.3212 173.83C56.1532 173.662 56.0692 173.457 56.0692 173.214C56.0692 172.971 56.1532 172.766 56.3212 172.598C56.4892 172.43 56.6945 172.346 56.9372 172.346C57.1705 172.346 57.3665 172.43 57.5252 172.598C57.6932 172.766 57.7772 172.971 57.7772 173.214C57.7772 173.457 57.6932 173.662 57.5252 173.83C57.3665 173.998 57.1705 174.082 56.9372 174.082ZM57.5532 175.328V183H56.2792V175.328H57.5532ZM59.2485 179.15C59.2485 178.357 59.4072 177.666 59.7245 177.078C60.0418 176.481 60.4805 176.019 61.0405 175.692C61.6098 175.365 62.2585 175.202 62.9865 175.202C63.9292 175.202 64.7038 175.431 65.3105 175.888C65.9265 176.345 66.3325 176.98 66.5285 177.792H65.1565C65.0258 177.325 64.7692 176.957 64.3865 176.686C64.0132 176.415 63.5465 176.28 62.9865 176.28C62.2585 176.28 61.6705 176.532 61.2225 177.036C60.7745 177.531 60.5505 178.235 60.5505 179.15C60.5505 180.074 60.7745 180.788 61.2225 181.292C61.6705 181.796 62.2585 182.048 62.9865 182.048C63.5465 182.048 64.0132 181.917 64.3865 181.656C64.7598 181.395 65.0165 181.021 65.1565 180.536H66.5285C66.3232 181.32 65.9125 181.95 65.2965 182.426C64.6805 182.893 63.9105 183.126 62.9865 183.126C62.2585 183.126 61.6098 182.963 61.0405 182.636C60.4805 182.309 60.0418 181.847 59.7245 181.25C59.4072 180.653 59.2485 179.953 59.2485 179.15ZM68.8864 174.082C68.6437 174.082 68.4384 173.998 68.2704 173.83C68.1024 173.662 68.0184 173.457 68.0184 173.214C68.0184 172.971 68.1024 172.766 68.2704 172.598C68.4384 172.43 68.6437 172.346 68.8864 172.346C69.1197 172.346 69.3157 172.43 69.4744 172.598C69.6424 172.766 69.7264 172.971 69.7264 173.214C69.7264 173.457 69.6424 173.662 69.4744 173.83C69.3157 173.998 69.1197 174.082 68.8864 174.082ZM69.5024 175.328V183H68.2284V175.328H69.5024ZM75.4117 175.188C76.345 175.188 77.101 175.473 77.6797 176.042C78.2584 176.602 78.5477 177.414 78.5477 178.478V183H77.2877V178.66C77.2877 177.895 77.0964 177.311 76.7137 176.91C76.331 176.499 75.8084 176.294 75.1457 176.294C74.4737 176.294 73.937 176.504 73.5357 176.924C73.1437 177.344 72.9477 177.955 72.9477 178.758V183H71.6737V175.328H72.9477V176.42C73.1997 176.028 73.5404 175.725 73.9697 175.51C74.4084 175.295 74.889 175.188 75.4117 175.188ZM87.6288 178.87C87.6288 179.113 87.6148 179.369 87.5868 179.64H81.4548C81.5014 180.396 81.7581 180.989 82.2248 181.418C82.7008 181.838 83.2748 182.048 83.9468 182.048C84.4974 182.048 84.9548 181.922 85.3188 181.67C85.6921 181.409 85.9534 181.063 86.1028 180.634H87.4748C87.2694 181.371 86.8588 181.973 86.2428 182.44C85.6268 182.897 84.8614 183.126 83.9468 183.126C83.2188 183.126 82.5654 182.963 81.9868 182.636C81.4174 182.309 80.9694 181.847 80.6428 181.25C80.3161 180.643 80.1528 179.943 80.1528 179.15C80.1528 178.357 80.3114 177.661 80.6288 177.064C80.9461 176.467 81.3894 176.009 81.9588 175.692C82.5374 175.365 83.2001 175.202 83.9468 175.202C84.6748 175.202 85.3188 175.361 85.8788 175.678C86.4388 175.995 86.8681 176.434 87.1668 176.994C87.4748 177.545 87.6288 178.17 87.6288 178.87ZM86.3128 178.604C86.3128 178.119 86.2054 177.703 85.9908 177.358C85.7761 177.003 85.4821 176.737 85.1088 176.56C84.7448 176.373 84.3388 176.28 83.8908 176.28C83.2468 176.28 82.6961 176.485 82.2388 176.896C81.7908 177.307 81.5341 177.876 81.4688 178.604H86.3128ZM97.9288 177.974C98.2835 178.03 98.6055 178.175 98.8948 178.408C99.1935 178.641 99.4268 178.931 99.5948 179.276C99.7722 179.621 99.8608 179.99 99.8608 180.382C99.8608 180.877 99.7348 181.325 99.4828 181.726C99.2308 182.118 98.8622 182.431 98.3768 182.664C97.9008 182.888 97.3362 183 96.6828 183H93.0428V173.242H96.5428C97.2055 173.242 97.7702 173.354 98.2368 173.578C98.7035 173.793 99.0535 174.087 99.2868 174.46C99.5202 174.833 99.6368 175.253 99.6368 175.72C99.6368 176.299 99.4782 176.779 99.1608 177.162C98.8528 177.535 98.4422 177.806 97.9288 177.974ZM94.3168 177.456H96.4588C97.0562 177.456 97.5182 177.316 97.8448 177.036C98.1715 176.756 98.3348 176.369 98.3348 175.874C98.3348 175.379 98.1715 174.992 97.8448 174.712C97.5182 174.432 97.0468 174.292 96.4308 174.292H94.3168V177.456ZM96.5708 181.95C97.2055 181.95 97.7002 181.801 98.0548 181.502C98.4095 181.203 98.5868 180.788 98.5868 180.256C98.5868 179.715 98.4002 179.29 98.0268 178.982C97.6535 178.665 97.1542 178.506 96.5288 178.506H94.3168V181.95H96.5708ZM102.287 174.082C102.044 174.082 101.839 173.998 101.671 173.83C101.503 173.662 101.419 173.457 101.419 173.214C101.419 172.971 101.503 172.766 101.671 172.598C101.839 172.43 102.044 172.346 102.287 172.346C102.52 172.346 102.716 172.43 102.875 172.598C103.043 172.766 103.127 172.971 103.127 173.214C103.127 173.457 103.043 173.662 102.875 173.83C102.716 173.998 102.52 174.082 102.287 174.082ZM102.903 175.328V183H101.629V175.328H102.903ZM106.348 172.64V183H105.074V172.64H106.348ZM109.793 172.64V183H108.519V172.64H109.793ZM112.371 183.084C112.128 183.084 111.923 183 111.755 182.832C111.587 182.664 111.503 182.459 111.503 182.216C111.503 181.973 111.587 181.768 111.755 181.6C111.923 181.432 112.128 181.348 112.371 181.348C112.604 181.348 112.8 181.432 112.959 181.6C113.127 181.768 113.211 181.973 113.211 182.216C113.211 182.459 113.127 182.664 112.959 182.832C112.8 183 112.604 183.084 112.371 183.084ZM112.371 177.092C112.128 177.092 111.923 177.008 111.755 176.84C111.587 176.672 111.503 176.467 111.503 176.224C111.503 175.981 111.587 175.776 111.755 175.608C111.923 175.44 112.128 175.356 112.371 175.356C112.604 175.356 112.8 175.44 112.959 175.608C113.127 175.776 113.211 175.981 113.211 176.224C113.211 176.467 113.127 176.672 112.959 176.84C112.8 177.008 112.604 177.092 112.371 177.092Z" fill="#888888"/>
<path d="M319.179 180.326C319.179 180.774 319.067 181.203 318.843 181.614C318.619 182.015 318.287 182.351 317.849 182.622C317.419 182.893 316.901 183.047 316.295 183.084V184.218H315.539V183.084C314.689 183.009 313.999 182.739 313.467 182.272C312.935 181.796 312.664 181.194 312.655 180.466H314.013C314.05 180.858 314.195 181.199 314.447 181.488C314.708 181.777 315.072 181.959 315.539 182.034V178.534C314.913 178.375 314.409 178.212 314.027 178.044C313.644 177.876 313.317 177.615 313.047 177.26C312.776 176.905 312.641 176.429 312.641 175.832C312.641 175.076 312.902 174.451 313.425 173.956C313.957 173.461 314.661 173.186 315.539 173.13V171.968H316.295V173.13C317.088 173.195 317.727 173.452 318.213 173.9C318.698 174.339 318.978 174.913 319.053 175.622H317.695C317.648 175.295 317.503 175.001 317.261 174.74C317.018 174.469 316.696 174.292 316.295 174.208V177.624C316.911 177.783 317.41 177.946 317.793 178.114C318.185 178.273 318.511 178.529 318.773 178.884C319.043 179.239 319.179 179.719 319.179 180.326ZM313.943 175.762C313.943 176.219 314.078 176.569 314.349 176.812C314.619 177.055 315.016 177.255 315.539 177.414V174.18C315.053 174.227 314.666 174.385 314.377 174.656C314.087 174.917 313.943 175.286 313.943 175.762ZM316.295 182.048C316.799 181.992 317.191 181.81 317.471 181.502C317.76 181.194 317.905 180.825 317.905 180.396C317.905 179.939 317.765 179.589 317.485 179.346C317.205 179.094 316.808 178.893 316.295 178.744V182.048ZM321.042 174.04V172.878H323.674V183H322.386V174.04H321.042ZM325.862 177.834C325.862 176.229 326.123 174.978 326.646 174.082C327.169 173.177 328.083 172.724 329.39 172.724C330.687 172.724 331.597 173.177 332.12 174.082C332.643 174.978 332.904 176.229 332.904 177.834C332.904 179.467 332.643 180.737 332.12 181.642C331.597 182.547 330.687 183 329.39 183C328.083 183 327.169 182.547 326.646 181.642C326.123 180.737 325.862 179.467 325.862 177.834ZM331.644 177.834C331.644 177.022 331.588 176.336 331.476 175.776C331.373 175.207 331.154 174.749 330.818 174.404C330.491 174.059 330.015 173.886 329.39 173.886C328.755 173.886 328.27 174.059 327.934 174.404C327.607 174.749 327.388 175.207 327.276 175.776C327.173 176.336 327.122 177.022 327.122 177.834C327.122 178.674 327.173 179.379 327.276 179.948C327.388 180.517 327.607 180.975 327.934 181.32C328.27 181.665 328.755 181.838 329.39 181.838C330.015 181.838 330.491 181.665 330.818 181.32C331.154 180.975 331.373 180.517 331.476 179.948C331.588 179.379 331.644 178.674 331.644 177.834ZM335.269 183.084C335.026 183.084 334.821 183 334.653 182.832C334.485 182.664 334.401 182.459 334.401 182.216C334.401 181.973 334.485 181.768 334.653 181.6C334.821 181.432 335.026 181.348 335.269 181.348C335.502 181.348 335.698 181.432 335.857 181.6C336.025 181.768 336.109 181.973 336.109 182.216C336.109 182.459 336.025 182.664 335.857 182.832C335.698 183 335.502 183.084 335.269 183.084ZM344.047 173.984H339.133V177.176C339.347 176.877 339.665 176.635 340.085 176.448C340.505 176.252 340.957 176.154 341.443 176.154C342.217 176.154 342.847 176.317 343.333 176.644C343.818 176.961 344.163 177.377 344.369 177.89C344.583 178.394 344.691 178.931 344.691 179.5C344.691 180.172 344.565 180.774 344.313 181.306C344.061 181.838 343.673 182.258 343.151 182.566C342.637 182.874 341.998 183.028 341.233 183.028C340.253 183.028 339.459 182.776 338.853 182.272C338.246 181.768 337.877 181.096 337.747 180.256H338.993C339.114 180.788 339.371 181.203 339.763 181.502C340.155 181.801 340.649 181.95 341.247 181.95C341.984 181.95 342.539 181.731 342.913 181.292C343.286 180.844 343.473 180.256 343.473 179.528C343.473 178.8 343.286 178.24 342.913 177.848C342.539 177.447 341.989 177.246 341.261 177.246C340.766 177.246 340.332 177.367 339.959 177.61C339.595 177.843 339.329 178.165 339.161 178.576H337.957V172.864H344.047V173.984ZM346.048 174.04V172.878H348.68V183H347.392V174.04H346.048Z" fill="black"/>
<path d="M29.116 207.242C30.18 207.242 31.0993 207.443 31.874 207.844C32.658 208.236 33.2553 208.801 33.666 209.538C34.086 210.275 34.296 211.143 34.296 212.142C34.296 213.141 34.086 214.009 33.666 214.746C33.2553 215.474 32.658 216.034 31.874 216.426C31.0993 216.809 30.18 217 29.116 217H26.078V207.242H29.116ZM29.116 215.95C30.376 215.95 31.3373 215.619 32 214.956C32.6627 214.284 32.994 213.346 32.994 212.142C32.994 210.929 32.658 209.981 31.986 209.3C31.3233 208.619 30.3667 208.278 29.116 208.278H27.352V215.95H29.116ZM36.6344 208.082C36.3918 208.082 36.1864 207.998 36.0184 207.83C35.8504 207.662 35.7664 207.457 35.7664 207.214C35.7664 206.971 35.8504 206.766 36.0184 206.598C36.1864 206.43 36.3918 206.346 36.6344 206.346C36.8678 206.346 37.0638 206.43 37.2224 206.598C37.3904 206.766 37.4744 206.971 37.4744 207.214C37.4744 207.457 37.3904 207.662 37.2224 207.83C37.0638 207.998 36.8678 208.082 36.6344 208.082ZM37.2504 209.328V217H35.9764V209.328H37.2504ZM42.1378 217.126C41.5498 217.126 41.0224 217.028 40.5558 216.832C40.0891 216.627 39.7204 216.347 39.4498 215.992C39.1791 215.628 39.0298 215.213 39.0018 214.746H40.3178C40.3551 215.129 40.5324 215.441 40.8498 215.684C41.1764 215.927 41.6011 216.048 42.1238 216.048C42.6091 216.048 42.9918 215.941 43.2718 215.726C43.5518 215.511 43.6918 215.241 43.6918 214.914C43.6918 214.578 43.5424 214.331 43.2438 214.172C42.9451 214.004 42.4831 213.841 41.8578 213.682C41.2884 213.533 40.8218 213.383 40.4578 213.234C40.1031 213.075 39.7951 212.847 39.5338 212.548C39.2818 212.24 39.1558 211.839 39.1558 211.344C39.1558 210.952 39.2724 210.593 39.5058 210.266C39.7391 209.939 40.0704 209.683 40.4998 209.496C40.9291 209.3 41.4191 209.202 41.9698 209.202C42.8191 209.202 43.5051 209.417 44.0278 209.846C44.5504 210.275 44.8304 210.863 44.8678 211.61H43.5938C43.5658 211.209 43.4024 210.887 43.1038 210.644C42.8144 210.401 42.4224 210.28 41.9278 210.28C41.4704 210.28 41.1064 210.378 40.8358 210.574C40.5651 210.77 40.4298 211.027 40.4298 211.344C40.4298 211.596 40.5091 211.806 40.6678 211.974C40.8358 212.133 41.0411 212.263 41.2838 212.366C41.5358 212.459 41.8811 212.567 42.3198 212.688C42.8704 212.837 43.3184 212.987 43.6638 213.136C44.0091 213.276 44.3031 213.491 44.5458 213.78C44.7978 214.069 44.9284 214.447 44.9378 214.914C44.9378 215.334 44.8211 215.712 44.5878 216.048C44.3544 216.384 44.0231 216.65 43.5938 216.846C43.1738 217.033 42.6884 217.126 42.1378 217.126ZM46.2602 213.15C46.2602 212.357 46.4189 211.666 46.7362 211.078C47.0535 210.481 47.4922 210.019 48.0522 209.692C48.6215 209.365 49.2702 209.202 49.9982 209.202C50.9409 209.202 51.7155 209.431 52.3222 209.888C52.9382 210.345 53.3442 210.98 53.5402 211.792H52.1682C52.0375 211.325 51.7809 210.957 51.3982 210.686C51.0249 210.415 50.5582 210.28 49.9982 210.28C49.2702 210.28 48.6822 210.532 48.2342 211.036C47.7862 211.531 47.5622 212.235 47.5622 213.15C47.5622 214.074 47.7862 214.788 48.2342 215.292C48.6822 215.796 49.2702 216.048 49.9982 216.048C50.5582 216.048 51.0249 215.917 51.3982 215.656C51.7715 215.395 52.0282 215.021 52.1682 214.536H53.5402C53.3349 215.32 52.9242 215.95 52.3082 216.426C51.6922 216.893 50.9222 217.126 49.9982 217.126C49.2702 217.126 48.6215 216.963 48.0522 216.636C47.4922 216.309 47.0535 215.847 46.7362 215.25C46.4189 214.653 46.2602 213.953 46.2602 213.15ZM58.5861 217.126C57.8674 217.126 57.2141 216.963 56.6261 216.636C56.0474 216.309 55.5901 215.847 55.2541 215.25C54.9274 214.643 54.7641 213.943 54.7641 213.15C54.7641 212.366 54.9321 211.675 55.2681 211.078C55.6134 210.471 56.0801 210.009 56.6681 209.692C57.2561 209.365 57.9141 209.202 58.6421 209.202C59.3701 209.202 60.0281 209.365 60.6161 209.692C61.2041 210.009 61.6661 210.467 62.0021 211.064C62.3474 211.661 62.5201 212.357 62.5201 213.15C62.5201 213.943 62.3428 214.643 61.9881 215.25C61.6428 215.847 61.1714 216.309 60.5741 216.636C59.9768 216.963 59.3141 217.126 58.5861 217.126ZM58.5861 216.006C59.0434 216.006 59.4728 215.899 59.8741 215.684C60.2754 215.469 60.5974 215.147 60.8401 214.718C61.0921 214.289 61.2181 213.766 61.2181 213.15C61.2181 212.534 61.0968 212.011 60.8541 211.582C60.6114 211.153 60.2941 210.835 59.9021 210.63C59.5101 210.415 59.0854 210.308 58.6281 210.308C58.1614 210.308 57.7321 210.415 57.3401 210.63C56.9574 210.835 56.6494 211.153 56.4161 211.582C56.1828 212.011 56.0661 212.534 56.0661 213.15C56.0661 213.775 56.1781 214.303 56.4021 214.732C56.6354 215.161 56.9434 215.483 57.3261 215.698C57.7088 215.903 58.1288 216.006 58.5861 216.006ZM70.9992 209.328V217H69.7252V215.866C69.4825 216.258 69.1419 216.566 68.7032 216.79C68.2739 217.005 67.7979 217.112 67.2752 217.112C66.6779 217.112 66.1412 216.991 65.6652 216.748C65.1892 216.496 64.8112 216.123 64.5312 215.628C64.2605 215.133 64.1252 214.531 64.1252 213.822V209.328H65.3852V213.654C65.3852 214.41 65.5765 214.993 65.9592 215.404C66.3419 215.805 66.8645 216.006 67.5272 216.006C68.2085 216.006 68.7452 215.796 69.1372 215.376C69.5292 214.956 69.7252 214.345 69.7252 213.542V209.328H70.9992ZM76.8883 209.188C77.8216 209.188 78.5776 209.473 79.1563 210.042C79.7349 210.602 80.0243 211.414 80.0243 212.478V217H78.7643V212.66C78.7643 211.895 78.5729 211.311 78.1903 210.91C77.8076 210.499 77.2849 210.294 76.6223 210.294C75.9503 210.294 75.4136 210.504 75.0123 210.924C74.6203 211.344 74.4243 211.955 74.4243 212.758V217H73.1503V209.328H74.4243V210.42C74.6763 210.028 75.0169 209.725 75.4463 209.51C75.8849 209.295 76.3656 209.188 76.8883 209.188ZM83.6593 210.378V214.9C83.6593 215.273 83.7387 215.539 83.8973 215.698C84.056 215.847 84.3313 215.922 84.7233 215.922H85.6613V217H84.5133C83.804 217 83.272 216.837 82.9173 216.51C82.5627 216.183 82.3853 215.647 82.3853 214.9V210.378H81.3913V209.328H82.3853V207.396H83.6593V209.328H85.6613V210.378H83.6593ZM87.611 217.084C87.3683 217.084 87.163 217 86.995 216.832C86.827 216.664 86.743 216.459 86.743 216.216C86.743 215.973 86.827 215.768 86.995 215.6C87.163 215.432 87.3683 215.348 87.611 215.348C87.8443 215.348 88.0403 215.432 88.199 215.6C88.367 215.768 88.451 215.973 88.451 216.216C88.451 216.459 88.367 216.664 88.199 216.832C88.0403 217 87.8443 217.084 87.611 217.084ZM87.611 211.092C87.3683 211.092 87.163 211.008 86.995 210.84C86.827 210.672 86.743 210.467 86.743 210.224C86.743 209.981 86.827 209.776 86.995 209.608C87.163 209.44 87.3683 209.356 87.611 209.356C87.8443 209.356 88.0403 209.44 88.199 209.608C88.367 209.776 88.451 209.981 88.451 210.224C88.451 210.467 88.367 210.672 88.199 210.84C88.0403 211.008 87.8443 211.092 87.611 211.092Z" fill="#888888"/>
<rect x="270.5" y="197.5" width="79" height="29" rx="4.5" stroke="#E6E6E6"/>
<mask id="path-13-inside-1_327_7038" fill="white">
<path d="M25 237H350V265H25V237Z"/>
</mask>
<path d="M25 238H350V236H25V238Z" fill="#F0F0F0" mask="url(#path-13-inside-1_327_7038)"/>
<path d="M32.084 251.242V252.278H29.424V261H28.15V252.278H25.476V251.242H32.084ZM36.9982 261.126C36.2796 261.126 35.6262 260.963 35.0382 260.636C34.4596 260.309 34.0022 259.847 33.6662 259.25C33.3396 258.643 33.1762 257.943 33.1762 257.15C33.1762 256.366 33.3442 255.675 33.6802 255.078C34.0256 254.471 34.4922 254.009 35.0802 253.692C35.6682 253.365 36.3262 253.202 37.0542 253.202C37.7822 253.202 38.4402 253.365 39.0282 253.692C39.6162 254.009 40.0782 254.467 40.4142 255.064C40.7596 255.661 40.9322 256.357 40.9322 257.15C40.9322 257.943 40.7549 258.643 40.4002 259.25C40.0549 259.847 39.5836 260.309 38.9862 260.636C38.3889 260.963 37.7262 261.126 36.9982 261.126ZM36.9982 260.006C37.4556 260.006 37.8849 259.899 38.2862 259.684C38.6876 259.469 39.0096 259.147 39.2522 258.718C39.5042 258.289 39.6302 257.766 39.6302 257.15C39.6302 256.534 39.5089 256.011 39.2662 255.582C39.0236 255.153 38.7062 254.835 38.3142 254.63C37.9222 254.415 37.4976 254.308 37.0402 254.308C36.5736 254.308 36.1442 254.415 35.7522 254.63C35.3696 254.835 35.0616 255.153 34.8282 255.582C34.5949 256.011 34.4782 256.534 34.4782 257.15C34.4782 257.775 34.5902 258.303 34.8142 258.732C35.0476 259.161 35.3556 259.483 35.7382 259.698C36.1209 259.903 36.5409 260.006 36.9982 260.006ZM44.1613 254.378V258.9C44.1613 259.273 44.2406 259.539 44.3993 259.698C44.558 259.847 44.8333 259.922 45.2253 259.922H46.1633V261H45.0153C44.306 261 43.774 260.837 43.4193 260.51C43.0646 260.183 42.8873 259.647 42.8873 258.9V254.378H41.8933V253.328H42.8873V251.396H44.1613V253.328H46.1633V254.378H44.1613ZM47.2309 257.136C47.2309 256.352 47.3896 255.666 47.7069 255.078C48.0242 254.481 48.4582 254.019 49.0089 253.692C49.5689 253.365 50.1896 253.202 50.8709 253.202C51.5429 253.202 52.1262 253.347 52.6209 253.636C53.1156 253.925 53.4842 254.289 53.7269 254.728V253.328H55.0149V261H53.7269V259.572C53.4749 260.02 53.0969 260.393 52.5929 260.692C52.0982 260.981 51.5196 261.126 50.8569 261.126C50.1756 261.126 49.5596 260.958 49.0089 260.622C48.4582 260.286 48.0242 259.815 47.7069 259.208C47.3896 258.601 47.2309 257.911 47.2309 257.136ZM53.7269 257.15C53.7269 256.571 53.6102 256.067 53.3769 255.638C53.1436 255.209 52.8262 254.882 52.4249 254.658C52.0329 254.425 51.5989 254.308 51.1229 254.308C50.6469 254.308 50.2129 254.42 49.8209 254.644C49.4289 254.868 49.1162 255.195 48.8829 255.624C48.6496 256.053 48.5329 256.557 48.5329 257.136C48.5329 257.724 48.6496 258.237 48.8829 258.676C49.1162 259.105 49.4289 259.437 49.8209 259.67C50.2129 259.894 50.6469 260.006 51.1229 260.006C51.5989 260.006 52.0329 259.894 52.4249 259.67C52.8262 259.437 53.1436 259.105 53.3769 258.676C53.6102 258.237 53.7269 257.729 53.7269 257.15ZM58.4418 250.64V261H57.1678V250.64H58.4418ZM61.0192 261.084C60.7765 261.084 60.5712 261 60.4032 260.832C60.2352 260.664 60.1512 260.459 60.1512 260.216C60.1512 259.973 60.2352 259.768 60.4032 259.6C60.5712 259.432 60.7765 259.348 61.0192 259.348C61.2525 259.348 61.4485 259.432 61.6072 259.6C61.7752 259.768 61.8592 259.973 61.8592 260.216C61.8592 260.459 61.7752 260.664 61.6072 260.832C61.4485 261 61.2525 261.084 61.0192 261.084ZM61.0192 255.092C60.7765 255.092 60.5712 255.008 60.4032 254.84C60.2352 254.672 60.1512 254.467 60.1512 254.224C60.1512 253.981 60.2352 253.776 60.4032 253.608C60.5712 253.44 60.7765 253.356 61.0192 253.356C61.2525 253.356 61.4485 253.44 61.6072 253.608C61.7752 253.776 61.8592 253.981 61.8592 254.224C61.8592 254.467 61.7752 254.672 61.6072 254.84C61.4485 255.008 61.2525 255.092 61.0192 255.092Z" fill="black"/>
<path d="M319.179 258.326C319.179 258.774 319.067 259.203 318.843 259.614C318.619 260.015 318.287 260.351 317.849 260.622C317.419 260.893 316.901 261.047 316.295 261.084V262.218H315.539V261.084C314.689 261.009 313.999 260.739 313.467 260.272C312.935 259.796 312.664 259.194 312.655 258.466H314.013C314.05 258.858 314.195 259.199 314.447 259.488C314.708 259.777 315.072 259.959 315.539 260.034V256.534C314.913 256.375 314.409 256.212 314.027 256.044C313.644 255.876 313.317 255.615 313.047 255.26C312.776 254.905 312.641 254.429 312.641 253.832C312.641 253.076 312.902 252.451 313.425 251.956C313.957 251.461 314.661 251.186 315.539 251.13V249.968H316.295V251.13C317.088 251.195 317.727 251.452 318.213 251.9C318.698 252.339 318.978 252.913 319.053 253.622H317.695C317.648 253.295 317.503 253.001 317.261 252.74C317.018 252.469 316.696 252.292 316.295 252.208V255.624C316.911 255.783 317.41 255.946 317.793 256.114C318.185 256.273 318.511 256.529 318.773 256.884C319.043 257.239 319.179 257.719 319.179 258.326ZM313.943 253.762C313.943 254.219 314.078 254.569 314.349 254.812C314.619 255.055 315.016 255.255 315.539 255.414V252.18C315.053 252.227 314.666 252.385 314.377 252.656C314.087 252.917 313.943 253.286 313.943 253.762ZM316.295 260.048C316.799 259.992 317.191 259.81 317.471 259.502C317.76 259.194 317.905 258.825 317.905 258.396C317.905 257.939 317.765 257.589 317.485 257.346C317.205 257.094 316.808 256.893 316.295 256.744V260.048ZM321.042 252.04V250.878H323.674V261H322.386V252.04H321.042ZM325.862 255.834C325.862 254.229 326.123 252.978 326.646 252.082C327.169 251.177 328.083 250.724 329.39 250.724C330.687 250.724 331.597 251.177 332.12 252.082C332.643 252.978 332.904 254.229 332.904 255.834C332.904 257.467 332.643 258.737 332.12 259.642C331.597 260.547 330.687 261 329.39 261C328.083 261 327.169 260.547 326.646 259.642C326.123 258.737 325.862 257.467 325.862 255.834ZM331.644 255.834C331.644 255.022 331.588 254.336 331.476 253.776C331.373 253.207 331.154 252.749 330.818 252.404C330.491 252.059 330.015 251.886 329.39 251.886C328.755 251.886 328.27 252.059 327.934 252.404C327.607 252.749 327.388 253.207 327.276 253.776C327.173 254.336 327.122 255.022 327.122 255.834C327.122 256.674 327.173 257.379 327.276 257.948C327.388 258.517 327.607 258.975 327.934 259.32C328.27 259.665 328.755 259.838 329.39 259.838C330.015 259.838 330.491 259.665 330.818 259.32C331.154 258.975 331.373 258.517 331.476 257.948C331.588 257.379 331.644 256.674 331.644 255.834ZM335.269 261.084C335.026 261.084 334.821 261 334.653 260.832C334.485 260.664 334.401 260.459 334.401 260.216C334.401 259.973 334.485 259.768 334.653 259.6C334.821 259.432 335.026 259.348 335.269 259.348C335.502 259.348 335.698 259.432 335.857 259.6C336.025 259.768 336.109 259.973 336.109 260.216C336.109 260.459 336.025 260.664 335.857 260.832C335.698 261 335.502 261.084 335.269 261.084ZM344.047 251.984H339.133V255.176C339.347 254.877 339.665 254.635 340.085 254.448C340.505 254.252 340.957 254.154 341.443 254.154C342.217 254.154 342.847 254.317 343.333 254.644C343.818 254.961 344.163 255.377 344.369 255.89C344.583 256.394 344.691 256.931 344.691 257.5C344.691 258.172 344.565 258.774 344.313 259.306C344.061 259.838 343.673 260.258 343.151 260.566C342.637 260.874 341.998 261.028 341.233 261.028C340.253 261.028 339.459 260.776 338.853 260.272C338.246 259.768 337.877 259.096 337.747 258.256H338.993C339.114 258.788 339.371 259.203 339.763 259.502C340.155 259.801 340.649 259.95 341.247 259.95C341.984 259.95 342.539 259.731 342.913 259.292C343.286 258.844 343.473 258.256 343.473 257.528C343.473 256.8 343.286 256.24 342.913 255.848C342.539 255.447 341.989 255.246 341.261 255.246C340.766 255.246 340.332 255.367 339.959 255.61C339.595 255.843 339.329 256.165 339.161 256.576H337.957V250.864H344.047V251.984ZM346.048 252.04V250.878H348.68V261H347.392V252.04H346.048Z" fill="black"/>
<rect x="25" y="104" width="159" height="45" rx="7" fill="#0085FE" fill-opacity="0.1"/>
<path d="M37.9653 126.114C37.9653 125.162 38.1846 124.308 38.6233 123.552C39.0713 122.796 39.6733 122.208 40.4293 121.788C41.1946 121.359 42.0299 121.144 42.9353 121.144C43.9713 121.144 44.8906 121.401 45.6933 121.914C46.5053 122.418 47.0933 123.137 47.4573 124.07H45.5393C45.2873 123.557 44.9373 123.174 44.4893 122.922C44.0413 122.67 43.5233 122.544 42.9353 122.544C42.2913 122.544 41.7173 122.689 41.2133 122.978C40.7093 123.267 40.3126 123.683 40.0233 124.224C39.7433 124.765 39.6033 125.395 39.6033 126.114C39.6033 126.833 39.7433 127.463 40.0233 128.004C40.3126 128.545 40.7093 128.965 41.2133 129.264C41.7173 129.553 42.2913 129.698 42.9353 129.698C43.5233 129.698 44.0413 129.572 44.4893 129.32C44.9373 129.068 45.2873 128.685 45.5393 128.172H47.4573C47.0933 129.105 46.5053 129.824 45.6933 130.328C44.8906 130.832 43.9713 131.084 42.9353 131.084C42.0206 131.084 41.1853 130.874 40.4293 130.454C39.6733 130.025 39.0713 129.432 38.6233 128.676C38.1846 127.92 37.9653 127.066 37.9653 126.114ZM50.9074 121.27V127.472C50.9074 128.209 51.0987 128.765 51.4814 129.138C51.8734 129.511 52.4147 129.698 53.1054 129.698C53.8054 129.698 54.3467 129.511 54.7294 129.138C55.1214 128.765 55.3174 128.209 55.3174 127.472V121.27H56.9134V127.444C56.9134 128.237 56.7407 128.909 56.3954 129.46C56.0501 130.011 55.5881 130.421 55.0094 130.692C54.4307 130.963 53.7914 131.098 53.0914 131.098C52.3914 131.098 51.7521 130.963 51.1734 130.692C50.6041 130.421 50.1514 130.011 49.8154 129.46C49.4794 128.909 49.3114 128.237 49.3114 127.444V121.27H50.9074ZM62.1974 131.098C61.5441 131.098 60.9561 130.986 60.4334 130.762C59.9107 130.529 59.5001 130.202 59.2014 129.782C58.9027 129.362 58.7534 128.872 58.7534 128.312H60.4614C60.4987 128.732 60.6621 129.077 60.9514 129.348C61.2501 129.619 61.6654 129.754 62.1974 129.754C62.7481 129.754 63.1774 129.623 63.4854 129.362C63.7934 129.091 63.9474 128.746 63.9474 128.326C63.9474 127.999 63.8494 127.733 63.6534 127.528C63.4667 127.323 63.2287 127.164 62.9394 127.052C62.6594 126.94 62.2674 126.819 61.7634 126.688C61.1287 126.52 60.6107 126.352 60.2094 126.184C59.8174 126.007 59.4814 125.736 59.2014 125.372C58.9214 125.008 58.7814 124.523 58.7814 123.916C58.7814 123.356 58.9214 122.866 59.2014 122.446C59.4814 122.026 59.8734 121.704 60.3774 121.48C60.8814 121.256 61.4647 121.144 62.1274 121.144C63.0701 121.144 63.8401 121.382 64.4374 121.858C65.0441 122.325 65.3801 122.969 65.4454 123.79H63.6814C63.6534 123.435 63.4854 123.132 63.1774 122.88C62.8694 122.628 62.4634 122.502 61.9594 122.502C61.5021 122.502 61.1287 122.619 60.8394 122.852C60.5501 123.085 60.4054 123.421 60.4054 123.86C60.4054 124.159 60.4941 124.406 60.6714 124.602C60.8581 124.789 61.0914 124.938 61.3714 125.05C61.6514 125.162 62.0341 125.283 62.5194 125.414C63.1634 125.591 63.6861 125.769 64.0874 125.946C64.4981 126.123 64.8434 126.399 65.1234 126.772C65.4127 127.136 65.5574 127.626 65.5574 128.242C65.5574 128.737 65.4221 129.203 65.1514 129.642C64.8901 130.081 64.5027 130.435 63.9894 130.706C63.4854 130.967 62.8881 131.098 62.1974 131.098ZM73.7266 121.27V122.572H71.1366V131H69.5406V122.572H66.9366V121.27H73.7266ZM79.781 131.098C78.8756 131.098 78.0403 130.888 77.275 130.468C76.519 130.039 75.917 129.446 75.469 128.69C75.0303 127.925 74.811 127.066 74.811 126.114C74.811 125.162 75.0303 124.308 75.469 123.552C75.917 122.796 76.519 122.208 77.275 121.788C78.0403 121.359 78.8756 121.144 79.781 121.144C80.6956 121.144 81.531 121.359 82.287 121.788C83.0523 122.208 83.6543 122.796 84.093 123.552C84.5316 124.308 84.751 125.162 84.751 126.114C84.751 127.066 84.5316 127.925 84.093 128.69C83.6543 129.446 83.0523 130.039 82.287 130.468C81.531 130.888 80.6956 131.098 79.781 131.098ZM79.781 129.712C80.425 129.712 80.999 129.567 81.503 129.278C82.007 128.979 82.399 128.559 82.679 128.018C82.9683 127.467 83.113 126.833 83.113 126.114C83.113 125.395 82.9683 124.765 82.679 124.224C82.399 123.683 82.007 123.267 81.503 122.978C80.999 122.689 80.425 122.544 79.781 122.544C79.137 122.544 78.563 122.689 78.059 122.978C77.555 123.267 77.1583 123.683 76.869 124.224C76.589 124.765 76.449 125.395 76.449 126.114C76.449 126.833 76.589 127.467 76.869 128.018C77.1583 128.559 77.555 128.979 78.059 129.278C78.563 129.567 79.137 129.712 79.781 129.712ZM96.5695 121.27V131H94.9735V124.336L92.0055 131H90.8995L87.9175 124.336V131H86.3215V121.27H88.0435L91.4595 128.9L94.8615 121.27H96.5695ZM100.263 122.558V125.414H103.623V126.716H100.263V129.698H104.043V131H98.6672V121.256H104.043V122.558H100.263ZM111.063 131L108.823 127.108H107.605V131H106.009V121.27H109.369C110.116 121.27 110.746 121.401 111.259 121.662C111.782 121.923 112.169 122.273 112.421 122.712C112.682 123.151 112.813 123.641 112.813 124.182C112.813 124.817 112.626 125.395 112.253 125.918C111.889 126.431 111.324 126.781 110.559 126.968L112.967 131H111.063ZM107.605 125.834H109.369C109.966 125.834 110.414 125.685 110.713 125.386C111.021 125.087 111.175 124.686 111.175 124.182C111.175 123.678 111.026 123.286 110.727 123.006C110.428 122.717 109.976 122.572 109.369 122.572H107.605V125.834ZM123.545 131L121.305 127.108H120.087V131H118.491V121.27H121.851C122.598 121.27 123.228 121.401 123.741 121.662C124.264 121.923 124.651 122.273 124.903 122.712C125.165 123.151 125.295 123.641 125.295 124.182C125.295 124.817 125.109 125.395 124.735 125.918C124.371 126.431 123.807 126.781 123.041 126.968L125.449 131H123.545ZM120.087 125.834H121.851C122.449 125.834 122.897 125.685 123.195 125.386C123.503 125.087 123.657 124.686 123.657 124.182C123.657 123.678 123.508 123.286 123.209 123.006C122.911 122.717 122.458 122.572 121.851 122.572H120.087V125.834ZM128.933 122.558V125.414H132.293V126.716H128.933V129.698H132.713V131H127.337V121.256H132.713V122.558H128.933ZM134.147 126.114C134.147 125.162 134.366 124.308 134.805 123.552C135.253 122.796 135.855 122.208 136.611 121.788C137.376 121.359 138.212 121.144 139.117 121.144C140.153 121.144 141.072 121.401 141.875 121.914C142.687 122.418 143.275 123.137 143.639 124.07H141.721C141.469 123.557 141.119 123.174 140.671 122.922C140.223 122.67 139.705 122.544 139.117 122.544C138.473 122.544 137.899 122.689 137.395 122.978C136.891 123.267 136.494 123.683 136.205 124.224C135.925 124.765 135.785 125.395 135.785 126.114C135.785 126.833 135.925 127.463 136.205 128.004C136.494 128.545 136.891 128.965 137.395 129.264C137.899 129.553 138.473 129.698 139.117 129.698C139.705 129.698 140.223 129.572 140.671 129.32C141.119 129.068 141.469 128.685 141.721 128.172H143.639C143.275 129.105 142.687 129.824 141.875 130.328C141.072 130.832 140.153 131.084 139.117 131.084C138.202 131.084 137.367 130.874 136.611 130.454C135.855 130.025 135.253 129.432 134.805 128.676C134.366 127.92 134.147 127.066 134.147 126.114ZM147.103 122.558V125.414H150.463V126.716H147.103V129.698H150.883V131H145.507V121.256H150.883V122.558H147.103ZM154.445 121.27V131H152.849V121.27H154.445ZM164.926 121.27L161.272 131H159.424L155.756 121.27H157.464L160.348 129.362L163.246 121.27H164.926ZM167.857 122.558V125.414H171.217V126.716H167.857V129.698H171.637V131H166.261V121.256H171.637V122.558H167.857Z" fill="#0085FE"/>
<rect x="199" y="104" width="151" height="45" rx="7" fill="#F8F8F8"/>
<path d="M230.529 121.27C231.565 121.27 232.47 121.471 233.245 121.872C234.029 122.264 234.631 122.833 235.051 123.58C235.48 124.317 235.695 125.181 235.695 126.17C235.695 127.159 235.48 128.018 235.051 128.746C234.631 129.474 234.029 130.034 233.245 130.426C232.47 130.809 231.565 131 230.529 131H227.351V121.27H230.529ZM230.529 129.698C231.667 129.698 232.54 129.39 233.147 128.774C233.753 128.158 234.057 127.29 234.057 126.17C234.057 125.041 233.753 124.159 233.147 123.524C232.54 122.889 231.667 122.572 230.529 122.572H228.947V129.698H230.529ZM238.873 122.558V125.414H242.233V126.716H238.873V129.698H242.653V131H237.277V121.256H242.653V122.558H238.873ZM246.214 129.712H249.504V131H244.618V121.27H246.214V129.712ZM252.435 121.27V131H250.839V121.27H252.435ZM262.916 121.27L259.262 131H257.414L253.746 121.27H255.454L258.338 129.362L261.236 121.27H262.916ZM265.847 122.558V125.414H269.207V126.716H265.847V129.698H269.627V131H264.251V121.256H269.627V122.558H265.847ZM276.647 131L274.407 127.108H273.189V131H271.593V121.27H274.953C275.7 121.27 276.33 121.401 276.843 121.662C277.366 121.923 277.753 122.273 278.005 122.712C278.266 123.151 278.397 123.641 278.397 124.182C278.397 124.817 278.21 125.395 277.837 125.918C277.473 126.431 276.908 126.781 276.143 126.968L278.551 131H276.647ZM273.189 125.834H274.953C275.55 125.834 275.998 125.685 276.297 125.386C276.605 125.087 276.759 124.686 276.759 124.182C276.759 123.678 276.61 123.286 276.311 123.006C276.012 122.717 275.56 122.572 274.953 122.572H273.189V125.834ZM287.649 121.27L284.429 127.472V131H282.833V127.472L279.599 121.27H281.377L283.631 126.044L285.885 121.27H287.649ZM302.8 121.27V131H301.204V124.336L298.236 131H297.13L294.148 124.336V131H292.552V121.27H294.274L297.69 128.9L301.092 121.27H302.8ZM310.764 129.012H306.69L305.99 131H304.324L307.81 121.256H309.658L313.144 131H311.464L310.764 129.012ZM310.316 127.71L308.734 123.188L307.138 127.71H310.316ZM322.653 131H321.057L316.255 123.734V131H314.659V121.256H316.255L321.057 128.508V121.256H322.653V131Z" fill="#AAAAAA"/>
<rect x="64.5" y="83.5" width="39" height="39" rx="9.5" transform="rotate(180 64.5 83.5)" stroke="#F0F0F0"/>
<path d="M48.5 71L41.5 64L48.5 57" stroke="#AAAAAA" stroke-width="1.5" stroke-linecap="round" stroke-linejoin="round"/>
<path d="M144.439 71.14C143.506 71.14 142.666 70.98 141.919 70.66C141.173 70.3267 140.586 69.86 140.159 69.26C139.733 68.66 139.519 67.96 139.519 67.16H141.959C142.013 67.76 142.246 68.2533 142.659 68.64C143.086 69.0267 143.679 69.22 144.439 69.22C145.226 69.22 145.839 69.0333 146.279 68.66C146.719 68.2733 146.939 67.78 146.939 67.18C146.939 66.7133 146.799 66.3333 146.519 66.04C146.253 65.7467 145.913 65.52 145.499 65.36C145.099 65.2 144.539 65.0267 143.819 64.84C142.913 64.6 142.173 64.36 141.599 64.12C141.039 63.8667 140.559 63.48 140.159 62.96C139.759 62.44 139.559 61.7467 139.559 60.88C139.559 60.08 139.759 59.38 140.159 58.78C140.559 58.18 141.119 57.72 141.839 57.4C142.559 57.08 143.393 56.92 144.339 56.92C145.686 56.92 146.786 57.26 147.639 57.94C148.506 58.6067 148.986 59.5267 149.079 60.7H146.559C146.519 60.1933 146.279 59.76 145.839 59.4C145.399 59.04 144.819 58.86 144.099 58.86C143.446 58.86 142.913 59.0267 142.499 59.36C142.086 59.6933 141.879 60.1733 141.879 60.8C141.879 61.2267 142.006 61.58 142.259 61.86C142.526 62.1267 142.859 62.34 143.259 62.5C143.659 62.66 144.206 62.8333 144.899 63.02C145.819 63.2733 146.566 63.5267 147.139 63.78C147.726 64.0333 148.219 64.4267 148.619 64.96C149.033 65.48 149.239 66.18 149.239 67.06C149.239 67.7667 149.046 68.4333 148.659 69.06C148.286 69.6867 147.733 70.1933 146.999 70.58C146.279 70.9533 145.426 71.14 144.439 71.14ZM161.91 59.98V71H159.63V69.7C159.27 70.1533 158.796 70.5133 158.21 70.78C157.636 71.0333 157.023 71.16 156.37 71.16C155.503 71.16 154.723 70.98 154.03 70.62C153.35 70.26 152.81 69.7267 152.41 69.02C152.023 68.3133 151.83 67.46 151.83 66.46V59.98H154.09V66.12C154.09 67.1067 154.336 67.8667 154.83 68.4C155.323 68.92 155.996 69.18 156.85 69.18C157.703 69.18 158.376 68.92 158.87 68.4C159.376 67.8667 159.63 67.1067 159.63 66.12V59.98H161.91ZM178.258 59.8C179.125 59.8 179.898 59.98 180.578 60.34C181.271 60.7 181.811 61.2333 182.198 61.94C182.598 62.6467 182.798 63.5 182.798 64.5V71H180.538V64.84C180.538 63.8533 180.291 63.1 179.798 62.58C179.305 62.0467 178.631 61.78 177.778 61.78C176.925 61.78 176.245 62.0467 175.738 62.58C175.245 63.1 174.998 63.8533 174.998 64.84V71H172.738V64.84C172.738 63.8533 172.491 63.1 171.998 62.58C171.505 62.0467 170.831 61.78 169.978 61.78C169.125 61.78 168.445 62.0467 167.938 62.58C167.445 63.1 167.198 63.8533 167.198 64.84V71H164.918V59.98H167.198V61.24C167.571 60.7867 168.045 60.4333 168.618 60.18C169.191 59.9267 169.805 59.8 170.458 59.8C171.338 59.8 172.125 59.9867 172.818 60.36C173.511 60.7333 174.045 61.2733 174.418 61.98C174.751 61.3133 175.271 60.7867 175.978 60.4C176.685 60 177.445 59.8 178.258 59.8ZM199.039 59.8C199.906 59.8 200.679 59.98 201.359 60.34C202.053 60.7 202.593 61.2333 202.979 61.94C203.379 62.6467 203.579 63.5 203.579 64.5V71H201.319V64.84C201.319 63.8533 201.073 63.1 200.579 62.58C200.086 62.0467 199.413 61.78 198.559 61.78C197.706 61.78 197.026 62.0467 196.519 62.58C196.026 63.1 195.779 63.8533 195.779 64.84V71H193.519V64.84C193.519 63.8533 193.273 63.1 192.779 62.58C192.286 62.0467 191.613 61.78 190.759 61.78C189.906 61.78 189.226 62.0467 188.719 62.58C188.226 63.1 187.979 63.8533 187.979 64.84V71H185.699V59.98H187.979V61.24C188.353 60.7867 188.826 60.4333 189.399 60.18C189.973 59.9267 190.586 59.8 191.239 59.8C192.119 59.8 192.906 59.9867 193.599 60.36C194.293 60.7333 194.826 61.2733 195.199 61.98C195.533 61.3133 196.053 60.7867 196.759 60.4C197.466 60 198.226 59.8 199.039 59.8ZM216.58 65.22C216.58 65.6333 216.554 66.0067 216.5 66.34H208.08C208.147 67.22 208.474 67.9267 209.06 68.46C209.647 68.9933 210.367 69.26 211.22 69.26C212.447 69.26 213.314 68.7467 213.82 67.72H216.28C215.947 68.7333 215.34 69.5667 214.46 70.22C213.594 70.86 212.514 71.18 211.22 71.18C210.167 71.18 209.22 70.9467 208.38 70.48C207.554 70 206.9 69.3333 206.42 68.48C205.954 67.6133 205.72 66.6133 205.72 65.48C205.72 64.3467 205.947 63.3533 206.4 62.5C206.867 61.6333 207.514 60.9667 208.34 60.5C209.18 60.0333 210.14 59.8 211.22 59.8C212.26 59.8 213.187 60.0267 214 60.48C214.814 60.9333 215.447 61.5733 215.9 62.4C216.354 63.2133 216.58 64.1533 216.58 65.22ZM214.2 64.5C214.187 63.66 213.887 62.9867 213.3 62.48C212.714 61.9733 211.987 61.72 211.12 61.72C210.334 61.72 209.66 61.9733 209.1 62.48C208.54 62.9733 208.207 63.6467 208.1 64.5H214.2ZM221.104 61.58C221.438 61.02 221.878 60.5867 222.424 60.28C222.984 59.96 223.644 59.8 224.404 59.8V62.16H223.824C222.931 62.16 222.251 62.3867 221.784 62.84C221.331 63.2933 221.104 64.08 221.104 65.2V71H218.824V59.98H221.104V61.58ZM236.42 59.98L229.66 76.18H227.3L229.54 70.82L225.2 59.98H227.74L230.84 68.38L234.06 59.98H236.42Z" fill="black"/>
<rect x="349.5" y="83.5" width="39" height="39" rx="9.5" transform="rotate(180 349.5 83.5)" stroke="#F0F0F0"/>
<g clip-path="url(#clip0_327_7038)">
<path d="M330 56.5C329.083 56.5 328.333 57.25 328.333 58.1667C328.333 59.0833 329.083 59.8333 330 59.8333C330.917 59.8333 331.667 59.0833 331.667 58.1667C331.667 57.25 330.917 56.5 330 56.5ZM330 68.1667C329.083 68.1667 328.333 68.9167 328.333 69.8333C328.333 70.75 329.083 71.5 330 71.5C330.917 71.5 331.667 70.75 331.667 69.8333C331.667 68.9167 330.917 68.1667 330 68.1667ZM330 62.3333C329.083 62.3333 328.333 63.0833 328.333 64C328.333 64.9167 329.083 65.6667 330 65.6667C330.917 65.6667 331.667 64.9167 331.667 64C331.667 63.0833 330.917 62.3333 330 62.3333Z" fill="#AAAAAA"/>
</g>
<defs>
<clipPath id="clip0_327_7038">
<rect width="20" height="20" fill="white" transform="translate(320 54)"/>
</clipPath>
</defs>
</svg>
