<svg width="375" height="812" viewBox="0 0 375 812" fill="none" xmlns="http://www.w3.org/2000/svg">
<rect width="375" height="812" fill="white"/>
<rect x="38" y="491.256" width="300" height="89.7436" rx="10" fill="#0085FE" fill-opacity="0.05"/>
<rect x="53" y="550.088" width="270" height="4.98575" rx="2.49288" fill="#0085FE" fill-opacity="0.15"/>
<rect x="53" y="550.088" width="30" height="4.98575" rx="2.49288" fill="#0085FE"/>
<path d="M59.591 533.524L55.977 542H54.781L58.447 533.641H53.429V532.627H59.591V533.524ZM60.9027 537.203C60.9027 535.712 61.1453 534.551 61.6307 533.719C62.116 532.878 62.9653 532.458 64.1787 532.458C65.3833 532.458 66.2283 532.878 66.7137 533.719C67.199 534.551 67.4417 535.712 67.4417 537.203C67.4417 538.72 67.199 539.898 66.7137 540.739C66.2283 541.58 65.3833 542 64.1787 542C62.9653 542 62.116 541.58 61.6307 540.739C61.1453 539.898 60.9027 538.72 60.9027 537.203ZM66.2717 537.203C66.2717 536.449 66.2197 535.812 66.1157 535.292C66.0203 534.763 65.8167 534.339 65.5047 534.018C65.2013 533.697 64.7593 533.537 64.1787 533.537C63.5893 533.537 63.1387 533.697 62.8267 534.018C62.5233 534.339 62.3197 534.763 62.2157 535.292C62.1203 535.812 62.0727 536.449 62.0727 537.203C62.0727 537.983 62.1203 538.637 62.2157 539.166C62.3197 539.695 62.5233 540.119 62.8267 540.44C63.1387 540.761 63.5893 540.921 64.1787 540.921C64.7593 540.921 65.2013 540.761 65.5047 540.44C65.8167 540.119 66.0203 539.695 66.1157 539.166C66.2197 538.637 66.2717 537.983 66.2717 537.203ZM68.8058 534.72C68.8058 534.131 68.9834 533.663 69.3388 533.316C69.6941 532.961 70.1491 532.783 70.7038 532.783C71.2584 532.783 71.7134 532.961 72.0688 533.316C72.4241 533.663 72.6018 534.131 72.6018 534.72C72.6018 535.318 72.4241 535.795 72.0688 536.15C71.7134 536.497 71.2584 536.67 70.7038 536.67C70.1491 536.67 69.6941 536.497 69.3388 536.15C68.9834 535.795 68.8058 535.318 68.8058 534.72ZM76.3978 532.926L71.1328 542H69.9628L75.2278 532.926H76.3978ZM70.7038 533.511C70.4091 533.511 70.1751 533.615 70.0018 533.823C69.8371 534.022 69.7548 534.321 69.7548 534.72C69.7548 535.119 69.8371 535.422 70.0018 535.63C70.1751 535.838 70.4091 535.942 70.7038 535.942C70.9984 535.942 71.2324 535.838 71.4058 535.63C71.5791 535.413 71.6658 535.11 71.6658 534.72C71.6658 534.321 71.5791 534.022 71.4058 533.823C71.2324 533.615 70.9984 533.511 70.7038 533.511ZM73.7848 540.206C73.7848 539.608 73.9624 539.136 74.3178 538.789C74.6731 538.434 75.1281 538.256 75.6828 538.256C76.2374 538.256 76.6881 538.434 77.0348 538.789C77.3901 539.136 77.5678 539.608 77.5678 540.206C77.5678 540.795 77.3901 541.268 77.0348 541.623C76.6881 541.978 76.2374 542.156 75.6828 542.156C75.1281 542.156 74.6731 541.983 74.3178 541.636C73.9624 541.281 73.7848 540.804 73.7848 540.206ZM75.6698 538.997C75.3751 538.997 75.1411 539.101 74.9678 539.309C74.7944 539.508 74.7078 539.807 74.7078 540.206C74.7078 540.596 74.7944 540.895 74.9678 541.103C75.1411 541.302 75.3751 541.402 75.6698 541.402C75.9644 541.402 76.1984 541.302 76.3718 541.103C76.5451 540.895 76.6318 540.596 76.6318 540.206C76.6318 539.807 76.5451 539.508 76.3718 539.309C76.1984 539.101 75.9644 538.997 75.6698 538.997ZM92.7933 537.203C92.7933 535.712 93.036 534.551 93.5213 533.719C94.0066 532.878 94.856 532.458 96.0693 532.458C97.274 532.458 98.119 532.878 98.6043 533.719C99.0896 534.551 99.3323 535.712 99.3323 537.203C99.3323 538.72 99.0896 539.898 98.6043 540.739C98.119 541.58 97.274 542 96.0693 542C94.856 542 94.0066 541.58 93.5213 540.739C93.036 539.898 92.7933 538.72 92.7933 537.203ZM98.1623 537.203C98.1623 536.449 98.1103 535.812 98.0063 535.292C97.911 534.763 97.7073 534.339 97.3953 534.018C97.092 533.697 96.65 533.537 96.0693 533.537C95.48 533.537 95.0293 533.697 94.7173 534.018C94.414 534.339 94.2103 534.763 94.1063 535.292C94.011 535.812 93.9633 536.449 93.9633 537.203C93.9633 537.983 94.011 538.637 94.1063 539.166C94.2103 539.695 94.414 540.119 94.7173 540.44C95.0293 540.761 95.48 540.921 96.0693 540.921C96.65 540.921 97.092 540.761 97.3953 540.44C97.7073 540.119 97.911 539.695 98.0063 539.166C98.1103 538.637 98.1623 537.983 98.1623 537.203ZM100.93 534.967C100.991 534.17 101.299 533.546 101.853 533.095C102.408 532.644 103.127 532.419 104.011 532.419C104.601 532.419 105.108 532.527 105.532 532.744C105.966 532.952 106.291 533.238 106.507 533.602C106.733 533.966 106.845 534.378 106.845 534.837C106.845 535.374 106.689 535.838 106.377 536.228C106.074 536.618 105.675 536.869 105.181 536.982V537.047C105.745 537.186 106.191 537.459 106.52 537.866C106.85 538.273 107.014 538.806 107.014 539.465C107.014 539.959 106.902 540.405 106.676 540.804C106.451 541.194 106.113 541.502 105.662 541.727C105.212 541.952 104.67 542.065 104.037 542.065C103.119 542.065 102.365 541.827 101.775 541.35C101.186 540.865 100.857 540.18 100.787 539.296H101.931C101.992 539.816 102.204 540.241 102.568 540.57C102.932 540.899 103.418 541.064 104.024 541.064C104.631 541.064 105.09 540.908 105.402 540.596C105.723 540.275 105.883 539.864 105.883 539.361C105.883 538.711 105.667 538.243 105.233 537.957C104.8 537.671 104.146 537.528 103.27 537.528H102.971V536.54H103.283C104.081 536.531 104.683 536.401 105.09 536.15C105.498 535.89 105.701 535.491 105.701 534.954C105.701 534.495 105.55 534.126 105.246 533.849C104.952 533.572 104.527 533.433 103.972 533.433C103.435 533.433 103.002 533.572 102.672 533.849C102.343 534.126 102.148 534.499 102.087 534.967H100.93ZM114.794 542.117C114.248 542.117 113.759 542.026 113.325 541.844C112.892 541.653 112.55 541.393 112.298 541.064C112.047 540.726 111.908 540.34 111.882 539.907H113.104C113.139 540.262 113.304 540.553 113.598 540.778C113.902 541.003 114.296 541.116 114.781 541.116C115.232 541.116 115.587 541.016 115.847 540.817C116.107 540.618 116.237 540.366 116.237 540.063C116.237 539.751 116.099 539.521 115.821 539.374C115.544 539.218 115.115 539.066 114.534 538.919C114.006 538.78 113.572 538.642 113.234 538.503C112.905 538.356 112.619 538.143 112.376 537.866C112.142 537.58 112.025 537.207 112.025 536.748C112.025 536.384 112.134 536.05 112.35 535.747C112.567 535.444 112.875 535.205 113.273 535.032C113.672 534.85 114.127 534.759 114.638 534.759C115.427 534.759 116.064 534.958 116.549 535.357C117.035 535.756 117.295 536.302 117.329 536.995H116.146C116.12 536.622 115.969 536.323 115.691 536.098C115.423 535.873 115.059 535.76 114.599 535.76C114.175 535.76 113.837 535.851 113.585 536.033C113.334 536.215 113.208 536.453 113.208 536.748C113.208 536.982 113.282 537.177 113.429 537.333C113.585 537.48 113.776 537.602 114.001 537.697C114.235 537.784 114.556 537.883 114.963 537.996C115.475 538.135 115.891 538.273 116.211 538.412C116.532 538.542 116.805 538.741 117.03 539.01C117.264 539.279 117.386 539.63 117.394 540.063C117.394 540.453 117.286 540.804 117.069 541.116C116.853 541.428 116.545 541.675 116.146 541.857C115.756 542.03 115.306 542.117 114.794 542.117ZM125.564 538.165C125.564 538.39 125.551 538.629 125.525 538.88H119.831C119.875 539.582 120.113 540.132 120.546 540.531C120.988 540.921 121.521 541.116 122.145 541.116C122.657 541.116 123.081 540.999 123.419 540.765C123.766 540.522 124.009 540.202 124.147 539.803H125.421C125.231 540.488 124.849 541.047 124.277 541.48C123.705 541.905 122.995 542.117 122.145 542.117C121.469 542.117 120.863 541.965 120.325 541.662C119.797 541.359 119.381 540.93 119.077 540.375C118.774 539.812 118.622 539.162 118.622 538.425C118.622 537.688 118.77 537.043 119.064 536.488C119.359 535.933 119.771 535.509 120.299 535.214C120.837 534.911 121.452 534.759 122.145 534.759C122.821 534.759 123.419 534.906 123.939 535.201C124.459 535.496 124.858 535.903 125.135 536.423C125.421 536.934 125.564 537.515 125.564 538.165ZM124.342 537.918C124.342 537.467 124.243 537.082 124.043 536.761C123.844 536.432 123.571 536.185 123.224 536.02C122.886 535.847 122.509 535.76 122.093 535.76C121.495 535.76 120.984 535.951 120.559 536.332C120.143 536.713 119.905 537.242 119.844 537.918H124.342ZM126.684 538.425C126.684 537.688 126.831 537.047 127.126 536.501C127.421 535.946 127.828 535.517 128.348 535.214C128.877 534.911 129.479 534.759 130.155 534.759C131.03 534.759 131.75 534.971 132.313 535.396C132.885 535.821 133.262 536.41 133.444 537.164H132.17C132.049 536.731 131.81 536.388 131.455 536.137C131.108 535.886 130.675 535.76 130.155 535.76C129.479 535.76 128.933 535.994 128.517 536.462C128.101 536.921 127.893 537.576 127.893 538.425C127.893 539.283 128.101 539.946 128.517 540.414C128.933 540.882 129.479 541.116 130.155 541.116C130.675 541.116 131.108 540.995 131.455 540.752C131.802 540.509 132.04 540.163 132.17 539.712H133.444C133.253 540.44 132.872 541.025 132.3 541.467C131.728 541.9 131.013 542.117 130.155 542.117C129.479 542.117 128.877 541.965 128.348 541.662C127.828 541.359 127.421 540.93 127.126 540.375C126.831 539.82 126.684 539.17 126.684 538.425ZM138.129 542.117C137.462 542.117 136.855 541.965 136.309 541.662C135.772 541.359 135.347 540.93 135.035 540.375C134.732 539.812 134.58 539.162 134.58 538.425C134.58 537.697 134.736 537.056 135.048 536.501C135.369 535.938 135.802 535.509 136.348 535.214C136.894 534.911 137.505 534.759 138.181 534.759C138.857 534.759 139.468 534.911 140.014 535.214C140.56 535.509 140.989 535.933 141.301 536.488C141.622 537.043 141.782 537.688 141.782 538.425C141.782 539.162 141.618 539.812 141.288 540.375C140.968 540.93 140.53 541.359 139.975 541.662C139.421 541.965 138.805 542.117 138.129 542.117ZM138.129 541.077C138.554 541.077 138.953 540.977 139.325 540.778C139.698 540.579 139.997 540.28 140.222 539.881C140.456 539.482 140.573 538.997 140.573 538.425C140.573 537.853 140.461 537.368 140.235 536.969C140.01 536.57 139.715 536.276 139.351 536.085C138.987 535.886 138.593 535.786 138.168 535.786C137.735 535.786 137.336 535.886 136.972 536.085C136.617 536.276 136.331 536.57 136.114 536.969C135.898 537.368 135.789 537.853 135.789 538.425C135.789 539.006 135.893 539.495 136.101 539.894C136.318 540.293 136.604 540.592 136.959 540.791C137.315 540.982 137.705 541.077 138.129 541.077ZM146.809 534.746C147.676 534.746 148.378 535.01 148.915 535.539C149.452 536.059 149.721 536.813 149.721 537.801V542H148.551V537.97C148.551 537.259 148.373 536.718 148.018 536.345C147.663 535.964 147.177 535.773 146.562 535.773C145.938 535.773 145.44 535.968 145.067 536.358C144.703 536.748 144.521 537.316 144.521 538.061V542H143.338V534.876H144.521V535.89C144.755 535.526 145.071 535.244 145.47 535.045C145.877 534.846 146.324 534.746 146.809 534.746ZM151.211 538.412C151.211 537.684 151.359 537.047 151.653 536.501C151.948 535.946 152.351 535.517 152.862 535.214C153.382 534.911 153.963 534.759 154.604 534.759C155.159 534.759 155.675 534.889 156.151 535.149C156.628 535.4 156.992 535.734 157.243 536.15V532.38H158.439V542H157.243V540.661C157.009 541.086 156.663 541.437 156.203 541.714C155.744 541.983 155.207 542.117 154.591 542.117C153.959 542.117 153.382 541.961 152.862 541.649C152.351 541.337 151.948 540.899 151.653 540.336C151.359 539.773 151.211 539.131 151.211 538.412ZM157.243 538.425C157.243 537.888 157.135 537.42 156.918 537.021C156.702 536.622 156.407 536.319 156.034 536.111C155.67 535.894 155.267 535.786 154.825 535.786C154.383 535.786 153.98 535.89 153.616 536.098C153.252 536.306 152.962 536.609 152.745 537.008C152.529 537.407 152.42 537.875 152.42 538.412C152.42 538.958 152.529 539.435 152.745 539.842C152.962 540.241 153.252 540.548 153.616 540.765C153.98 540.973 154.383 541.077 154.825 541.077C155.267 541.077 155.67 540.973 156.034 540.765C156.407 540.548 156.702 540.241 156.918 539.842C157.135 539.435 157.243 538.962 157.243 538.425ZM165.087 532.38V542H163.904V532.38H165.087ZM173.604 538.165C173.604 538.39 173.591 538.629 173.565 538.88H167.871C167.914 539.582 168.152 540.132 168.586 540.531C169.028 540.921 169.561 541.116 170.185 541.116C170.696 541.116 171.121 540.999 171.459 540.765C171.805 540.522 172.048 540.202 172.187 539.803H173.461C173.27 540.488 172.889 541.047 172.317 541.48C171.745 541.905 171.034 542.117 170.185 542.117C169.509 542.117 168.902 541.965 168.365 541.662C167.836 541.359 167.42 540.93 167.117 540.375C166.813 539.812 166.662 539.162 166.662 538.425C166.662 537.688 166.809 537.043 167.104 536.488C167.398 535.933 167.81 535.509 168.339 535.214C168.876 534.911 169.491 534.759 170.185 534.759C170.861 534.759 171.459 534.906 171.979 535.201C172.499 535.496 172.897 535.903 173.175 536.423C173.461 536.934 173.604 537.515 173.604 538.165ZM172.382 537.918C172.382 537.467 172.282 537.082 172.083 536.761C171.883 536.432 171.61 536.185 171.264 536.02C170.926 535.847 170.549 535.76 170.133 535.76C169.535 535.76 169.023 535.951 168.599 536.332C168.183 536.713 167.944 537.242 167.884 537.918H172.382ZM178.064 535.851H176.569V542H175.386V535.851H174.463V534.876H175.386V534.369C175.386 533.572 175.59 532.991 175.997 532.627C176.413 532.254 177.076 532.068 177.986 532.068V533.056C177.466 533.056 177.098 533.16 176.881 533.368C176.673 533.567 176.569 533.901 176.569 534.369V534.876H178.064V535.851ZM180.886 535.851V540.05C180.886 540.397 180.96 540.644 181.107 540.791C181.255 540.93 181.51 540.999 181.874 540.999H182.745V542H181.679C181.021 542 180.527 541.848 180.197 541.545C179.868 541.242 179.703 540.743 179.703 540.05V535.851H178.78V534.876H179.703V533.082H180.886V534.876H182.745V535.851H180.886Z" fill="#888888"/>
<path d="M55.324 508.461V514.635C55.324 515.503 55.534 516.147 55.954 516.567C56.3833 516.987 56.976 517.197 57.732 517.197C58.4787 517.197 59.062 516.987 59.482 516.567C59.9113 516.147 60.126 515.503 60.126 514.635V508.461H61.4V514.621C61.4 515.433 61.2367 516.119 60.91 516.679C60.5833 517.23 60.14 517.641 59.58 517.911C59.0293 518.182 58.4087 518.317 57.718 518.317C57.0273 518.317 56.402 518.182 55.842 517.911C55.2913 517.641 54.8527 517.23 54.526 516.679C54.2087 516.119 54.05 515.433 54.05 514.621V508.461H55.324ZM64.7993 511.961C65.0513 511.523 65.4246 511.159 65.9193 510.869C66.4233 510.571 67.0066 510.421 67.6693 510.421C68.3506 510.421 68.9666 510.585 69.5173 510.911C70.0773 511.238 70.5159 511.7 70.8333 512.297C71.1506 512.885 71.3093 513.571 71.3093 514.355C71.3093 515.13 71.1506 515.821 70.8333 516.427C70.5159 517.034 70.0773 517.505 69.5173 517.841C68.9666 518.177 68.3506 518.345 67.6693 518.345C67.0159 518.345 66.4373 518.201 65.9333 517.911C65.4386 517.613 65.0606 517.244 64.7993 516.805V521.859H63.5253V510.547H64.7993V511.961ZM70.0073 514.355C70.0073 513.777 69.8906 513.273 69.6573 512.843C69.4239 512.414 69.1066 512.087 68.7053 511.863C68.3133 511.639 67.8793 511.527 67.4033 511.527C66.9366 511.527 66.5026 511.644 66.1013 511.877C65.7093 512.101 65.3919 512.433 65.1493 512.871C64.9159 513.301 64.7993 513.8 64.7993 514.369C64.7993 514.948 64.9159 515.457 65.1493 515.895C65.3919 516.325 65.7093 516.656 66.1013 516.889C66.5026 517.113 66.9366 517.225 67.4033 517.225C67.8793 517.225 68.3133 517.113 68.7053 516.889C69.1066 516.656 69.4239 516.325 69.6573 515.895C69.8906 515.457 70.0073 514.943 70.0073 514.355ZM74.2602 507.859V518.219H72.9862V507.859H74.2602ZM79.7775 518.345C79.0588 518.345 78.4055 518.182 77.8175 517.855C77.2388 517.529 76.7815 517.067 76.4455 516.469C76.1188 515.863 75.9555 515.163 75.9555 514.369C75.9555 513.585 76.1235 512.895 76.4595 512.297C76.8048 511.691 77.2715 511.229 77.8595 510.911C78.4475 510.585 79.1055 510.421 79.8335 510.421C80.5615 510.421 81.2195 510.585 81.8075 510.911C82.3955 511.229 82.8575 511.686 83.1935 512.283C83.5388 512.881 83.7115 513.576 83.7115 514.369C83.7115 515.163 83.5342 515.863 83.1795 516.469C82.8342 517.067 82.3628 517.529 81.7655 517.855C81.1682 518.182 80.5055 518.345 79.7775 518.345ZM79.7775 517.225C80.2348 517.225 80.6642 517.118 81.0655 516.903C81.4668 516.689 81.7888 516.367 82.0315 515.937C82.2835 515.508 82.4095 514.985 82.4095 514.369C82.4095 513.753 82.2882 513.231 82.0455 512.801C81.8028 512.372 81.4855 512.055 81.0935 511.849C80.7015 511.635 80.2768 511.527 79.8195 511.527C79.3528 511.527 78.9235 511.635 78.5315 511.849C78.1488 512.055 77.8408 512.372 77.6075 512.801C77.3742 513.231 77.2575 513.753 77.2575 514.369C77.2575 514.995 77.3695 515.522 77.5935 515.951C77.8268 516.381 78.1348 516.703 78.5175 516.917C78.9002 517.123 79.3202 517.225 79.7775 517.225ZM84.9106 514.355C84.9106 513.571 85.0693 512.885 85.3866 512.297C85.7039 511.7 86.1379 511.238 86.6886 510.911C87.2486 510.585 87.8693 510.421 88.5506 510.421C89.2226 510.421 89.8059 510.566 90.3006 510.855C90.7953 511.145 91.1639 511.509 91.4066 511.947V510.547H92.6946V518.219H91.4066V516.791C91.1546 517.239 90.7766 517.613 90.2726 517.911C89.7779 518.201 89.1993 518.345 88.5366 518.345C87.8553 518.345 87.2393 518.177 86.6886 517.841C86.1379 517.505 85.7039 517.034 85.3866 516.427C85.0693 515.821 84.9106 515.13 84.9106 514.355ZM91.4066 514.369C91.4066 513.791 91.2899 513.287 91.0566 512.857C90.8233 512.428 90.5059 512.101 90.1046 511.877C89.7126 511.644 89.2786 511.527 88.8026 511.527C88.3266 511.527 87.8926 511.639 87.5006 511.863C87.1086 512.087 86.7959 512.414 86.5626 512.843C86.3293 513.273 86.2126 513.777 86.2126 514.355C86.2126 514.943 86.3293 515.457 86.5626 515.895C86.7959 516.325 87.1086 516.656 87.5006 516.889C87.8926 517.113 88.3266 517.225 88.8026 517.225C89.2786 517.225 89.7126 517.113 90.1046 516.889C90.5059 516.656 90.8233 516.325 91.0566 515.895C91.2899 515.457 91.4066 514.948 91.4066 514.369ZM94.3715 514.355C94.3715 513.571 94.5302 512.885 94.8475 512.297C95.1649 511.7 95.5989 511.238 96.1495 510.911C96.7095 510.585 97.3349 510.421 98.0255 510.421C98.6229 510.421 99.1782 510.561 99.6915 510.841C100.205 511.112 100.597 511.471 100.868 511.919V507.859H102.156V518.219H100.868V516.777C100.616 517.235 100.242 517.613 99.7475 517.911C99.2529 518.201 98.6742 518.345 98.0115 518.345C97.3302 518.345 96.7095 518.177 96.1495 517.841C95.5989 517.505 95.1649 517.034 94.8475 516.427C94.5302 515.821 94.3715 515.13 94.3715 514.355ZM100.868 514.369C100.868 513.791 100.751 513.287 100.518 512.857C100.284 512.428 99.9669 512.101 99.5655 511.877C99.1735 511.644 98.7395 511.527 98.2635 511.527C97.7875 511.527 97.3535 511.639 96.9615 511.863C96.5695 512.087 96.2569 512.414 96.0235 512.843C95.7902 513.273 95.6735 513.777 95.6735 514.355C95.6735 514.943 95.7902 515.457 96.0235 515.895C96.2569 516.325 96.5695 516.656 96.9615 516.889C97.3535 517.113 97.7875 517.225 98.2635 517.225C98.7395 517.225 99.1735 517.113 99.5655 516.889C99.9669 516.656 100.284 516.325 100.518 515.895C100.751 515.457 100.868 514.948 100.868 514.369ZM104.966 509.301C104.724 509.301 104.518 509.217 104.35 509.049C104.182 508.881 104.098 508.676 104.098 508.433C104.098 508.191 104.182 507.985 104.35 507.817C104.518 507.649 104.724 507.565 104.966 507.565C105.2 507.565 105.396 507.649 105.554 507.817C105.722 507.985 105.806 508.191 105.806 508.433C105.806 508.676 105.722 508.881 105.554 509.049C105.396 509.217 105.2 509.301 104.966 509.301ZM105.582 510.547V518.219H104.308V510.547H105.582ZM111.492 510.407C112.425 510.407 113.181 510.692 113.76 511.261C114.338 511.821 114.628 512.633 114.628 513.697V518.219H113.368V513.879C113.368 513.114 113.176 512.531 112.794 512.129C112.411 511.719 111.888 511.513 111.226 511.513C110.554 511.513 110.017 511.723 109.616 512.143C109.224 512.563 109.028 513.175 109.028 513.977V518.219H107.754V510.547H109.028V511.639C109.28 511.247 109.62 510.944 110.05 510.729C110.488 510.515 110.969 510.407 111.492 510.407ZM119.873 510.421C120.536 510.421 121.114 510.566 121.609 510.855C122.113 511.145 122.486 511.509 122.729 511.947V510.547H124.017V518.387C124.017 519.087 123.868 519.708 123.569 520.249C123.27 520.8 122.841 521.229 122.281 521.537C121.73 521.845 121.086 521.999 120.349 521.999C119.341 521.999 118.501 521.761 117.829 521.285C117.157 520.809 116.76 520.161 116.639 519.339H117.899C118.039 519.806 118.328 520.179 118.767 520.459C119.206 520.749 119.733 520.893 120.349 520.893C121.049 520.893 121.618 520.674 122.057 520.235C122.505 519.797 122.729 519.181 122.729 518.387V516.777C122.477 517.225 122.104 517.599 121.609 517.897C121.114 518.196 120.536 518.345 119.873 518.345C119.192 518.345 118.571 518.177 118.011 517.841C117.46 517.505 117.026 517.034 116.709 516.427C116.392 515.821 116.233 515.13 116.233 514.355C116.233 513.571 116.392 512.885 116.709 512.297C117.026 511.7 117.46 511.238 118.011 510.911C118.571 510.585 119.192 510.421 119.873 510.421ZM122.729 514.369C122.729 513.791 122.612 513.287 122.379 512.857C122.146 512.428 121.828 512.101 121.427 511.877C121.035 511.644 120.601 511.527 120.125 511.527C119.649 511.527 119.215 511.639 118.823 511.863C118.431 512.087 118.118 512.414 117.885 512.843C117.652 513.273 117.535 513.777 117.535 514.355C117.535 514.943 117.652 515.457 117.885 515.895C118.118 516.325 118.431 516.656 118.823 516.889C119.215 517.113 119.649 517.225 120.125 517.225C120.601 517.225 121.035 517.113 121.427 516.889C121.828 516.656 122.146 516.325 122.379 515.895C122.612 515.457 122.729 514.948 122.729 514.369ZM126.576 518.303C126.333 518.303 126.128 518.219 125.96 518.051C125.792 517.883 125.708 517.678 125.708 517.435C125.708 517.193 125.792 516.987 125.96 516.819C126.128 516.651 126.333 516.567 126.576 516.567C126.809 516.567 127.005 516.651 127.164 516.819C127.332 516.987 127.416 517.193 127.416 517.435C127.416 517.678 127.332 517.883 127.164 518.051C127.005 518.219 126.809 518.303 126.576 518.303ZM129.515 518.303C129.273 518.303 129.067 518.219 128.899 518.051C128.731 517.883 128.647 517.678 128.647 517.435C128.647 517.193 128.731 516.987 128.899 516.819C129.067 516.651 129.273 516.567 129.515 516.567C129.749 516.567 129.945 516.651 130.103 516.819C130.271 516.987 130.355 517.193 130.355 517.435C130.355 517.678 130.271 517.883 130.103 518.051C129.945 518.219 129.749 518.303 129.515 518.303ZM132.455 518.303C132.212 518.303 132.007 518.219 131.839 518.051C131.671 517.883 131.587 517.678 131.587 517.435C131.587 517.193 131.671 516.987 131.839 516.819C132.007 516.651 132.212 516.567 132.455 516.567C132.688 516.567 132.884 516.651 133.043 516.819C133.211 516.987 133.295 517.193 133.295 517.435C133.295 517.678 133.211 517.883 133.043 518.051C132.884 518.219 132.688 518.303 132.455 518.303Z" fill="black"/>
<ellipse cx="310" cy="522.168" rx="13" ry="12.963" fill="#FE5050" fill-opacity="0.2"/>
<path d="M310 521.282L313.111 518.18L314 519.066L310.889 522.168L314 525.271L313.111 526.157L310 523.055L306.889 526.157L306 525.271L309.111 522.168L306 519.066L306.889 518.18L310 521.282Z" fill="#FE5050"/>
<ellipse cx="275" cy="522.168" rx="13" ry="12.963" fill="#0085FE" fill-opacity="0.15"/>
<line x1="272.5" y1="518.18" x2="272.5" y2="526.157" stroke="#0065FF"/>
<line x1="278.5" y1="518.18" x2="278.5" y2="526.157" stroke="#0065FF"/>
<rect x="38.75" y="231.75" width="298.5" height="233.828" rx="24.25" stroke="#0085FE" stroke-width="1.5" stroke-dasharray="8 18"/>
<path d="M141.728 424.565C141.728 425.377 141.448 426.054 140.888 426.595C140.337 427.127 139.493 427.393 138.354 427.393H136.478V431.467H135.204V421.709H138.354C139.455 421.709 140.291 421.975 140.86 422.507C141.439 423.039 141.728 423.725 141.728 424.565ZM138.354 426.343C139.063 426.343 139.586 426.189 139.922 425.881C140.258 425.573 140.426 425.135 140.426 424.565C140.426 423.361 139.735 422.759 138.354 422.759H136.478V426.343H138.354ZM144.585 425.041C144.809 424.603 145.127 424.262 145.537 424.019C145.957 423.777 146.466 423.655 147.063 423.655V424.971H146.727C145.299 424.971 144.585 425.746 144.585 427.295V431.467H143.311V423.795H144.585V425.041ZM155.534 427.337C155.534 427.58 155.52 427.837 155.492 428.107H149.36C149.407 428.863 149.663 429.456 150.13 429.885C150.606 430.305 151.18 430.515 151.852 430.515C152.403 430.515 152.86 430.389 153.224 430.137C153.597 429.876 153.859 429.531 154.008 429.101H155.38C155.175 429.839 154.764 430.441 154.148 430.907C153.532 431.365 152.767 431.593 151.852 431.593C151.124 431.593 150.471 431.43 149.892 431.103C149.323 430.777 148.875 430.315 148.548 429.717C148.221 429.111 148.058 428.411 148.058 427.617C148.058 426.824 148.217 426.129 148.534 425.531C148.851 424.934 149.295 424.477 149.864 424.159C150.443 423.833 151.105 423.669 151.852 423.669C152.58 423.669 153.224 423.828 153.784 424.145C154.344 424.463 154.773 424.901 155.072 425.461C155.38 426.012 155.534 426.637 155.534 427.337ZM154.218 427.071C154.218 426.586 154.111 426.171 153.896 425.825C153.681 425.471 153.387 425.205 153.014 425.027C152.65 424.841 152.244 424.747 151.796 424.747C151.152 424.747 150.601 424.953 150.144 425.363C149.696 425.774 149.439 426.343 149.374 427.071H154.218ZM159.932 431.593C159.344 431.593 158.816 431.495 158.35 431.299C157.883 431.094 157.514 430.814 157.244 430.459C156.973 430.095 156.824 429.68 156.796 429.213H158.112C158.149 429.596 158.326 429.909 158.644 430.151C158.97 430.394 159.395 430.515 159.918 430.515C160.403 430.515 160.786 430.408 161.066 430.193C161.346 429.979 161.486 429.708 161.486 429.381C161.486 429.045 161.336 428.798 161.038 428.639C160.739 428.471 160.277 428.308 159.652 428.149C159.082 428 158.616 427.851 158.252 427.701C157.897 427.543 157.589 427.314 157.328 427.015C157.076 426.707 156.95 426.306 156.95 425.811C156.95 425.419 157.066 425.06 157.3 424.733C157.533 424.407 157.864 424.15 158.294 423.963C158.723 423.767 159.213 423.669 159.764 423.669C160.613 423.669 161.299 423.884 161.822 424.313C162.344 424.743 162.624 425.331 162.662 426.077H161.388C161.36 425.676 161.196 425.354 160.898 425.111C160.608 424.869 160.216 424.747 159.722 424.747C159.264 424.747 158.9 424.845 158.63 425.041C158.359 425.237 158.224 425.494 158.224 425.811C158.224 426.063 158.303 426.273 158.462 426.441C158.63 426.6 158.835 426.731 159.078 426.833C159.33 426.927 159.675 427.034 160.114 427.155C160.664 427.305 161.112 427.454 161.458 427.603C161.803 427.743 162.097 427.958 162.34 428.247C162.592 428.537 162.722 428.915 162.732 429.381C162.732 429.801 162.615 430.179 162.382 430.515C162.148 430.851 161.817 431.117 161.388 431.313C160.968 431.5 160.482 431.593 159.932 431.593ZM164.054 427.617C164.054 426.824 164.213 426.133 164.53 425.545C164.847 424.948 165.286 424.486 165.846 424.159C166.415 423.833 167.064 423.669 167.792 423.669C168.735 423.669 169.509 423.898 170.116 424.355C170.732 424.813 171.138 425.447 171.334 426.259H169.962C169.831 425.793 169.575 425.424 169.192 425.153C168.819 424.883 168.352 424.747 167.792 424.747C167.064 424.747 166.476 424.999 166.028 425.503C165.58 425.998 165.356 426.703 165.356 427.617C165.356 428.541 165.58 429.255 166.028 429.759C166.476 430.263 167.064 430.515 167.792 430.515C168.352 430.515 168.819 430.385 169.192 430.123C169.565 429.862 169.822 429.489 169.962 429.003H171.334C171.129 429.787 170.718 430.417 170.102 430.893C169.486 431.36 168.716 431.593 167.792 431.593C167.064 431.593 166.415 431.43 165.846 431.103C165.286 430.777 164.847 430.315 164.53 429.717C164.213 429.12 164.054 428.42 164.054 427.617ZM174.308 425.041C174.532 424.603 174.849 424.262 175.26 424.019C175.68 423.777 176.189 423.655 176.786 423.655V424.971H176.45C175.022 424.971 174.308 425.746 174.308 427.295V431.467H173.034V423.795H174.308V425.041ZM178.915 422.549C178.672 422.549 178.467 422.465 178.299 422.297C178.131 422.129 178.047 421.924 178.047 421.681C178.047 421.439 178.131 421.233 178.299 421.065C178.467 420.897 178.672 420.813 178.915 420.813C179.148 420.813 179.344 420.897 179.503 421.065C179.671 421.233 179.755 421.439 179.755 421.681C179.755 421.924 179.671 422.129 179.503 422.297C179.344 422.465 179.148 422.549 178.915 422.549ZM179.531 423.795V431.467H178.257V423.795H179.531ZM182.976 425.209C183.228 424.771 183.601 424.407 184.096 424.117C184.6 423.819 185.183 423.669 185.846 423.669C186.527 423.669 187.143 423.833 187.694 424.159C188.254 424.486 188.693 424.948 189.01 425.545C189.327 426.133 189.486 426.819 189.486 427.603C189.486 428.378 189.327 429.069 189.01 429.675C188.693 430.282 188.254 430.753 187.694 431.089C187.143 431.425 186.527 431.593 185.846 431.593C185.193 431.593 184.614 431.449 184.11 431.159C183.615 430.861 183.237 430.492 182.976 430.053V435.107H181.702V423.795H182.976V425.209ZM188.184 427.603C188.184 427.025 188.067 426.521 187.834 426.091C187.601 425.662 187.283 425.335 186.882 425.111C186.49 424.887 186.056 424.775 185.58 424.775C185.113 424.775 184.679 424.892 184.278 425.125C183.886 425.349 183.569 425.681 183.326 426.119C183.093 426.549 182.976 427.048 182.976 427.617C182.976 428.196 183.093 428.705 183.326 429.143C183.569 429.573 183.886 429.904 184.278 430.137C184.679 430.361 185.113 430.473 185.58 430.473C186.056 430.473 186.49 430.361 186.882 430.137C187.283 429.904 187.601 429.573 187.834 429.143C188.067 428.705 188.184 428.191 188.184 427.603ZM192.717 424.845V429.367C192.717 429.741 192.796 430.007 192.955 430.165C193.114 430.315 193.389 430.389 193.781 430.389H194.719V431.467H193.571C192.862 431.467 192.33 431.304 191.975 430.977C191.62 430.651 191.443 430.114 191.443 429.367V424.845H190.449V423.795H191.443V421.863H192.717V423.795H194.719V424.845H192.717ZM196.921 422.549C196.678 422.549 196.473 422.465 196.305 422.297C196.137 422.129 196.053 421.924 196.053 421.681C196.053 421.439 196.137 421.233 196.305 421.065C196.473 420.897 196.678 420.813 196.921 420.813C197.154 420.813 197.35 420.897 197.509 421.065C197.677 421.233 197.761 421.439 197.761 421.681C197.761 421.924 197.677 422.129 197.509 422.297C197.35 422.465 197.154 422.549 196.921 422.549ZM197.537 423.795V431.467H196.263V423.795H197.537ZM203.054 431.593C202.335 431.593 201.682 431.43 201.094 431.103C200.515 430.777 200.058 430.315 199.722 429.717C199.395 429.111 199.232 428.411 199.232 427.617C199.232 426.833 199.4 426.143 199.736 425.545C200.081 424.939 200.548 424.477 201.136 424.159C201.724 423.833 202.382 423.669 203.11 423.669C203.838 423.669 204.496 423.833 205.084 424.159C205.672 424.477 206.134 424.934 206.47 425.531C206.815 426.129 206.988 426.824 206.988 427.617C206.988 428.411 206.811 429.111 206.456 429.717C206.111 430.315 205.639 430.777 205.042 431.103C204.445 431.43 203.782 431.593 203.054 431.593ZM203.054 430.473C203.511 430.473 203.941 430.366 204.342 430.151C204.743 429.937 205.065 429.615 205.308 429.185C205.56 428.756 205.686 428.233 205.686 427.617C205.686 427.001 205.565 426.479 205.322 426.049C205.079 425.62 204.762 425.303 204.37 425.097C203.978 424.883 203.553 424.775 203.096 424.775C202.629 424.775 202.2 424.883 201.808 425.097C201.425 425.303 201.117 425.62 200.884 426.049C200.651 426.479 200.534 427.001 200.534 427.617C200.534 428.243 200.646 428.77 200.87 429.199C201.103 429.629 201.411 429.951 201.794 430.165C202.177 430.371 202.597 430.473 203.054 430.473ZM212.401 423.655C213.334 423.655 214.09 423.94 214.669 424.509C215.248 425.069 215.537 425.881 215.537 426.945V431.467H214.277V427.127C214.277 426.362 214.086 425.779 213.703 425.377C213.32 424.967 212.798 424.761 212.135 424.761C211.463 424.761 210.926 424.971 210.525 425.391C210.133 425.811 209.937 426.423 209.937 427.225V431.467H208.663V423.795H209.937V424.887C210.189 424.495 210.53 424.192 210.959 423.977C211.398 423.763 211.878 423.655 212.401 423.655ZM218.024 431.551C217.781 431.551 217.576 431.467 217.408 431.299C217.24 431.131 217.156 430.926 217.156 430.683C217.156 430.441 217.24 430.235 217.408 430.067C217.576 429.899 217.781 429.815 218.024 429.815C218.257 429.815 218.453 429.899 218.612 430.067C218.78 430.235 218.864 430.441 218.864 430.683C218.864 430.926 218.78 431.131 218.612 431.299C218.453 431.467 218.257 431.551 218.024 431.551ZM221.243 422.549C221.001 422.549 220.795 422.465 220.627 422.297C220.469 422.129 220.389 421.924 220.389 421.681C220.389 421.439 220.469 421.233 220.627 421.065C220.795 420.897 221.001 420.813 221.243 420.813C221.486 420.813 221.687 420.897 221.845 421.065C222.013 421.233 222.097 421.439 222.097 421.681C222.097 421.924 222.013 422.129 221.845 422.297C221.687 422.465 221.486 422.549 221.243 422.549ZM221.873 433.133C221.873 433.815 221.701 434.314 221.355 434.631C221.01 434.949 220.506 435.107 219.843 435.107H219.101V434.029H219.633C219.988 434.029 220.235 433.959 220.375 433.819C220.525 433.679 220.599 433.441 220.599 433.105V423.795H221.873V433.133ZM225.304 425.209C225.556 424.771 225.929 424.407 226.424 424.117C226.928 423.819 227.511 423.669 228.174 423.669C228.855 423.669 229.471 423.833 230.022 424.159C230.582 424.486 231.021 424.948 231.338 425.545C231.655 426.133 231.814 426.819 231.814 427.603C231.814 428.378 231.655 429.069 231.338 429.675C231.021 430.282 230.582 430.753 230.022 431.089C229.471 431.425 228.855 431.593 228.174 431.593C227.521 431.593 226.942 431.449 226.438 431.159C225.943 430.861 225.565 430.492 225.304 430.053V435.107H224.03V423.795H225.304V425.209ZM230.512 427.603C230.512 427.025 230.395 426.521 230.162 426.091C229.929 425.662 229.611 425.335 229.21 425.111C228.818 424.887 228.384 424.775 227.908 424.775C227.441 424.775 227.007 424.892 226.606 425.125C226.214 425.349 225.897 425.681 225.654 426.119C225.421 426.549 225.304 427.048 225.304 427.617C225.304 428.196 225.421 428.705 225.654 429.143C225.897 429.573 226.214 429.904 226.606 430.137C227.007 430.361 227.441 430.473 227.908 430.473C228.384 430.473 228.818 430.361 229.21 430.137C229.611 429.904 229.929 429.573 230.162 429.143C230.395 428.705 230.512 428.191 230.512 427.603ZM236.655 423.669C237.318 423.669 237.896 423.814 238.391 424.103C238.895 424.393 239.268 424.757 239.511 425.195V423.795H240.799V431.635C240.799 432.335 240.65 432.956 240.351 433.497C240.052 434.048 239.623 434.477 239.063 434.785C238.512 435.093 237.868 435.247 237.131 435.247C236.123 435.247 235.283 435.009 234.611 434.533C233.939 434.057 233.542 433.409 233.421 432.587H234.681C234.821 433.054 235.11 433.427 235.549 433.707C235.988 433.997 236.515 434.141 237.131 434.141C237.831 434.141 238.4 433.922 238.839 433.483C239.287 433.045 239.511 432.429 239.511 431.635V430.025C239.259 430.473 238.886 430.847 238.391 431.145C237.896 431.444 237.318 431.593 236.655 431.593C235.974 431.593 235.353 431.425 234.793 431.089C234.242 430.753 233.808 430.282 233.491 429.675C233.174 429.069 233.015 428.378 233.015 427.603C233.015 426.819 233.174 426.133 233.491 425.545C233.808 424.948 234.242 424.486 234.793 424.159C235.353 423.833 235.974 423.669 236.655 423.669ZM239.511 427.617C239.511 427.039 239.394 426.535 239.161 426.105C238.928 425.676 238.61 425.349 238.209 425.125C237.817 424.892 237.383 424.775 236.907 424.775C236.431 424.775 235.997 424.887 235.605 425.111C235.213 425.335 234.9 425.662 234.667 426.091C234.434 426.521 234.317 427.025 234.317 427.603C234.317 428.191 234.434 428.705 234.667 429.143C234.9 429.573 235.213 429.904 235.605 430.137C235.997 430.361 236.431 430.473 236.907 430.473C237.383 430.473 237.817 430.361 238.209 430.137C238.61 429.904 238.928 429.573 239.161 429.143C239.394 428.705 239.511 428.196 239.511 427.617Z" fill="#AAAAAA"/>
<path d="M110.382 400.696C109.542 400.696 108.786 400.552 108.114 400.264C107.442 399.964 106.914 399.544 106.53 399.004C106.146 398.464 105.954 397.834 105.954 397.114H108.15C108.198 397.654 108.408 398.098 108.78 398.446C109.164 398.794 109.698 398.968 110.382 398.968C111.09 398.968 111.642 398.8 112.038 398.464C112.434 398.116 112.632 397.672 112.632 397.132C112.632 396.712 112.506 396.37 112.254 396.106C112.014 395.842 111.708 395.638 111.336 395.494C110.976 395.35 110.472 395.194 109.824 395.026C109.008 394.81 108.342 394.594 107.826 394.378C107.322 394.15 106.89 393.802 106.53 393.334C106.17 392.866 105.99 392.242 105.99 391.462C105.99 390.742 106.17 390.112 106.53 389.572C106.89 389.032 107.394 388.618 108.042 388.33C108.69 388.042 109.44 387.898 110.292 387.898C111.504 387.898 112.494 388.204 113.262 388.816C114.042 389.416 114.474 390.244 114.558 391.3H112.29C112.254 390.844 112.038 390.454 111.642 390.13C111.246 389.806 110.724 389.644 110.076 389.644C109.488 389.644 109.008 389.794 108.636 390.094C108.264 390.394 108.078 390.826 108.078 391.39C108.078 391.774 108.192 392.092 108.42 392.344C108.66 392.584 108.96 392.776 109.32 392.92C109.68 393.064 110.172 393.22 110.796 393.388C111.624 393.616 112.296 393.844 112.812 394.072C113.34 394.3 113.784 394.654 114.144 395.134C114.516 395.602 114.702 396.232 114.702 397.024C114.702 397.66 114.528 398.26 114.18 398.824C113.844 399.388 113.346 399.844 112.686 400.192C112.038 400.528 111.27 400.696 110.382 400.696ZM126.213 395.368C126.213 395.74 126.189 396.076 126.141 396.376H118.563C118.623 397.168 118.917 397.804 119.445 398.284C119.973 398.764 120.621 399.004 121.389 399.004C122.493 399.004 123.273 398.542 123.729 397.618H125.943C125.643 398.53 125.097 399.28 124.305 399.868C123.525 400.444 122.553 400.732 121.389 400.732C120.441 400.732 119.589 400.522 118.833 400.102C118.089 399.67 117.501 399.07 117.069 398.302C116.649 397.522 116.439 396.622 116.439 395.602C116.439 394.582 116.643 393.688 117.051 392.92C117.471 392.14 118.053 391.54 118.797 391.12C119.553 390.7 120.417 390.49 121.389 390.49C122.325 390.49 123.159 390.694 123.891 391.102C124.623 391.51 125.193 392.086 125.601 392.83C126.009 393.562 126.213 394.408 126.213 395.368ZM124.071 394.72C124.059 393.964 123.789 393.358 123.261 392.902C122.733 392.446 122.079 392.218 121.299 392.218C120.591 392.218 119.985 392.446 119.481 392.902C118.977 393.346 118.677 393.952 118.581 394.72H124.071ZM130.285 387.25V400.57H128.233V387.25H130.285ZM142.069 395.368C142.069 395.74 142.045 396.076 141.997 396.376H134.419C134.479 397.168 134.773 397.804 135.301 398.284C135.829 398.764 136.477 399.004 137.245 399.004C138.349 399.004 139.129 398.542 139.585 397.618H141.799C141.499 398.53 140.953 399.28 140.161 399.868C139.381 400.444 138.409 400.732 137.245 400.732C136.297 400.732 135.445 400.522 134.689 400.102C133.945 399.67 133.357 399.07 132.925 398.302C132.505 397.522 132.295 396.622 132.295 395.602C132.295 394.582 132.499 393.688 132.907 392.92C133.327 392.14 133.909 391.54 134.653 391.12C135.409 390.7 136.273 390.49 137.245 390.49C138.181 390.49 139.015 390.694 139.747 391.102C140.479 391.51 141.049 392.086 141.457 392.83C141.865 393.562 142.069 394.408 142.069 395.368ZM139.927 394.72C139.915 393.964 139.645 393.358 139.117 392.902C138.589 392.446 137.935 392.218 137.155 392.218C136.447 392.218 135.841 392.446 135.337 392.902C134.833 393.346 134.533 393.952 134.437 394.72H139.927ZM143.404 395.602C143.404 394.582 143.608 393.688 144.016 392.92C144.436 392.14 145.012 391.54 145.744 391.12C146.476 390.7 147.316 390.49 148.264 390.49C149.464 390.49 150.454 390.778 151.234 391.354C152.026 391.918 152.56 392.728 152.836 393.784H150.622C150.442 393.292 150.154 392.908 149.758 392.632C149.362 392.356 148.864 392.218 148.264 392.218C147.424 392.218 146.752 392.518 146.248 393.118C145.756 393.706 145.51 394.534 145.51 395.602C145.51 396.67 145.756 397.504 146.248 398.104C146.752 398.704 147.424 399.004 148.264 399.004C149.452 399.004 150.238 398.482 150.622 397.438H152.836C152.548 398.446 152.008 399.25 151.216 399.85C150.424 400.438 149.44 400.732 148.264 400.732C147.316 400.732 146.476 400.522 145.744 400.102C145.012 399.67 144.436 399.07 144.016 398.302C143.608 397.522 143.404 396.622 143.404 395.602ZM157.275 392.326V397.816C157.275 398.188 157.359 398.458 157.527 398.626C157.707 398.782 158.007 398.86 158.427 398.86H159.687V400.57H158.067C157.143 400.57 156.435 400.354 155.943 399.922C155.451 399.49 155.205 398.788 155.205 397.816V392.326H154.035V390.652H155.205V388.186H157.275V390.652H159.687V392.326H157.275ZM175.182 390.652L169.098 405.232H166.974L168.99 400.408L165.084 390.652H167.37L170.16 398.212L173.058 390.652H175.182ZM181.033 400.732C180.097 400.732 179.251 400.522 178.495 400.102C177.739 399.67 177.145 399.07 176.713 398.302C176.281 397.522 176.065 396.622 176.065 395.602C176.065 394.594 176.287 393.7 176.731 392.92C177.175 392.14 177.781 391.54 178.549 391.12C179.317 390.7 180.175 390.49 181.123 390.49C182.071 390.49 182.929 390.7 183.697 391.12C184.465 391.54 185.071 392.14 185.515 392.92C185.959 393.7 186.181 394.594 186.181 395.602C186.181 396.61 185.953 397.504 185.497 398.284C185.041 399.064 184.417 399.67 183.625 400.102C182.845 400.522 181.981 400.732 181.033 400.732ZM181.033 398.95C181.561 398.95 182.053 398.824 182.509 398.572C182.977 398.32 183.355 397.942 183.643 397.438C183.931 396.934 184.075 396.322 184.075 395.602C184.075 394.882 183.937 394.276 183.661 393.784C183.385 393.28 183.019 392.902 182.563 392.65C182.107 392.398 181.615 392.272 181.087 392.272C180.559 392.272 180.067 392.398 179.611 392.65C179.167 392.902 178.813 393.28 178.549 393.784C178.285 394.276 178.153 394.882 178.153 395.602C178.153 396.67 178.423 397.498 178.963 398.086C179.515 398.662 180.205 398.95 181.033 398.95ZM197.191 390.652V400.57H195.139V399.4C194.815 399.808 194.389 400.132 193.861 400.372C193.345 400.6 192.793 400.714 192.205 400.714C191.425 400.714 190.723 400.552 190.099 400.228C189.487 399.904 189.001 399.424 188.641 398.788C188.293 398.152 188.119 397.384 188.119 396.484V390.652H190.153V396.178C190.153 397.066 190.375 397.75 190.819 398.23C191.263 398.698 191.869 398.932 192.637 398.932C193.405 398.932 194.011 398.698 194.455 398.23C194.911 397.75 195.139 397.066 195.139 396.178V390.652H197.191ZM201.951 392.092C202.251 391.588 202.647 391.198 203.139 390.922C203.643 390.634 204.237 390.49 204.921 390.49V392.614H204.399C203.595 392.614 202.983 392.818 202.563 393.226C202.155 393.634 201.951 394.342 201.951 395.35V400.57H199.899V390.652H201.951V392.092ZM212.527 389.338C212.155 389.338 211.843 389.212 211.591 388.96C211.339 388.708 211.213 388.396 211.213 388.024C211.213 387.652 211.339 387.34 211.591 387.088C211.843 386.836 212.155 386.71 212.527 386.71C212.887 386.71 213.193 386.836 213.445 387.088C213.697 387.34 213.823 387.652 213.823 388.024C213.823 388.396 213.697 388.708 213.445 388.96C213.193 389.212 212.887 389.338 212.527 389.338ZM213.535 390.652V400.57H211.483V390.652H213.535ZM228.235 390.49C229.015 390.49 229.711 390.652 230.323 390.976C230.947 391.3 231.433 391.78 231.781 392.416C232.141 393.052 232.321 393.82 232.321 394.72V400.57H230.287V395.026C230.287 394.138 230.065 393.46 229.621 392.992C229.177 392.512 228.571 392.272 227.803 392.272C227.035 392.272 226.423 392.512 225.967 392.992C225.523 393.46 225.301 394.138 225.301 395.026V400.57H223.267V395.026C223.267 394.138 223.045 393.46 222.601 392.992C222.157 392.512 221.551 392.272 220.783 392.272C220.015 392.272 219.403 392.512 218.947 392.992C218.503 393.46 218.281 394.138 218.281 395.026V400.57H216.229V390.652H218.281V391.786C218.617 391.378 219.043 391.06 219.559 390.832C220.075 390.604 220.627 390.49 221.215 390.49C222.007 390.49 222.715 390.658 223.339 390.994C223.963 391.33 224.443 391.816 224.779 392.452C225.079 391.852 225.547 391.378 226.183 391.03C226.819 390.67 227.503 390.49 228.235 390.49ZM234.248 395.566C234.248 394.57 234.452 393.688 234.86 392.92C235.28 392.152 235.844 391.558 236.552 391.138C237.272 390.706 238.064 390.49 238.928 390.49C239.708 390.49 240.386 390.646 240.962 390.958C241.55 391.258 242.018 391.636 242.366 392.092V390.652H244.436V400.57H242.366V399.094C242.018 399.562 241.544 399.952 240.944 400.264C240.344 400.576 239.66 400.732 238.892 400.732C238.04 400.732 237.26 400.516 236.552 400.084C235.844 399.64 235.28 399.028 234.86 398.248C234.452 397.456 234.248 396.562 234.248 395.566ZM242.366 395.602C242.366 394.918 242.222 394.324 241.934 393.82C241.658 393.316 241.292 392.932 240.836 392.668C240.38 392.404 239.888 392.272 239.36 392.272C238.832 392.272 238.34 392.404 237.884 392.668C237.428 392.92 237.056 393.298 236.768 393.802C236.492 394.294 236.354 394.882 236.354 395.566C236.354 396.25 236.492 396.85 236.768 397.366C237.056 397.882 237.428 398.278 237.884 398.554C238.352 398.818 238.844 398.95 239.36 398.95C239.888 398.95 240.38 398.818 240.836 398.554C241.292 398.29 241.658 397.906 241.934 397.402C242.222 396.886 242.366 396.286 242.366 395.602ZM251.127 390.49C251.895 390.49 252.573 390.646 253.161 390.958C253.761 391.258 254.229 391.636 254.565 392.092V390.652H256.635V400.732C256.635 401.644 256.443 402.454 256.059 403.162C255.675 403.882 255.117 404.446 254.385 404.854C253.665 405.262 252.801 405.466 251.793 405.466C250.449 405.466 249.333 405.148 248.445 404.512C247.557 403.888 247.053 403.036 246.933 401.956H248.967C249.123 402.472 249.453 402.886 249.957 403.198C250.473 403.522 251.085 403.684 251.793 403.684C252.621 403.684 253.287 403.432 253.791 402.928C254.307 402.424 254.565 401.692 254.565 400.732V399.076C254.217 399.544 253.743 399.94 253.143 400.264C252.555 400.576 251.883 400.732 251.127 400.732C250.263 400.732 249.471 400.516 248.751 400.084C248.043 399.64 247.479 399.028 247.059 398.248C246.651 397.456 246.447 396.562 246.447 395.566C246.447 394.57 246.651 393.688 247.059 392.92C247.479 392.152 248.043 391.558 248.751 391.138C249.471 390.706 250.263 390.49 251.127 390.49ZM254.565 395.602C254.565 394.918 254.421 394.324 254.133 393.82C253.857 393.316 253.491 392.932 253.035 392.668C252.579 392.404 252.087 392.272 251.559 392.272C251.031 392.272 250.539 392.404 250.083 392.668C249.627 392.92 249.255 393.298 248.967 393.802C248.691 394.294 248.553 394.882 248.553 395.566C248.553 396.25 248.691 396.85 248.967 397.366C249.255 397.882 249.627 398.278 250.083 398.554C250.551 398.818 251.043 398.95 251.559 398.95C252.087 398.95 252.579 398.818 253.035 398.554C253.491 398.29 253.857 397.906 254.133 397.402C254.421 396.886 254.565 396.286 254.565 395.602ZM268.42 395.368C268.42 395.74 268.396 396.076 268.348 396.376H260.77C260.83 397.168 261.124 397.804 261.652 398.284C262.18 398.764 262.828 399.004 263.596 399.004C264.7 399.004 265.48 398.542 265.936 397.618H268.15C267.85 398.53 267.304 399.28 266.512 399.868C265.732 400.444 264.76 400.732 263.596 400.732C262.648 400.732 261.796 400.522 261.04 400.102C260.296 399.67 259.708 399.07 259.276 398.302C258.856 397.522 258.646 396.622 258.646 395.602C258.646 394.582 258.85 393.688 259.258 392.92C259.678 392.14 260.26 391.54 261.004 391.12C261.76 390.7 262.624 390.49 263.596 390.49C264.532 390.49 265.366 390.694 266.098 391.102C266.83 391.51 267.4 392.086 267.808 392.83C268.216 393.562 268.42 394.408 268.42 395.368ZM266.278 394.72C266.266 393.964 265.996 393.358 265.468 392.902C264.94 392.446 264.286 392.218 263.506 392.218C262.798 392.218 262.192 392.446 261.688 392.902C261.184 393.346 260.884 393.952 260.788 394.72H266.278Z" fill="black"/>
<rect x="138" y="265.9" width="100" height="99.7151" rx="15" fill="#E5F3FF"/>
<path fill-rule="evenodd" clip-rule="evenodd" d="M190.624 317C191.026 317.405 191.677 317.405 192.079 317C192.495 316.596 192.495 315.939 192.093 315.535L188.115 311.514C188.018 311.416 187.907 311.347 187.782 311.291C187.657 311.235 187.533 311.207 187.394 311.207C187.255 311.207 187.117 311.235 186.992 311.291C186.867 311.347 186.756 311.416 186.659 311.514L182.695 315.535C182.293 315.939 182.293 316.596 182.695 317C183.097 317.405 183.749 317.405 184.15 317L186.354 314.767V321.51C186.354 322.082 186.812 322.543 187.394 322.543C187.962 322.543 188.42 322.082 188.42 321.51V314.767L190.624 317ZM198.159 311.606C198.485 311.602 198.84 311.598 199.162 311.598C199.509 311.598 199.8 311.877 199.8 312.226V323.45C199.8 326.912 197 329.718 193.562 329.718H182.543C178.925 329.718 176 326.772 176 323.143V308.094C176 304.632 178.786 301.798 182.251 301.798H189.653C190 301.798 190.291 302.091 190.291 302.44V306.935C190.291 309.49 192.37 311.584 194.921 311.598C195.504 311.598 196.021 311.602 196.476 311.606C196.832 311.609 197.15 311.612 197.43 311.612C197.627 311.612 197.883 311.609 198.159 311.606ZM198.546 309.568C197.407 309.572 196.065 309.568 195.099 309.558C193.566 309.558 192.303 308.286 192.303 306.743V303.063C192.303 302.461 193.027 302.162 193.441 302.596C194.509 303.713 196.142 305.424 197.523 306.871C198.083 307.457 198.601 307.999 199.023 308.441C199.427 308.864 199.13 309.567 198.546 309.568Z" fill="#0065FF"/>
<rect x="64.5" y="83.5" width="39" height="39" rx="9.5" transform="rotate(180 64.5 83.5)" stroke="#F0F0F0"/>
<path d="M48.5 71L41.5 64L48.5 57" stroke="#AAAAAA" stroke-width="1.5" stroke-linecap="round" stroke-linejoin="round"/>
<path d="M92.137 57.1V65.96C92.137 67.0133 92.4103 67.8067 92.957 68.34C93.517 68.8733 94.2903 69.14 95.277 69.14C96.277 69.14 97.0503 68.8733 97.597 68.34C98.157 67.8067 98.437 67.0133 98.437 65.96V57.1H100.717V65.92C100.717 67.0533 100.47 68.0133 99.977 68.8C99.4836 69.5867 98.8236 70.1733 97.997 70.56C97.1703 70.9467 96.257 71.14 95.257 71.14C94.257 71.14 93.3436 70.9467 92.517 70.56C91.7036 70.1733 91.057 69.5867 90.577 68.8C90.097 68.0133 89.857 67.0533 89.857 65.92V57.1H92.137ZM105.966 61.6C106.352 61.0933 106.879 60.6667 107.546 60.32C108.212 59.9733 108.966 59.8 109.806 59.8C110.766 59.8 111.639 60.04 112.426 60.52C113.226 60.9867 113.852 61.6467 114.306 62.5C114.759 63.3533 114.986 64.3333 114.986 65.44C114.986 66.5467 114.759 67.54 114.306 68.42C113.852 69.2867 113.226 69.9667 112.426 70.46C111.639 70.94 110.766 71.18 109.806 71.18C108.966 71.18 108.219 71.0133 107.566 70.68C106.912 70.3333 106.379 69.9067 105.966 69.4V76.24H103.686V59.98H105.966V61.6ZM112.666 65.44C112.666 64.68 112.506 64.0267 112.186 63.48C111.879 62.92 111.466 62.5 110.946 62.22C110.439 61.9267 109.892 61.78 109.306 61.78C108.732 61.78 108.186 61.9267 107.666 62.22C107.159 62.5133 106.746 62.94 106.426 63.5C106.119 64.06 105.966 64.72 105.966 65.48C105.966 66.24 106.119 66.9067 106.426 67.48C106.746 68.04 107.159 68.4667 107.666 68.76C108.186 69.0533 108.732 69.2 109.306 69.2C109.892 69.2 110.439 69.0533 110.946 68.76C111.466 68.4533 111.879 68.0133 112.186 67.44C112.506 66.8667 112.666 66.2 112.666 65.44ZM119.52 56.2V71H117.24V56.2H119.52ZM127.294 71.18C126.254 71.18 125.314 70.9467 124.474 70.48C123.634 70 122.974 69.3333 122.494 68.48C122.014 67.6133 121.774 66.6133 121.774 65.48C121.774 64.36 122.02 63.3667 122.514 62.5C123.007 61.6333 123.68 60.9667 124.534 60.5C125.387 60.0333 126.34 59.8 127.394 59.8C128.447 59.8 129.4 60.0333 130.254 60.5C131.107 60.9667 131.78 61.6333 132.274 62.5C132.767 63.3667 133.014 64.36 133.014 65.48C133.014 66.6 132.76 67.5933 132.254 68.46C131.747 69.3267 131.054 70 130.174 70.48C129.307 70.9467 128.347 71.18 127.294 71.18ZM127.294 69.2C127.88 69.2 128.427 69.06 128.934 68.78C129.454 68.5 129.874 68.08 130.194 67.52C130.514 66.96 130.674 66.28 130.674 65.48C130.674 64.68 130.52 64.0067 130.214 63.46C129.907 62.9 129.5 62.48 128.994 62.2C128.487 61.92 127.94 61.78 127.354 61.78C126.767 61.78 126.22 61.92 125.714 62.2C125.22 62.48 124.827 62.9 124.534 63.46C124.24 64.0067 124.094 64.68 124.094 65.48C124.094 66.6667 124.394 67.5867 124.994 68.24C125.607 68.88 126.374 69.2 127.294 69.2ZM134.508 65.44C134.508 64.3333 134.734 63.3533 135.188 62.5C135.654 61.6467 136.281 60.9867 137.068 60.52C137.868 60.04 138.748 59.8 139.708 59.8C140.574 59.8 141.328 59.9733 141.968 60.32C142.621 60.6533 143.141 61.0733 143.528 61.58V59.98H145.828V71H143.528V69.36C143.141 69.88 142.614 70.3133 141.948 70.66C141.281 71.0067 140.521 71.18 139.668 71.18C138.721 71.18 137.854 70.94 137.068 70.46C136.281 69.9667 135.654 69.2867 135.188 68.42C134.734 67.54 134.508 66.5467 134.508 65.44ZM143.528 65.48C143.528 64.72 143.368 64.06 143.048 63.5C142.741 62.94 142.334 62.5133 141.828 62.22C141.321 61.9267 140.774 61.78 140.188 61.78C139.601 61.78 139.054 61.9267 138.548 62.22C138.041 62.5 137.628 62.92 137.308 63.48C137.001 64.0267 136.848 64.68 136.848 65.44C136.848 66.2 137.001 66.8667 137.308 67.44C137.628 68.0133 138.041 68.4533 138.548 68.76C139.068 69.0533 139.614 69.2 140.188 69.2C140.774 69.2 141.321 69.0533 141.828 68.76C142.334 68.4667 142.741 68.04 143.048 67.48C143.368 66.9067 143.528 66.24 143.528 65.48ZM148.062 65.44C148.062 64.3333 148.289 63.3533 148.742 62.5C149.209 61.6467 149.836 60.9867 150.622 60.52C151.422 60.04 152.309 59.8 153.282 59.8C154.002 59.8 154.709 59.96 155.402 60.28C156.109 60.5867 156.669 61 157.082 61.52V56.2H159.382V71H157.082V69.34C156.709 69.8733 156.189 70.3133 155.522 70.66C154.869 71.0067 154.116 71.18 153.262 71.18C152.302 71.18 151.422 70.94 150.622 70.46C149.836 69.9667 149.209 69.2867 148.742 68.42C148.289 67.54 148.062 66.5467 148.062 65.44ZM157.082 65.48C157.082 64.72 156.922 64.06 156.602 63.5C156.296 62.94 155.889 62.5133 155.382 62.22C154.876 61.9267 154.329 61.78 153.742 61.78C153.156 61.78 152.609 61.9267 152.102 62.22C151.596 62.5 151.182 62.92 150.862 63.48C150.556 64.0267 150.402 64.68 150.402 65.44C150.402 66.2 150.556 66.8667 150.862 67.44C151.182 68.0133 151.596 68.4533 152.102 68.76C152.622 69.0533 153.169 69.2 153.742 69.2C154.329 69.2 154.876 69.0533 155.382 68.76C155.889 68.4667 156.296 68.04 156.602 67.48C156.922 66.9067 157.082 66.24 157.082 65.48ZM177.292 61.24C177.292 61.9467 177.126 62.6133 176.792 63.24C176.459 63.8667 175.926 64.38 175.192 64.78C174.459 65.1667 173.519 65.36 172.372 65.36H169.852V71H167.572V57.1H172.372C173.439 57.1 174.339 57.2867 175.072 57.66C175.819 58.02 176.372 58.5133 176.732 59.14C177.106 59.7667 177.292 60.4667 177.292 61.24ZM172.372 63.5C173.239 63.5 173.886 63.3067 174.312 62.92C174.739 62.52 174.952 61.96 174.952 61.24C174.952 59.72 174.092 58.96 172.372 58.96H169.852V63.5H172.372ZM181.747 61.58C182.08 61.02 182.52 60.5867 183.067 60.28C183.627 59.96 184.287 59.8 185.047 59.8V62.16H184.467C183.573 62.16 182.893 62.3867 182.427 62.84C181.973 63.2933 181.747 64.08 181.747 65.2V71H179.467V59.98H181.747V61.58ZM197.243 65.22C197.243 65.6333 197.216 66.0067 197.163 66.34H188.743C188.809 67.22 189.136 67.9267 189.723 68.46C190.309 68.9933 191.029 69.26 191.883 69.26C193.109 69.26 193.976 68.7467 194.483 67.72H196.943C196.609 68.7333 196.003 69.5667 195.123 70.22C194.256 70.86 193.176 71.18 191.883 71.18C190.829 71.18 189.883 70.9467 189.043 70.48C188.216 70 187.563 69.3333 187.083 68.48C186.616 67.6133 186.383 66.6133 186.383 65.48C186.383 64.3467 186.609 63.3533 187.063 62.5C187.529 61.6333 188.176 60.9667 189.003 60.5C189.843 60.0333 190.803 59.8 191.883 59.8C192.923 59.8 193.849 60.0267 194.663 60.48C195.476 60.9333 196.109 61.5733 196.563 62.4C197.016 63.2133 197.243 64.1533 197.243 65.22ZM194.863 64.5C194.849 63.66 194.549 62.9867 193.963 62.48C193.376 61.9733 192.649 61.72 191.783 61.72C190.996 61.72 190.323 61.9733 189.763 62.48C189.203 62.9733 188.869 63.6467 188.763 64.5H194.863ZM203.486 71.18C202.62 71.18 201.84 71.0267 201.146 70.72C200.466 70.4 199.926 69.9733 199.526 69.44C199.126 68.8933 198.913 68.2867 198.886 67.62H201.246C201.286 68.0867 201.506 68.48 201.906 68.8C202.32 69.1067 202.833 69.26 203.446 69.26C204.086 69.26 204.58 69.14 204.926 68.9C205.286 68.6467 205.466 68.3267 205.466 67.94C205.466 67.5267 205.266 67.22 204.866 67.02C204.48 66.82 203.86 66.6 203.006 66.36C202.18 66.1333 201.506 65.9133 200.986 65.7C200.466 65.4867 200.013 65.16 199.626 64.72C199.253 64.28 199.066 63.7 199.066 62.98C199.066 62.3933 199.24 61.86 199.586 61.38C199.933 60.8867 200.426 60.5 201.066 60.22C201.72 59.94 202.466 59.8 203.306 59.8C204.56 59.8 205.566 60.12 206.326 60.76C207.1 61.3867 207.513 62.2467 207.566 63.34H205.286C205.246 62.8467 205.046 62.4533 204.686 62.16C204.326 61.8667 203.84 61.72 203.226 61.72C202.626 61.72 202.166 61.8333 201.846 62.06C201.526 62.2867 201.366 62.5867 201.366 62.96C201.366 63.2533 201.473 63.5 201.686 63.7C201.9 63.9 202.16 64.06 202.466 64.18C202.773 64.2867 203.226 64.4267 203.826 64.6C204.626 64.8133 205.28 65.0333 205.786 65.26C206.306 65.4733 206.753 65.7933 207.126 66.22C207.5 66.6467 207.693 67.2133 207.706 67.92C207.706 68.5467 207.533 69.1067 207.186 69.6C206.84 70.0933 206.346 70.48 205.706 70.76C205.08 71.04 204.34 71.18 203.486 71.18ZM209.41 65.48C209.41 64.3467 209.637 63.3533 210.09 62.5C210.557 61.6333 211.197 60.9667 212.01 60.5C212.823 60.0333 213.757 59.8 214.81 59.8C216.143 59.8 217.243 60.12 218.11 60.76C218.99 61.3867 219.583 62.2867 219.89 63.46H217.43C217.23 62.9133 216.91 62.4867 216.47 62.18C216.03 61.8733 215.477 61.72 214.81 61.72C213.877 61.72 213.13 62.0533 212.57 62.72C212.023 63.3733 211.75 64.2933 211.75 65.48C211.75 66.6667 212.023 67.5933 212.57 68.26C213.13 68.9267 213.877 69.26 214.81 69.26C216.13 69.26 217.003 68.68 217.43 67.52H219.89C219.57 68.64 218.97 69.5333 218.09 70.2C217.21 70.8533 216.117 71.18 214.81 71.18C213.757 71.18 212.823 70.9467 212.01 70.48C211.197 70 210.557 69.3333 210.09 68.48C209.637 67.6133 209.41 66.6133 209.41 65.48ZM224.442 61.58C224.775 61.02 225.215 60.5867 225.762 60.28C226.322 59.96 226.982 59.8 227.742 59.8V62.16H227.162C226.269 62.16 225.589 62.3867 225.122 62.84C224.669 63.2933 224.442 64.08 224.442 65.2V71H222.162V59.98H224.442V61.58ZM230.998 58.52C230.585 58.52 230.238 58.38 229.958 58.1C229.678 57.82 229.538 57.4733 229.538 57.06C229.538 56.6467 229.678 56.3 229.958 56.02C230.238 55.74 230.585 55.6 230.998 55.6C231.398 55.6 231.738 55.74 232.018 56.02C232.298 56.3 232.438 56.6467 232.438 57.06C232.438 57.4733 232.298 57.82 232.018 58.1C231.738 58.38 231.398 58.52 230.998 58.52ZM232.118 59.98V71H229.838V59.98H232.118ZM237.391 61.6C237.778 61.0933 238.305 60.6667 238.971 60.32C239.638 59.9733 240.391 59.8 241.231 59.8C242.191 59.8 243.065 60.04 243.851 60.52C244.651 60.9867 245.278 61.6467 245.731 62.5C246.185 63.3533 246.411 64.3333 246.411 65.44C246.411 66.5467 246.185 67.54 245.731 68.42C245.278 69.2867 244.651 69.9667 243.851 70.46C243.065 70.94 242.191 71.18 241.231 71.18C240.391 71.18 239.645 71.0133 238.991 70.68C238.338 70.3333 237.805 69.9067 237.391 69.4V76.24H235.111V59.98H237.391V61.6ZM244.091 65.44C244.091 64.68 243.931 64.0267 243.611 63.48C243.305 62.92 242.891 62.5 242.371 62.22C241.865 61.9267 241.318 61.78 240.731 61.78C240.158 61.78 239.611 61.9267 239.091 62.22C238.585 62.5133 238.171 62.94 237.851 63.5C237.545 64.06 237.391 64.72 237.391 65.48C237.391 66.24 237.545 66.9067 237.851 67.48C238.171 68.04 238.585 68.4667 239.091 68.76C239.611 69.0533 240.158 69.2 240.731 69.2C241.318 69.2 241.865 69.0533 242.371 68.76C242.891 68.4533 243.305 68.0133 243.611 67.44C243.931 66.8667 244.091 66.2 244.091 65.44ZM251.326 61.84V67.94C251.326 68.3533 251.419 68.6533 251.606 68.84C251.806 69.0133 252.139 69.1 252.606 69.1H254.006V71H252.206C251.179 71 250.393 70.76 249.846 70.28C249.299 69.8 249.026 69.02 249.026 67.94V61.84H247.726V59.98H249.026V57.24H251.326V59.98H254.006V61.84H251.326ZM257.267 58.52C256.854 58.52 256.507 58.38 256.227 58.1C255.947 57.82 255.807 57.4733 255.807 57.06C255.807 56.6467 255.947 56.3 256.227 56.02C256.507 55.74 256.854 55.6 257.267 55.6C257.667 55.6 258.007 55.74 258.287 56.02C258.567 56.3 258.707 56.6467 258.707 57.06C258.707 57.4733 258.567 57.82 258.287 58.1C258.007 58.38 257.667 58.52 257.267 58.52ZM258.387 59.98V71H256.107V59.98H258.387ZM266.161 71.18C265.121 71.18 264.181 70.9467 263.341 70.48C262.501 70 261.841 69.3333 261.361 68.48C260.881 67.6133 260.641 66.6133 260.641 65.48C260.641 64.36 260.888 63.3667 261.381 62.5C261.874 61.6333 262.548 60.9667 263.401 60.5C264.254 60.0333 265.208 59.8 266.261 59.8C267.314 59.8 268.268 60.0333 269.121 60.5C269.974 60.9667 270.648 61.6333 271.141 62.5C271.634 63.3667 271.881 64.36 271.881 65.48C271.881 66.6 271.628 67.5933 271.121 68.46C270.614 69.3267 269.921 70 269.041 70.48C268.174 70.9467 267.214 71.18 266.161 71.18ZM266.161 69.2C266.748 69.2 267.294 69.06 267.801 68.78C268.321 68.5 268.741 68.08 269.061 67.52C269.381 66.96 269.541 66.28 269.541 65.48C269.541 64.68 269.388 64.0067 269.081 63.46C268.774 62.9 268.368 62.48 267.861 62.2C267.354 61.92 266.808 61.78 266.221 61.78C265.634 61.78 265.088 61.92 264.581 62.2C264.088 62.48 263.694 62.9 263.401 63.46C263.108 64.0067 262.961 64.68 262.961 65.48C262.961 66.6667 263.261 67.5867 263.861 68.24C264.474 68.88 265.241 69.2 266.161 69.2ZM279.695 59.8C280.561 59.8 281.335 59.98 282.015 60.34C282.708 60.7 283.248 61.2333 283.635 61.94C284.021 62.6467 284.215 63.5 284.215 64.5V71H281.955V64.84C281.955 63.8533 281.708 63.1 281.215 62.58C280.721 62.0467 280.048 61.78 279.195 61.78C278.341 61.78 277.661 62.0467 277.155 62.58C276.661 63.1 276.415 63.8533 276.415 64.84V71H274.135V59.98H276.415V61.24C276.788 60.7867 277.261 60.4333 277.835 60.18C278.421 59.9267 279.041 59.8 279.695 59.8Z" fill="black"/>
<rect x="348.5" y="83.5" width="39" height="39" rx="9.5" transform="rotate(180 348.5 83.5)" stroke="#F0F0F0"/>
<g clip-path="url(#clip0_327_6273)">
<path d="M329 56.5C328.083 56.5 327.333 57.25 327.333 58.1667C327.333 59.0833 328.083 59.8333 329 59.8333C329.917 59.8333 330.667 59.0833 330.667 58.1667C330.667 57.25 329.917 56.5 329 56.5ZM329 68.1667C328.083 68.1667 327.333 68.9167 327.333 69.8333C327.333 70.75 328.083 71.5 329 71.5C329.917 71.5 330.667 70.75 330.667 69.8333C330.667 68.9167 329.917 68.1667 329 68.1667ZM329 62.3333C328.083 62.3333 327.333 63.0833 327.333 64C327.333 64.9167 328.083 65.6667 329 65.6667C329.917 65.6667 330.667 64.9167 330.667 64C330.667 63.0833 329.917 62.3333 329 62.3333Z" fill="#AAAAAA"/>
</g>
<defs>
<clipPath id="clip0_327_6273">
<rect x="319" y="54" width="20" height="20" rx="10" fill="white"/>
</clipPath>
</defs>
</svg>
