<svg width="375" height="812" viewBox="0 0 375 812" fill="none" xmlns="http://www.w3.org/2000/svg">
<rect width="375" height="812" fill="white"/>
<rect x="38" y="500.428" width="300" height="70" rx="10" fill="#0085FE" fill-opacity="0.05"/>
<rect x="53" y="551.12" width="270" height="4.96988" rx="2.48494" fill="#E6E6E6"/>
<rect x="53" y="551.12" width="270" height="4.96988" rx="2.48494" fill="#3EAEFF"/>
<path d="M53.602 528.427C53.602 527.475 53.8167 526.621 54.246 525.865C54.6753 525.1 55.2587 524.503 55.996 524.073C56.7427 523.644 57.5687 523.429 58.474 523.429C59.538 523.429 60.4667 523.686 61.26 524.199C62.0533 524.713 62.632 525.441 62.996 526.383H61.47C61.1993 525.795 60.8073 525.343 60.294 525.025C59.79 524.708 59.1833 524.549 58.474 524.549C57.7927 524.549 57.1813 524.708 56.64 525.025C56.0987 525.343 55.674 525.795 55.366 526.383C55.058 526.962 54.904 527.643 54.904 528.427C54.904 529.202 55.058 529.883 55.366 530.471C55.674 531.05 56.0987 531.498 56.64 531.815C57.1813 532.133 57.7927 532.291 58.474 532.291C59.1833 532.291 59.79 532.137 60.294 531.829C60.8073 531.512 61.1993 531.059 61.47 530.471H62.996C62.632 531.405 62.0533 532.128 61.26 532.641C60.4667 533.145 59.538 533.397 58.474 533.397C57.5687 533.397 56.7427 533.187 55.996 532.767C55.2587 532.338 54.6753 531.745 54.246 530.989C53.8167 530.233 53.602 529.379 53.602 528.427ZM68.2385 533.439C67.5198 533.439 66.8665 533.276 66.2785 532.949C65.6998 532.623 65.2425 532.161 64.9065 531.563C64.5798 530.957 64.4165 530.257 64.4165 529.463C64.4165 528.679 64.5845 527.989 64.9205 527.391C65.2658 526.785 65.7325 526.323 66.3205 526.005C66.9085 525.679 67.5665 525.515 68.2945 525.515C69.0225 525.515 69.6805 525.679 70.2685 526.005C70.8565 526.323 71.3185 526.78 71.6545 527.377C71.9998 527.975 72.1725 528.67 72.1725 529.463C72.1725 530.257 71.9951 530.957 71.6405 531.563C71.2951 532.161 70.8238 532.623 70.2265 532.949C69.6291 533.276 68.9665 533.439 68.2385 533.439ZM68.2385 532.319C68.6958 532.319 69.1251 532.212 69.5265 531.997C69.9278 531.783 70.2498 531.461 70.4925 531.031C70.7445 530.602 70.8705 530.079 70.8705 529.463C70.8705 528.847 70.7491 528.325 70.5065 527.895C70.2638 527.466 69.9465 527.149 69.5545 526.943C69.1625 526.729 68.7378 526.621 68.2805 526.621C67.8138 526.621 67.3845 526.729 66.9925 526.943C66.6098 527.149 66.3018 527.466 66.0685 527.895C65.8351 528.325 65.7185 528.847 65.7185 529.463C65.7185 530.089 65.8305 530.616 66.0545 531.045C66.2878 531.475 66.5958 531.797 66.9785 532.011C67.3611 532.217 67.7811 532.319 68.2385 532.319ZM83.0735 525.501C83.6709 525.501 84.2029 525.627 84.6695 525.879C85.1362 526.122 85.5049 526.491 85.7755 526.985C86.0462 527.48 86.1815 528.082 86.1815 528.791V533.313H84.9215V528.973C84.9215 528.208 84.7302 527.625 84.3475 527.223C83.9742 526.813 83.4655 526.607 82.8215 526.607C82.1589 526.607 81.6315 526.822 81.2395 527.251C80.8475 527.671 80.6515 528.283 80.6515 529.085V533.313H79.3915V528.973C79.3915 528.208 79.2002 527.625 78.8175 527.223C78.4442 526.813 77.9355 526.607 77.2915 526.607C76.6289 526.607 76.1015 526.822 75.7095 527.251C75.3175 527.671 75.1215 528.283 75.1215 529.085V533.313H73.8475V525.641H75.1215V526.747C75.3735 526.346 75.7095 526.038 76.1295 525.823C76.5589 525.609 77.0302 525.501 77.5435 525.501C78.1875 525.501 78.7569 525.646 79.2515 525.935C79.7462 526.225 80.1149 526.649 80.3575 527.209C80.5722 526.668 80.9269 526.248 81.4215 525.949C81.9162 525.651 82.4669 525.501 83.0735 525.501ZM89.5454 527.055C89.7974 526.617 90.1707 526.253 90.6654 525.963C91.1694 525.665 91.7527 525.515 92.4154 525.515C93.0967 525.515 93.7127 525.679 94.2634 526.005C94.8234 526.332 95.262 526.794 95.5794 527.391C95.8967 527.979 96.0554 528.665 96.0554 529.449C96.0554 530.224 95.8967 530.915 95.5794 531.521C95.262 532.128 94.8234 532.599 94.2634 532.935C93.7127 533.271 93.0967 533.439 92.4154 533.439C91.762 533.439 91.1834 533.295 90.6794 533.005C90.1847 532.707 89.8067 532.338 89.5454 531.899V536.953H88.2714V525.641H89.5454V527.055ZM94.7534 529.449C94.7534 528.871 94.6367 528.367 94.4034 527.937C94.17 527.508 93.8527 527.181 93.4514 526.957C93.0594 526.733 92.6254 526.621 92.1494 526.621C91.6827 526.621 91.2487 526.738 90.8474 526.971C90.4554 527.195 90.138 527.527 89.8954 527.965C89.662 528.395 89.5454 528.894 89.5454 529.463C89.5454 530.042 89.662 530.551 89.8954 530.989C90.138 531.419 90.4554 531.75 90.8474 531.983C91.2487 532.207 91.6827 532.319 92.1494 532.319C92.6254 532.319 93.0594 532.207 93.4514 531.983C93.8527 531.75 94.17 531.419 94.4034 530.989C94.6367 530.551 94.7534 530.037 94.7534 529.449ZM99.0063 522.953V533.313H97.7323V522.953H99.0063ZM108.178 529.183C108.178 529.426 108.164 529.683 108.136 529.953H102.004C102.05 530.709 102.307 531.302 102.774 531.731C103.25 532.151 103.824 532.361 104.496 532.361C105.046 532.361 105.504 532.235 105.868 531.983C106.241 531.722 106.502 531.377 106.652 530.947H108.024C107.818 531.685 107.408 532.287 106.792 532.753C106.176 533.211 105.41 533.439 104.496 533.439C103.768 533.439 103.114 533.276 102.536 532.949C101.966 532.623 101.518 532.161 101.192 531.563C100.865 530.957 100.702 530.257 100.702 529.463C100.702 528.67 100.86 527.975 101.178 527.377C101.495 526.78 101.938 526.323 102.508 526.005C103.086 525.679 103.749 525.515 104.496 525.515C105.224 525.515 105.868 525.674 106.428 525.991C106.988 526.309 107.417 526.747 107.716 527.307C108.024 527.858 108.178 528.483 108.178 529.183ZM106.862 528.917C106.862 528.432 106.754 528.017 106.54 527.671C106.325 527.317 106.031 527.051 105.658 526.873C105.294 526.687 104.888 526.593 104.44 526.593C103.796 526.593 103.245 526.799 102.788 527.209C102.34 527.62 102.083 528.189 102.018 528.917H106.862ZM111.413 526.691V531.213C111.413 531.587 111.493 531.853 111.651 532.011C111.81 532.161 112.085 532.235 112.477 532.235H113.415V533.313H112.267C111.558 533.313 111.026 533.15 110.671 532.823C110.317 532.497 110.139 531.96 110.139 531.213V526.691H109.145V525.641H110.139V523.709H111.413V525.641H113.415V526.691H111.413ZM121.959 529.183C121.959 529.426 121.945 529.683 121.917 529.953H115.785C115.832 530.709 116.088 531.302 116.555 531.731C117.031 532.151 117.605 532.361 118.277 532.361C118.828 532.361 119.285 532.235 119.649 531.983C120.022 531.722 120.284 531.377 120.433 530.947H121.805C121.6 531.685 121.189 532.287 120.573 532.753C119.957 533.211 119.192 533.439 118.277 533.439C117.549 533.439 116.896 533.276 116.317 532.949C115.748 532.623 115.3 532.161 114.973 531.563C114.646 530.957 114.483 530.257 114.483 529.463C114.483 528.67 114.642 527.975 114.959 527.377C115.276 526.78 115.72 526.323 116.289 526.005C116.868 525.679 117.53 525.515 118.277 525.515C119.005 525.515 119.649 525.674 120.209 525.991C120.769 526.309 121.198 526.747 121.497 527.307C121.805 527.858 121.959 528.483 121.959 529.183ZM120.643 528.917C120.643 528.432 120.536 528.017 120.321 527.671C120.106 527.317 119.812 527.051 119.439 526.873C119.075 526.687 118.669 526.593 118.221 526.593C117.577 526.593 117.026 526.799 116.569 527.209C116.121 527.62 115.864 528.189 115.799 528.917H120.643ZM123.165 529.449C123.165 528.665 123.323 527.979 123.641 527.391C123.958 526.794 124.392 526.332 124.943 526.005C125.503 525.679 126.128 525.515 126.819 525.515C127.416 525.515 127.971 525.655 128.485 525.935C128.998 526.206 129.39 526.565 129.661 527.013V522.953H130.949V533.313H129.661V531.871C129.409 532.329 129.035 532.707 128.541 533.005C128.046 533.295 127.467 533.439 126.805 533.439C126.123 533.439 125.503 533.271 124.943 532.935C124.392 532.599 123.958 532.128 123.641 531.521C123.323 530.915 123.165 530.224 123.165 529.449ZM129.661 529.463C129.661 528.885 129.544 528.381 129.311 527.951C129.077 527.522 128.76 527.195 128.359 526.971C127.967 526.738 127.533 526.621 127.057 526.621C126.581 526.621 126.147 526.733 125.755 526.957C125.363 527.181 125.05 527.508 124.817 527.937C124.583 528.367 124.467 528.871 124.467 529.449C124.467 530.037 124.583 530.551 124.817 530.989C125.05 531.419 125.363 531.75 125.755 531.983C126.147 532.207 126.581 532.319 127.057 532.319C127.533 532.319 127.967 532.207 128.359 531.983C128.76 531.75 129.077 531.419 129.311 530.989C129.544 530.551 129.661 530.042 129.661 529.463Z" fill="#14161A"/>
<ellipse cx="310" cy="528.259" rx="13" ry="12.9217" fill="#3EAEFF" fill-opacity="0.2"/>
<path d="M308.235 530.363L314.353 524.282L315.294 525.218L308.235 532.234L304 528.024L304.941 527.089L308.235 530.363Z" fill="#3EAEFF"/>
<rect x="38.75" y="231.75" width="298.5" height="233.828" rx="24.25" stroke="#0085FE" stroke-width="1.5" stroke-dasharray="8 18"/>
<path d="M141.728 424.565C141.728 425.377 141.448 426.054 140.888 426.595C140.337 427.127 139.493 427.393 138.354 427.393H136.478V431.467H135.204V421.709H138.354C139.455 421.709 140.291 421.975 140.86 422.507C141.439 423.039 141.728 423.725 141.728 424.565ZM138.354 426.343C139.063 426.343 139.586 426.189 139.922 425.881C140.258 425.573 140.426 425.135 140.426 424.565C140.426 423.361 139.735 422.759 138.354 422.759H136.478V426.343H138.354ZM144.585 425.041C144.809 424.603 145.127 424.262 145.537 424.019C145.957 423.777 146.466 423.655 147.063 423.655V424.971H146.727C145.299 424.971 144.585 425.746 144.585 427.295V431.467H143.311V423.795H144.585V425.041ZM155.534 427.337C155.534 427.58 155.52 427.837 155.492 428.107H149.36C149.407 428.863 149.663 429.456 150.13 429.885C150.606 430.305 151.18 430.515 151.852 430.515C152.403 430.515 152.86 430.389 153.224 430.137C153.597 429.876 153.859 429.531 154.008 429.101H155.38C155.175 429.839 154.764 430.441 154.148 430.907C153.532 431.365 152.767 431.593 151.852 431.593C151.124 431.593 150.471 431.43 149.892 431.103C149.323 430.777 148.875 430.315 148.548 429.717C148.221 429.111 148.058 428.411 148.058 427.617C148.058 426.824 148.217 426.129 148.534 425.531C148.851 424.934 149.295 424.477 149.864 424.159C150.443 423.833 151.105 423.669 151.852 423.669C152.58 423.669 153.224 423.828 153.784 424.145C154.344 424.463 154.773 424.901 155.072 425.461C155.38 426.012 155.534 426.637 155.534 427.337ZM154.218 427.071C154.218 426.586 154.111 426.171 153.896 425.825C153.681 425.471 153.387 425.205 153.014 425.027C152.65 424.841 152.244 424.747 151.796 424.747C151.152 424.747 150.601 424.953 150.144 425.363C149.696 425.774 149.439 426.343 149.374 427.071H154.218ZM159.932 431.593C159.344 431.593 158.816 431.495 158.35 431.299C157.883 431.094 157.514 430.814 157.244 430.459C156.973 430.095 156.824 429.68 156.796 429.213H158.112C158.149 429.596 158.326 429.909 158.644 430.151C158.97 430.394 159.395 430.515 159.918 430.515C160.403 430.515 160.786 430.408 161.066 430.193C161.346 429.979 161.486 429.708 161.486 429.381C161.486 429.045 161.336 428.798 161.038 428.639C160.739 428.471 160.277 428.308 159.652 428.149C159.082 428 158.616 427.851 158.252 427.701C157.897 427.543 157.589 427.314 157.328 427.015C157.076 426.707 156.95 426.306 156.95 425.811C156.95 425.419 157.066 425.06 157.3 424.733C157.533 424.407 157.864 424.15 158.294 423.963C158.723 423.767 159.213 423.669 159.764 423.669C160.613 423.669 161.299 423.884 161.822 424.313C162.344 424.743 162.624 425.331 162.662 426.077H161.388C161.36 425.676 161.196 425.354 160.898 425.111C160.608 424.869 160.216 424.747 159.722 424.747C159.264 424.747 158.9 424.845 158.63 425.041C158.359 425.237 158.224 425.494 158.224 425.811C158.224 426.063 158.303 426.273 158.462 426.441C158.63 426.6 158.835 426.731 159.078 426.833C159.33 426.927 159.675 427.034 160.114 427.155C160.664 427.305 161.112 427.454 161.458 427.603C161.803 427.743 162.097 427.958 162.34 428.247C162.592 428.537 162.722 428.915 162.732 429.381C162.732 429.801 162.615 430.179 162.382 430.515C162.148 430.851 161.817 431.117 161.388 431.313C160.968 431.5 160.482 431.593 159.932 431.593ZM164.054 427.617C164.054 426.824 164.213 426.133 164.53 425.545C164.847 424.948 165.286 424.486 165.846 424.159C166.415 423.833 167.064 423.669 167.792 423.669C168.735 423.669 169.509 423.898 170.116 424.355C170.732 424.813 171.138 425.447 171.334 426.259H169.962C169.831 425.793 169.575 425.424 169.192 425.153C168.819 424.883 168.352 424.747 167.792 424.747C167.064 424.747 166.476 424.999 166.028 425.503C165.58 425.998 165.356 426.703 165.356 427.617C165.356 428.541 165.58 429.255 166.028 429.759C166.476 430.263 167.064 430.515 167.792 430.515C168.352 430.515 168.819 430.385 169.192 430.123C169.565 429.862 169.822 429.489 169.962 429.003H171.334C171.129 429.787 170.718 430.417 170.102 430.893C169.486 431.36 168.716 431.593 167.792 431.593C167.064 431.593 166.415 431.43 165.846 431.103C165.286 430.777 164.847 430.315 164.53 429.717C164.213 429.12 164.054 428.42 164.054 427.617ZM174.308 425.041C174.532 424.603 174.849 424.262 175.26 424.019C175.68 423.777 176.189 423.655 176.786 423.655V424.971H176.45C175.022 424.971 174.308 425.746 174.308 427.295V431.467H173.034V423.795H174.308V425.041ZM178.915 422.549C178.672 422.549 178.467 422.465 178.299 422.297C178.131 422.129 178.047 421.924 178.047 421.681C178.047 421.439 178.131 421.233 178.299 421.065C178.467 420.897 178.672 420.813 178.915 420.813C179.148 420.813 179.344 420.897 179.503 421.065C179.671 421.233 179.755 421.439 179.755 421.681C179.755 421.924 179.671 422.129 179.503 422.297C179.344 422.465 179.148 422.549 178.915 422.549ZM179.531 423.795V431.467H178.257V423.795H179.531ZM182.976 425.209C183.228 424.771 183.601 424.407 184.096 424.117C184.6 423.819 185.183 423.669 185.846 423.669C186.527 423.669 187.143 423.833 187.694 424.159C188.254 424.486 188.693 424.948 189.01 425.545C189.327 426.133 189.486 426.819 189.486 427.603C189.486 428.378 189.327 429.069 189.01 429.675C188.693 430.282 188.254 430.753 187.694 431.089C187.143 431.425 186.527 431.593 185.846 431.593C185.193 431.593 184.614 431.449 184.11 431.159C183.615 430.861 183.237 430.492 182.976 430.053V435.107H181.702V423.795H182.976V425.209ZM188.184 427.603C188.184 427.025 188.067 426.521 187.834 426.091C187.601 425.662 187.283 425.335 186.882 425.111C186.49 424.887 186.056 424.775 185.58 424.775C185.113 424.775 184.679 424.892 184.278 425.125C183.886 425.349 183.569 425.681 183.326 426.119C183.093 426.549 182.976 427.048 182.976 427.617C182.976 428.196 183.093 428.705 183.326 429.143C183.569 429.573 183.886 429.904 184.278 430.137C184.679 430.361 185.113 430.473 185.58 430.473C186.056 430.473 186.49 430.361 186.882 430.137C187.283 429.904 187.601 429.573 187.834 429.143C188.067 428.705 188.184 428.191 188.184 427.603ZM192.717 424.845V429.367C192.717 429.741 192.796 430.007 192.955 430.165C193.114 430.315 193.389 430.389 193.781 430.389H194.719V431.467H193.571C192.862 431.467 192.33 431.304 191.975 430.977C191.62 430.651 191.443 430.114 191.443 429.367V424.845H190.449V423.795H191.443V421.863H192.717V423.795H194.719V424.845H192.717ZM196.921 422.549C196.678 422.549 196.473 422.465 196.305 422.297C196.137 422.129 196.053 421.924 196.053 421.681C196.053 421.439 196.137 421.233 196.305 421.065C196.473 420.897 196.678 420.813 196.921 420.813C197.154 420.813 197.35 420.897 197.509 421.065C197.677 421.233 197.761 421.439 197.761 421.681C197.761 421.924 197.677 422.129 197.509 422.297C197.35 422.465 197.154 422.549 196.921 422.549ZM197.537 423.795V431.467H196.263V423.795H197.537ZM203.054 431.593C202.335 431.593 201.682 431.43 201.094 431.103C200.515 430.777 200.058 430.315 199.722 429.717C199.395 429.111 199.232 428.411 199.232 427.617C199.232 426.833 199.4 426.143 199.736 425.545C200.081 424.939 200.548 424.477 201.136 424.159C201.724 423.833 202.382 423.669 203.11 423.669C203.838 423.669 204.496 423.833 205.084 424.159C205.672 424.477 206.134 424.934 206.47 425.531C206.815 426.129 206.988 426.824 206.988 427.617C206.988 428.411 206.811 429.111 206.456 429.717C206.111 430.315 205.639 430.777 205.042 431.103C204.445 431.43 203.782 431.593 203.054 431.593ZM203.054 430.473C203.511 430.473 203.941 430.366 204.342 430.151C204.743 429.937 205.065 429.615 205.308 429.185C205.56 428.756 205.686 428.233 205.686 427.617C205.686 427.001 205.565 426.479 205.322 426.049C205.079 425.62 204.762 425.303 204.37 425.097C203.978 424.883 203.553 424.775 203.096 424.775C202.629 424.775 202.2 424.883 201.808 425.097C201.425 425.303 201.117 425.62 200.884 426.049C200.651 426.479 200.534 427.001 200.534 427.617C200.534 428.243 200.646 428.77 200.87 429.199C201.103 429.629 201.411 429.951 201.794 430.165C202.177 430.371 202.597 430.473 203.054 430.473ZM212.401 423.655C213.334 423.655 214.09 423.94 214.669 424.509C215.248 425.069 215.537 425.881 215.537 426.945V431.467H214.277V427.127C214.277 426.362 214.086 425.779 213.703 425.377C213.32 424.967 212.798 424.761 212.135 424.761C211.463 424.761 210.926 424.971 210.525 425.391C210.133 425.811 209.937 426.423 209.937 427.225V431.467H208.663V423.795H209.937V424.887C210.189 424.495 210.53 424.192 210.959 423.977C211.398 423.763 211.878 423.655 212.401 423.655ZM218.024 431.551C217.781 431.551 217.576 431.467 217.408 431.299C217.24 431.131 217.156 430.926 217.156 430.683C217.156 430.441 217.24 430.235 217.408 430.067C217.576 429.899 217.781 429.815 218.024 429.815C218.257 429.815 218.453 429.899 218.612 430.067C218.78 430.235 218.864 430.441 218.864 430.683C218.864 430.926 218.78 431.131 218.612 431.299C218.453 431.467 218.257 431.551 218.024 431.551ZM221.243 422.549C221.001 422.549 220.795 422.465 220.627 422.297C220.469 422.129 220.389 421.924 220.389 421.681C220.389 421.439 220.469 421.233 220.627 421.065C220.795 420.897 221.001 420.813 221.243 420.813C221.486 420.813 221.687 420.897 221.845 421.065C222.013 421.233 222.097 421.439 222.097 421.681C222.097 421.924 222.013 422.129 221.845 422.297C221.687 422.465 221.486 422.549 221.243 422.549ZM221.873 433.133C221.873 433.815 221.701 434.314 221.355 434.631C221.01 434.949 220.506 435.107 219.843 435.107H219.101V434.029H219.633C219.988 434.029 220.235 433.959 220.375 433.819C220.525 433.679 220.599 433.441 220.599 433.105V423.795H221.873V433.133ZM225.304 425.209C225.556 424.771 225.929 424.407 226.424 424.117C226.928 423.819 227.511 423.669 228.174 423.669C228.855 423.669 229.471 423.833 230.022 424.159C230.582 424.486 231.021 424.948 231.338 425.545C231.655 426.133 231.814 426.819 231.814 427.603C231.814 428.378 231.655 429.069 231.338 429.675C231.021 430.282 230.582 430.753 230.022 431.089C229.471 431.425 228.855 431.593 228.174 431.593C227.521 431.593 226.942 431.449 226.438 431.159C225.943 430.861 225.565 430.492 225.304 430.053V435.107H224.03V423.795H225.304V425.209ZM230.512 427.603C230.512 427.025 230.395 426.521 230.162 426.091C229.929 425.662 229.611 425.335 229.21 425.111C228.818 424.887 228.384 424.775 227.908 424.775C227.441 424.775 227.007 424.892 226.606 425.125C226.214 425.349 225.897 425.681 225.654 426.119C225.421 426.549 225.304 427.048 225.304 427.617C225.304 428.196 225.421 428.705 225.654 429.143C225.897 429.573 226.214 429.904 226.606 430.137C227.007 430.361 227.441 430.473 227.908 430.473C228.384 430.473 228.818 430.361 229.21 430.137C229.611 429.904 229.929 429.573 230.162 429.143C230.395 428.705 230.512 428.191 230.512 427.603ZM236.655 423.669C237.318 423.669 237.896 423.814 238.391 424.103C238.895 424.393 239.268 424.757 239.511 425.195V423.795H240.799V431.635C240.799 432.335 240.65 432.956 240.351 433.497C240.052 434.048 239.623 434.477 239.063 434.785C238.512 435.093 237.868 435.247 237.131 435.247C236.123 435.247 235.283 435.009 234.611 434.533C233.939 434.057 233.542 433.409 233.421 432.587H234.681C234.821 433.054 235.11 433.427 235.549 433.707C235.988 433.997 236.515 434.141 237.131 434.141C237.831 434.141 238.4 433.922 238.839 433.483C239.287 433.045 239.511 432.429 239.511 431.635V430.025C239.259 430.473 238.886 430.847 238.391 431.145C237.896 431.444 237.318 431.593 236.655 431.593C235.974 431.593 235.353 431.425 234.793 431.089C234.242 430.753 233.808 430.282 233.491 429.675C233.174 429.069 233.015 428.378 233.015 427.603C233.015 426.819 233.174 426.133 233.491 425.545C233.808 424.948 234.242 424.486 234.793 424.159C235.353 423.833 235.974 423.669 236.655 423.669ZM239.511 427.617C239.511 427.039 239.394 426.535 239.161 426.105C238.928 425.676 238.61 425.349 238.209 425.125C237.817 424.892 237.383 424.775 236.907 424.775C236.431 424.775 235.997 424.887 235.605 425.111C235.213 425.335 234.9 425.662 234.667 426.091C234.434 426.521 234.317 427.025 234.317 427.603C234.317 428.191 234.434 428.705 234.667 429.143C234.9 429.573 235.213 429.904 235.605 430.137C235.997 430.361 236.431 430.473 236.907 430.473C237.383 430.473 237.817 430.361 238.209 430.137C238.61 429.904 238.928 429.573 239.161 429.143C239.394 428.705 239.511 428.196 239.511 427.617Z" fill="#AAAAAA"/>
<path d="M110.382 400.696C109.542 400.696 108.786 400.552 108.114 400.264C107.442 399.964 106.914 399.544 106.53 399.004C106.146 398.464 105.954 397.834 105.954 397.114H108.15C108.198 397.654 108.408 398.098 108.78 398.446C109.164 398.794 109.698 398.968 110.382 398.968C111.09 398.968 111.642 398.8 112.038 398.464C112.434 398.116 112.632 397.672 112.632 397.132C112.632 396.712 112.506 396.37 112.254 396.106C112.014 395.842 111.708 395.638 111.336 395.494C110.976 395.35 110.472 395.194 109.824 395.026C109.008 394.81 108.342 394.594 107.826 394.378C107.322 394.15 106.89 393.802 106.53 393.334C106.17 392.866 105.99 392.242 105.99 391.462C105.99 390.742 106.17 390.112 106.53 389.572C106.89 389.032 107.394 388.618 108.042 388.33C108.69 388.042 109.44 387.898 110.292 387.898C111.504 387.898 112.494 388.204 113.262 388.816C114.042 389.416 114.474 390.244 114.558 391.3H112.29C112.254 390.844 112.038 390.454 111.642 390.13C111.246 389.806 110.724 389.644 110.076 389.644C109.488 389.644 109.008 389.794 108.636 390.094C108.264 390.394 108.078 390.826 108.078 391.39C108.078 391.774 108.192 392.092 108.42 392.344C108.66 392.584 108.96 392.776 109.32 392.92C109.68 393.064 110.172 393.22 110.796 393.388C111.624 393.616 112.296 393.844 112.812 394.072C113.34 394.3 113.784 394.654 114.144 395.134C114.516 395.602 114.702 396.232 114.702 397.024C114.702 397.66 114.528 398.26 114.18 398.824C113.844 399.388 113.346 399.844 112.686 400.192C112.038 400.528 111.27 400.696 110.382 400.696ZM126.213 395.368C126.213 395.74 126.189 396.076 126.141 396.376H118.563C118.623 397.168 118.917 397.804 119.445 398.284C119.973 398.764 120.621 399.004 121.389 399.004C122.493 399.004 123.273 398.542 123.729 397.618H125.943C125.643 398.53 125.097 399.28 124.305 399.868C123.525 400.444 122.553 400.732 121.389 400.732C120.441 400.732 119.589 400.522 118.833 400.102C118.089 399.67 117.501 399.07 117.069 398.302C116.649 397.522 116.439 396.622 116.439 395.602C116.439 394.582 116.643 393.688 117.051 392.92C117.471 392.14 118.053 391.54 118.797 391.12C119.553 390.7 120.417 390.49 121.389 390.49C122.325 390.49 123.159 390.694 123.891 391.102C124.623 391.51 125.193 392.086 125.601 392.83C126.009 393.562 126.213 394.408 126.213 395.368ZM124.071 394.72C124.059 393.964 123.789 393.358 123.261 392.902C122.733 392.446 122.079 392.218 121.299 392.218C120.591 392.218 119.985 392.446 119.481 392.902C118.977 393.346 118.677 393.952 118.581 394.72H124.071ZM130.285 387.25V400.57H128.233V387.25H130.285ZM142.069 395.368C142.069 395.74 142.045 396.076 141.997 396.376H134.419C134.479 397.168 134.773 397.804 135.301 398.284C135.829 398.764 136.477 399.004 137.245 399.004C138.349 399.004 139.129 398.542 139.585 397.618H141.799C141.499 398.53 140.953 399.28 140.161 399.868C139.381 400.444 138.409 400.732 137.245 400.732C136.297 400.732 135.445 400.522 134.689 400.102C133.945 399.67 133.357 399.07 132.925 398.302C132.505 397.522 132.295 396.622 132.295 395.602C132.295 394.582 132.499 393.688 132.907 392.92C133.327 392.14 133.909 391.54 134.653 391.12C135.409 390.7 136.273 390.49 137.245 390.49C138.181 390.49 139.015 390.694 139.747 391.102C140.479 391.51 141.049 392.086 141.457 392.83C141.865 393.562 142.069 394.408 142.069 395.368ZM139.927 394.72C139.915 393.964 139.645 393.358 139.117 392.902C138.589 392.446 137.935 392.218 137.155 392.218C136.447 392.218 135.841 392.446 135.337 392.902C134.833 393.346 134.533 393.952 134.437 394.72H139.927ZM143.404 395.602C143.404 394.582 143.608 393.688 144.016 392.92C144.436 392.14 145.012 391.54 145.744 391.12C146.476 390.7 147.316 390.49 148.264 390.49C149.464 390.49 150.454 390.778 151.234 391.354C152.026 391.918 152.56 392.728 152.836 393.784H150.622C150.442 393.292 150.154 392.908 149.758 392.632C149.362 392.356 148.864 392.218 148.264 392.218C147.424 392.218 146.752 392.518 146.248 393.118C145.756 393.706 145.51 394.534 145.51 395.602C145.51 396.67 145.756 397.504 146.248 398.104C146.752 398.704 147.424 399.004 148.264 399.004C149.452 399.004 150.238 398.482 150.622 397.438H152.836C152.548 398.446 152.008 399.25 151.216 399.85C150.424 400.438 149.44 400.732 148.264 400.732C147.316 400.732 146.476 400.522 145.744 400.102C145.012 399.67 144.436 399.07 144.016 398.302C143.608 397.522 143.404 396.622 143.404 395.602ZM157.275 392.326V397.816C157.275 398.188 157.359 398.458 157.527 398.626C157.707 398.782 158.007 398.86 158.427 398.86H159.687V400.57H158.067C157.143 400.57 156.435 400.354 155.943 399.922C155.451 399.49 155.205 398.788 155.205 397.816V392.326H154.035V390.652H155.205V388.186H157.275V390.652H159.687V392.326H157.275ZM175.182 390.652L169.098 405.232H166.974L168.99 400.408L165.084 390.652H167.37L170.16 398.212L173.058 390.652H175.182ZM181.033 400.732C180.097 400.732 179.251 400.522 178.495 400.102C177.739 399.67 177.145 399.07 176.713 398.302C176.281 397.522 176.065 396.622 176.065 395.602C176.065 394.594 176.287 393.7 176.731 392.92C177.175 392.14 177.781 391.54 178.549 391.12C179.317 390.7 180.175 390.49 181.123 390.49C182.071 390.49 182.929 390.7 183.697 391.12C184.465 391.54 185.071 392.14 185.515 392.92C185.959 393.7 186.181 394.594 186.181 395.602C186.181 396.61 185.953 397.504 185.497 398.284C185.041 399.064 184.417 399.67 183.625 400.102C182.845 400.522 181.981 400.732 181.033 400.732ZM181.033 398.95C181.561 398.95 182.053 398.824 182.509 398.572C182.977 398.32 183.355 397.942 183.643 397.438C183.931 396.934 184.075 396.322 184.075 395.602C184.075 394.882 183.937 394.276 183.661 393.784C183.385 393.28 183.019 392.902 182.563 392.65C182.107 392.398 181.615 392.272 181.087 392.272C180.559 392.272 180.067 392.398 179.611 392.65C179.167 392.902 178.813 393.28 178.549 393.784C178.285 394.276 178.153 394.882 178.153 395.602C178.153 396.67 178.423 397.498 178.963 398.086C179.515 398.662 180.205 398.95 181.033 398.95ZM197.191 390.652V400.57H195.139V399.4C194.815 399.808 194.389 400.132 193.861 400.372C193.345 400.6 192.793 400.714 192.205 400.714C191.425 400.714 190.723 400.552 190.099 400.228C189.487 399.904 189.001 399.424 188.641 398.788C188.293 398.152 188.119 397.384 188.119 396.484V390.652H190.153V396.178C190.153 397.066 190.375 397.75 190.819 398.23C191.263 398.698 191.869 398.932 192.637 398.932C193.405 398.932 194.011 398.698 194.455 398.23C194.911 397.75 195.139 397.066 195.139 396.178V390.652H197.191ZM201.951 392.092C202.251 391.588 202.647 391.198 203.139 390.922C203.643 390.634 204.237 390.49 204.921 390.49V392.614H204.399C203.595 392.614 202.983 392.818 202.563 393.226C202.155 393.634 201.951 394.342 201.951 395.35V400.57H199.899V390.652H201.951V392.092ZM212.527 389.338C212.155 389.338 211.843 389.212 211.591 388.96C211.339 388.708 211.213 388.396 211.213 388.024C211.213 387.652 211.339 387.34 211.591 387.088C211.843 386.836 212.155 386.71 212.527 386.71C212.887 386.71 213.193 386.836 213.445 387.088C213.697 387.34 213.823 387.652 213.823 388.024C213.823 388.396 213.697 388.708 213.445 388.96C213.193 389.212 212.887 389.338 212.527 389.338ZM213.535 390.652V400.57H211.483V390.652H213.535ZM228.235 390.49C229.015 390.49 229.711 390.652 230.323 390.976C230.947 391.3 231.433 391.78 231.781 392.416C232.141 393.052 232.321 393.82 232.321 394.72V400.57H230.287V395.026C230.287 394.138 230.065 393.46 229.621 392.992C229.177 392.512 228.571 392.272 227.803 392.272C227.035 392.272 226.423 392.512 225.967 392.992C225.523 393.46 225.301 394.138 225.301 395.026V400.57H223.267V395.026C223.267 394.138 223.045 393.46 222.601 392.992C222.157 392.512 221.551 392.272 220.783 392.272C220.015 392.272 219.403 392.512 218.947 392.992C218.503 393.46 218.281 394.138 218.281 395.026V400.57H216.229V390.652H218.281V391.786C218.617 391.378 219.043 391.06 219.559 390.832C220.075 390.604 220.627 390.49 221.215 390.49C222.007 390.49 222.715 390.658 223.339 390.994C223.963 391.33 224.443 391.816 224.779 392.452C225.079 391.852 225.547 391.378 226.183 391.03C226.819 390.67 227.503 390.49 228.235 390.49ZM234.248 395.566C234.248 394.57 234.452 393.688 234.86 392.92C235.28 392.152 235.844 391.558 236.552 391.138C237.272 390.706 238.064 390.49 238.928 390.49C239.708 390.49 240.386 390.646 240.962 390.958C241.55 391.258 242.018 391.636 242.366 392.092V390.652H244.436V400.57H242.366V399.094C242.018 399.562 241.544 399.952 240.944 400.264C240.344 400.576 239.66 400.732 238.892 400.732C238.04 400.732 237.26 400.516 236.552 400.084C235.844 399.64 235.28 399.028 234.86 398.248C234.452 397.456 234.248 396.562 234.248 395.566ZM242.366 395.602C242.366 394.918 242.222 394.324 241.934 393.82C241.658 393.316 241.292 392.932 240.836 392.668C240.38 392.404 239.888 392.272 239.36 392.272C238.832 392.272 238.34 392.404 237.884 392.668C237.428 392.92 237.056 393.298 236.768 393.802C236.492 394.294 236.354 394.882 236.354 395.566C236.354 396.25 236.492 396.85 236.768 397.366C237.056 397.882 237.428 398.278 237.884 398.554C238.352 398.818 238.844 398.95 239.36 398.95C239.888 398.95 240.38 398.818 240.836 398.554C241.292 398.29 241.658 397.906 241.934 397.402C242.222 396.886 242.366 396.286 242.366 395.602ZM251.127 390.49C251.895 390.49 252.573 390.646 253.161 390.958C253.761 391.258 254.229 391.636 254.565 392.092V390.652H256.635V400.732C256.635 401.644 256.443 402.454 256.059 403.162C255.675 403.882 255.117 404.446 254.385 404.854C253.665 405.262 252.801 405.466 251.793 405.466C250.449 405.466 249.333 405.148 248.445 404.512C247.557 403.888 247.053 403.036 246.933 401.956H248.967C249.123 402.472 249.453 402.886 249.957 403.198C250.473 403.522 251.085 403.684 251.793 403.684C252.621 403.684 253.287 403.432 253.791 402.928C254.307 402.424 254.565 401.692 254.565 400.732V399.076C254.217 399.544 253.743 399.94 253.143 400.264C252.555 400.576 251.883 400.732 251.127 400.732C250.263 400.732 249.471 400.516 248.751 400.084C248.043 399.64 247.479 399.028 247.059 398.248C246.651 397.456 246.447 396.562 246.447 395.566C246.447 394.57 246.651 393.688 247.059 392.92C247.479 392.152 248.043 391.558 248.751 391.138C249.471 390.706 250.263 390.49 251.127 390.49ZM254.565 395.602C254.565 394.918 254.421 394.324 254.133 393.82C253.857 393.316 253.491 392.932 253.035 392.668C252.579 392.404 252.087 392.272 251.559 392.272C251.031 392.272 250.539 392.404 250.083 392.668C249.627 392.92 249.255 393.298 248.967 393.802C248.691 394.294 248.553 394.882 248.553 395.566C248.553 396.25 248.691 396.85 248.967 397.366C249.255 397.882 249.627 398.278 250.083 398.554C250.551 398.818 251.043 398.95 251.559 398.95C252.087 398.95 252.579 398.818 253.035 398.554C253.491 398.29 253.857 397.906 254.133 397.402C254.421 396.886 254.565 396.286 254.565 395.602ZM268.42 395.368C268.42 395.74 268.396 396.076 268.348 396.376H260.77C260.83 397.168 261.124 397.804 261.652 398.284C262.18 398.764 262.828 399.004 263.596 399.004C264.7 399.004 265.48 398.542 265.936 397.618H268.15C267.85 398.53 267.304 399.28 266.512 399.868C265.732 400.444 264.76 400.732 263.596 400.732C262.648 400.732 261.796 400.522 261.04 400.102C260.296 399.67 259.708 399.07 259.276 398.302C258.856 397.522 258.646 396.622 258.646 395.602C258.646 394.582 258.85 393.688 259.258 392.92C259.678 392.14 260.26 391.54 261.004 391.12C261.76 390.7 262.624 390.49 263.596 390.49C264.532 390.49 265.366 390.694 266.098 391.102C266.83 391.51 267.4 392.086 267.808 392.83C268.216 393.562 268.42 394.408 268.42 395.368ZM266.278 394.72C266.266 393.964 265.996 393.358 265.468 392.902C264.94 392.446 264.286 392.218 263.506 392.218C262.798 392.218 262.192 392.446 261.688 392.902C261.184 393.346 260.884 393.952 260.788 394.72H266.278Z" fill="black"/>
<rect x="138" y="265.9" width="100" height="99.7151" rx="15" fill="#E5F3FF"/>
<path fill-rule="evenodd" clip-rule="evenodd" d="M190.624 317C191.026 317.405 191.677 317.405 192.079 317C192.495 316.596 192.495 315.939 192.093 315.535L188.115 311.514C188.018 311.416 187.907 311.347 187.782 311.291C187.657 311.235 187.533 311.207 187.394 311.207C187.255 311.207 187.117 311.235 186.992 311.291C186.867 311.347 186.756 311.416 186.659 311.514L182.695 315.535C182.293 315.939 182.293 316.596 182.695 317C183.097 317.405 183.749 317.405 184.15 317L186.354 314.767V321.51C186.354 322.082 186.812 322.543 187.394 322.543C187.962 322.543 188.42 322.082 188.42 321.51V314.767L190.624 317ZM198.159 311.606C198.485 311.602 198.84 311.598 199.162 311.598C199.509 311.598 199.8 311.877 199.8 312.226V323.45C199.8 326.912 197 329.718 193.562 329.718H182.543C178.925 329.718 176 326.772 176 323.143V308.094C176 304.632 178.786 301.798 182.251 301.798H189.653C190 301.798 190.291 302.091 190.291 302.44V306.935C190.291 309.49 192.37 311.584 194.921 311.598C195.504 311.598 196.021 311.602 196.476 311.606C196.832 311.609 197.15 311.612 197.43 311.612C197.627 311.612 197.883 311.609 198.159 311.606ZM198.546 309.568C197.407 309.572 196.065 309.568 195.099 309.558C193.566 309.558 192.303 308.286 192.303 306.743V303.063C192.303 302.461 193.027 302.162 193.441 302.596C194.509 303.713 196.142 305.424 197.523 306.871C198.083 307.457 198.601 307.999 199.023 308.441C199.427 308.864 199.13 309.567 198.546 309.568Z" fill="#0065FF"/>
<rect x="64.5" y="83.5" width="39" height="39" rx="9.5" transform="rotate(180 64.5 83.5)" stroke="#F0F0F0"/>
<path d="M48.5 71L41.5 64L48.5 57" stroke="#AAAAAA" stroke-width="1.5" stroke-linecap="round" stroke-linejoin="round"/>
<path d="M92.137 57.1V65.96C92.137 67.0133 92.4103 67.8067 92.957 68.34C93.517 68.8733 94.2903 69.14 95.277 69.14C96.277 69.14 97.0503 68.8733 97.597 68.34C98.157 67.8067 98.437 67.0133 98.437 65.96V57.1H100.717V65.92C100.717 67.0533 100.47 68.0133 99.977 68.8C99.4836 69.5867 98.8236 70.1733 97.997 70.56C97.1703 70.9467 96.257 71.14 95.257 71.14C94.257 71.14 93.3436 70.9467 92.517 70.56C91.7036 70.1733 91.057 69.5867 90.577 68.8C90.097 68.0133 89.857 67.0533 89.857 65.92V57.1H92.137ZM105.966 61.6C106.352 61.0933 106.879 60.6667 107.546 60.32C108.212 59.9733 108.966 59.8 109.806 59.8C110.766 59.8 111.639 60.04 112.426 60.52C113.226 60.9867 113.852 61.6467 114.306 62.5C114.759 63.3533 114.986 64.3333 114.986 65.44C114.986 66.5467 114.759 67.54 114.306 68.42C113.852 69.2867 113.226 69.9667 112.426 70.46C111.639 70.94 110.766 71.18 109.806 71.18C108.966 71.18 108.219 71.0133 107.566 70.68C106.912 70.3333 106.379 69.9067 105.966 69.4V76.24H103.686V59.98H105.966V61.6ZM112.666 65.44C112.666 64.68 112.506 64.0267 112.186 63.48C111.879 62.92 111.466 62.5 110.946 62.22C110.439 61.9267 109.892 61.78 109.306 61.78C108.732 61.78 108.186 61.9267 107.666 62.22C107.159 62.5133 106.746 62.94 106.426 63.5C106.119 64.06 105.966 64.72 105.966 65.48C105.966 66.24 106.119 66.9067 106.426 67.48C106.746 68.04 107.159 68.4667 107.666 68.76C108.186 69.0533 108.732 69.2 109.306 69.2C109.892 69.2 110.439 69.0533 110.946 68.76C111.466 68.4533 111.879 68.0133 112.186 67.44C112.506 66.8667 112.666 66.2 112.666 65.44ZM119.52 56.2V71H117.24V56.2H119.52ZM127.294 71.18C126.254 71.18 125.314 70.9467 124.474 70.48C123.634 70 122.974 69.3333 122.494 68.48C122.014 67.6133 121.774 66.6133 121.774 65.48C121.774 64.36 122.02 63.3667 122.514 62.5C123.007 61.6333 123.68 60.9667 124.534 60.5C125.387 60.0333 126.34 59.8 127.394 59.8C128.447 59.8 129.4 60.0333 130.254 60.5C131.107 60.9667 131.78 61.6333 132.274 62.5C132.767 63.3667 133.014 64.36 133.014 65.48C133.014 66.6 132.76 67.5933 132.254 68.46C131.747 69.3267 131.054 70 130.174 70.48C129.307 70.9467 128.347 71.18 127.294 71.18ZM127.294 69.2C127.88 69.2 128.427 69.06 128.934 68.78C129.454 68.5 129.874 68.08 130.194 67.52C130.514 66.96 130.674 66.28 130.674 65.48C130.674 64.68 130.52 64.0067 130.214 63.46C129.907 62.9 129.5 62.48 128.994 62.2C128.487 61.92 127.94 61.78 127.354 61.78C126.767 61.78 126.22 61.92 125.714 62.2C125.22 62.48 124.827 62.9 124.534 63.46C124.24 64.0067 124.094 64.68 124.094 65.48C124.094 66.6667 124.394 67.5867 124.994 68.24C125.607 68.88 126.374 69.2 127.294 69.2ZM134.508 65.44C134.508 64.3333 134.734 63.3533 135.188 62.5C135.654 61.6467 136.281 60.9867 137.068 60.52C137.868 60.04 138.748 59.8 139.708 59.8C140.574 59.8 141.328 59.9733 141.968 60.32C142.621 60.6533 143.141 61.0733 143.528 61.58V59.98H145.828V71H143.528V69.36C143.141 69.88 142.614 70.3133 141.948 70.66C141.281 71.0067 140.521 71.18 139.668 71.18C138.721 71.18 137.854 70.94 137.068 70.46C136.281 69.9667 135.654 69.2867 135.188 68.42C134.734 67.54 134.508 66.5467 134.508 65.44ZM143.528 65.48C143.528 64.72 143.368 64.06 143.048 63.5C142.741 62.94 142.334 62.5133 141.828 62.22C141.321 61.9267 140.774 61.78 140.188 61.78C139.601 61.78 139.054 61.9267 138.548 62.22C138.041 62.5 137.628 62.92 137.308 63.48C137.001 64.0267 136.848 64.68 136.848 65.44C136.848 66.2 137.001 66.8667 137.308 67.44C137.628 68.0133 138.041 68.4533 138.548 68.76C139.068 69.0533 139.614 69.2 140.188 69.2C140.774 69.2 141.321 69.0533 141.828 68.76C142.334 68.4667 142.741 68.04 143.048 67.48C143.368 66.9067 143.528 66.24 143.528 65.48ZM148.062 65.44C148.062 64.3333 148.289 63.3533 148.742 62.5C149.209 61.6467 149.836 60.9867 150.622 60.52C151.422 60.04 152.309 59.8 153.282 59.8C154.002 59.8 154.709 59.96 155.402 60.28C156.109 60.5867 156.669 61 157.082 61.52V56.2H159.382V71H157.082V69.34C156.709 69.8733 156.189 70.3133 155.522 70.66C154.869 71.0067 154.116 71.18 153.262 71.18C152.302 71.18 151.422 70.94 150.622 70.46C149.836 69.9667 149.209 69.2867 148.742 68.42C148.289 67.54 148.062 66.5467 148.062 65.44ZM157.082 65.48C157.082 64.72 156.922 64.06 156.602 63.5C156.296 62.94 155.889 62.5133 155.382 62.22C154.876 61.9267 154.329 61.78 153.742 61.78C153.156 61.78 152.609 61.9267 152.102 62.22C151.596 62.5 151.182 62.92 150.862 63.48C150.556 64.0267 150.402 64.68 150.402 65.44C150.402 66.2 150.556 66.8667 150.862 67.44C151.182 68.0133 151.596 68.4533 152.102 68.76C152.622 69.0533 153.169 69.2 153.742 69.2C154.329 69.2 154.876 69.0533 155.382 68.76C155.889 68.4667 156.296 68.04 156.602 67.48C156.922 66.9067 157.082 66.24 157.082 65.48ZM177.292 61.24C177.292 61.9467 177.126 62.6133 176.792 63.24C176.459 63.8667 175.926 64.38 175.192 64.78C174.459 65.1667 173.519 65.36 172.372 65.36H169.852V71H167.572V57.1H172.372C173.439 57.1 174.339 57.2867 175.072 57.66C175.819 58.02 176.372 58.5133 176.732 59.14C177.106 59.7667 177.292 60.4667 177.292 61.24ZM172.372 63.5C173.239 63.5 173.886 63.3067 174.312 62.92C174.739 62.52 174.952 61.96 174.952 61.24C174.952 59.72 174.092 58.96 172.372 58.96H169.852V63.5H172.372ZM181.747 61.58C182.08 61.02 182.52 60.5867 183.067 60.28C183.627 59.96 184.287 59.8 185.047 59.8V62.16H184.467C183.573 62.16 182.893 62.3867 182.427 62.84C181.973 63.2933 181.747 64.08 181.747 65.2V71H179.467V59.98H181.747V61.58ZM197.243 65.22C197.243 65.6333 197.216 66.0067 197.163 66.34H188.743C188.809 67.22 189.136 67.9267 189.723 68.46C190.309 68.9933 191.029 69.26 191.883 69.26C193.109 69.26 193.976 68.7467 194.483 67.72H196.943C196.609 68.7333 196.003 69.5667 195.123 70.22C194.256 70.86 193.176 71.18 191.883 71.18C190.829 71.18 189.883 70.9467 189.043 70.48C188.216 70 187.563 69.3333 187.083 68.48C186.616 67.6133 186.383 66.6133 186.383 65.48C186.383 64.3467 186.609 63.3533 187.063 62.5C187.529 61.6333 188.176 60.9667 189.003 60.5C189.843 60.0333 190.803 59.8 191.883 59.8C192.923 59.8 193.849 60.0267 194.663 60.48C195.476 60.9333 196.109 61.5733 196.563 62.4C197.016 63.2133 197.243 64.1533 197.243 65.22ZM194.863 64.5C194.849 63.66 194.549 62.9867 193.963 62.48C193.376 61.9733 192.649 61.72 191.783 61.72C190.996 61.72 190.323 61.9733 189.763 62.48C189.203 62.9733 188.869 63.6467 188.763 64.5H194.863ZM203.486 71.18C202.62 71.18 201.84 71.0267 201.146 70.72C200.466 70.4 199.926 69.9733 199.526 69.44C199.126 68.8933 198.913 68.2867 198.886 67.62H201.246C201.286 68.0867 201.506 68.48 201.906 68.8C202.32 69.1067 202.833 69.26 203.446 69.26C204.086 69.26 204.58 69.14 204.926 68.9C205.286 68.6467 205.466 68.3267 205.466 67.94C205.466 67.5267 205.266 67.22 204.866 67.02C204.48 66.82 203.86 66.6 203.006 66.36C202.18 66.1333 201.506 65.9133 200.986 65.7C200.466 65.4867 200.013 65.16 199.626 64.72C199.253 64.28 199.066 63.7 199.066 62.98C199.066 62.3933 199.24 61.86 199.586 61.38C199.933 60.8867 200.426 60.5 201.066 60.22C201.72 59.94 202.466 59.8 203.306 59.8C204.56 59.8 205.566 60.12 206.326 60.76C207.1 61.3867 207.513 62.2467 207.566 63.34H205.286C205.246 62.8467 205.046 62.4533 204.686 62.16C204.326 61.8667 203.84 61.72 203.226 61.72C202.626 61.72 202.166 61.8333 201.846 62.06C201.526 62.2867 201.366 62.5867 201.366 62.96C201.366 63.2533 201.473 63.5 201.686 63.7C201.9 63.9 202.16 64.06 202.466 64.18C202.773 64.2867 203.226 64.4267 203.826 64.6C204.626 64.8133 205.28 65.0333 205.786 65.26C206.306 65.4733 206.753 65.7933 207.126 66.22C207.5 66.6467 207.693 67.2133 207.706 67.92C207.706 68.5467 207.533 69.1067 207.186 69.6C206.84 70.0933 206.346 70.48 205.706 70.76C205.08 71.04 204.34 71.18 203.486 71.18ZM209.41 65.48C209.41 64.3467 209.637 63.3533 210.09 62.5C210.557 61.6333 211.197 60.9667 212.01 60.5C212.823 60.0333 213.757 59.8 214.81 59.8C216.143 59.8 217.243 60.12 218.11 60.76C218.99 61.3867 219.583 62.2867 219.89 63.46H217.43C217.23 62.9133 216.91 62.4867 216.47 62.18C216.03 61.8733 215.477 61.72 214.81 61.72C213.877 61.72 213.13 62.0533 212.57 62.72C212.023 63.3733 211.75 64.2933 211.75 65.48C211.75 66.6667 212.023 67.5933 212.57 68.26C213.13 68.9267 213.877 69.26 214.81 69.26C216.13 69.26 217.003 68.68 217.43 67.52H219.89C219.57 68.64 218.97 69.5333 218.09 70.2C217.21 70.8533 216.117 71.18 214.81 71.18C213.757 71.18 212.823 70.9467 212.01 70.48C211.197 70 210.557 69.3333 210.09 68.48C209.637 67.6133 209.41 66.6133 209.41 65.48ZM224.442 61.58C224.775 61.02 225.215 60.5867 225.762 60.28C226.322 59.96 226.982 59.8 227.742 59.8V62.16H227.162C226.269 62.16 225.589 62.3867 225.122 62.84C224.669 63.2933 224.442 64.08 224.442 65.2V71H222.162V59.98H224.442V61.58ZM230.998 58.52C230.585 58.52 230.238 58.38 229.958 58.1C229.678 57.82 229.538 57.4733 229.538 57.06C229.538 56.6467 229.678 56.3 229.958 56.02C230.238 55.74 230.585 55.6 230.998 55.6C231.398 55.6 231.738 55.74 232.018 56.02C232.298 56.3 232.438 56.6467 232.438 57.06C232.438 57.4733 232.298 57.82 232.018 58.1C231.738 58.38 231.398 58.52 230.998 58.52ZM232.118 59.98V71H229.838V59.98H232.118ZM237.391 61.6C237.778 61.0933 238.305 60.6667 238.971 60.32C239.638 59.9733 240.391 59.8 241.231 59.8C242.191 59.8 243.065 60.04 243.851 60.52C244.651 60.9867 245.278 61.6467 245.731 62.5C246.185 63.3533 246.411 64.3333 246.411 65.44C246.411 66.5467 246.185 67.54 245.731 68.42C245.278 69.2867 244.651 69.9667 243.851 70.46C243.065 70.94 242.191 71.18 241.231 71.18C240.391 71.18 239.645 71.0133 238.991 70.68C238.338 70.3333 237.805 69.9067 237.391 69.4V76.24H235.111V59.98H237.391V61.6ZM244.091 65.44C244.091 64.68 243.931 64.0267 243.611 63.48C243.305 62.92 242.891 62.5 242.371 62.22C241.865 61.9267 241.318 61.78 240.731 61.78C240.158 61.78 239.611 61.9267 239.091 62.22C238.585 62.5133 238.171 62.94 237.851 63.5C237.545 64.06 237.391 64.72 237.391 65.48C237.391 66.24 237.545 66.9067 237.851 67.48C238.171 68.04 238.585 68.4667 239.091 68.76C239.611 69.0533 240.158 69.2 240.731 69.2C241.318 69.2 241.865 69.0533 242.371 68.76C242.891 68.4533 243.305 68.0133 243.611 67.44C243.931 66.8667 244.091 66.2 244.091 65.44ZM251.326 61.84V67.94C251.326 68.3533 251.419 68.6533 251.606 68.84C251.806 69.0133 252.139 69.1 252.606 69.1H254.006V71H252.206C251.179 71 250.393 70.76 249.846 70.28C249.299 69.8 249.026 69.02 249.026 67.94V61.84H247.726V59.98H249.026V57.24H251.326V59.98H254.006V61.84H251.326ZM257.267 58.52C256.854 58.52 256.507 58.38 256.227 58.1C255.947 57.82 255.807 57.4733 255.807 57.06C255.807 56.6467 255.947 56.3 256.227 56.02C256.507 55.74 256.854 55.6 257.267 55.6C257.667 55.6 258.007 55.74 258.287 56.02C258.567 56.3 258.707 56.6467 258.707 57.06C258.707 57.4733 258.567 57.82 258.287 58.1C258.007 58.38 257.667 58.52 257.267 58.52ZM258.387 59.98V71H256.107V59.98H258.387ZM266.161 71.18C265.121 71.18 264.181 70.9467 263.341 70.48C262.501 70 261.841 69.3333 261.361 68.48C260.881 67.6133 260.641 66.6133 260.641 65.48C260.641 64.36 260.888 63.3667 261.381 62.5C261.874 61.6333 262.548 60.9667 263.401 60.5C264.254 60.0333 265.208 59.8 266.261 59.8C267.314 59.8 268.268 60.0333 269.121 60.5C269.974 60.9667 270.648 61.6333 271.141 62.5C271.634 63.3667 271.881 64.36 271.881 65.48C271.881 66.6 271.628 67.5933 271.121 68.46C270.614 69.3267 269.921 70 269.041 70.48C268.174 70.9467 267.214 71.18 266.161 71.18ZM266.161 69.2C266.748 69.2 267.294 69.06 267.801 68.78C268.321 68.5 268.741 68.08 269.061 67.52C269.381 66.96 269.541 66.28 269.541 65.48C269.541 64.68 269.388 64.0067 269.081 63.46C268.774 62.9 268.368 62.48 267.861 62.2C267.354 61.92 266.808 61.78 266.221 61.78C265.634 61.78 265.088 61.92 264.581 62.2C264.088 62.48 263.694 62.9 263.401 63.46C263.108 64.0067 262.961 64.68 262.961 65.48C262.961 66.6667 263.261 67.5867 263.861 68.24C264.474 68.88 265.241 69.2 266.161 69.2ZM279.695 59.8C280.561 59.8 281.335 59.98 282.015 60.34C282.708 60.7 283.248 61.2333 283.635 61.94C284.021 62.6467 284.215 63.5 284.215 64.5V71H281.955V64.84C281.955 63.8533 281.708 63.1 281.215 62.58C280.721 62.0467 280.048 61.78 279.195 61.78C278.341 61.78 277.661 62.0467 277.155 62.58C276.661 63.1 276.415 63.8533 276.415 64.84V71H274.135V59.98H276.415V61.24C276.788 60.7867 277.261 60.4333 277.835 60.18C278.421 59.9267 279.041 59.8 279.695 59.8Z" fill="black"/>
<rect x="348.5" y="83.5" width="39" height="39" rx="9.5" transform="rotate(180 348.5 83.5)" stroke="#F0F0F0"/>
<g clip-path="url(#clip0_223_2983)">
<path d="M329 56.5C328.083 56.5 327.333 57.25 327.333 58.1667C327.333 59.0833 328.083 59.8333 329 59.8333C329.917 59.8333 330.667 59.0833 330.667 58.1667C330.667 57.25 329.917 56.5 329 56.5ZM329 68.1667C328.083 68.1667 327.333 68.9167 327.333 69.8333C327.333 70.75 328.083 71.5 329 71.5C329.917 71.5 330.667 70.75 330.667 69.8333C330.667 68.9167 329.917 68.1667 329 68.1667ZM329 62.3333C328.083 62.3333 327.333 63.0833 327.333 64C327.333 64.9167 328.083 65.6667 329 65.6667C329.917 65.6667 330.667 64.9167 330.667 64C330.667 63.0833 329.917 62.3333 329 62.3333Z" fill="#AAAAAA"/>
</g>
<defs>
<clipPath id="clip0_223_2983">
<rect x="319" y="54" width="20" height="20" rx="10" fill="white"/>
</clipPath>
</defs>
</svg>
