<svg width="375" height="812" viewBox="0 0 375 812" fill="none" xmlns="http://www.w3.org/2000/svg">
<rect width="375" height="812" fill="white"/>
<rect x="24" y="710" width="326" height="70" rx="13" fill="#0085FE"/>
<rect x="57" y="720" width="50" height="50" rx="25" fill="white"/>
<path d="M85.4595 743.061C86.9913 741.846 89.0468 740.672 89.4357 741.093C90.0786 741.783 90.023 748.354 89.4357 748.981C89.0786 749.37 87.0072 748.196 85.4595 746.989" stroke="#0085FE" stroke-width="1.5" stroke-linecap="round" stroke-linejoin="round"/>
<path fill-rule="evenodd" clip-rule="evenodd" d="M74.0953 745.031C74.0953 740.704 75.5326 739.262 79.8461 739.262C84.1588 739.262 85.5961 740.704 85.5961 745.031C85.5961 749.357 84.1588 750.8 79.8461 750.8C75.5326 750.8 74.0953 749.357 74.0953 745.031Z" stroke="#0085FE" stroke-width="1.5" stroke-linecap="round" stroke-linejoin="round"/>
<rect x="127" y="720" width="50" height="50" rx="25" fill="white"/>
<path d="M147.304 746.399C147.304 749.008 149.419 751.123 152.028 751.123C154.638 751.123 156.753 749.008 156.753 746.399" stroke="#0085FE" stroke-width="1.5" stroke-linecap="round" stroke-linejoin="round"/>
<path d="M156.753 743.686V741.808C156.753 739.198 154.638 737.083 152.028 737.083C149.419 737.083 147.304 739.198 147.304 741.808V743.686" stroke="#0085FE" stroke-width="1.5" stroke-linecap="round" stroke-linejoin="round"/>
<path d="M152.028 752.916V751.123" stroke="#0085FE" stroke-width="1.5" stroke-linecap="round" stroke-linejoin="round"/>
<path d="M146.083 746.399H157.973" stroke="#0085FE" stroke-width="1.5" stroke-linecap="round" stroke-linejoin="round"/>
<rect x="197" y="720" width="50" height="50" rx="25" fill="white"/>
<path d="M228.196 739.812C230.274 742.912 230.281 747.003 228.196 750.11" stroke="#0085FE" stroke-width="1.5" stroke-linecap="round" stroke-linejoin="round"/>
<path d="M226.157 741.848C227.226 743.783 227.226 746.145 226.157 748.074" stroke="#0085FE" stroke-width="1.5" stroke-linecap="round" stroke-linejoin="round"/>
<path fill-rule="evenodd" clip-rule="evenodd" d="M214.235 744.961C214.233 745.999 214.235 747.217 215.093 747.945C215.951 748.674 216.631 748.374 217.741 748.739C218.852 749.105 220.407 751.361 222.125 750.342C223.054 749.682 223.492 748.436 223.492 744.961C223.492 741.485 223.074 740.253 222.125 739.58C220.407 738.561 218.852 740.817 217.741 741.183C216.631 741.549 215.951 741.248 215.093 741.976C214.235 742.704 214.233 743.922 214.235 744.961Z" stroke="#0085FE" stroke-width="1.5" stroke-linecap="round" stroke-linejoin="round"/>
<rect x="267" y="720" width="50" height="50" rx="25" fill="#FE5050"/>
<path fill-rule="evenodd" clip-rule="evenodd" d="M291.532 745.472C295.521 749.46 296.426 744.847 298.966 747.385C301.414 749.833 302.822 750.323 299.719 753.425C299.331 753.737 296.862 757.494 288.185 748.82C279.507 740.144 283.262 737.672 283.574 737.284C286.684 734.174 287.166 735.589 289.614 738.037C292.154 740.576 287.543 741.484 291.532 745.472Z" fill="#F8F8F8"/>
<mask id="mask0_327_6138" style="mask-type:alpha" maskUnits="userSpaceOnUse" x="25" y="25" width="325" height="655">
<rect x="25" y="25" width="325" height="655" rx="30" fill="#D9D9D9"/>
</mask>
<g mask="url(#mask0_327_6138)">
<rect x="25" y="23" width="331" height="716"/>
<path d="M25 425H350V680H25V425Z" fill="url(#paint0_linear_327_6138)"/>
</g>
<mask id="mask1_327_6138" style="mask-type:alpha" maskUnits="userSpaceOnUse" x="215" y="520" width="115" height="140">
<rect x="215" y="520" width="115" height="140" rx="15" fill="#666666"/>
</mask>
<g mask="url(#mask1_327_6138)">
<rect x="202" y="520" width="140" height="140"/>
<circle cx="237.5" cy="637.5" r="12.5" fill="white"/>
<path d="M242.046 636.001C242.249 636.118 242.329 636.365 242.243 636.576L242.215 636.633L238.015 643.908C237.887 644.129 237.604 644.205 237.383 644.077C237.18 643.96 237.1 643.712 237.186 643.501L237.214 643.445L241.414 636.17C241.542 635.949 241.825 635.873 242.046 636.001Z" fill="#0084FF"/>
<path d="M240.935 642.299C241.182 642.233 241.436 642.379 241.503 642.625C241.563 642.849 241.448 643.08 241.241 643.17L241.177 643.193L237.735 644.123C237.51 644.184 237.279 644.068 237.189 643.86L237.167 643.795L236.252 640.349C236.187 640.102 236.334 639.849 236.581 639.783C236.805 639.724 237.035 639.84 237.124 640.047L237.146 640.112L237.942 643.108L240.935 642.299Z" fill="#0084FF"/>
<path d="M237.579 631.489C237.782 631.606 237.862 631.854 237.776 632.065L237.748 632.121L233.548 639.396C233.42 639.617 233.137 639.693 232.916 639.565C232.713 639.448 232.633 639.201 232.719 638.99L232.747 638.933L236.947 631.658C237.075 631.437 237.358 631.361 237.579 631.489Z" fill="#0084FF"/>
<path d="M237.227 631.443C237.452 631.382 237.683 631.498 237.772 631.706L237.795 631.771L238.71 635.217C238.775 635.464 238.628 635.717 238.381 635.783C238.157 635.843 237.927 635.726 237.838 635.519L237.815 635.455L237.02 632.457L234.027 633.267C233.802 633.328 233.572 633.213 233.482 633.006L233.459 632.941C233.399 632.717 233.514 632.487 233.72 632.397L233.785 632.374L237.227 631.443Z" fill="#0084FF"/>
</g>
<defs>
<linearGradient id="paint0_linear_327_6138" x1="182.733" y1="680" x2="190.141" y2="425.089" gradientUnits="userSpaceOnUse">
<stop stop-opacity="0.91"/>
<stop offset="0.404493" stop-opacity="0.59"/>
<stop offset="0.901613" stop-opacity="0"/>
</linearGradient>
</defs>
</svg>
