<svg width="375" height="812" viewBox="0 0 375 812" fill="none" xmlns="http://www.w3.org/2000/svg">
<rect width="375" height="812" fill="#0085FE"/>
<rect width="375" height="268.388"/>
<rect y="542.612" width="375" height="268.388"/>
<rect width="375" height="268.388" transform="matrix(-1 0 0 1 375 268.388)"/>
<path d="M80.74 764.965L78.062 774H76.385L74.487 767.162L72.472 774L70.808 774.013L68.247 764.965H69.82L71.692 772.323L73.72 764.965H75.384L77.269 772.284L79.154 764.965H80.74ZM88.5273 770.243C88.5273 770.512 88.51 770.754 88.4753 770.971H83.0023C83.0456 771.543 83.258 772.002 83.6393 772.349C84.0206 772.696 84.4886 772.869 85.0433 772.869C85.8406 772.869 86.404 772.535 86.7333 771.868H88.3323C88.1156 772.527 87.7213 773.068 87.1493 773.493C86.586 773.909 85.884 774.117 85.0433 774.117C84.3586 774.117 83.7433 773.965 83.1973 773.662C82.66 773.35 82.2353 772.917 81.9233 772.362C81.62 771.799 81.4683 771.149 81.4683 770.412C81.4683 769.675 81.6156 769.03 81.9103 768.475C82.2136 767.912 82.634 767.478 83.1713 767.175C83.7173 766.872 84.3413 766.72 85.0433 766.72C85.7193 766.72 86.3216 766.867 86.8503 767.162C87.379 767.457 87.7906 767.873 88.0853 768.41C88.38 768.939 88.5273 769.55 88.5273 770.243ZM86.9803 769.775C86.9716 769.229 86.7766 768.791 86.3953 768.462C86.014 768.133 85.5416 767.968 84.9783 767.968C84.467 767.968 84.0293 768.133 83.6653 768.462C83.3013 768.783 83.0846 769.22 83.0153 769.775H86.9803ZM91.4677 764.38V774H89.9857V764.38H91.4677ZM92.9195 770.412C92.9195 769.675 93.0668 769.03 93.3615 768.475C93.6648 767.912 94.0808 767.478 94.6095 767.175C95.1381 766.872 95.7448 766.72 96.4295 766.72C97.2961 766.72 98.0111 766.928 98.5745 767.344C99.1465 767.751 99.5321 768.336 99.7315 769.099H98.1325C98.0025 768.744 97.7945 768.466 97.5085 768.267C97.2225 768.068 96.8628 767.968 96.4295 767.968C95.8228 767.968 95.3375 768.185 94.9735 768.618C94.6181 769.043 94.4405 769.641 94.4405 770.412C94.4405 771.183 94.6181 771.786 94.9735 772.219C95.3375 772.652 95.8228 772.869 96.4295 772.869C97.2875 772.869 97.8551 772.492 98.1325 771.738H99.7315C99.5235 772.466 99.1335 773.047 98.5615 773.48C97.9895 773.905 97.2788 774.117 96.4295 774.117C95.7448 774.117 95.1381 773.965 94.6095 773.662C94.0808 773.35 93.6648 772.917 93.3615 772.362C93.0668 771.799 92.9195 771.149 92.9195 770.412ZM104.315 774.117C103.639 774.117 103.028 773.965 102.482 773.662C101.936 773.35 101.507 772.917 101.195 772.362C100.883 771.799 100.727 771.149 100.727 770.412C100.727 769.684 100.888 769.038 101.208 768.475C101.529 767.912 101.967 767.478 102.521 767.175C103.076 766.872 103.696 766.72 104.38 766.72C105.065 766.72 105.685 766.872 106.239 767.175C106.794 767.478 107.232 767.912 107.552 768.475C107.873 769.038 108.033 769.684 108.033 770.412C108.033 771.14 107.869 771.786 107.539 772.349C107.21 772.912 106.759 773.35 106.187 773.662C105.624 773.965 105 774.117 104.315 774.117ZM104.315 772.83C104.697 772.83 105.052 772.739 105.381 772.557C105.719 772.375 105.992 772.102 106.2 771.738C106.408 771.374 106.512 770.932 106.512 770.412C106.512 769.892 106.413 769.454 106.213 769.099C106.014 768.735 105.75 768.462 105.42 768.28C105.091 768.098 104.736 768.007 104.354 768.007C103.973 768.007 103.618 768.098 103.288 768.28C102.968 768.462 102.712 768.735 102.521 769.099C102.331 769.454 102.235 769.892 102.235 770.412C102.235 771.183 102.43 771.781 102.82 772.206C103.219 772.622 103.717 772.83 104.315 772.83ZM118.169 766.72C118.733 766.72 119.235 766.837 119.677 767.071C120.128 767.305 120.479 767.652 120.73 768.111C120.99 768.57 121.12 769.125 121.12 769.775V774H119.651V769.996C119.651 769.355 119.491 768.865 119.17 768.527C118.85 768.18 118.412 768.007 117.857 768.007C117.303 768.007 116.861 768.18 116.531 768.527C116.211 768.865 116.05 769.355 116.05 769.996V774H114.581V769.996C114.581 769.355 114.421 768.865 114.1 768.527C113.78 768.18 113.342 768.007 112.787 768.007C112.233 768.007 111.791 768.18 111.461 768.527C111.141 768.865 110.98 769.355 110.98 769.996V774H109.498V766.837H110.98V767.656C111.223 767.361 111.531 767.132 111.903 766.967C112.276 766.802 112.675 766.72 113.099 766.72C113.671 766.72 114.183 766.841 114.633 767.084C115.084 767.327 115.431 767.678 115.673 768.137C115.89 767.704 116.228 767.361 116.687 767.11C117.147 766.85 117.641 766.72 118.169 766.72ZM129.571 770.243C129.571 770.512 129.554 770.754 129.519 770.971H124.046C124.09 771.543 124.302 772.002 124.683 772.349C125.065 772.696 125.533 772.869 126.087 772.869C126.885 772.869 127.448 772.535 127.777 771.868H129.376C129.16 772.527 128.765 773.068 128.193 773.493C127.63 773.909 126.928 774.117 126.087 774.117C125.403 774.117 124.787 773.965 124.241 773.662C123.704 773.35 123.279 772.917 122.967 772.362C122.664 771.799 122.512 771.149 122.512 770.412C122.512 769.675 122.66 769.03 122.954 768.475C123.258 767.912 123.678 767.478 124.215 767.175C124.761 766.872 125.385 766.72 126.087 766.72C126.763 766.72 127.366 766.867 127.894 767.162C128.423 767.457 128.835 767.873 129.129 768.41C129.424 768.939 129.571 769.55 129.571 770.243ZM128.024 769.775C128.016 769.229 127.821 768.791 127.439 768.462C127.058 768.133 126.586 767.968 126.022 767.968C125.511 767.968 125.073 768.133 124.709 768.462C124.345 768.783 124.129 769.22 124.059 769.775H128.024ZM136.136 768.046V772.011C136.136 772.28 136.196 772.475 136.318 772.596C136.448 772.709 136.664 772.765 136.968 772.765H137.878V774H136.708C136.04 774 135.529 773.844 135.174 773.532C134.818 773.22 134.641 772.713 134.641 772.011V768.046H133.796V766.837H134.641V765.056H136.136V766.837H137.878V768.046H136.136ZM142.351 774.117C141.675 774.117 141.064 773.965 140.518 773.662C139.972 773.35 139.543 772.917 139.231 772.362C138.919 771.799 138.763 771.149 138.763 770.412C138.763 769.684 138.923 769.038 139.244 768.475C139.564 767.912 140.002 767.478 140.557 767.175C141.111 766.872 141.731 766.72 142.416 766.72C143.1 766.72 143.72 766.872 144.275 767.175C144.829 767.478 145.267 767.912 145.588 768.475C145.908 769.038 146.069 769.684 146.069 770.412C146.069 771.14 145.904 771.786 145.575 772.349C145.245 772.912 144.795 773.35 144.223 773.662C143.659 773.965 143.035 774.117 142.351 774.117ZM142.351 772.83C142.732 772.83 143.087 772.739 143.417 772.557C143.755 772.375 144.028 772.102 144.236 771.738C144.444 771.374 144.548 770.932 144.548 770.412C144.548 769.892 144.448 769.454 144.249 769.099C144.049 768.735 143.785 768.462 143.456 768.28C143.126 768.098 142.771 768.007 142.39 768.007C142.008 768.007 141.653 768.098 141.324 768.28C141.003 768.462 140.747 768.735 140.557 769.099C140.366 769.454 140.271 769.892 140.271 770.412C140.271 771.183 140.466 771.781 140.856 772.206C141.254 772.622 141.753 772.83 142.351 772.83ZM154.018 774.117C153.342 774.117 152.731 773.965 152.185 773.662C151.639 773.35 151.21 772.917 150.898 772.362C150.586 771.799 150.43 771.149 150.43 770.412C150.43 769.684 150.59 769.038 150.911 768.475C151.231 767.912 151.669 767.478 152.224 767.175C152.778 766.872 153.398 766.72 154.083 766.72C154.767 766.72 155.387 766.872 155.942 767.175C156.496 767.478 156.934 767.912 157.255 768.475C157.575 769.038 157.736 769.684 157.736 770.412C157.736 771.14 157.571 771.786 157.242 772.349C156.912 772.912 156.462 773.35 155.89 773.662C155.326 773.965 154.702 774.117 154.018 774.117ZM154.018 772.83C154.399 772.83 154.754 772.739 155.084 772.557C155.422 772.375 155.695 772.102 155.903 771.738C156.111 771.374 156.215 770.932 156.215 770.412C156.215 769.892 156.115 769.454 155.916 769.099C155.716 768.735 155.452 768.462 155.123 768.28C154.793 768.098 154.438 768.007 154.057 768.007C153.675 768.007 153.32 768.098 152.991 768.28C152.67 768.462 152.414 768.735 152.224 769.099C152.033 769.454 151.938 769.892 151.938 770.412C151.938 771.183 152.133 771.781 152.523 772.206C152.921 772.622 153.42 772.83 154.018 772.83ZM165.688 766.837V774H164.206V773.155C163.972 773.45 163.664 773.684 163.283 773.857C162.91 774.022 162.511 774.104 162.087 774.104C161.523 774.104 161.016 773.987 160.566 773.753C160.124 773.519 159.773 773.172 159.513 772.713C159.261 772.254 159.136 771.699 159.136 771.049V766.837H160.605V770.828C160.605 771.469 160.765 771.963 161.086 772.31C161.406 772.648 161.844 772.817 162.399 772.817C162.953 772.817 163.391 772.648 163.712 772.31C164.041 771.963 164.206 771.469 164.206 770.828V766.837H165.688ZM169.125 767.877C169.342 767.513 169.628 767.231 169.983 767.032C170.347 766.824 170.776 766.72 171.27 766.72V768.254H170.893C170.312 768.254 169.87 768.401 169.567 768.696C169.272 768.991 169.125 769.502 169.125 770.23V774H167.643V766.837H169.125V767.877ZM185.525 764.965V774H184.043V767.812L181.287 774H180.26L177.491 767.812V774H176.009V764.965H177.608L180.78 772.05L183.939 764.965H185.525ZM194.038 770.243C194.038 770.512 194.021 770.754 193.986 770.971H188.513C188.556 771.543 188.769 772.002 189.15 772.349C189.531 772.696 189.999 772.869 190.554 772.869C191.351 772.869 191.915 772.535 192.244 771.868H193.843C193.626 772.527 193.232 773.068 192.66 773.493C192.097 773.909 191.395 774.117 190.554 774.117C189.869 774.117 189.254 773.965 188.708 773.662C188.171 773.35 187.746 772.917 187.434 772.362C187.131 771.799 186.979 771.149 186.979 770.412C186.979 769.675 187.126 769.03 187.421 768.475C187.724 767.912 188.145 767.478 188.682 767.175C189.228 766.872 189.852 766.72 190.554 766.72C191.23 766.72 191.832 766.867 192.361 767.162C192.89 767.457 193.301 767.873 193.596 768.41C193.891 768.939 194.038 769.55 194.038 770.243ZM192.491 769.775C192.482 769.229 192.287 768.791 191.906 768.462C191.525 768.133 191.052 767.968 190.489 767.968C189.978 767.968 189.54 768.133 189.176 768.462C188.812 768.783 188.595 769.22 188.526 769.775H192.491ZM195.002 770.386C195.002 769.667 195.15 769.03 195.444 768.475C195.748 767.92 196.155 767.491 196.666 767.188C197.186 766.876 197.763 766.72 198.395 766.72C198.863 766.72 199.323 766.824 199.773 767.032C200.233 767.231 200.597 767.5 200.865 767.838V764.38H202.36V774H200.865V772.921C200.623 773.268 200.285 773.554 199.851 773.779C199.427 774.004 198.937 774.117 198.382 774.117C197.758 774.117 197.186 773.961 196.666 773.649C196.155 773.328 195.748 772.886 195.444 772.323C195.15 771.751 195.002 771.105 195.002 770.386ZM200.865 770.412C200.865 769.918 200.761 769.489 200.553 769.125C200.354 768.761 200.09 768.484 199.76 768.293C199.431 768.102 199.076 768.007 198.694 768.007C198.313 768.007 197.958 768.102 197.628 768.293C197.299 768.475 197.03 768.748 196.822 769.112C196.623 769.467 196.523 769.892 196.523 770.386C196.523 770.88 196.623 771.313 196.822 771.686C197.03 772.059 197.299 772.345 197.628 772.544C197.966 772.735 198.322 772.83 198.694 772.83C199.076 772.83 199.431 772.735 199.76 772.544C200.09 772.353 200.354 772.076 200.553 771.712C200.761 771.339 200.865 770.906 200.865 770.412ZM205.061 765.888C204.792 765.888 204.567 765.797 204.385 765.615C204.203 765.433 204.112 765.208 204.112 764.939C204.112 764.67 204.203 764.445 204.385 764.263C204.567 764.081 204.792 763.99 205.061 763.99C205.321 763.99 205.542 764.081 205.724 764.263C205.906 764.445 205.997 764.67 205.997 764.939C205.997 765.208 205.906 765.433 205.724 765.615C205.542 765.797 205.321 765.888 205.061 765.888ZM205.789 766.837V774H204.307V766.837H205.789ZM207.241 770.412C207.241 769.675 207.388 769.03 207.683 768.475C207.986 767.912 208.402 767.478 208.931 767.175C209.459 766.872 210.066 766.72 210.751 766.72C211.617 766.72 212.332 766.928 212.896 767.344C213.468 767.751 213.853 768.336 214.053 769.099H212.454C212.324 768.744 212.116 768.466 211.83 768.267C211.544 768.068 211.184 767.968 210.751 767.968C210.144 767.968 209.659 768.185 209.295 768.618C208.939 769.043 208.762 769.641 208.762 770.412C208.762 771.183 208.939 771.786 209.295 772.219C209.659 772.652 210.144 772.869 210.751 772.869C211.609 772.869 212.176 772.492 212.454 771.738H214.053C213.845 772.466 213.455 773.047 212.883 773.48C212.311 773.905 211.6 774.117 210.751 774.117C210.066 774.117 209.459 773.965 208.931 773.662C208.402 773.35 207.986 772.917 207.683 772.362C207.388 771.799 207.241 771.149 207.241 770.412ZM215.036 770.386C215.036 769.667 215.183 769.03 215.478 768.475C215.781 767.92 216.188 767.491 216.7 767.188C217.22 766.876 217.792 766.72 218.416 766.72C218.979 766.72 219.469 766.833 219.885 767.058C220.309 767.275 220.647 767.548 220.899 767.877V766.837H222.394V774H220.899V772.934C220.647 773.272 220.305 773.554 219.872 773.779C219.438 774.004 218.944 774.117 218.39 774.117C217.774 774.117 217.211 773.961 216.7 773.649C216.188 773.328 215.781 772.886 215.478 772.323C215.183 771.751 215.036 771.105 215.036 770.386ZM220.899 770.412C220.899 769.918 220.795 769.489 220.587 769.125C220.387 768.761 220.123 768.484 219.794 768.293C219.464 768.102 219.109 768.007 218.728 768.007C218.346 768.007 217.991 768.102 217.662 768.293C217.332 768.475 217.064 768.748 216.856 769.112C216.656 769.467 216.557 769.892 216.557 770.386C216.557 770.88 216.656 771.313 216.856 771.686C217.064 772.059 217.332 772.345 217.662 772.544C218 772.735 218.355 772.83 218.728 772.83C219.109 772.83 219.464 772.735 219.794 772.544C220.123 772.353 220.387 772.076 220.587 771.712C220.795 771.339 220.899 770.906 220.899 770.412ZM225.822 764.38V774H224.34V764.38H225.822ZM239.816 766.72C240.379 766.72 240.882 766.837 241.324 767.071C241.775 767.305 242.126 767.652 242.377 768.111C242.637 768.57 242.767 769.125 242.767 769.775V774H241.298V769.996C241.298 769.355 241.138 768.865 240.817 768.527C240.496 768.18 240.059 768.007 239.504 768.007C238.949 768.007 238.507 768.18 238.178 768.527C237.857 768.865 237.697 769.355 237.697 769.996V774H236.228V769.996C236.228 769.355 236.068 768.865 235.747 768.527C235.426 768.18 234.989 768.007 234.434 768.007C233.879 768.007 233.437 768.18 233.108 768.527C232.787 768.865 232.627 769.355 232.627 769.996V774H231.145V766.837H232.627V767.656C232.87 767.361 233.177 767.132 233.55 766.967C233.923 766.802 234.321 766.72 234.746 766.72C235.318 766.72 235.829 766.841 236.28 767.084C236.731 767.327 237.077 767.678 237.32 768.137C237.537 767.704 237.875 767.361 238.334 767.11C238.793 766.85 239.287 766.72 239.816 766.72ZM247.76 774.117C247.084 774.117 246.473 773.965 245.927 773.662C245.381 773.35 244.952 772.917 244.64 772.362C244.328 771.799 244.172 771.149 244.172 770.412C244.172 769.684 244.332 769.038 244.653 768.475C244.973 767.912 245.411 767.478 245.966 767.175C246.52 766.872 247.14 766.72 247.825 766.72C248.509 766.72 249.129 766.872 249.684 767.175C250.238 767.478 250.676 767.912 250.997 768.475C251.317 769.038 251.478 769.684 251.478 770.412C251.478 771.14 251.313 771.786 250.984 772.349C250.654 772.912 250.204 773.35 249.632 773.662C249.068 773.965 248.444 774.117 247.76 774.117ZM247.76 772.83C248.141 772.83 248.496 772.739 248.826 772.557C249.164 772.375 249.437 772.102 249.645 771.738C249.853 771.374 249.957 770.932 249.957 770.412C249.957 769.892 249.857 769.454 249.658 769.099C249.458 768.735 249.194 768.462 248.865 768.28C248.535 768.098 248.18 768.007 247.799 768.007C247.417 768.007 247.062 768.098 246.733 768.28C246.412 768.462 246.156 768.735 245.966 769.099C245.775 769.454 245.68 769.892 245.68 770.412C245.68 771.183 245.875 771.781 246.265 772.206C246.663 772.622 247.162 772.83 247.76 772.83ZM254.425 767.903C254.676 767.556 255.018 767.275 255.452 767.058C255.894 766.833 256.383 766.72 256.921 766.72C257.553 766.72 258.125 766.872 258.637 767.175C259.148 767.478 259.551 767.912 259.846 768.475C260.14 769.03 260.288 769.667 260.288 770.386C260.288 771.105 260.14 771.751 259.846 772.323C259.551 772.886 259.144 773.328 258.624 773.649C258.112 773.961 257.545 774.117 256.921 774.117C256.366 774.117 255.872 774.009 255.439 773.792C255.014 773.575 254.676 773.298 254.425 772.96V774H252.943V764.38H254.425V767.903ZM258.78 770.386C258.78 769.892 258.676 769.467 258.468 769.112C258.268 768.748 258 768.475 257.662 768.293C257.332 768.102 256.977 768.007 256.596 768.007C256.223 768.007 255.868 768.102 255.53 768.293C255.2 768.484 254.932 768.761 254.724 769.125C254.524 769.489 254.425 769.918 254.425 770.412C254.425 770.906 254.524 771.339 254.724 771.712C254.932 772.076 255.2 772.353 255.53 772.544C255.868 772.735 256.223 772.83 256.596 772.83C256.977 772.83 257.332 772.735 257.662 772.544C258 772.345 258.268 772.059 258.468 771.686C258.676 771.313 258.78 770.88 258.78 770.386ZM262.507 765.888C262.239 765.888 262.013 765.797 261.831 765.615C261.649 765.433 261.558 765.208 261.558 764.939C261.558 764.67 261.649 764.445 261.831 764.263C262.013 764.081 262.239 763.99 262.507 763.99C262.767 763.99 262.988 764.081 263.17 764.263C263.352 764.445 263.443 764.67 263.443 764.939C263.443 765.208 263.352 765.433 263.17 765.615C262.988 765.797 262.767 765.888 262.507 765.888ZM263.235 766.837V774H261.753V766.837H263.235ZM266.663 764.38V774H265.181V764.38H266.663ZM275.174 770.243C275.174 770.512 275.156 770.754 275.122 770.971H269.649C269.692 771.543 269.904 772.002 270.286 772.349C270.667 772.696 271.135 772.869 271.69 772.869C272.487 772.869 273.05 772.535 273.38 771.868H274.979C274.762 772.527 274.368 773.068 273.796 773.493C273.232 773.909 272.53 774.117 271.69 774.117C271.005 774.117 270.39 773.965 269.844 773.662C269.306 773.35 268.882 772.917 268.57 772.362C268.266 771.799 268.115 771.149 268.115 770.412C268.115 769.675 268.262 769.03 268.557 768.475C268.86 767.912 269.28 767.478 269.818 767.175C270.364 766.872 270.988 766.72 271.69 766.72C272.366 766.72 272.968 766.867 273.497 767.162C274.025 767.457 274.437 767.873 274.732 768.41C275.026 768.939 275.174 769.55 275.174 770.243ZM273.627 769.775C273.618 769.229 273.423 768.791 273.042 768.462C272.66 768.133 272.188 767.968 271.625 767.968C271.113 767.968 270.676 768.133 270.312 768.462C269.948 768.783 269.731 769.22 269.662 769.775H273.627ZM279.515 770.386C279.515 769.667 279.663 769.03 279.957 768.475C280.261 767.92 280.668 767.491 281.179 767.188C281.699 766.876 282.271 766.72 282.895 766.72C283.459 766.72 283.948 766.833 284.364 767.058C284.789 767.275 285.127 767.548 285.378 767.877V766.837H286.873V774H285.378V772.934C285.127 773.272 284.785 773.554 284.351 773.779C283.918 774.004 283.424 774.117 282.869 774.117C282.254 774.117 281.691 773.961 281.179 773.649C280.668 773.328 280.261 772.886 279.957 772.323C279.663 771.751 279.515 771.105 279.515 770.386ZM285.378 770.412C285.378 769.918 285.274 769.489 285.066 769.125C284.867 768.761 284.603 768.484 284.273 768.293C283.944 768.102 283.589 768.007 283.207 768.007C282.826 768.007 282.471 768.102 282.141 768.293C281.812 768.475 281.543 768.748 281.335 769.112C281.136 769.467 281.036 769.892 281.036 770.386C281.036 770.88 281.136 771.313 281.335 771.686C281.543 772.059 281.812 772.345 282.141 772.544C282.479 772.735 282.835 772.83 283.207 772.83C283.589 772.83 283.944 772.735 284.273 772.544C284.603 772.353 284.867 772.076 285.066 771.712C285.274 771.339 285.378 770.906 285.378 770.412ZM290.302 767.89C290.553 767.561 290.895 767.283 291.329 767.058C291.762 766.833 292.252 766.72 292.798 766.72C293.422 766.72 293.989 766.876 294.501 767.188C295.021 767.491 295.428 767.92 295.723 768.475C296.017 769.03 296.165 769.667 296.165 770.386C296.165 771.105 296.017 771.751 295.723 772.323C295.428 772.886 295.021 773.328 294.501 773.649C293.989 773.961 293.422 774.117 292.798 774.117C292.252 774.117 291.766 774.009 291.342 773.792C290.917 773.567 290.57 773.289 290.302 772.96V777.406H288.82V766.837H290.302V767.89ZM294.657 770.386C294.657 769.892 294.553 769.467 294.345 769.112C294.145 768.748 293.877 768.475 293.539 768.293C293.209 768.102 292.854 768.007 292.473 768.007C292.1 768.007 291.745 768.102 291.407 768.293C291.077 768.484 290.809 768.761 290.601 769.125C290.401 769.489 290.302 769.918 290.302 770.412C290.302 770.906 290.401 771.339 290.601 771.712C290.809 772.076 291.077 772.353 291.407 772.544C291.745 772.735 292.1 772.83 292.473 772.83C292.854 772.83 293.209 772.735 293.539 772.544C293.877 772.345 294.145 772.059 294.345 771.686C294.553 771.313 294.657 770.88 294.657 770.386ZM299.112 767.89C299.364 767.561 299.706 767.283 300.139 767.058C300.573 766.833 301.062 766.72 301.608 766.72C302.232 766.72 302.8 766.876 303.311 767.188C303.831 767.491 304.239 767.92 304.533 768.475C304.828 769.03 304.975 769.667 304.975 770.386C304.975 771.105 304.828 771.751 304.533 772.323C304.239 772.886 303.831 773.328 303.311 773.649C302.8 773.961 302.232 774.117 301.608 774.117C301.062 774.117 300.577 774.009 300.152 773.792C299.728 773.567 299.381 773.289 299.112 772.96V777.406H297.63V766.837H299.112V767.89ZM303.467 770.386C303.467 769.892 303.363 769.467 303.155 769.112C302.956 768.748 302.687 768.475 302.349 768.293C302.02 768.102 301.665 768.007 301.283 768.007C300.911 768.007 300.555 768.102 300.217 768.293C299.888 768.484 299.619 768.761 299.411 769.125C299.212 769.489 299.112 769.918 299.112 770.412C299.112 770.906 299.212 771.339 299.411 771.712C299.619 772.076 299.888 772.353 300.217 772.544C300.555 772.735 300.911 772.83 301.283 772.83C301.665 772.83 302.02 772.735 302.349 772.544C302.687 772.345 302.956 772.059 303.155 771.686C303.363 771.313 303.467 770.88 303.467 770.386Z" fill="#EEEEEE"/>
<path d="M153.03 430.313V451.253H148.83V437.633L143.22 451.253H140.04L134.4 437.633V451.253H130.2V430.313H134.97L141.63 445.883L148.29 430.313H153.03ZM172.632 442.583C172.632 443.183 172.592 443.723 172.512 444.203H160.362C160.462 445.403 160.882 446.343 161.622 447.023C162.362 447.703 163.272 448.043 164.352 448.043C165.912 448.043 167.022 447.373 167.682 446.033H172.212C171.732 447.633 170.812 448.953 169.452 449.993C168.092 451.013 166.422 451.523 164.442 451.523C162.842 451.523 161.402 451.173 160.122 450.473C158.862 449.753 157.872 448.743 157.152 447.443C156.452 446.143 156.102 444.643 156.102 442.943C156.102 441.223 156.452 439.713 157.152 438.413C157.852 437.113 158.832 436.113 160.092 435.413C161.352 434.713 162.802 434.363 164.442 434.363C166.022 434.363 167.432 434.703 168.672 435.383C169.932 436.063 170.902 437.033 171.582 438.293C172.282 439.533 172.632 440.963 172.632 442.583ZM168.282 441.383C168.262 440.303 167.872 439.443 167.112 438.803C166.352 438.143 165.422 437.813 164.322 437.813C163.282 437.813 162.402 438.133 161.682 438.773C160.982 439.393 160.552 440.263 160.392 441.383H168.282ZM174.618 442.883C174.618 441.203 174.948 439.713 175.608 438.413C176.288 437.113 177.208 436.113 178.368 435.413C179.528 434.713 180.818 434.363 182.238 434.363C183.318 434.363 184.348 434.603 185.328 435.083C186.308 435.543 187.088 436.163 187.668 436.943V429.053H191.928V451.253H187.668V448.793C187.148 449.613 186.418 450.273 185.478 450.773C184.538 451.273 183.448 451.523 182.208 451.523C180.808 451.523 179.528 451.163 178.368 450.443C177.208 449.723 176.288 448.713 175.608 447.413C174.948 446.093 174.618 444.583 174.618 442.883ZM187.698 442.943C187.698 441.923 187.498 441.053 187.098 440.333C186.698 439.593 186.158 439.033 185.478 438.653C184.798 438.253 184.068 438.053 183.288 438.053C182.508 438.053 181.788 438.243 181.128 438.623C180.468 439.003 179.928 439.563 179.508 440.303C179.108 441.023 178.908 441.883 178.908 442.883C178.908 443.883 179.108 444.763 179.508 445.523C179.928 446.263 180.468 446.833 181.128 447.233C181.808 447.633 182.528 447.833 183.288 447.833C184.068 447.833 184.798 447.643 185.478 447.263C186.158 446.863 186.698 446.303 187.098 445.583C187.498 444.843 187.698 443.963 187.698 442.943ZM198.16 432.653C197.42 432.653 196.8 432.423 196.3 431.963C195.82 431.483 195.58 430.893 195.58 430.193C195.58 429.493 195.82 428.913 196.3 428.453C196.8 427.973 197.42 427.733 198.16 427.733C198.9 427.733 199.51 427.973 199.99 428.453C200.49 428.913 200.74 429.493 200.74 430.193C200.74 430.893 200.49 431.483 199.99 431.963C199.51 432.423 198.9 432.653 198.16 432.653ZM200.23 434.633V451.253H196.03V434.633H200.23ZM203.3 442.943C203.3 441.223 203.65 439.723 204.35 438.443C205.05 437.143 206.02 436.143 207.26 435.443C208.5 434.723 209.92 434.363 211.52 434.363C213.58 434.363 215.28 434.883 216.62 435.923C217.98 436.943 218.89 438.383 219.35 440.243H214.82C214.58 439.523 214.17 438.963 213.59 438.563C213.03 438.143 212.33 437.933 211.49 437.933C210.29 437.933 209.34 438.373 208.64 439.253C207.94 440.113 207.59 441.343 207.59 442.943C207.59 444.523 207.94 445.753 208.64 446.633C209.34 447.493 210.29 447.923 211.49 447.923C213.19 447.923 214.3 447.163 214.82 445.643H219.35C218.89 447.443 217.98 448.873 216.62 449.933C215.26 450.993 213.56 451.523 211.52 451.523C209.92 451.523 208.5 451.173 207.26 450.473C206.02 449.753 205.05 448.753 204.35 447.473C203.65 446.173 203.3 444.663 203.3 442.943ZM226.626 429.053V451.253H222.426V429.053H226.626ZM246.676 434.633L236.386 459.113H231.916L235.516 450.833L228.856 434.633H233.566L237.856 446.243L242.206 434.633H246.676Z" fill="white"/>
<path d="M134.67 468.998V475.253H133.644V472.517H130.701V475.253H129.675V468.998H130.701V471.68H133.644V468.998H134.67ZM137.947 469.826V471.662H140.107V472.499H137.947V474.416H140.377V475.253H136.921V468.989H140.377V469.826H137.947ZM146.311 473.975H143.692L143.242 475.253H142.171L144.412 468.989H145.6L147.841 475.253H146.761L146.311 473.975ZM146.023 473.138L145.006 470.231L143.98 473.138H146.023ZM150.742 474.425H152.857V475.253H149.716V468.998H150.742V474.425ZM158.656 468.998V469.835H156.991V475.253H155.965V469.835H154.291V468.998H158.656ZM165.59 468.998V475.253H164.564V472.517H161.621V475.253H160.595V468.998H161.621V471.68H164.564V468.998H165.59ZM174.85 473.975H172.231L171.781 475.253H170.71L172.951 468.989H174.139L176.38 475.253H175.3L174.85 473.975ZM174.562 473.138L173.545 470.231L172.519 473.138H174.562ZM179.28 474.425H181.395V475.253H178.254V468.998H179.28V474.425ZM184.179 474.425H186.294V475.253H183.153V468.998H184.179V474.425ZM196.285 468.998V475.253H195.259V472.517H192.316V475.253H191.29V468.998H192.316V471.68H195.259V468.998H196.285ZM202.307 473.975H199.688L199.238 475.253H198.167L200.408 468.989H201.596L203.837 475.253H202.757L202.307 473.975ZM202.019 473.138L201.002 470.231L199.976 473.138H202.019ZM210.085 470.861C210.085 471.179 210.01 471.479 209.86 471.761C209.71 472.043 209.47 472.274 209.14 472.454C208.81 472.628 208.387 472.715 207.871 472.715H206.737V475.253H205.711V468.998H207.871C208.351 468.998 208.756 469.082 209.086 469.25C209.422 469.412 209.671 469.634 209.833 469.916C210.001 470.198 210.085 470.513 210.085 470.861ZM207.871 471.878C208.261 471.878 208.552 471.791 208.744 471.617C208.936 471.437 209.032 471.185 209.032 470.861C209.032 470.177 208.645 469.835 207.871 469.835H206.737V471.878H207.871ZM216.337 470.861C216.337 471.179 216.262 471.479 216.112 471.761C215.962 472.043 215.722 472.274 215.392 472.454C215.062 472.628 214.639 472.715 214.123 472.715H212.989V475.253H211.963V468.998H214.123C214.603 468.998 215.008 469.082 215.338 469.25C215.674 469.412 215.923 469.634 216.085 469.916C216.253 470.198 216.337 470.513 216.337 470.861ZM214.123 471.878C214.513 471.878 214.804 471.791 214.996 471.617C215.188 471.437 215.284 471.185 215.284 470.861C215.284 470.177 214.897 469.835 214.123 469.835H212.989V471.878H214.123ZM219.242 468.998V475.253H218.216V468.998H219.242ZM226.628 475.253H225.602L222.515 470.582V475.253H221.489V468.989H222.515L225.602 473.651V468.989H226.628V475.253ZM229.901 469.826V471.662H232.061V472.499H229.901V474.416H232.331V475.253H228.875V468.989H232.331V469.826H229.901ZM236.556 475.316C236.136 475.316 235.758 475.244 235.422 475.1C235.086 474.95 234.822 474.74 234.63 474.47C234.438 474.2 234.342 473.885 234.342 473.525H235.44C235.464 473.795 235.569 474.017 235.755 474.191C235.947 474.365 236.214 474.452 236.556 474.452C236.91 474.452 237.186 474.368 237.384 474.2C237.582 474.026 237.681 473.804 237.681 473.534C237.681 473.324 237.618 473.153 237.492 473.021C237.372 472.889 237.219 472.787 237.033 472.715C236.853 472.643 236.601 472.565 236.277 472.481C235.869 472.373 235.536 472.265 235.278 472.157C235.026 472.043 234.81 471.869 234.63 471.635C234.45 471.401 234.36 471.089 234.36 470.699C234.36 470.339 234.45 470.024 234.63 469.754C234.81 469.484 235.062 469.277 235.386 469.133C235.71 468.989 236.085 468.917 236.511 468.917C237.117 468.917 237.612 469.07 237.996 469.376C238.386 469.676 238.602 470.09 238.644 470.618H237.51C237.492 470.39 237.384 470.195 237.186 470.033C236.988 469.871 236.727 469.79 236.403 469.79C236.109 469.79 235.869 469.865 235.683 470.015C235.497 470.165 235.404 470.381 235.404 470.663C235.404 470.855 235.461 471.014 235.575 471.14C235.695 471.26 235.845 471.356 236.025 471.428C236.205 471.5 236.451 471.578 236.763 471.662C237.177 471.776 237.513 471.89 237.771 472.004C238.035 472.118 238.257 472.295 238.437 472.535C238.623 472.769 238.716 473.084 238.716 473.48C238.716 473.798 238.629 474.098 238.455 474.38C238.287 474.662 238.038 474.89 237.708 475.064C237.384 475.232 237 475.316 236.556 475.316ZM242.888 475.316C242.468 475.316 242.09 475.244 241.754 475.1C241.418 474.95 241.154 474.74 240.962 474.47C240.77 474.2 240.674 473.885 240.674 473.525H241.772C241.796 473.795 241.901 474.017 242.087 474.191C242.279 474.365 242.546 474.452 242.888 474.452C243.242 474.452 243.518 474.368 243.716 474.2C243.914 474.026 244.013 473.804 244.013 473.534C244.013 473.324 243.95 473.153 243.824 473.021C243.704 472.889 243.551 472.787 243.365 472.715C243.185 472.643 242.933 472.565 242.609 472.481C242.201 472.373 241.868 472.265 241.61 472.157C241.358 472.043 241.142 471.869 240.962 471.635C240.782 471.401 240.692 471.089 240.692 470.699C240.692 470.339 240.782 470.024 240.962 469.754C241.142 469.484 241.394 469.277 241.718 469.133C242.042 468.989 242.417 468.917 242.843 468.917C243.449 468.917 243.944 469.07 244.328 469.376C244.718 469.676 244.934 470.09 244.976 470.618H243.842C243.824 470.39 243.716 470.195 243.518 470.033C243.32 469.871 243.059 469.79 242.735 469.79C242.441 469.79 242.201 469.865 242.015 470.015C241.829 470.165 241.736 470.381 241.736 470.663C241.736 470.855 241.793 471.014 241.907 471.14C242.027 471.26 242.177 471.356 242.357 471.428C242.537 471.5 242.783 471.578 243.095 471.662C243.509 471.776 243.845 471.89 244.103 472.004C244.367 472.118 244.589 472.295 244.769 472.535C244.955 472.769 245.048 473.084 245.048 473.48C245.048 473.798 244.961 474.098 244.787 474.38C244.619 474.662 244.37 474.89 244.04 475.064C243.716 475.232 243.332 475.316 242.888 475.316Z" fill="white"/>
<path d="M201.753 353.879C206.289 353.894 210.822 353.898 215.352 353.892C219.048 353.888 220.907 354.947 220.916 358.76C220.928 364.653 220.925 370.54 220.907 376.424C220.898 379.801 220.13 381.961 216.465 382.011C212.271 382.068 208.079 382.03 203.89 381.898C203.774 381.895 203.714 381.835 203.711 381.719L203.603 377.933C203.6 377.771 203.678 377.69 203.836 377.69H216.097C216.216 377.69 216.33 377.642 216.415 377.557C216.499 377.472 216.546 377.357 216.546 377.237L216.537 358.491C216.537 358.341 216.464 358.266 216.317 358.266H197.576C197.46 358.266 197.35 358.22 197.268 358.137C197.186 358.055 197.14 357.943 197.14 357.826L197.109 337.616C197.109 337.44 197.02 337.354 196.844 337.36C190.381 337.598 186.285 345.561 187.947 351.161C188.579 353.299 189.675 355.537 191.234 357.876C198.371 368.573 208.112 380.623 196.363 392.852C196.291 392.927 196.266 392.913 196.287 392.812C198.241 384.279 195.694 378.723 191.455 371.484C186.91 363.723 178.152 352.98 181.368 343.28C183.438 337.015 190.341 333.283 196.66 333.009C200.845 332.829 201.658 335.488 201.667 339.067C201.673 343.926 201.625 348.786 201.524 353.645C201.521 353.801 201.597 353.879 201.753 353.879Z" fill="white"/>
<path d="M178.044 398.574C179.748 398.472 181.255 397.926 182.567 396.935C190.233 391.132 187.435 383.538 182.89 376.855C180.444 373.256 178.164 369.557 176.05 365.758C171.456 357.49 172.04 350.039 178.597 343.015C178.824 342.772 178.891 342.81 178.799 343.127C176.189 351.903 180.065 359.371 184.88 366.687C191.266 376.392 200.985 391.5 187.148 400.276C183.636 402.504 173.355 405.962 173.414 398.192C173.453 392.884 173.447 387.575 173.396 382.267C173.396 382.111 173.317 382.033 173.158 382.033C168.331 382.105 163.528 382.081 158.746 381.961C155.481 381.876 154.03 380.551 154.017 377.34C153.996 371.421 153.994 365.499 154.012 359.573C154.021 356.542 154.659 354.117 158.009 353.919C159.836 353.814 164.155 353.82 170.966 353.937C171.098 353.94 171.165 354.007 171.168 354.139L171.299 358.037C171.302 358.19 171.227 358.267 171.074 358.267H158.953C158.563 358.267 158.37 358.46 158.373 358.846L158.477 377.457C158.477 377.613 158.554 377.69 158.71 377.69H177.469C177.559 377.69 177.644 377.726 177.707 377.789C177.771 377.852 177.806 377.938 177.806 378.027V398.345C177.806 398.506 177.885 398.583 178.044 398.574Z" fill="white"/>
</svg>
